<?xml version="1.0" standalone="no"?>
<!DOCTYPE svg PUBLIC "-//W3C//DTD SVG 20010904//EN"
 "http://www.w3.org/TR/2001/REC-SVG-20010904/DTD/svg10.dtd">
<svg version="1.0" xmlns="http://www.w3.org/2000/svg"
 width="300.000000pt" height="300.000000pt" viewBox="0 0 450.000000 450.000000"
 preserveAspectRatio="xMidYMid meet">

<g transform="translate(0.000000,450.000000) scale(0.100000,-0.100000)"
fill="#AAAAAA" stroke="none">
<path d="M2495 4073 c-74 -9 -269 -47 -360 -70 -136 -33 -324 -109 -518 -207
-250 -127 -597 -335 -597 -358 0 -6 34 -77 77 -158 l76 -147 96 70 c181 131
428 265 759 411 204 91 341 138 385 134 41 -4 46 -37 14 -93 -19 -33 -29 -41
-67 -48 -220 -41 -391 -110 -660 -270 -199 -118 -473 -316 -595 -429 l-70 -65
95 -126 c52 -69 98 -126 101 -126 4 -1 37 24 75 55 286 235 655 476 869 568
90 39 189 65 201 53 4 -3 -2 -28 -14 -54 -11 -26 -23 -69 -27 -95 -6 -42 -4
-49 20 -74 25 -25 30 -26 99 -21 51 4 123 22 237 61 90 30 171 56 179 58 12 2
14 -6 12 -42 -5 -66 13 -85 80 -85 29 1 107 11 173 23 66 12 161 25 210 29
l91 6 32 110 c17 60 29 114 26 119 -7 10 -242 9 -322 -2 -46 -6 -53 -4 -48 9
3 9 13 40 23 68 l18 53 141 0 141 0 12 28 c7 15 28 69 47 120 28 79 31 94 18
99 -8 3 -89 4 -180 1 -90 -2 -164 -2 -164 1 0 3 7 25 16 48 20 51 11 82 -30
108 -47 31 -208 30 -388 -1 l-37 -7 21 44 c12 24 23 64 26 89 5 56 -22 94 -76
110 -35 9 -153 11 -217 3z m432 -534 c16 -16 -5 -58 -31 -64 -12 -3 -64 -16
-116 -28 -104 -26 -108 -24 -93 35 9 32 12 34 89 50 96 20 136 22 151 7z"/>
<path d="M3561 3564 c-24 -31 -26 -43 -10 -78 16 -35 63 -50 99 -31 30 15 40
33 40 71 0 61 -90 88 -129 38z m99 -4 c24 -24 25 -48 4 -78 -31 -44 -104 -20
-104 35 0 57 61 82 100 43z"/>
<path d="M3591 3518 c1 -24 3 -35 6 -25 5 21 22 22 29 2 4 -8 11 -15 16 -15 7
0 6 5 -1 13 -8 10 -7 17 1 25 17 17 1 42 -27 42 -23 0 -25 -3 -24 -42z m40 17
c-1 -15 -24 -12 -29 3 -3 9 2 13 12 10 10 -1 17 -7 17 -13z"/>
<path d="M460 2631 c-188 -36 -347 -183 -395 -366 -84 -322 157 -635 489 -635
38 0 96 7 128 16 l58 17 0 79 0 78 -42 -22 c-36 -19 -59 -22 -143 -23 -90 0
-106 3 -157 28 -75 37 -138 99 -174 172 -26 54 -29 70 -29 160 0 86 3 107 24
150 81 164 275 253 431 198 30 -11 63 -23 73 -28 16 -7 18 -1 15 70 l-3 78
-40 14 c-50 17 -176 25 -235 14z"/>
<path d="M4090 2631 c-44 -14 -94 -43 -123 -70 -95 -87 -101 -273 -12 -364 42
-44 60 -53 183 -101 116 -44 145 -65 171 -119 26 -54 26 -70 0 -123 -50 -105
-249 -115 -339 -18 -13 13 -27 24 -31 24 -3 0 -25 -24 -48 -54 l-41 -55 39
-30 c56 -44 156 -89 216 -96 57 -8 156 13 203 42 15 9 46 35 70 57 109 104
109 309 0 401 -40 34 -131 80 -188 95 -112 30 -166 88 -157 168 4 37 12 53 41
79 33 31 41 33 105 33 57 0 79 -5 126 -30 31 -16 61 -30 65 -30 4 0 23 23 41
51 37 59 41 52 -70 106 -61 30 -86 37 -150 39 -42 2 -87 0 -101 -5z"/>
<path d="M1075 2228 c-71 -150 -159 -337 -196 -415 l-68 -143 69 0 68 0 54 95
53 95 155 0 155 0 48 -95 47 -95 70 0 c38 0 70 2 70 3 0 8 -382 813 -389 820
-4 4 -65 -115 -136 -265z m137 -246 c-52 -1 -97 -1 -99 2 -4 3 18 58 75 186
l15 35 52 -110 52 -110 -95 -3z"/>
<path d="M1690 2077 l0 -407 60 0 60 0 2 261 3 261 176 -164 c97 -89 231 -214
298 -277 l121 -113 0 416 0 416 -67 0 -68 0 3 -267 3 -267 -28 25 c-15 14
-136 126 -268 249 -132 123 -252 235 -267 249 l-28 25 0 -407z"/>
<path d="M2490 2075 l0 -405 60 0 60 0 0 261 c0 147 4 259 9 257 5 -1 140
-126 300 -276 l291 -273 0 416 0 415 -65 0 -65 0 -2 -265 -3 -265 -287 270
c-158 149 -290 270 -293 270 -3 0 -5 -182 -5 -405z"/>
<path d="M3290 2075 l0 -405 253 2 252 3 0 55 0 55 -188 3 -188 2 3 123 3 122
183 0 182 0 0 58 0 57 -185 0 -185 0 0 105 0 105 185 0 185 0 0 60 0 60 -250
0 -250 0 0 -405z"/>
<path d="M912 1466 c-29 -30 -52 -57 -52 -60 0 -3 14 -6 32 -6 24 0 43 10 73
40 l41 40 39 -40 c30 -31 47 -40 72 -40 18 0 33 2 33 5 0 3 -23 30 -52 60 -47
49 -56 55 -93 55 -37 0 -47 -6 -93 -54z"/>
<path d="M1190 1495 c0 -13 188 -15 1635 -15 1447 0 1635 2 1635 15 0 13 -188
15 -1635 15 -1447 0 -1635 -2 -1635 -15z"/>
<path d="M30 1490 c0 -7 143 -10 410 -10 267 0 410 3 410 10 0 7 -143 10 -410
10 -267 0 -410 -3 -410 -10z"/>
<path d="M633 1320 c-83 -50 -137 -271 -113 -464 27 -216 123 -321 220 -240
30 26 31 26 45 8 13 -17 14 -4 14 106 -1 127 -5 130 -28 18 -19 -90 -72 -155
-108 -132 -30 18 -42 57 -54 165 -13 114 -6 375 12 449 20 87 70 108 108 46
23 -38 51 -129 51 -167 0 -15 5 -31 10 -34 6 -4 10 39 10 122 -1 109 -3 125
-14 111 -17 -23 -21 -23 -60 7 -40 30 -51 31 -93 5z"/>
<path d="M975 1331 c-48 -20 -97 -116 -116 -225 -14 -85 -6 -283 14 -347 66
-206 185 -226 255 -44 80 207 35 551 -78 610 -32 17 -46 18 -75 6z m85 -77
c11 -31 14 -96 15 -299 0 -240 -2 -263 -20 -300 -35 -71 -85 -53 -105 38 -6
29 -11 146 -11 262 0 250 14 343 53 358 22 8 52 -19 68 -59z"/>
<path d="M2424 1305 c-27 -66 -1 -145 45 -130 18 5 18 3 10 -36 -11 -50 -27
-80 -48 -96 -9 -6 -12 -15 -8 -20 13 -12 54 41 66 85 15 51 13 172 -2 202 -20
39 -45 37 -63 -5z"/>
<path d="M2686 1329 c-2 -8 -29 -160 -61 -339 -40 -230 -62 -333 -75 -351 -23
-32 -18 -39 31 -39 42 0 63 18 30 27 -25 6 -26 19 -9 126 l11 77 48 0 47 0 16
-87 c20 -110 20 -110 -5 -116 -42 -11 -6 -27 61 -27 68 0 94 11 66 27 -9 5
-23 52 -36 123 -47 256 -112 585 -116 589 -2 2 -5 -2 -8 -10z m9 -424 l6 -50
-38 1 c-43 2 -42 -5 -23 114 18 117 22 123 36 50 7 -36 15 -87 19 -115z"/>
<path d="M1201 1208 c1 -101 2 -108 11 -63 16 87 31 127 55 142 52 34 52 31
50 -324 l-2 -328 -23 -3 c-13 -2 -21 -9 -19 -15 2 -8 34 -13 85 -15 68 -2 82
0 82 13 0 8 -9 15 -20 15 -20 0 -20 7 -20 335 0 318 1 335 18 335 42 0 81 -80
82 -167 0 -18 5 -33 10 -33 6 0 10 43 10 110 l0 110 -160 0 -160 0 1 -112z"/>
<path d="M1530 1311 c0 -5 10 -11 23 -13 l22 -3 3 -332 2 -332 -22 -3 c-13 -2
-22 -7 -20 -13 1 -6 58 -10 145 -10 l142 0 2 115 1 115 -14 -75 c-18 -101 -37
-124 -103 -128 l-51 -3 0 170 c0 161 1 171 19 171 29 0 43 -25 57 -98 11 -64
12 -60 12 103 0 162 -1 167 -13 108 -13 -69 -28 -93 -56 -93 -18 0 -19 10 -19
155 l0 155 38 0 c61 0 102 -57 102 -141 0 -21 5 -39 10 -39 6 0 10 40 10 100
l0 100 -145 0 c-83 0 -145 -4 -145 -9z"/>
<path d="M2010 1310 c0 -5 9 -10 20 -10 20 0 20 -7 20 -334 0 -331 0 -334 -21
-339 -12 -3 -18 -10 -14 -16 11 -19 185 -14 225 7 81 40 124 158 124 342 1
170 -28 266 -99 328 -35 32 -37 32 -145 32 -67 0 -110 -4 -110 -10z m223 -39
c34 -41 47 -126 47 -307 0 -241 -30 -334 -107 -334 l-33 0 0 335 0 335 34 0
c26 0 40 -7 59 -29z"/>
<path d="M2891 1208 c1 -112 7 -113 24 -6 3 21 17 51 31 68 22 26 32 30 75 30
27 0 49 -2 49 -6 0 -3 -43 -148 -97 -322 -53 -174 -96 -328 -97 -342 l-1 -25
141 -3 141 -3 7 32 c3 17 6 75 5 128 l-1 96 -17 -80 c-19 -89 -32 -120 -61
-135 -20 -11 -120 -14 -120 -3 0 8 119 406 166 557 19 60 34 113 34 118 0 4
-63 8 -140 8 l-140 0 1 -112z"/>
<path d="M3200 1310 c0 -5 9 -10 19 -10 19 0 20 -11 23 -282 4 -241 7 -290 22
-330 46 -122 166 -133 222 -21 17 34 20 71 24 326 5 260 7 290 23 301 27 21
20 26 -33 26 -27 0 -50 -4 -50 -10 0 -5 7 -10 15 -10 31 0 37 -51 33 -310 -3
-235 -5 -259 -25 -302 -16 -35 -29 -49 -49 -54 -35 -9 -55 4 -79 52 -18 36
-20 64 -23 322 -4 281 -4 283 17 289 46 12 17 23 -59 23 -47 0 -80 -4 -80 -10z"/>
<path d="M3570 1310 c0 -5 9 -10 20 -10 20 0 20 -7 20 -335 0 -333 0 -335 -21
-335 -12 0 -19 -5 -17 -12 3 -9 31 -14 81 -16 64 -2 77 0 77 13 0 8 -9 15 -20
15 -19 0 -20 7 -20 165 0 181 4 194 55 161 30 -20 33 -30 43 -188 10 -143 23
-178 71 -178 15 0 35 8 44 18 23 25 21 35 -3 27 -11 -3 -20 -5 -21 -3 -1 2 -4
60 -8 129 -6 105 -11 131 -30 162 -12 20 -31 39 -41 42 -27 9 -25 19 5 33 45
21 65 68 65 153 0 84 -22 132 -70 156 -30 15 -230 18 -230 3z m193 -25 c19
-19 31 -127 22 -197 -9 -71 -27 -98 -65 -98 l-30 0 0 155 0 155 29 0 c16 0 36
-7 44 -15z"/>
<path d="M40 485 c0 -13 252 -15 2210 -15 1958 0 2210 2 2210 15 0 13 -252 15
-2210 15 -1958 0 -2210 -2 -2210 -15z"/>
</g>
</svg>
