<?xml version="1.0" standalone="no"?>
<!DOCTYPE svg PUBLIC "-//W3C//DTD SVG 20010904//EN"
 "http://www.w3.org/TR/2001/REC-SVG-20010904/DTD/svg10.dtd">
<svg version="1.0" xmlns="http://www.w3.org/2000/svg"
 width="705.000000pt" height="684.000000pt" viewBox="0 0 705.000000 684.000000"
 preserveAspectRatio="xMidYMid meet">

<g transform="translate(0.000000,684.000000) scale(0.100000,-0.100000)"
fill="#AAAAAA" stroke="none">
<path d="M3445 6830 c-110 -7 -157 -29 -217 -102 -24 -28 -64 -74 -90 -102
l-46 -51 -51 19 c-47 16 -54 17 -105 2 -75 -22 -197 -106 -256 -177 -76 -91
-130 -198 -160 -316 -10 -40 -13 -43 -46 -43 -169 0 -357 -122 -440 -287 -33
-65 -38 -85 -42 -162 -6 -124 12 -181 83 -260 30 -34 55 -66 55 -72 0 -5 -25
-39 -56 -76 -79 -92 -104 -150 -104 -239 0 -143 62 -277 187 -401 46 -45 83
-87 83 -93 0 -18 -29 -68 -77 -134 l-45 -61 4 -85 c4 -80 8 -92 66 -210 62
-126 91 -215 93 -280 1 -19 5 -46 9 -60 7 -22 8 -21 9 12 1 47 10 52 57 32 28
-12 59 -15 114 -12 94 6 155 35 306 148 117 87 143 110 106 90 -13 -6 -25 -10
-27 -8 -1 2 -5 64 -7 138 -4 103 -3 130 6 116 6 -11 23 -33 37 -49 42 -49 67
-35 124 73 34 64 53 90 67 90 23 0 52 -46 79 -127 20 -62 21 -63 58 -63 45 0
74 27 123 114 60 106 78 101 123 -35 14 -42 32 -83 40 -89 25 -21 56 1 102 73
51 80 79 114 106 128 14 8 24 3 48 -23 29 -31 31 -31 24 -8 -11 38 -42 95 -59
109 -27 23 -55 1 -108 -85 -28 -46 -56 -89 -63 -94 -8 -7 -27 15 -66 78 -39
63 -60 88 -77 90 -31 5 -42 -6 -108 -100 -47 -68 -96 -112 -107 -97 -2 2 -17
33 -34 69 -38 83 -79 132 -107 128 -20 -3 -29 -20 -71 -140 -34 -99 -86 -66
-172 110 l-56 113 7 102 c10 139 10 139 61 18 42 -101 48 -109 93 -117 30 -6
39 -3 58 19 12 14 25 45 29 69 4 24 13 58 21 76 19 46 9 40 -22 -15 -35 -61
-54 -83 -71 -83 -26 0 -60 45 -67 89 -10 64 -31 98 -70 112 l-33 12 3 150 c2
82 6 152 9 155 3 3 16 -5 30 -18 l25 -23 -20 57 c-68 192 -55 283 45 321 40
16 55 16 138 5 109 -14 151 -31 274 -111 51 -33 123 -74 159 -91 l66 -31 74
16 c41 9 139 43 218 76 79 33 168 67 198 75 137 40 328 43 328 6 0 -28 -56
-239 -80 -303 -55 -145 -100 -139 -140 20 -6 22 -19 51 -29 64 -18 22 -20 22
-43 7 -14 -9 -46 -57 -71 -105 -84 -163 -114 -161 -166 13 -12 40 -28 77 -36
84 -27 23 -62 3 -97 -55 -75 -126 -89 -146 -104 -152 -24 -9 -34 8 -68 108
-37 111 -58 131 -100 98 -15 -12 -52 -59 -82 -104 -53 -80 -79 -104 -95 -88
-4 4 -19 40 -34 78 -53 142 -77 150 -131 43 -62 -125 -106 -154 -154 -103 -31
33 -36 25 -11 -22 45 -90 79 -77 141 53 61 126 70 125 148 -21 26 -48 55 -93
64 -99 28 -17 69 21 109 103 21 40 44 80 53 89 14 14 18 15 31 1 8 -8 30 -52
49 -98 37 -88 51 -111 70 -111 20 0 61 51 100 125 48 88 62 104 87 98 25 -7
44 -43 59 -115 16 -82 75 -125 111 -82 8 9 34 58 59 108 61 123 70 123 144 12
32 -48 64 -86 71 -86 8 0 26 23 41 51 24 48 78 109 96 109 25 0 0 -200 -42
-341 -12 -39 -24 -79 -26 -88 -3 -9 2 -4 11 11 14 25 52 54 60 46 7 -7 -15
-299 -26 -344 -15 -63 -41 -113 -72 -142 -47 -44 -61 -30 -126 121 -28 64 -31
67 -64 67 -45 0 -63 -22 -86 -105 -24 -84 -49 -114 -85 -97 l-25 11 16 -34 c9
-19 24 -35 33 -35 19 0 49 50 80 132 33 88 46 84 129 -40 51 -76 79 -96 123
-88 l33 6 0 -100 c0 -66 -4 -100 -11 -100 -6 0 -40 19 -75 42 -99 64 -158 88
-214 88 -67 0 -111 -23 -235 -120 -58 -45 -127 -93 -154 -107 l-49 -25 -33 38
c-18 22 -33 42 -34 46 0 14 -135 118 -190 147 -100 53 -199 37 -300 -49 l-35
-30 60 30 c120 60 229 46 317 -41 73 -73 77 -137 13 -208 -63 -69 -157 -96
-233 -66 -49 20 -53 30 -13 38 59 12 181 168 181 233 0 48 -60 61 -153 35 -30
-9 -125 -65 -248 -147 -312 -207 -455 -268 -508 -215 -27 27 -26 21 3 -37 13
-26 47 -69 75 -95 54 -51 81 -64 39 -19 -29 31 -62 81 -57 86 2 1 37 8 77 15
105 19 193 67 312 171 56 49 120 101 141 116 78 54 91 0 30 -122 -91 -181
-256 -324 -374 -324 -53 0 -24 -9 69 -21 155 -19 285 13 382 94 53 45 83 47
178 11 37 -14 82 -24 98 -23 17 2 52 -7 77 -19 110 -53 213 -52 394 7 77 25
85 29 53 30 -51 1 -87 17 -126 54 -74 71 -96 170 -57 252 l20 40 11 -65 c14
-87 22 -109 51 -148 23 -31 127 -92 157 -92 26 0 28 -20 4 -30 -23 -10 -23
-10 2 -6 100 18 119 18 137 0 68 -68 218 -122 363 -131 197 -12 311 49 374
200 l15 38 -22 -16 c-69 -49 -204 13 -476 219 -164 124 -228 155 -314 156 -75
0 -107 -27 -107 -92 0 -24 4 -49 9 -57 5 -8 8 2 7 29 -1 34 4 46 27 66 31 27
100 33 128 11 48 -37 53 -115 10 -158 -16 -16 -36 -29 -45 -29 -25 0 -70 20
-95 43 l-24 22 18 -31 c35 -61 108 -81 166 -47 21 12 29 25 29 45 0 33 29 98
44 98 32 -1 102 -47 186 -124 162 -147 233 -186 344 -186 l61 0 -46 -44 c-69
-66 -160 -83 -278 -51 -124 33 -262 136 -292 218 -7 20 -16 36 -19 34 -70 -41
-173 -51 -227 -23 -73 37 -115 126 -94 196 26 86 138 150 240 136 62 -8 152
-53 232 -113 90 -68 92 -69 70 -31 -23 39 -47 148 -38 171 5 14 11 13 49 -8
24 -14 59 -25 78 -25 l35 0 -33 20 c-65 40 -122 170 -107 242 20 90 72 148
206 229 110 66 110 41 5 284 -31 73 -32 104 -6 187 11 34 20 69 20 76 0 23
-56 -14 -68 -45 -6 -15 -17 -41 -23 -58 l-11 -30 -13 35 c-18 47 -18 103 0
146 8 19 52 72 99 118 91 90 112 122 122 185 4 23 8 41 11 41 21 0 75 -34 102
-65 30 -35 33 -43 29 -87 -3 -30 -15 -62 -31 -85 -14 -20 -24 -40 -22 -43 3
-4 28 -10 57 -14 102 -13 166 -47 188 -101 7 -15 9 -8 9 26 1 77 -56 129 -143
129 l-45 0 11 32 c13 37 4 351 -12 392 -6 18 -17 26 -33 26 -32 0 -57 -20
-107 -84 -23 -31 -48 -56 -54 -56 -20 0 -76 58 -76 78 0 29 37 56 144 102 119
52 156 81 156 121 0 16 -2 29 -5 29 -2 0 -60 -27 -127 -61 -68 -33 -139 -68
-158 -77 -51 -25 -52 -66 -4 -159 20 -40 35 -76 31 -79 -14 -15 -80 21 -121
67 -74 82 -103 207 -72 314 21 72 55 107 126 130 30 9 77 29 103 43 46 24 51
25 105 14 118 -25 212 -89 281 -193 115 -172 105 -376 -22 -499 -26 -25 -47
-50 -47 -55 0 -6 19 -29 41 -50 168 -161 186 -277 72 -467 -105 -175 -164
-235 -203 -210 -39 24 -78 12 -170 -49 -50 -34 -167 -147 -215 -209 -20 -25
-20 -25 0 -9 29 24 81 49 102 49 15 0 18 -7 15 -52 l-3 -53 30 62 c51 107 147
193 215 193 14 0 41 -13 60 -30 l35 -31 -10 34 c-13 50 -1 72 84 156 115 112
167 227 167 368 0 89 -13 124 -84 217 -75 99 -76 103 -21 167 200 234 30 604
-320 696 l-68 18 -23 105 c-42 188 -98 296 -186 360 -63 46 -132 62 -246 59
-73 -3 -102 0 -118 11 -46 33 -82 68 -138 135 -33 39 -69 76 -80 84 -12 8 -5
-3 15 -25 20 -21 56 -69 82 -105 25 -36 62 -80 82 -97 l36 -32 -40 -58 c-22
-33 -63 -80 -91 -105 -33 -30 -46 -47 -36 -47 33 0 74 30 140 104 81 90 114
104 193 81 67 -20 128 -66 155 -117 31 -58 30 -158 -1 -251 -24 -71 -22 -89 7
-71 38 23 55 82 54 183 0 53 -5 111 -11 130 -6 19 -8 37 -5 40 2 3 24 -1 47
-9 61 -21 86 -77 103 -228 7 -65 15 -124 17 -132 5 -19 -236 -130 -298 -137
-54 -7 -88 21 -111 89 -30 90 -16 311 25 421 8 22 8 27 -4 27 -42 0 -85 -155
-85 -305 0 -126 19 -196 66 -243 33 -33 36 -34 99 -30 56 3 65 2 59 -12 -35
-80 -40 -181 -14 -272 29 -99 129 -192 222 -204 47 -6 49 -8 43 -32 -10 -42
-75 -134 -143 -204 -70 -73 -92 -83 -92 -42 0 81 44 158 123 215 l40 29 -34 0
c-19 0 -53 -11 -76 -24 l-41 -24 -6 42 c-17 112 -74 144 -276 156 -193 11
-242 38 -256 142 -7 47 -6 49 37 87 44 39 44 39 44 108 0 58 -5 79 -34 137
-91 185 -299 300 -411 229 -43 -27 -213 -223 -236 -270 -30 -65 -23 -112 31
-205 66 -113 63 -109 77 -143 12 -30 13 -29 16 23 2 44 6 53 19 48 8 -3 46
-11 85 -17 70 -11 189 -2 268 21 50 14 50 15 50 -42 0 -59 24 -109 61 -129 15
-8 75 -11 183 -10 183 1 214 -8 242 -74 24 -58 21 -61 -58 -69 -101 -9 -206
-38 -388 -106 -176 -66 -247 -85 -291 -76 -16 3 -57 24 -90 47 -154 104 -304
157 -457 161 -101 3 -112 12 -59 52 26 19 42 21 185 21 101 0 164 4 177 12 32
18 53 45 60 78 l7 30 -14 -25 c-18 -33 -57 -45 -215 -64 -181 -22 -226 -33
-272 -67 -56 -40 -81 -94 -94 -206 l-11 -94 -84 83 c-86 85 -142 159 -142 189
0 12 12 18 41 23 88 14 162 75 216 178 23 44 28 66 28 128 0 91 -22 158 -75
232 l-38 54 14 54 c16 61 18 109 5 128 -11 17 -36 -44 -46 -112 -7 -45 -9 -47
-34 -41 -44 10 -64 43 -57 94 8 58 57 156 115 228 77 96 188 126 283 77 18 -9
67 -50 110 -91 67 -66 77 -72 83 -55 22 72 -102 170 -248 197 -20 4 -37 11
-37 15 0 5 14 20 32 35 30 25 38 27 98 22 79 -6 213 -57 253 -96 57 -56 56
-146 -3 -299 -35 -92 -48 -106 -96 -104 -69 3 -172 68 -318 201 -43 39 -84 70
-90 68 -27 -9 -16 -47 26 -90 61 -61 185 -153 238 -176 104 -45 200 -32 239
33 36 60 91 214 97 273 6 51 3 65 -21 110 l-26 52 20 47 c21 47 26 76 15 87
-4 3 -31 -27 -61 -68 -47 -65 -57 -74 -73 -65 -32 17 -33 29 -5 86 37 76 116
159 170 180 121 46 270 -40 390 -224 38 -60 49 -71 61 -61 41 34 -5 158 -98
263 -51 57 -51 60 2 69 39 7 -165 4 -265 -3z m170 -650 c40 -27 149 -140 142
-147 -2 -1 -21 3 -43 9 -22 7 -103 12 -191 13 -84 0 -153 3 -153 6 0 16 85
121 108 134 43 23 89 18 137 -15z m-131 -247 c-6 -79 0 -142 21 -226 7 -26 5
-27 -28 -27 -34 0 -35 1 -53 68 -11 38 -19 100 -19 144 0 67 3 80 24 102 14
14 33 26 43 26 17 0 18 -7 12 -87z m114 -45 c2 -142 -6 -193 -29 -193 -7 0
-24 25 -36 55 -47 116 -18 268 52 270 7 0 11 -49 13 -132z m-227 120 c5 -15
23 -308 19 -308 -18 0 -50 35 -61 68 -26 76 -8 242 27 242 8 0 14 -1 15 -2z
m313 -45 c11 -51 2 -263 -11 -263 -56 0 -77 138 -42 273 9 32 12 36 29 27 10
-5 21 -22 24 -37z m70 5 c25 -36 20 -151 -10 -238 -4 -11 -10 -7 -22 15 -18
32 -21 117 -8 198 8 52 17 58 40 25z m-1173 -4 c172 -51 226 -282 99 -427 -41
-46 -87 -79 -127 -91 -21 -7 -22 -5 -14 21 5 15 12 40 15 55 l6 26 -29 -29
c-36 -35 -45 -36 -59 -5 -20 44 -73 96 -98 96 -43 0 -64 -68 -88 -295 -14
-124 -15 -131 -43 -150 -15 -11 -56 -47 -90 -81 -87 -84 -86 -122 3 -167 22
-11 34 -27 43 -59 31 -105 93 -181 158 -194 72 -14 149 64 123 125 -14 34 -54
54 -162 81 -45 12 -95 28 -112 37 -43 21 -86 63 -86 83 0 10 18 38 40 63 43
48 91 71 173 82 58 8 60 22 17 98 -16 30 -30 64 -30 76 0 33 37 98 66 118 26
17 27 16 50 -11 13 -15 24 -39 24 -55 0 -35 31 -76 129 -170 85 -82 111 -126
111 -189 0 -49 -10 -102 -19 -102 -4 0 -20 27 -35 60 -25 54 -59 90 -73 76 -3
-2 12 -53 32 -111 34 -99 36 -111 26 -152 -7 -24 -37 -81 -67 -125 -33 -49
-54 -89 -52 -102 2 -15 23 -31 76 -56 132 -64 195 -147 195 -255 0 -72 -26
-137 -74 -181 -44 -40 -62 -46 -88 -28 -34 24 -25 40 36 60 125 41 122 108
-11 239 -131 131 -285 221 -369 218 -42 -2 -52 2 -87 34 -86 77 -189 283 -190
379 0 87 24 136 112 230 l80 84 -40 53 c-78 102 -118 214 -109 306 20 224 307
403 538 335z m707 -99 c-2 -58 -5 -105 -9 -105 -3 0 -14 15 -24 33 -22 42 -17
127 10 157 10 11 20 20 21 20 2 0 3 -47 2 -105z m545 87 c28 -31 49 -93 43
-127 -8 -43 -40 -72 -60 -56 -20 17 -29 82 -21 147 7 58 13 64 38 36z m-1409
-393 c65 -77 32 -123 -61 -84 -33 14 -35 17 -30 51 12 70 49 84 91 33z m2330
-12 c14 -38 -3 -79 -34 -87 -14 -4 -44 -10 -67 -13 l-42 -7 11 32 c17 50 36
74 71 92 40 19 49 17 61 -17z m-2024 -867 l0 -229 -57 34 c-32 19 -73 40 -90
46 -42 14 -41 30 2 78 39 43 94 155 119 244 9 31 19 57 21 57 3 0 5 -103 5
-230z m1630 189 c0 -22 98 -228 135 -283 30 -46 36 -61 25 -64 -8 -3 -48 -23
-89 -44 -41 -21 -78 -38 -83 -38 -4 0 -8 102 -8 226 0 147 3 223 10 219 6 -3
10 -11 10 -16z m-1927 -70 c32 -9 37 -14 37 -39 0 -61 -65 -94 -127 -63 -37
18 -83 73 -83 99 0 17 116 19 173 3z m-46 -358 c53 -39 68 -68 94 -183 14 -62
31 -107 50 -135 36 -51 36 -61 2 -69 -51 -10 -70 -26 -89 -68 -23 -50 -44 -55
-117 -29 -75 26 -141 95 -163 169 -23 79 -9 137 56 233 27 40 55 88 61 106 12
32 14 33 38 20 14 -7 45 -27 68 -44z m227 -140 c48 -27 70 -65 71 -123 0 -48
-2 -52 -29 -59 -62 -17 -117 38 -124 125 -7 91 6 101 82 57z m171 -382 c-20
-80 -47 -123 -89 -143 -46 -22 -84 -20 -136 7 -54 27 -80 61 -86 113 -5 45 9
79 48 107 l26 20 57 -47 56 -46 37 15 c20 8 51 30 67 49 30 34 30 35 33 11 2
-14 -4 -52 -13 -86z m-390 -22 c50 -26 125 -117 125 -151 0 -20 -73 -40 -118
-33 -18 3 -48 15 -66 26 -32 20 -34 24 -39 99 -2 42 -3 80 -1 83 5 9 63 -5 99
-24z m769 2 c17 -13 26 -30 26 -48 0 -32 -34 -81 -56 -81 -29 0 -74 31 -99 67
-28 42 -27 44 45 70 48 17 53 16 84 -8z m215 -168 c2 -93 -116 -191 -230 -191
-34 0 -69 20 -69 39 0 5 30 11 66 14 88 9 142 40 176 104 14 26 29 62 33 78 7
27 8 28 15 10 5 -11 9 -35 9 -54z m87 3 c21 -84 -67 -236 -154 -265 -37 -12
-88 -6 -116 16 -15 11 -16 15 -5 19 157 46 229 119 229 230 0 44 1 46 20 36
11 -6 23 -22 26 -36z m413 -130 c116 -99 116 -113 1 -74 -123 41 -172 92 -178
183 l-5 61 39 -40 c22 -22 86 -80 143 -130z m-304 45 c37 -119 37 -119 -38
-119 -35 0 -66 2 -69 5 -7 7 65 195 74 195 4 0 19 -36 33 -81z m-541 -65 c20
-53 -16 -109 -95 -150 -58 -29 -157 -54 -218 -54 l-45 0 46 29 c25 16 78 53
119 83 84 62 159 108 175 108 7 0 15 -7 18 -16z m1117 -69 c65 -63 189 -135
232 -135 10 0 15 -4 12 -10 -12 -19 -108 -11 -160 14 -86 40 -175 132 -175
181 0 28 23 16 91 -50z m-492 -40 l42 -28 -33 -21 c-48 -30 -184 -30 -250 1
-27 12 -48 27 -48 32 0 18 50 45 94 51 70 9 149 -5 195 -35z"/>
<path d="M2520 5926 c0 -3 37 -70 83 -148 l82 -143 3 68 c5 114 -51 206 -137
223 -17 4 -31 4 -31 0z"/>
<path d="M2264 5815 c-9 -23 11 -41 124 -108 57 -34 119 -79 138 -100 34 -37
34 -37 34 -11 0 39 -28 90 -64 117 -29 22 -208 117 -221 117 -3 0 -8 -7 -11
-15z"/>
<path d="M2180 5707 c-45 -22 -65 -73 -64 -162 0 -63 5 -89 22 -122 19 -37 47
-63 66 -63 9 0 7 77 -4 166 -7 54 -7 98 0 134 6 29 9 55 7 56 -1 2 -14 -2 -27
-9z"/>
<path d="M2270 5045 c-10 -12 -10 -16 1 -20 34 -13 223 -75 228 -75 3 0 -8 14
-25 31 -58 62 -175 99 -204 64z"/>
<path d="M2286 4266 c-8 -51 -2 -112 16 -161 12 -31 56 -85 70 -85 23 0 -8
124 -65 259 l-14 34 -7 -47z"/>
<path d="M3417 6743 c-24 -23 19 -183 75 -281 73 -128 167 -212 236 -212 38 0
97 31 112 60 8 16 5 17 -34 13 -28 -4 -53 0 -73 10 -51 27 -125 118 -192 238
-107 190 -107 190 -124 172z"/>
<path d="M3884 6228 c-36 -32 -64 -81 -64 -114 0 -16 27 4 140 105 l45 40 -42
1 c-34 0 -50 -7 -79 -32z"/>
<path d="M2835 6004 c15 -99 82 -189 180 -238 53 -26 137 -50 154 -45 10 4
-295 303 -328 323 -11 7 -12 0 -6 -40z"/>
<path d="M4461 5864 c-78 -70 -113 -185 -72 -235 l19 -24 8 30 c10 45 31 82
90 164 30 40 54 80 54 87 0 28 -58 16 -99 -22z"/>
<path d="M4031 5777 c-119 -93 -133 -112 -75 -102 64 11 123 54 156 112 17 29
28 57 26 62 -1 5 -50 -27 -107 -72z"/>
<path d="M2840 5686 c0 -34 82 -58 216 -64 68 -3 124 -2 124 1 0 6 -231 63
-297 73 -36 6 -43 4 -43 -10z"/>
<path d="M4100 5659 c-41 -12 -102 -24 -135 -28 l-60 -6 26 -18 c63 -42 213
-29 275 25 19 16 34 34 34 39 0 15 -60 9 -140 -12z"/>
<path d="M4957 5573 c-2 -5 -7 -20 -10 -34 -4 -14 -28 -48 -54 -75 -50 -52
-83 -94 -83 -106 0 -14 32 -8 65 12 43 26 95 109 102 159 5 34 -9 64 -20 44z"/>
<path d="M4690 5015 c-44 -14 -118 -70 -107 -82 7 -7 169 43 212 65 28 14 28
16 10 23 -29 11 -64 9 -115 -6z"/>
<path d="M4922 4919 c-36 -41 -100 -70 -211 -95 -93 -21 -117 -32 -130 -60
-15 -34 -14 -50 6 -91 21 -45 67 -73 117 -73 35 0 46 7 91 53 58 60 115 155
145 242 11 32 19 59 18 60 -2 1 -18 -15 -36 -36z m-102 -144 c0 -54 -69 -115
-128 -115 -31 0 -82 36 -82 58 0 26 33 48 87 58 87 17 123 17 123 -1z"/>
<path d="M3649 4689 c-6 -12 -19 -46 -30 -77 -21 -62 -44 -102 -59 -102 -5 0
-25 30 -44 68 -47 93 -79 126 -114 117 -41 -10 -59 -31 -87 -105 -29 -75 -37
-85 -77 -95 -25 -6 -29 -3 -58 57 -18 34 -41 73 -53 86 -24 25 -59 29 -77 7
-11 -13 -8 -14 19 -9 46 10 67 -15 86 -101 19 -84 39 -108 86 -103 43 4 66 38
80 115 13 71 35 99 73 89 20 -5 35 -25 67 -94 48 -102 64 -122 95 -122 23 0
64 42 64 66 0 38 25 119 41 135 24 24 61 24 84 -1 9 -10 24 -49 31 -87 17 -80
35 -103 80 -103 32 0 35 3 75 88 70 147 85 153 155 55 91 -127 117 -135 138
-38 6 29 6 29 -12 -5 -22 -44 -43 -45 -62 -1 -89 199 -139 220 -210 88 -42
-77 -76 -117 -100 -117 -11 0 -26 22 -45 65 -54 129 -115 181 -146 124z"/>
<path d="M4900 4320 c0 -3 7 -37 15 -77 18 -88 8 -153 -36 -212 -32 -44 -115
-97 -168 -107 -36 -7 -51 4 -101 76 -8 11 -33 27 -55 35 l-40 14 1 53 c1 38
-1 47 -7 31 -11 -31 -45 -46 -86 -38 -38 7 -58 41 -49 85 3 16 -1 11 -14 -15
-39 -79 -17 -115 69 -115 50 0 52 -1 45 -22 -3 -13 -13 -30 -21 -40 -13 -15
-11 -16 24 -7 62 14 83 11 114 -20 43 -43 41 -101 -4 -146 -44 -44 -131 -70
-184 -56 -20 6 -38 9 -40 7 -5 -5 64 -49 127 -82 48 -25 66 -28 145 -29 50 0
102 4 118 9 25 8 27 6 28 -20 1 -16 11 18 23 76 30 141 48 192 100 278 49 82
62 137 46 206 -9 40 -48 132 -50 116z m-116 -436 c33 -86 -47 -204 -137 -204
-30 0 -97 27 -97 39 0 4 15 22 34 40 18 18 42 50 52 71 15 30 28 41 64 53 60
20 77 20 84 1z"/>
<path d="M4755 4253 c-10 -50 -53 -218 -61 -236 -13 -34 38 -16 63 22 29 43
43 93 43 154 0 75 -33 119 -45 60z"/>
<path d="M1700 2525 c-29 -30 -51 -58 -47 -61 4 -4 30 3 58 15 28 11 57 21 64
21 7 0 36 -10 64 -21 28 -12 54 -19 58 -15 11 11 -99 116 -122 116 -12 0 -44
-23 -75 -55z"/>
<path d="M2151 2377 c-6 -35 -11 -69 -11 -75 0 -24 28 -11 40 17 20 50 42 62
101 59 l54 -3 0 -218 c0 -205 -1 -220 -19 -233 -11 -8 -30 -14 -43 -14 -14 0
-23 -6 -23 -15 0 -13 22 -15 140 -15 112 0 140 3 140 14 0 7 -14 16 -30 20
-21 4 -34 14 -40 32 -6 15 -9 110 -8 228 l3 201 47 3 c60 4 83 -9 98 -53 19
-58 36 -43 44 36 3 40 4 74 2 76 -2 3 -13 0 -24 -6 -27 -14 -418 -15 -427 -1
-17 27 -34 7 -44 -53z"/>
<path d="M5922 2380 c-7 -33 -15 -67 -19 -75 -11 -32 33 -15 51 19 10 18 29
39 42 45 25 11 194 16 194 5 0 -6 -117 -190 -222 -347 -44 -65 -81 -124 -85
-132 -4 -13 28 -15 230 -15 l235 0 11 33 c6 17 13 51 17 75 5 35 4 42 -9 42
-9 0 -23 -12 -31 -27 -8 -16 -26 -39 -41 -53 -25 -23 -33 -25 -132 -25 -64 0
-108 4 -110 10 -3 11 225 370 278 436 16 20 29 39 29 43 0 3 -87 7 -192 9
-106 1 -202 6 -213 11 -19 6 -22 1 -33 -54z"/>
<path d="M210 2421 c-80 -26 -148 -80 -183 -146 -31 -57 -31 -193 0 -250 29
-54 78 -100 138 -127 41 -18 68 -22 145 -22 52 0 114 5 138 12 47 14 56 28 67
105 10 63 -13 64 -49 2 -82 -139 -271 -100 -321 67 -43 145 18 297 133 327 74
20 156 -15 182 -79 7 -16 19 -30 28 -30 12 0 14 11 9 66 -4 37 -9 69 -12 72
-9 9 -249 12 -275 3z"/>
<path d="M1753 2407 c-18 -12 -32 -27 -33 -33 0 -20 -147 -403 -164 -429 -9
-14 -27 -27 -41 -31 -14 -3 -25 -12 -25 -20 0 -11 21 -14 95 -14 75 0 95 3 95
14 0 8 -13 17 -30 21 -36 8 -36 13 -9 93 l21 62 68 0 c76 0 80 -3 104 -74 21
-66 20 -75 -9 -82 -14 -3 -25 -12 -25 -20 0 -11 25 -14 125 -14 101 0 125 3
125 14 0 8 -14 17 -30 21 -39 9 -41 13 -135 288 -43 125 -83 227 -89 226 -6 0
-25 -11 -43 -22z m12 -197 c14 -40 25 -79 25 -87 0 -9 -16 -13 -55 -13 -37 0
-55 4 -55 13 0 16 52 168 57 164 2 -2 14 -37 28 -77z"/>
<path d="M3705 2407 c-22 -15 -36 -39 -53 -91 -13 -39 -51 -143 -85 -231 -59
-152 -64 -160 -94 -170 -18 -5 -33 -15 -33 -22 0 -10 24 -13 95 -13 75 0 95 3
95 14 0 8 -13 17 -30 21 -16 4 -30 12 -30 19 0 18 31 109 43 124 10 13 124 17
143 4 12 -7 44 -103 44 -129 0 -7 -11 -15 -25 -19 -14 -3 -25 -12 -25 -20 0
-11 25 -14 125 -14 99 0 125 3 125 14 0 7 -15 17 -32 22 -37 11 -30 -6 -148
339 -34 96 -65 171 -72 172 -7 1 -26 -8 -43 -20z m10 -197 c14 -40 25 -79 25
-87 0 -9 -16 -13 -55 -13 -30 0 -55 3 -55 7 0 12 54 172 57 169 2 -1 14 -36
28 -76z"/>
<path d="M6783 2407 c-18 -12 -32 -28 -33 -34 0 -15 -131 -366 -155 -417 -12
-24 -25 -37 -46 -41 -16 -4 -29 -13 -29 -21 0 -11 20 -14 95 -14 75 0 95 3 95
14 0 8 -13 17 -30 21 -16 4 -30 12 -30 19 0 18 31 109 43 124 10 13 124 17
143 4 11 -6 44 -107 44 -131 0 -6 -11 -13 -25 -17 -14 -3 -25 -12 -25 -20 0
-11 23 -14 110 -14 101 0 110 2 110 19 0 10 -8 21 -18 23 -14 4 -33 45 -71
154 -28 82 -68 195 -88 252 -20 56 -41 102 -47 101 -6 0 -25 -11 -43 -22z m12
-197 c14 -40 25 -79 25 -87 0 -9 -16 -13 -55 -13 -30 0 -55 3 -55 7 0 12 54
172 57 169 2 -1 14 -36 28 -76z"/>
<path d="M722 2408 c3 -7 15 -15 28 -18 34 -8 38 -31 39 -226 1 -210 -3 -233
-41 -248 -15 -6 -28 -16 -28 -23 0 -16 245 -19 255 -3 3 5 -10 16 -29 24 -43
18 -48 35 -44 141 l3 80 118 3 117 3 0 -100 c0 -102 -10 -131 -46 -131 -8 0
-14 -7 -14 -15 0 -12 20 -15 120 -15 96 0 120 3 120 14 0 8 -13 19 -30 25
l-30 10 0 218 c0 227 3 243 42 243 10 0 18 7 18 15 0 13 -21 15 -126 15 -96 0
-125 -3 -122 -12 3 -7 13 -15 24 -17 39 -7 44 -21 44 -113 l0 -89 -117 3 -118
3 -3 77 c-3 85 8 118 38 118 11 0 20 7 20 15 0 13 -20 15 -121 15 -91 0 -120
-3 -117 -12z"/>
<path d="M2842 2408 c3 -7 13 -15 24 -17 43 -8 44 -14 44 -235 0 -116 -4 -216
-8 -222 -4 -6 -22 -15 -39 -19 -19 -3 -33 -13 -33 -21 0 -12 37 -14 220 -14
l219 0 16 52 c8 28 15 60 15 70 0 30 -25 20 -51 -19 -33 -51 -62 -65 -133 -60
-78 5 -86 16 -86 129 l0 89 62 -3 c61 -3 63 -4 72 -35 5 -18 15 -33 22 -33 11
0 14 22 14 95 0 102 -11 120 -36 60 -14 -34 -15 -35 -74 -35 l-60 0 0 95 0 95
68 0 c76 0 102 -13 122 -60 27 -66 51 -18 34 69 l-6 31 -205 0 c-159 0 -204
-3 -201 -12z"/>
<path d="M4122 2408 c3 -7 15 -14 27 -16 34 -5 41 -40 41 -210 0 -86 5 -174
10 -194 22 -77 113 -124 226 -115 79 6 130 31 162 80 25 38 27 48 33 216 4 97
10 184 14 193 3 9 20 21 36 27 58 20 31 31 -77 31 -80 0 -105 -3 -102 -12 3
-7 14 -14 26 -16 45 -7 52 -35 52 -202 0 -169 -13 -220 -61 -254 -30 -20 -101
-21 -140 0 -50 25 -62 69 -67 244 -4 168 3 206 39 212 12 2 24 9 27 16 3 9
-26 12 -123 12 -97 0 -126 -3 -123 -12z"/>
<path d="M5250 2409 c0 -5 13 -15 29 -20 16 -6 32 -20 35 -32 10 -36 7 -384
-4 -411 -6 -18 -19 -27 -45 -32 -20 -3 -35 -12 -35 -20 0 -12 37 -14 222 -12
l223 3 11 35 c23 73 25 100 6 100 -10 0 -26 -16 -37 -37 -12 -21 -33 -42 -52
-50 -47 -19 -116 -17 -144 6 -21 17 -23 27 -24 107 l0 89 53 3 c58 3 79 -7 84
-41 2 -12 10 -23 20 -25 14 -3 16 8 15 90 -2 73 -5 93 -16 93 -8 0 -19 -15
-23 -33 l-9 -33 -62 3 -62 3 0 90 0 90 60 3 c84 4 102 -2 125 -48 25 -50 56
-55 46 -9 -3 17 -6 47 -6 65 l0 34 -205 0 c-137 0 -205 -4 -205 -11z"/>
<path d="M1980 1489 c-36 -60 -32 -74 10 -34 l30 29 30 -29 c16 -16 32 -27 34
-24 7 6 -54 109 -64 109 -5 0 -22 -23 -40 -51z"/>
<path d="M3886 1489 c-16 -28 -25 -53 -22 -57 4 -3 25 13 48 35 35 36 40 44
29 57 -20 24 -25 20 -55 -35z"/>
<path d="M1566 1400 c-114 -36 -129 -201 -21 -246 42 -17 135 -18 158 -1 16
12 35 67 22 67 -3 0 -18 -13 -32 -30 -49 -59 -141 -30 -163 51 -21 77 26 149
96 149 33 0 74 -28 74 -50 0 -5 5 -10 10 -10 12 0 13 40 1 59 -11 17 -104 24
-145 11z"/>
<path d="M1951 1393 c-93 -46 -96 -195 -5 -238 66 -31 150 -14 193 41 30 38
29 121 -1 159 -41 53 -123 69 -187 38z m118 -24 c42 -39 54 -115 26 -168 -16
-32 -33 -41 -76 -41 -59 0 -100 74 -85 155 13 66 89 97 135 54z"/>
<path d="M2304 1377 c-8 -37 3 -46 22 -19 11 15 25 22 50 22 l35 0 -3 -102
c-3 -98 -4 -103 -28 -115 -22 -11 -17 -13 50 -13 67 0 72 2 50 13 -24 12 -25
17 -28 115 l-3 102 34 0 c25 0 39 -7 50 -22 l16 -23 0 22 c1 12 3 27 6 35 4
10 -20 13 -120 13 l-125 0 -6 -28z"/>
<path d="M4132 1398 c-5 -7 -27 -56 -48 -108 -21 -52 -48 -105 -61 -117 l-22
-23 46 0 c40 0 44 2 30 13 -14 11 -14 16 -2 45 12 27 19 32 48 32 37 0 50 -11
62 -49 5 -16 3 -26 -6 -32 -9 -5 9 -8 46 -8 50 0 56 2 38 11 -22 10 -28 24
-84 176 -26 68 -32 77 -47 60z m16 -105 c11 -32 10 -33 -19 -33 -33 0 -33 1
-17 47 13 36 20 34 36 -14z"/>
<path d="M4525 1400 c-1 -3 -6 -20 -10 -37 -7 -36 9 -47 20 -13 8 24 36 32 93
28 l41 -3 -85 -112 -84 -113 119 0 c127 0 131 2 131 53 0 21 -1 21 -23 -6 -24
-30 -94 -46 -134 -30 -21 8 -19 13 54 108 41 55 80 105 85 112 7 9 -17 12 -97
15 -59 2 -108 1 -110 -2z"/>
<path d="M2710 1390 c0 -5 7 -10 15 -10 12 0 15 -18 15 -105 0 -100 -1 -106
-22 -115 -16 -6 14 -8 92 -7 l115 2 3 28 c4 29 -12 37 -22 12 -8 -21 -54 -37
-88 -30 -26 6 -28 10 -28 56 0 47 1 49 29 49 18 0 34 -8 44 -22 15 -22 16 -22
16 25 1 46 -11 62 -23 32 -3 -9 -18 -15 -36 -15 -29 0 -30 2 -30 45 l0 45 39
0 c30 0 44 -6 55 -22 19 -27 31 -18 22 17 -6 25 -8 25 -101 25 -57 0 -95 -4
-95 -10z"/>
<path d="M3350 1390 c0 -5 7 -10 15 -10 12 0 15 -18 15 -105 0 -99 -1 -106
-22 -114 -16 -6 -1 -9 53 -14 151 -13 219 28 219 130 0 92 -47 123 -190 123
-53 0 -90 -4 -90 -10z m195 -33 c32 -27 44 -92 25 -137 -20 -49 -98 -78 -128
-48 -8 8 -12 47 -12 110 l0 98 44 0 c32 0 52 -6 71 -23z"/>
<path d="M4908 1383 c20 -14 22 -24 22 -95 0 -82 15 -130 45 -142 26 -10 104
-7 126 4 33 18 49 64 49 144 0 66 3 77 22 90 21 15 20 16 -37 15 -49 0 -56 -2
-38 -11 34 -16 44 -93 23 -170 -17 -59 -80 -78 -120 -38 -17 17 -20 33 -20
110 0 72 3 90 14 90 8 0 18 5 21 10 4 6 -19 10 -62 9 -65 0 -67 -1 -45 -16z"/>
<path d="M5340 1390 c0 -5 7 -10 15 -10 12 0 15 -18 15 -105 0 -100 -1 -106
-22 -115 -17 -6 -5 -9 47 -9 52 0 64 3 48 9 -19 8 -23 17 -23 55 0 60 17 59
66 -7 41 -54 78 -76 110 -64 17 6 16 8 -6 19 -13 7 -39 32 -57 56 l-33 43 25
20 c33 26 35 80 3 102 -26 18 -188 23 -188 6z m149 -24 c7 -8 11 -29 9 -47 -2
-26 -9 -34 -32 -40 -41 -11 -46 -5 -46 52 0 47 1 49 29 49 16 0 34 -6 40 -14z"/>
<path d="M312 1273 c164 -2 432 -2 595 0 164 1 30 2 -297 2 -327 0 -461 -1
-298 -2z"/>
<path d="M6163 1273 c163 -2 431 -2 595 0 163 1 29 2 -298 2 -327 0 -461 -1
-297 -2z"/>
<path d="M2721 173 c0 -5 4 -17 9 -28 8 -18 9 -17 9 8 1 15 -3 27 -9 27 -5 0
-10 -3 -9 -7z"/>
<path d="M3132 150 c0 -19 2 -27 5 -17 2 9 2 25 0 35 -3 9 -5 1 -5 -18z"/>
<path d="M3530 160 c0 -11 5 -20 10 -20 6 0 10 9 10 20 0 11 -4 20 -10 20 -5
0 -10 -9 -10 -20z"/>
<path d="M3942 150 c0 -19 2 -27 5 -17 2 9 2 25 0 35 -3 9 -5 1 -5 -18z"/>
<path d="M4340 148 c0 -36 4 -35 14 5 4 16 2 27 -4 27 -5 0 -10 -14 -10 -32z"/>
<path d="M2640 121 c0 -8 34 -21 55 -21 11 1 -35 29 -47 30 -5 0 -8 -4 -8 -9z"/>
<path d="M2785 114 l-30 -14 30 6 c31 6 41 11 34 18 -2 2 -17 -2 -34 -10z"/>
<path d="M3045 120 c-5 -8 53 -26 60 -18 2 2 -9 9 -25 15 -17 6 -32 7 -35 3z"/>
<path d="M3190 114 l-25 -15 25 5 c14 3 28 6 33 6 4 0 7 5 7 10 0 14 -10 12
-40 -6z"/>
<path d="M3450 121 c0 -10 50 -25 57 -18 2 3 -10 9 -26 15 -17 6 -31 7 -31 3z"/>
<path d="M3590 114 l-25 -15 25 5 c14 3 28 6 33 6 4 0 7 5 7 10 0 14 -10 12
-40 -6z"/>
<path d="M3850 121 c0 -8 34 -21 55 -21 11 1 -35 29 -47 30 -5 0 -8 -4 -8 -9z"/>
<path d="M3995 114 c-22 -10 -25 -13 -10 -13 28 1 61 14 49 21 -5 3 -22 -1
-39 -8z"/>
<path d="M4260 121 c0 -10 50 -25 57 -18 2 3 -10 9 -26 15 -17 6 -31 7 -31 3z"/>
<path d="M4400 114 l-25 -15 25 5 c14 3 28 6 33 6 4 0 7 5 7 10 0 14 -10 12
-40 -6z"/>
<path d="M2692 47 c-23 -24 -28 -37 -14 -37 4 0 16 14 25 30 22 36 18 38 -11
7z"/>
<path d="M2750 62 c0 -12 39 -60 40 -49 0 5 -9 20 -20 34 -11 14 -20 21 -20
15z"/>
<path d="M3094 46 c-9 -15 -14 -29 -12 -32 3 -2 13 7 22 22 10 14 15 28 13 31
-3 2 -13 -7 -23 -21z"/>
<path d="M3165 40 c9 -17 20 -28 26 -24 6 4 2 15 -12 30 -30 32 -33 30 -14 -6z"/>
<path d="M3502 47 c-23 -24 -28 -37 -14 -37 4 0 15 14 24 30 21 36 18 37 -10
7z"/>
<path d="M3901 46 c-14 -15 -18 -26 -12 -30 6 -4 17 7 26 24 19 36 16 38 -14
6z"/>
<path d="M3960 64 c0 -5 9 -20 20 -34 14 -18 20 -21 20 -9 0 9 -9 24 -20 34
-11 10 -20 14 -20 9z"/>
<path d="M4308 45 c-20 -26 -22 -35 -10 -35 9 0 35 50 30 55 -2 2 -11 -7 -20
-20z"/>
<path d="M4376 43 c10 -18 22 -33 26 -33 15 0 8 17 -19 41 l-26 24 19 -32z"/>
<path d="M3571 37 c7 -15 16 -27 21 -27 14 0 9 16 -13 36 -21 19 -21 19 -8 -9z"/>
</g>
</svg>
