<?xml version="1.0" standalone="no"?>
<!DOCTYPE svg PUBLIC "-//W3C//DTD SVG 20010904//EN"
 "http://www.w3.org/TR/2001/REC-SVG-20010904/DTD/svg10.dtd">
<svg version="1.0" xmlns="http://www.w3.org/2000/svg"
 width="1920.000000pt" height="1080.000000pt" viewBox="0 0 1920.000000 1080.000000"
 preserveAspectRatio="xMidYMid meet">

<g transform="translate(0.000000,1080.000000) scale(0.100000,-0.100000)"
fill="#AAAAAA" stroke="none">
<path d="M2535 8225 c-194 -15 -465 -49 -575 -71 -654 -135 -1132 -560 -1235
-1099 -10 -48 -18 -171 -22 -307 l-6 -228 -192 0 c-106 0 -240 -3 -298 -7
l-107 -6 0 -378 0 -379 307 -2 308 -3 3 -1551 2 -1551 302 -6 c166 -4 425 -7
576 -7 l275 0 -7 1563 -7 1562 1001 0 1000 0 0 -900 c0 -495 3 -1194 7 -1552
l6 -653 593 0 594 0 2 1133 3 1132 22 78 c45 158 106 263 229 396 91 98 167
155 299 221 206 105 481 176 771 200 258 21 513 -28 757 -144 218 -105 354
-233 447 -421 66 -133 98 -250 110 -399 6 -67 14 -586 19 -1154 5 -569 11
-1035 13 -1037 2 -2 266 -7 587 -11 l583 -7 -6 624 c-3 343 -8 919 -11 1279
-6 715 -13 829 -65 1035 -35 138 -69 209 -158 327 -64 84 -188 216 -267 283
-50 43 -221 144 -318 189 -223 103 -391 156 -623 195 -280 48 -381 56 -754 56
-311 0 -357 -2 -470 -22 -358 -63 -623 -146 -790 -245 -124 -74 -268 -202
-343 -305 -17 -24 -33 -43 -36 -43 -4 0 -7 21 -7 48 0 26 -1 145 -2 264 l-2
217 -1601 -6 -1602 -6 7 167 c4 92 11 189 16 217 12 62 61 181 101 245 55 88
186 207 279 254 63 32 201 78 290 96 100 21 467 31 553 15 138 -26 256 -54
326 -79 196 -68 365 -243 437 -449 l28 -83 561 0 c309 0 564 2 567 5 9 9 -21
191 -47 280 -67 231 -206 431 -420 604 -278 226 -544 321 -1129 402 -268 37
-603 46 -881 24z"/>
<path d="M11075 6614 c-16 -2 -79 -9 -140 -15 -130 -12 -404 -53 -503 -74
-315 -66 -619 -221 -820 -418 -117 -115 -241 -296 -303 -445 -36 -88 -84 -271
-91 -351 l-5 -54 411 6 c226 4 497 7 602 7 l190 0 14 68 c14 71 47 168 81 234
76 150 405 317 744 378 349 64 698 17 1023 -136 220 -104 318 -193 369 -336
28 -79 29 -138 2 -224 -17 -56 -31 -77 -79 -126 -76 -76 -151 -110 -310 -142
-134 -27 -368 -51 -1710 -176 -534 -50 -701 -73 -815 -115 -137 -50 -332 -165
-421 -247 -53 -49 -130 -159 -163 -233 -54 -120 -65 -187 -66 -390 0 -163 3
-205 23 -295 28 -123 70 -217 147 -324 79 -110 125 -156 221 -221 132 -89 256
-149 409 -200 342 -114 661 -165 1020 -165 412 1 728 59 1155 213 133 48 414
185 515 251 39 25 75 46 80 46 6 0 9 -86 7 -245 l-3 -244 188 -3 c103 -2 367
-4 585 -6 l397 -3 -5 1088 c-6 1182 -15 1611 -39 1740 -37 206 -77 323 -144
421 -46 68 -208 233 -290 296 -97 75 -328 186 -552 264 -269 95 -567 140
-1124 172 -159 9 -532 11 -600 4z m1589 -2342 c-2 -254 -18 -337 -81 -432
-214 -318 -546 -533 -960 -622 -91 -19 -137 -23 -293 -22 -324 0 -526 53 -801
206 -97 55 -148 113 -202 228 -27 57 -31 76 -31 155 0 174 71 260 287 349 93
38 144 45 812 111 83 9 213 22 290 30 77 8 172 17 210 20 158 14 376 47 463
70 51 14 137 47 190 74 53 26 102 49 107 50 6 0 10 -77 9 -217z"/>
<path d="M16345 6524 c-208 -17 -388 -41 -555 -74 -463 -93 -789 -208 -1034
-365 -169 -108 -348 -287 -471 -471 -178 -266 -251 -514 -276 -944 -10 -166
-10 -247 -1 -355 31 -371 193 -740 437 -994 162 -168 338 -297 553 -405 250
-125 434 -191 705 -250 299 -66 855 -113 1197 -103 281 9 665 65 894 132 221
64 497 190 671 306 284 190 492 467 596 794 21 65 37 120 36 121 -1 1 -276 5
-612 9 l-610 7 -37 -58 c-47 -73 -158 -199 -224 -254 -157 -131 -465 -243
-759 -275 -278 -31 -500 -10 -810 76 -244 68 -370 140 -530 304 -161 165 -238
308 -307 570 -30 119 -33 363 -5 495 50 231 173 451 344 613 155 147 423 269
728 333 118 25 150 28 350 28 222 1 280 -5 510 -55 242 -53 487 -213 641 -420
l67 -91 621 7 c342 4 622 9 624 10 7 6 -72 223 -107 294 -101 200 -319 436
-544 590 -153 104 -456 231 -712 297 -358 93 -611 124 -1025 129 -168 1 -327
1 -355 -1z"/>
</g>
</svg>
