<?xml version="1.0" standalone="no"?>
<!DOCTYPE svg PUBLIC "-//W3C//DTD SVG 20010904//EN"
 "http://www.w3.org/TR/2001/REC-SVG-20010904/DTD/svg10.dtd">
<svg version="1.0" xmlns="http://www.w3.org/2000/svg"
 width="842.000000pt" height="616.000000pt" viewBox="0 0 842.000000 616.000000"
 preserveAspectRatio="xMidYMid meet">

<g transform="translate(0.000000,616.000000) scale(0.100000,-0.100000)"
fill="#AAAAAA" stroke="none">
<path d="M16 5506 c-3 -16 -6 -162 -5 -325 l0 -296 25 100 c14 58 44 140 71
195 39 79 62 110 138 186 72 73 106 99 175 133 l85 43 -242 -4 -241 -3 -6 -29z"/>
<path d="M1052 5520 c152 -62 282 -187 358 -345 77 -158 95 -245 94 -455 0
-156 -3 -186 -26 -271 -64 -236 -188 -402 -373 -497 l-60 -31 112 -1 c61 0
114 -4 117 -8 7 -11 -499 -1427 -510 -1427 -7 0 -521 1393 -523 1418 -1 4 56
7 125 7 l126 0 -83 41 c-123 61 -237 179 -302 309 -27 55 -57 137 -71 195
l-25 100 0 -1137 -1 -1138 4190 0 4190 0 -1 1118 c0 1109 0 1117 -19 1047 -66
-247 -176 -395 -372 -501 l-63 -34 198 0 197 0 0 -230 c0 -126 -2 -230 -5
-230 -2 0 -25 40 -50 89 -133 257 -373 386 -685 368 -114 -7 -228 -40 -318
-94 -85 -50 -198 -170 -244 -258 -174 -336 -130 -813 99 -1055 36 -39 93 -88
127 -110 l61 -40 -374 0 -374 0 59 38 c111 72 197 191 248 344 14 42 26 81 26
87 0 7 -28 11 -74 11 l-74 0 -7 -33 c-4 -17 -24 -69 -46 -114 -110 -230 -356
-332 -610 -253 -82 25 -135 59 -200 127 -113 118 -169 298 -169 540 0 240 60
421 178 542 97 98 207 142 358 143 243 0 391 -93 460 -292 l23 -65 71 -3 c81
-3 81 -3 54 89 -41 136 -139 262 -251 322 -122 65 -359 88 -526 51 -267 -60
-434 -246 -493 -549 -25 -129 -24 -368 3 -495 45 -213 144 -374 282 -462 l46
-28 -190 2 -189 3 -38 100 c-21 55 -155 404 -297 775 -176 458 -255 677 -247
682 6 4 109 8 230 8 204 0 218 1 211 18 -3 9 -42 114 -85 232 -43 118 -82 223
-85 233 -7 16 -34 17 -375 17 l-367 0 -92 -243 c-50 -134 -91 -246 -91 -250 0
-4 103 -7 229 -7 127 0 232 -4 235 -8 3 -5 -132 -357 -299 -783 l-304 -774
-30 -3 -31 -3 0 780 0 781 -60 0 -60 0 0 -710 c0 -390 -4 -710 -8 -710 -4 0
-190 319 -413 710 l-404 710 -72 0 -73 0 0 -780 0 -780 -210 0 c-115 0 -210 2
-210 4 0 2 21 17 48 32 220 129 354 429 338 759 -22 476 -299 765 -732 765
-170 0 -298 -38 -420 -126 -192 -136 -304 -390 -304 -689 0 -314 121 -571 331
-704 l64 -41 -208 0 -207 0 2 783 3 782 227 5 228 5 -57 30 c-32 16 -90 62
-130 102 -157 157 -233 410 -220 733 11 274 77 452 221 596 52 52 93 82 155
112 l83 42 -508 -1 -509 0 47 -19z m1341 -1745 c163 -34 292 -135 366 -286 59
-122 73 -182 78 -354 9 -267 -45 -434 -182 -570 -117 -117 -222 -158 -400
-158 -271 0 -466 152 -545 423 -31 107 -39 344 -15 461 73 364 352 558 698
484z m5427 -11 c263 -77 410 -315 410 -662 0 -253 -65 -433 -201 -557 -109
-99 -218 -138 -384 -138 -357 -1 -574 258 -575 685 0 248 67 430 205 556 110
101 239 145 400 137 50 -2 115 -12 145 -21z m-2950 2 c0 -2 70 -191 155 -420
85 -229 155 -419 155 -421 0 -3 -144 -5 -321 -5 -253 0 -320 3 -317 13 66 188
314 837 320 837 4 0 8 -2 8 -4z m-4672 -111 c11 -33 120 -336 241 -672 122
-337 221 -617 221 -623 0 -6 -89 -10 -250 -10 l-250 0 0 692 c0 381 4 688 8
683 5 -6 18 -37 30 -70z m1162 -615 l0 -690 -250 0 c-146 0 -250 4 -250 9 0 5
18 58 39 118 22 59 124 342 226 628 219 610 225 625 231 625 2 0 4 -310 4
-690z m2194 -38 c201 -353 366 -645 366 -647 0 -3 -174 -4 -387 -3 l-388 3 -3
660 c-1 363 0 667 3 675 8 19 -20 65 409 -688z m1672 -210 c12 -8 168 -431
161 -438 -2 -2 -243 -3 -534 -2 l-531 3 80 215 c45 118 86 218 92 222 6 4 171
8 366 8 195 0 360 -4 366 -8z m3104 -247 l0 -195 -170 0 c-93 0 -170 2 -170 4
0 2 19 16 43 29 102 60 214 193 263 311 11 25 22 46 27 46 4 0 7 -88 7 -195z"/>
<path d="M2645 5503 c133 -71 240 -208 279 -359 9 -34 16 -67 16 -73 0 -7 -28
-11 -79 -11 l-79 0 -7 33 c-14 66 -73 176 -119 222 -53 52 -143 99 -225 116
-32 6 -108 10 -181 7 -120 -3 -129 -5 -204 -41 -148 -70 -254 -213 -302 -407
-27 -107 -27 -421 -1 -533 24 -99 93 -239 148 -296 111 -115 220 -155 410
-150 119 4 127 5 203 42 129 61 229 183 277 337 l17 55 81 3 c44 2 81 1 81 -2
0 -20 -49 -155 -77 -211 -67 -133 -144 -213 -274 -285 l-54 -30 228 0 227 0 0
810 0 810 -217 0 -218 -1 70 -36z"/>
<path d="M4100 5475 l0 -65 -465 0 -465 0 0 -295 0 -295 420 0 420 0 0 -65 0
-65 -420 0 -420 0 0 -320 0 -320 473 -2 472 -3 5 -69 c4 -53 8 -66 16 -55 11
14 634 1598 634 1612 0 4 -151 7 -335 7 l-335 0 0 -65z"/>
<path d="M4963 5523 c2 -10 123 -326 267 -703 144 -377 280 -733 302 -792 24
-66 46 -108 54 -108 12 0 14 128 14 810 l0 810 -321 0 c-301 0 -321 -1 -316
-17z"/>
<path d="M5786 5528 c17 -27 926 -1403 930 -1407 2 -2 4 316 4 707 l0 712
-471 0 c-364 0 -468 -3 -463 -12z"/>
<path d="M6877 5533 c-4 -3 -7 -368 -7 -810 l0 -803 238 0 237 0 -52 29 c-257
142 -393 407 -393 766 0 385 170 681 459 801 l56 23 -266 1 c-146 0 -269 -3
-272 -7z"/>
<path d="M7932 5516 c223 -92 367 -263 434 -515 l23 -86 1 298 c0 289 -1 298
-19 292 -11 -3 -45 3 -77 15 -51 17 -82 20 -239 20 l-180 0 57 -24z"/>
<path d="M606 5425 c-274 -70 -437 -331 -437 -701 0 -199 38 -351 119 -476
108 -164 254 -238 472 -238 202 0 340 63 447 205 112 147 166 380 143 608 -32
312 -161 505 -397 588 -77 28 -263 35 -347 14z"/>
<path d="M7481 5414 c-159 -43 -303 -180 -367 -351 -43 -115 -57 -198 -57
-348 0 -214 36 -350 129 -487 74 -109 195 -191 322 -217 74 -15 215 -13 290 4
202 48 350 204 413 435 32 116 37 355 11 481 -54 260 -197 426 -417 484 -75
19 -251 19 -324 -1z"/>
<path d="M4705 4984 c-82 -222 -151 -409 -153 -414 -2 -6 114 -10 308 -10 245
0 311 3 308 13 -68 189 -304 817 -308 817 -3 0 -72 -183 -155 -406z"/>
<path d="M5760 4622 l0 -702 465 0 464 0 -133 203 c-452 687 -779 1183 -787
1192 -5 5 -9 -272 -9 -693z"/>
<path d="M2041 1720 c-17 -28 -31 -52 -31 -55 0 -3 10 -5 23 -5 21 0 117 84
117 103 0 4 -18 7 -39 7 -36 0 -42 -4 -70 -50z"/>
<path d="M1410 1613 c-91 -35 -138 -161 -90 -241 23 -38 53 -52 170 -82 146
-36 170 -53 170 -118 0 -97 -184 -138 -267 -60 -13 12 -28 39 -33 60 -10 35
-14 38 -45 38 -39 0 -43 -12 -24 -71 30 -89 114 -134 237 -127 137 8 205 65
205 172 0 61 -22 105 -63 130 -16 9 -79 29 -142 46 -130 33 -165 59 -154 113
8 39 23 57 63 74 91 37 203 -13 203 -92 0 -11 11 -15 40 -15 44 0 46 4 30 61
-12 43 -51 85 -98 105 -34 14 -171 19 -202 7z"/>
<path d="M30 1320 l0 -290 36 0 36 0 -4 235 c-1 129 0 235 3 235 4 0 43 -105
87 -232 l80 -233 38 -3 39 -3 80 235 c44 129 83 232 87 230 5 -3 8 -108 8
-235 l0 -229 35 0 35 0 0 290 0 291 -56 -3 -57 -3 -81 -237 c-44 -130 -84
-240 -87 -243 -4 -3 -44 105 -89 240 l-83 245 -54 0 -53 0 0 -290z"/>
<path d="M720 1403 c0 -218 6 -259 43 -314 34 -50 78 -71 163 -77 119 -8 190
30 231 123 14 33 18 78 21 258 l4 217 -41 0 -41 0 0 -207 c0 -183 -3 -213 -19
-250 -24 -53 -65 -74 -139 -74 -63 0 -95 18 -127 72 -18 31 -20 55 -23 247
l-3 212 -35 0 -34 0 0 -207z"/>
<path d="M1860 1320 l0 -290 215 0 215 0 0 30 0 30 -180 0 -181 0 3 103 3 102
158 3 157 3 0 29 0 30 -160 0 -160 0 0 90 0 90 175 0 175 0 0 35 0 35 -210 0
-210 0 0 -290z"/>
<path d="M2400 1320 l0 -290 220 0 220 0 0 30 0 30 -180 0 -181 0 3 103 3 102
158 3 157 3 0 29 0 30 -160 0 -160 0 0 90 0 90 175 0 175 0 0 35 0 35 -215 0
-215 0 0 -290z"/>
<path d="M1482 758 c-46 -69 -46 -68 -14 -68 22 0 39 12 76 55 l47 55 -40 0
c-36 0 -43 -4 -69 -42z"/>
<path d="M190 634 c-49 -21 -97 -70 -128 -129 -34 -66 -43 -207 -18 -283 42
-126 122 -182 262 -182 68 0 89 4 135 27 105 54 155 159 147 312 -7 131 -51
206 -148 250 -56 26 -196 28 -250 5z m177 -56 c131 -33 189 -203 121 -359 -37
-87 -112 -127 -209 -114 -137 19 -213 169 -165 328 25 83 71 128 151 148 44
10 52 10 102 -3z"/>
<path d="M814 626 c-94 -44 -144 -141 -144 -280 0 -103 21 -172 68 -227 48
-56 101 -79 185 -79 127 0 212 63 245 183 l10 37 -37 0 c-33 0 -38 -3 -50 -36
-33 -90 -112 -136 -199 -114 -103 26 -145 93 -146 230 0 139 49 219 149 241
69 15 123 0 164 -46 17 -20 31 -42 31 -50 0 -11 12 -15 41 -15 40 0 41 1 35
28 -11 46 -59 104 -105 129 -63 33 -175 32 -247 -1z"/>
<path d="M3092 625 c-114 -58 -173 -209 -142 -360 16 -79 40 -123 89 -168 48
-44 93 -57 191 -57 122 1 197 49 249 160 22 48 26 68 26 155 0 114 -18 166
-74 223 -54 54 -87 66 -191 70 -87 3 -99 1 -148 -23z m245 -71 c30 -18 49 -39
68 -79 24 -48 27 -64 23 -137 -7 -177 -107 -264 -259 -228 -121 29 -179 174
-133 331 39 130 180 183 301 113z"/>
<path d="M3743 629 c-51 -25 -98 -77 -127 -138 -17 -38 -21 -65 -21 -156 0
-121 17 -174 73 -231 83 -84 273 -87 346 -5 26 29 34 27 44 -11 6 -23 15 -34
30 -36 22 -3 22 -2 22 152 l0 156 -125 0 -125 0 0 -30 0 -30 90 0 90 0 0 -33
c0 -51 -39 -118 -82 -140 -111 -56 -234 -16 -275 91 -24 63 -24 182 0 244 57
147 260 169 332 35 17 -31 25 -37 54 -37 31 0 33 2 26 28 -26 105 -108 162
-234 162 -57 0 -87 -5 -118 -21z"/>
<path d="M6873 625 c-94 -47 -146 -146 -147 -280 -1 -108 23 -175 83 -235 28
-27 62 -50 87 -58 59 -17 176 -15 223 4 40 16 40 16 87 -17 l46 -34 19 24 19
24 -40 29 -39 29 24 37 c40 60 55 118 55 206 0 139 -46 227 -144 272 -75 35
-202 34 -273 -1z m187 -46 c102 -23 153 -100 152 -230 0 -66 -5 -90 -27 -135
-28 -57 -28 -57 -82 -17 l-32 24 -16 -25 c-17 -25 -16 -27 6 -46 13 -10 28
-19 32 -20 5 0 6 -4 2 -9 -12 -20 -92 -23 -148 -7 -97 28 -142 103 -141 236 1
123 51 202 144 228 46 13 57 13 110 1z"/>
<path d="M1290 345 l0 -295 215 0 215 0 0 35 0 35 -175 0 -175 0 0 100 0 100
160 0 160 0 0 35 0 35 -160 0 -160 0 0 90 0 90 175 0 175 0 0 35 0 35 -215 0
-215 0 0 -295z"/>
<path d="M1910 393 c-51 -136 -101 -270 -111 -296 l-19 -48 42 3 41 3 31 87
31 88 117 0 116 0 29 -87 30 -88 41 -3 c23 -2 42 0 42 5 0 4 -47 136 -104 293
l-103 285 -45 3 -45 3 -93 -248z m219 -90 c1 -10 -23 -13 -89 -13 -49 0 -90 2
-90 4 0 2 21 62 47 132 l46 127 43 -119 c24 -65 43 -125 43 -131z"/>
<path d="M2380 346 l0 -296 35 0 35 0 2 238 3 237 149 -238 148 -237 44 0 44
0 0 295 0 295 -35 0 -35 0 0 -237 c0 -173 -3 -234 -11 -226 -6 6 -73 112 -148
235 l-137 223 -47 3 -47 3 0 -295z"/>
<path d="M4260 346 l0 -296 35 0 35 0 0 125 0 125 26 6 c41 10 209 -3 233 -18
27 -16 41 -66 41 -145 0 -86 4 -93 56 -93 24 0 44 2 44 4 0 2 -7 17 -15 32 -9
18 -15 56 -15 97 0 74 -18 129 -47 145 -17 10 -16 12 9 39 72 76 61 198 -23
248 -30 17 -56 20 -206 23 l-173 4 0 -296z m337 209 c30 -21 44 -75 32 -121
-15 -51 -52 -64 -189 -64 l-110 0 0 100 0 100 123 0 c94 0 128 -4 144 -15z"/>
<path d="M4920 393 c-51 -137 -101 -269 -111 -295 l-19 -48 39 0 39 0 26 77
c15 43 30 84 34 91 6 9 38 12 123 10 l113 -3 32 -85 32 -85 42 -3 c38 -3 42
-1 35 15 -3 10 -52 143 -107 296 l-101 277 -42 0 -42 0 -93 -247z m179 31 c22
-64 41 -120 41 -125 0 -5 -40 -9 -90 -9 -49 0 -90 4 -90 9 0 19 83 241 90 241
4 0 26 -52 49 -116z"/>
<path d="M5400 345 l0 -295 35 0 35 0 0 124 0 124 128 3 c102 3 133 8 155 22
59 39 90 132 67 204 -30 93 -78 112 -272 113 l-148 0 0 -295z m321 196 c22
-23 29 -39 29 -70 0 -77 -56 -110 -187 -111 -95 0 -93 -3 -93 111 l0 99 111 0
c109 0 111 0 140 -29z"/>
<path d="M5940 345 l0 -295 35 0 34 0 3 137 3 138 153 3 152 3 0 -141 0 -140
35 0 35 0 0 295 0 295 -35 0 -34 0 -3 -122 -3 -123 -130 -3 c-189 -4 -175 -15
-175 128 l0 120 -35 0 -35 0 0 -295z"/>
<path d="M6550 345 l0 -295 35 0 35 0 0 295 0 295 -35 0 -35 0 0 -295z"/>
<path d="M7402 413 c3 -210 5 -231 24 -268 42 -77 96 -105 206 -105 52 0 83 6
115 21 93 45 113 113 113 387 l0 192 -40 0 -40 0 0 -215 c0 -227 -4 -248 -48
-288 -10 -9 -44 -23 -74 -29 -48 -10 -59 -9 -94 8 -21 10 -49 34 -61 53 -22
33 -23 42 -23 252 l0 219 -41 0 -41 0 4 -227z"/>
<path d="M7990 345 l0 -295 215 0 215 0 0 35 0 35 -177 2 -178 3 -3 98 -3 97
166 0 165 0 0 35 0 35 -165 0 -166 0 3 88 3 87 173 3 172 2 0 35 0 35 -210 0
-210 0 0 -295z"/>
</g>
</svg>
