<?xml version="1.0" standalone="no"?>
<!DOCTYPE svg PUBLIC "-//W3C//DTD SVG 20010904//EN"
 "http://www.w3.org/TR/2001/REC-SVG-20010904/DTD/svg10.dtd">
<svg version="1.0" xmlns="http://www.w3.org/2000/svg"
 width="866.000000pt" height="650.000000pt" viewBox="0 0 866.000000 650.000000"
 preserveAspectRatio="xMidYMid meet">

<g transform="translate(0.000000,650.000000) scale(0.100000,-0.100000)"
fill="#AAAAAA" stroke="none">
<path d="M3715 5879 c-517 -24 -1157 -92 -1666 -177 l-104 -17 -7 -140 c-12
-233 -11 -989 1 -1170 44 -658 141 -1140 327 -1614 366 -933 1024 -1645 1952
-2109 l113 -56 172 87 c606 306 1136 772 1502 1322 450 677 672 1435 725 2480
9 189 5 996 -6 1126 l-7 76 -206 32 c-557 86 -1063 137 -1601 161 -261 11
-933 11 -1195 -1z m1485 -123 c462 -34 873 -81 1252 -142 l166 -27 7 -121 c13
-217 -1 -1173 -19 -1341 -77 -722 -216 -1233 -467 -1713 -300 -576 -752 -1067
-1319 -1434 -192 -124 -447 -258 -491 -258 -45 0 -316 149 -542 297 -223 147
-385 280 -588 482 -668 667 -1023 1467 -1134 2556 -34 338 -45 831 -28 1331
l6 201 106 17 c487 78 956 131 1406 156 105 6 213 12 240 14 146 10 1206 -3
1405 -18z"/>
<path d="M3795 5684 c-27 -2 -135 -8 -240 -14 -258 -14 -581 -44 -870 -80
-281 -35 -544 -76 -553 -85 -13 -13 -8 -1122 6 -1280 63 -724 202 -1257 456
-1751 293 -568 703 -1025 1236 -1378 235 -156 456 -276 506 -276 29 0 239 109
391 204 382 236 749 571 1019 931 393 521 637 1148 738 1895 43 319 48 415 53
1018 3 326 2 604 -1 616 -7 30 -2 28 -297 71 -689 98 -1077 126 -1824 130
-313 1 -592 1 -620 -1z m733 -356 l3 -28 -173 -2 -173 -3 0 -100 0 -100 153
-3 152 -3 0 41 0 40 -80 0 c-79 0 -80 0 -80 25 l0 25 110 0 c98 0 110 -2 111
-17 0 -10 2 -27 5 -38 2 -11 1 -46 -2 -77 l-6 -58 -166 0 c-177 0 -236 9 -252
40 -5 10 -10 66 -10 123 0 90 3 108 20 130 26 32 41 34 230 33 l155 -1 3 -27z
m-548 -116 c0 -99 -4 -143 -13 -156 -16 -22 -172 -40 -305 -34 -112 4 -112 4
-112 181 l0 138 28 -3 27 -3 5 -130 5 -130 145 3 c119 3 147 7 158 20 8 11 12
55 12 134 l0 118 25 0 25 0 0 -138z m984 131 l137 -6 -3 -25 -3 -25 -140 2
c-77 1 -155 4 -172 7 -33 6 -33 6 -33 -34 l0 -40 155 -7 c155 -7 155 -7 155
-31 l0 -24 -155 0 -155 0 0 -40 0 -40 53 0 c30 0 109 -3 175 -7 l122 -6 0 -26
0 -26 -157 7 c-87 3 -179 6 -205 7 l-48 1 0 160 0 160 68 0 c38 0 131 -3 206
-7z m-1554 -42 l0 -28 -107 -7 c-60 -4 -139 -9 -176 -13 l-68 -6 3 -36 c2 -28
7 -36 21 -34 10 0 79 4 153 8 l134 7 0 -26 c0 -18 -5 -26 -17 -26 -9 0 -79 -5
-155 -12 l-138 -11 0 -40 0 -40 118 7 c64 3 143 9 175 12 56 7 57 6 57 -20 0
-19 -6 -27 -22 -30 -36 -8 -368 -29 -373 -25 -5 6 -8 309 -3 314 3 4 274 27
376 34 18 1 22 -4 22 -28z m2088 9 c115 -10 164 -26 176 -55 9 -23 7 -228 -2
-241 -21 -32 -52 -36 -195 -25 -248 20 -236 11 -238 176 -1 168 -1 168 259
145z m700 -69 c6 -1 12 -13 12 -27 l0 -26 -90 7 -90 7 0 -131 0 -131 -30 0
-30 0 0 134 0 134 -27 6 c-16 3 -58 8 -95 12 -62 6 -68 8 -68 28 0 13 2 25 5
27 2 3 93 -5 202 -17 109 -13 204 -23 211 -23z m-3340 14 c17 -16 26 -83 18
-129 -10 -52 -37 -65 -177 -82 -208 -25 -189 -17 -189 -74 0 -49 -1 -50 -30
-50 l-30 0 0 155 c0 129 3 157 15 161 29 11 320 42 350 37 17 -3 36 -11 43
-18z m1925 -574 c106 -9 112 -10 235 -70 70 -34 193 -99 275 -143 131 -73 159
-93 260 -189 81 -79 107 -108 92 -108 -11 -1 -105 48 -209 109 -131 75 -202
111 -230 114 -23 3 -80 9 -127 14 -71 8 -106 18 -205 63 l-119 54 -255 -3
c-140 -2 -252 -1 -249 2 8 8 197 32 414 52 99 9 182 18 184 20 2 2 -9 8 -24
14 -32 12 -610 4 -732 -10 -67 -7 -90 -18 -344 -155 -149 -80 -273 -144 -276
-141 -3 2 25 26 63 53 37 26 101 75 143 109 70 56 91 77 169 173 27 32 32 34
118 41 127 10 689 11 817 1z m-753 -267 c0 -4 -31 -59 -69 -124 -78 -131 -63
-120 -241 -176 -117 -36 -278 -57 -346 -43 l-29 6 46 20 c32 15 61 39 92 80
82 106 81 105 307 199 88 37 116 44 173 44 37 0 67 -3 67 -6z m609 -149 c21
-10 31 -26 40 -59 20 -80 15 -105 -39 -186 -27 -41 -50 -86 -50 -99 0 -13 12
-80 26 -148 25 -121 26 -142 5 -129 -14 9 -101 268 -101 303 0 7 25 47 55 87
64 85 71 122 29 155 -15 12 -35 21 -44 21 -10 0 -78 -23 -151 -51 -115 -44
-139 -50 -177 -44 -81 12 -89 24 -49 70 20 24 43 31 182 60 181 37 234 41 274
20z m704 -27 c193 -97 487 -281 506 -317 24 -44 43 -265 39 -446 l-5 -180 -46
-92 c-89 -175 -245 -423 -268 -423 -10 0 -12 53 -3 100 4 19 25 51 54 79 66
66 190 312 197 390 7 86 -49 448 -73 471 -11 9 -64 36 -119 59 -103 44 -136
66 -314 208 -117 94 -119 95 -245 63 -85 -22 -151 -26 -161 -10 -3 6 -5 10 -2
10 2 0 70 29 153 65 170 75 183 76 287 23z m-1934 -51 c-19 -17 -52 -45 -72
-62 -32 -26 -39 -39 -50 -94 l-12 -64 -65 -24 c-36 -13 -74 -33 -85 -45 l-20
-20 30 8 c17 4 71 9 120 10 102 2 190 23 253 60 48 28 55 20 15 -18 -18 -17
-104 -55 -243 -107 -239 -90 -262 -100 -254 -113 3 -4 28 -8 55 -8 27 0 64 -6
82 -14 43 -19 176 -154 156 -160 -8 -2 -90 -19 -184 -36 -93 -18 -180 -39
-191 -46 -16 -9 -26 -34 -39 -88 -9 -42 -20 -76 -24 -76 -10 0 -74 69 -116
124 -34 44 -33 47 47 139 27 30 51 68 54 86 8 38 -7 41 -27 5 -21 -39 -119
-107 -135 -93 -51 42 -17 83 206 254 116 88 192 154 216 186 19 27 55 64 77
83 38 31 225 146 237 146 3 0 -11 -15 -31 -33z m31 -187 c0 -24 -6 -33 -26
-40 -39 -15 -44 -13 -44 23 0 41 5 47 42 47 25 0 28 -4 28 -30z m1721 -321
c87 -96 226 -269 283 -351 35 -51 39 -66 48 -150 27 -259 -34 -798 -99 -870
-10 -11 -164 -141 -343 -288 -179 -147 -337 -281 -351 -296 -15 -16 -50 -69
-78 -119 l-50 -89 -15 34 c-62 151 -87 219 -88 245 -1 35 42 155 132 365 98
229 101 222 24 -60 -60 -219 -64 -267 -34 -367 14 -46 25 -54 34 -25 4 9 23
35 44 58 31 34 456 407 614 538 58 48 65 67 78 186 13 128 13 497 -1 560 -13
59 -61 129 -172 248 -43 45 -77 85 -77 90 0 4 -18 91 -40 192 -22 101 -40 190
-40 197 0 27 54 -14 131 -98z m-1138 -127 c15 -64 27 -127 27 -138 0 -23 -188
-454 -246 -564 -27 -51 -62 -92 -160 -185 -69 -66 -133 -133 -141 -150 -11
-20 -16 -62 -17 -140 l-1 -110 56 -85 c185 -281 483 -636 624 -744 58 -45 26
-43 -64 4 -64 33 -99 62 -183 148 -200 206 -476 550 -528 657 -22 45 -22 50
-10 163 17 166 24 187 89 267 195 237 373 476 472 635 59 95 60 101 45 268 -5
53 -5 92 0 92 5 0 21 -53 37 -118z m-491 -113 c143 -36 153 -40 173 -79 14
-28 14 -33 -9 -77 -45 -90 -168 -298 -179 -305 -6 -4 -72 -28 -146 -54 -75
-25 -140 -50 -145 -55 -9 -8 10 -147 24 -168 5 -9 23 -8 71 3 35 8 66 13 68
10 12 -11 -37 -44 -88 -58 -88 -25 -99 -22 -107 22 -4 20 -22 88 -41 151 -24
80 -33 129 -31 164 l3 50 48 -41 c27 -23 51 -42 55 -41 4 0 54 17 112 37 l105
37 51 68 c72 96 124 187 124 218 0 38 -23 53 -150 100 -63 23 -117 43 -119 45
-15 13 78 -1 181 -27z m-508 -161 c-4 -29 -10 -64 -13 -77 -7 -23 -8 -22 -44
19 -21 23 -36 47 -34 53 5 16 66 57 84 57 11 0 12 -11 7 -52z m506 -54 c0 -3
-25 -40 -55 -82 -53 -74 -58 -77 -131 -104 -42 -16 -74 -24 -72 -18 4 11 240
208 251 209 4 1 7 -2 7 -5z m750 -659 c-71 -361 -90 -475 -90 -550 0 -46 35
-148 149 -434 40 -99 61 -166 59 -185 -3 -26 -16 -6 -97 142 -113 210 -236
467 -257 541 -16 52 -15 59 6 145 40 163 214 676 258 761 l15 30 13 -50 c13
-48 10 -66 -56 -400z"/>
<path d="M5296 5255 c-13 -34 -7 -173 9 -188 10 -10 50 -17 137 -22 68 -3 130
-8 138 -10 31 -9 42 12 45 82 2 39 1 83 -4 99 -8 32 -17 34 -222 49 -85 6 -97
5 -103 -10z"/>
<path d="M2640 5209 c-138 -17 -130 -13 -130 -74 0 -53 1 -55 28 -55 42 0 261
28 272 35 6 3 10 28 10 56 l0 49 -57 -1 c-32 -1 -87 -5 -123 -10z"/>
</g>
</svg>
