<?xml version="1.0" standalone="no"?>
<!DOCTYPE svg PUBLIC "-//W3C//DTD SVG 20010904//EN"
 "http://www.w3.org/TR/2001/REC-SVG-20010904/DTD/svg10.dtd">
<svg version="1.0" xmlns="http://www.w3.org/2000/svg"
 width="289.000000pt" height="188.000000pt"  viewBox="0 0 269.000000 168.000000"
 preserveAspectRatio="xMidYMid meet"> 

<g transform="translate(0.000000,168.000000) scale(0.100000,-0.100000)"
fill="#AAAAAA" stroke="none">
<path d="M130 965 c-8 -2 -32 -6 -53 -10 -36 -6 -38 -8 -35 -38 l3 -32 68 -3
67 -3 0 -149 0 -150 35 0 34 0 3 152 3 152 68 -3 67 -2 0 34 c0 27 -5 36 -22
41 -28 8 -217 17 -238 11z"/>
<path d="M525 961 l-30 -6 -3 -186 -2 -186 31 -7 c17 -3 35 -6 40 -6 5 0 9 38
9 85 l0 86 93 -3 92 -3 3 -83 3 -83 32 6 c18 4 35 10 40 14 4 4 6 88 5 187
l-3 179 -37 6 -38 6 0 -79 0 -78 -95 0 -95 0 0 80 c0 44 -3 79 -7 79 -5 -1
-21 -4 -38 -8z"/>
<path d="M1870 964 c-77 -14 -70 6 -70 -194 0 -98 4 -181 9 -184 18 -12 152
-18 225 -11 l76 7 0 34 0 33 -117 3 -118 3 -3 43 -3 42 80 0 81 0 0 35 0 34
-77 3 -78 3 0 35 0 35 118 0 117 0 0 31 c0 21 -6 34 -17 39 -22 8 -189 15
-223 9z"/>
<path d="M2306 956 c-64 -18 -76 -36 -76 -111 0 -98 9 -105 141 -105 l109 0 0
-45 0 -45 -125 0 -125 0 0 -34 c0 -32 2 -34 46 -40 107 -14 221 1 255 35 15
15 19 34 19 89 0 62 -3 74 -25 95 -23 23 -31 25 -130 25 l-105 0 0 35 0 35
125 0 125 0 0 29 c0 18 -6 31 -17 36 -36 14 -168 15 -217 1z"/>
<path d="M1001 775 c-40 -102 -72 -188 -70 -190 2 -2 20 -6 39 -10 40 -7 29
-26 107 188 25 70 48 125 52 122 3 -3 31 -74 62 -158 l56 -152 38 2 c21 2 40
5 42 7 2 2 -29 87 -70 188 l-75 183 -53 3 -54 3 -74 -186z"/>
<path d="M1420 776 c0 -128 4 -187 11 -192 19 -11 190 -16 234 -7 37 8 40 12
43 46 l3 37 -105 0 -106 0 0 150 0 150 -40 0 -40 0 0 -184z"/>
</g>
</svg>
