<svg id="svg" version="1.1" xmlns="http://www.w3.org/2000/svg" xmlns:xlink="http://www.w3.org/1999/xlink" width="400" height="249.81412639405204" viewBox="0, 0, 400,249.81412639405204"><g id="svgg"><path id="path0" d="M23.985 106.184 C 23.229 106.298,22.217 106.520,21.736 106.677 C 21.255 106.834,18.885 107.110,16.469 107.290 C 13.383 107.520,11.895 107.733,11.472 108.005 C 11.140 108.219,10.306 108.467,9.619 108.558 C 8.932 108.648,8.004 108.835,7.558 108.972 L 6.746 109.221 6.746 113.035 C 6.746 118.264,5.696 117.758,16.429 117.696 C 21.691 117.666,25.378 117.743,25.772 117.893 C 26.984 118.354,26.983 118.329,26.983 141.434 C 26.983 155.377,27.071 163.173,27.229 163.270 C 27.707 163.566,36.503 163.438,36.874 163.130 C 37.173 162.882,37.227 159.483,37.227 140.909 C 37.227 119.687,37.242 118.962,37.705 118.391 L 38.182 117.801 47.595 117.767 C 54.018 117.744,57.094 117.647,57.280 117.461 C 57.583 117.158,57.559 109.438,57.255 109.127 C 57.158 109.027,56.242 108.828,55.218 108.682 C 54.195 108.537,53.092 108.244,52.766 108.030 C 52.347 107.756,50.841 107.541,47.636 107.298 C 44.947 107.094,42.589 106.783,41.849 106.534 C 40.435 106.059,26.597 105.788,23.985 106.184 M282.930 106.169 C 282.234 106.278,281.418 106.499,281.119 106.660 C 280.819 106.820,278.676 107.104,276.357 107.291 C 273.385 107.531,271.961 107.749,271.532 108.030 C 271.197 108.250,270.368 108.502,269.690 108.590 C 269.012 108.679,268.317 108.862,268.145 108.997 C 267.578 109.443,267.701 161.455,268.270 161.957 C 268.808 162.431,271.428 163.022,274.578 163.380 C 285.724 164.646,286.665 164.706,293.067 164.559 C 296.433 164.481,299.694 164.311,300.312 164.181 C 300.931 164.050,302.898 163.815,304.685 163.658 C 308.633 163.311,312.772 162.505,313.366 161.968 C 313.871 161.511,314.042 153.830,313.554 153.529 C 313.416 153.444,305.592 153.353,296.168 153.327 L 279.032 153.279 278.554 152.689 C 277.922 151.909,277.815 141.115,278.431 140.273 C 278.770 139.808,279.265 139.782,290.111 139.663 L 301.437 139.538 301.505 134.684 C 301.542 132.014,301.476 129.733,301.357 129.614 C 301.239 129.496,296.201 129.406,290.163 129.414 C 280.996 129.426,279.103 129.370,278.693 129.070 C 278.093 128.632,277.794 119.961,278.333 118.659 C 278.764 117.619,278.217 117.649,296.275 117.670 C 316.165 117.692,313.785 118.327,313.796 113.001 C 313.805 108.806,313.757 108.682,312.124 108.682 C 311.732 108.682,310.966 108.448,310.421 108.161 C 309.654 107.757,308.563 107.569,305.559 107.322 C 303.145 107.124,301.263 106.838,300.562 106.563 C 299.313 106.073,285.507 105.765,282.930 106.169 M351.905 106.179 C 351.493 106.298,350.706 106.561,350.156 106.763 C 349.606 106.966,347.920 107.209,346.408 107.305 C 344.498 107.425,343.378 107.620,342.733 107.946 C 342.223 108.203,341.042 108.540,340.109 108.695 C 339.177 108.849,338.132 109.173,337.789 109.414 C 337.445 109.655,336.720 109.999,336.176 110.178 C 334.972 110.575,333.667 111.905,333.273 113.139 C 333.113 113.642,332.742 114.447,332.449 114.928 C 331.679 116.194,331.618 131.993,332.378 133.386 C 332.631 133.850,332.996 134.764,333.190 135.416 C 333.604 136.809,335.216 138.438,336.936 139.198 C 337.998 139.668,338.674 139.688,353.183 139.681 C 369.492 139.672,369.075 139.637,369.665 141.049 C 370.108 142.110,370.170 151.146,369.743 152.373 C 369.280 153.701,369.733 153.671,350.410 153.646 C 340.447 153.633,332.182 153.692,332.044 153.778 C 331.753 153.958,331.726 161.014,332.013 161.747 C 332.269 162.397,334.816 163.031,339.163 163.526 C 341.087 163.744,343.931 164.086,345.484 164.285 C 348.580 164.682,354.860 164.738,357.027 164.389 C 357.783 164.267,360.200 163.934,362.399 163.648 C 364.597 163.362,367.295 162.860,368.395 162.533 C 369.494 162.205,370.787 161.862,371.268 161.769 C 371.749 161.676,372.393 161.442,372.699 161.248 C 373.004 161.054,373.741 160.700,374.336 160.460 C 375.766 159.885,377.115 158.341,377.591 156.736 C 377.802 156.026,378.180 155.132,378.431 154.748 C 378.851 154.107,378.888 153.371,378.887 145.670 L 378.885 137.289 378.202 135.915 C 377.826 135.159,377.518 134.248,377.516 133.889 C 377.514 133.174,376.373 131.620,375.033 130.506 C 373.344 129.102,373.381 129.104,342.135 128.921 C 341.983 128.920,341.562 128.644,341.198 128.307 L 340.537 127.694 340.537 123.088 C 340.537 118.924,340.583 118.425,341.015 117.892 L 341.492 117.302 359.416 117.252 C 370.946 117.220,377.428 117.113,377.588 116.953 C 377.906 116.635,377.818 109.423,377.492 109.030 C 377.362 108.873,376.782 108.669,376.204 108.576 C 375.626 108.484,374.962 108.235,374.727 108.022 C 374.426 107.750,373.213 107.539,370.598 107.304 C 368.562 107.121,366.334 106.778,365.646 106.542 C 364.240 106.058,353.322 105.769,351.905 106.179 M113.465 107.080 C 113.265 107.518,113.179 110.914,113.179 118.388 C 113.179 126.363,113.103 129.145,112.879 129.369 C 112.447 129.802,85.180 129.802,84.747 129.369 C 84.523 129.145,84.447 126.343,84.447 118.299 C 84.447 106.324,84.469 106.488,82.926 106.771 C 82.457 106.857,80.582 107.082,78.759 107.270 C 76.264 107.528,75.322 107.724,74.947 108.063 C 74.674 108.310,74.218 108.635,73.935 108.785 L 73.420 109.057 73.442 135.405 L 73.465 161.753 73.999 162.321 C 74.785 163.158,83.473 164.722,84.062 164.133 C 84.231 163.964,84.366 159.785,84.447 152.205 C 84.516 145.788,84.663 140.397,84.774 140.225 C 85.092 139.734,111.895 139.774,112.569 140.267 C 113.034 140.607,113.060 141.105,113.179 152.322 C 113.318 165.285,113.249 164.763,114.747 164.273 C 115.327 164.083,117.315 163.749,119.163 163.531 C 122.561 163.130,123.237 162.878,123.548 161.897 C 123.624 161.658,123.711 149.711,123.742 135.349 L 123.798 109.236 122.579 108.334 C 121.806 107.762,121.076 107.430,120.581 107.424 C 118.792 107.405,114.652 106.937,114.218 106.704 C 113.835 106.500,113.698 106.568,113.465 107.080 M160.113 107.600 C 159.830 107.675,159.607 108.211,159.397 109.323 C 159.230 110.211,158.890 111.194,158.643 111.509 C 158.395 111.824,158.022 112.732,157.815 113.528 C 157.607 114.324,157.264 115.166,157.053 115.399 C 156.842 115.632,156.538 116.437,156.378 117.187 C 156.199 118.023,155.857 118.764,155.495 119.101 C 155.117 119.452,154.903 119.933,154.903 120.429 C 154.903 121.276,154.510 122.192,154.021 122.482 C 153.851 122.583,153.575 123.391,153.408 124.278 C 153.229 125.225,152.910 126.065,152.634 126.315 C 152.376 126.548,152.098 127.146,152.016 127.642 C 151.824 128.810,151.399 129.919,151.145 129.919 C 150.918 129.919,150.522 131.100,150.296 132.454 C 150.212 132.956,149.939 133.630,149.690 133.953 C 149.440 134.277,149.102 135.085,148.937 135.750 C 148.773 136.416,148.419 137.259,148.151 137.624 C 147.883 137.990,147.549 138.907,147.408 139.663 C 147.268 140.418,146.971 141.172,146.750 141.337 C 146.529 141.501,146.191 142.314,145.999 143.142 C 145.808 143.971,145.372 145.060,145.031 145.563 C 144.688 146.068,144.410 146.838,144.410 147.281 C 144.410 147.832,144.175 148.329,143.660 148.868 C 143.091 149.463,142.911 149.885,142.911 150.620 C 142.911 151.197,142.716 151.835,142.430 152.199 C 142.166 152.535,141.764 153.527,141.537 154.403 C 141.309 155.280,140.920 156.256,140.671 156.572 C 140.422 156.889,140.142 157.570,140.048 158.087 C 139.955 158.603,139.597 159.435,139.255 159.936 C 138.777 160.635,138.650 161.099,138.710 161.935 L 138.788 163.023 140.162 163.193 C 140.918 163.286,142.829 163.554,144.410 163.789 C 149.304 164.514,149.485 164.470,150.028 162.411 C 150.218 161.689,150.567 160.886,150.802 160.626 C 151.037 160.366,151.321 159.574,151.433 158.866 C 151.545 158.158,151.856 157.342,152.125 157.053 C 152.482 156.668,153.154 154.363,153.154 153.521 C 153.154 153.499,153.370 153.231,153.635 152.927 C 153.899 152.622,154.191 151.902,154.283 151.327 C 154.376 150.752,154.721 149.813,155.050 149.240 C 155.379 148.668,155.773 147.600,155.925 146.867 C 156.077 146.134,156.410 145.172,156.664 144.729 C 156.918 144.287,157.201 143.500,157.292 142.980 C 157.383 142.461,157.715 141.584,158.031 141.032 C 158.346 140.480,158.725 139.377,158.872 138.580 C 159.019 137.784,159.358 136.855,159.624 136.516 C 159.890 136.178,160.183 135.426,160.275 134.846 C 160.367 134.266,160.699 133.285,161.013 132.667 C 161.328 132.049,161.666 131.149,161.765 130.668 C 161.865 130.187,162.208 129.400,162.529 128.919 C 162.850 128.438,163.228 127.399,163.371 126.610 C 163.513 125.821,163.850 124.865,164.119 124.487 C 164.387 124.108,164.730 123.195,164.880 122.459 C 165.030 121.723,165.377 120.836,165.650 120.489 C 165.923 120.142,166.146 119.492,166.146 119.045 C 166.146 115.707,168.767 117.059,169.765 120.911 C 169.990 121.778,170.328 122.726,170.517 123.017 C 170.706 123.309,171.040 124.332,171.261 125.291 C 171.481 126.249,171.873 127.261,172.131 127.539 C 172.388 127.817,172.678 128.580,172.775 129.235 C 172.871 129.889,173.164 130.697,173.425 131.029 C 173.687 131.362,174.030 132.288,174.187 133.088 C 174.345 133.892,174.733 134.856,175.056 135.247 C 175.406 135.670,175.640 136.282,175.640 136.771 C 175.640 137.221,175.921 138.118,176.264 138.763 C 176.608 139.409,177.016 140.466,177.172 141.112 C 177.329 141.758,177.658 142.623,177.904 143.036 C 178.150 143.448,178.491 144.347,178.663 145.034 C 178.834 145.721,179.222 146.751,179.524 147.323 C 179.827 147.895,180.153 148.990,180.248 149.757 C 180.344 150.523,180.567 151.236,180.743 151.340 C 181.227 151.627,181.636 152.536,181.637 153.325 C 181.638 153.712,181.975 154.703,182.386 155.528 C 182.797 156.352,183.134 157.386,183.135 157.826 C 183.135 158.327,183.364 158.872,183.747 159.285 C 184.096 159.662,184.476 160.510,184.632 161.263 C 185.053 163.288,186.323 164.610,187.454 164.201 C 187.916 164.034,188.697 163.898,189.190 163.898 C 190.401 163.898,195.863 163.139,196.565 162.873 C 197.281 162.602,197.329 161.360,196.656 160.505 C 196.397 160.175,196.111 159.414,196.021 158.814 C 195.931 158.213,195.592 157.362,195.268 156.922 C 194.944 156.483,194.602 155.708,194.508 155.201 C 194.413 154.694,194.111 153.911,193.835 153.462 C 193.559 153.013,193.176 151.975,192.985 151.155 C 192.794 150.335,192.426 149.452,192.167 149.194 C 191.909 148.935,191.620 148.214,191.527 147.590 C 191.429 146.937,191.110 146.190,190.776 145.829 C 190.456 145.484,190.118 144.793,190.024 144.294 C 189.931 143.794,189.579 142.868,189.243 142.236 C 188.907 141.604,188.632 140.907,188.631 140.687 C 188.631 140.467,188.294 139.613,187.883 138.788 C 187.471 137.964,187.134 137.018,187.134 136.687 C 187.133 136.355,186.864 135.624,186.535 135.063 C 186.206 134.501,185.801 133.539,185.636 132.926 C 185.471 132.312,185.131 131.550,184.881 131.232 C 184.631 130.914,184.350 130.179,184.258 129.599 C 184.165 129.019,183.808 128.130,183.464 127.624 C 183.121 127.117,182.733 126.229,182.603 125.650 C 182.473 125.071,182.163 124.305,181.915 123.948 C 181.666 123.590,181.329 122.754,181.165 122.088 C 181.002 121.423,180.652 120.580,180.387 120.215 C 180.122 119.849,179.783 118.992,179.633 118.309 C 179.484 117.626,179.153 116.727,178.898 116.310 C 178.643 115.894,178.301 115.047,178.138 114.428 C 177.976 113.810,177.676 113.118,177.473 112.890 C 177.270 112.663,176.934 111.819,176.725 111.016 C 176.517 110.213,176.195 109.388,176.011 109.181 C 175.826 108.975,175.558 108.497,175.414 108.119 L 175.153 107.433 167.839 107.462 C 163.816 107.478,160.340 107.540,160.113 107.600 M211.679 134.596 L 211.743 161.769 212.617 162.189 C 214.048 162.875,218.381 163.555,226.733 164.404 C 229.352 164.670,236.755 164.673,238.976 164.408 C 249.916 163.103,251.590 162.818,252.732 162.070 L 253.557 161.529 253.637 157.779 C 253.681 155.716,253.680 153.849,253.635 153.628 C 253.417 152.566,252.719 152.523,237.851 152.655 C 224.576 152.772,223.705 152.753,223.235 152.335 C 222.745 151.899,222.734 151.496,222.611 129.725 L 222.486 107.558 217.051 107.490 L 211.616 107.423 211.679 134.596 " stroke="none" fill="#192172" fill-rule="evenodd"></path><path id="path1" d="M0.000 124.922 L 0.000 249.844 200.000 249.844 L 400.000 249.844 400.000 124.922 L 400.000 0.000 200.000 0.000 L 0.000 0.000 0.000 124.922 M45.508 105.888 C 46.621 106.256,48.270 106.514,50.505 106.668 C 53.529 106.876,55.149 107.185,55.840 107.686 C 55.978 107.786,56.499 107.941,56.999 108.031 C 58.374 108.278,58.521 108.884,58.422 113.882 C 58.306 119.787,59.488 119.176,48.196 119.176 C 42.672 119.176,38.947 119.270,38.859 119.412 C 38.778 119.543,38.687 129.430,38.657 141.385 L 38.601 163.120 37.735 164.014 L 36.869 164.907 31.873 164.839 L 26.878 164.772 26.306 163.923 L 25.734 163.074 25.734 141.383 C 25.734 120.194,25.723 119.687,25.251 119.434 C 24.943 119.270,21.490 119.176,15.757 119.176 C 4.559 119.176,5.746 119.854,5.746 113.460 C 5.746 108.377,5.748 108.373,7.122 108.043 C 7.533 107.944,7.983 107.783,8.120 107.684 C 8.814 107.187,10.436 106.884,13.492 106.682 C 15.347 106.559,17.370 106.284,17.989 106.070 C 21.102 104.992,42.374 104.852,45.508 105.888 M117.561 106.085 C 117.978 106.280,119.344 106.535,120.595 106.650 C 123.016 106.873,124.731 107.799,125.057 109.057 C 125.128 109.332,125.155 121.490,125.117 136.076 C 125.038 166.016,125.234 163.346,123.071 163.922 C 122.509 164.071,121.875 164.349,121.662 164.539 C 121.273 164.885,118.073 165.312,114.836 165.449 C 111.912 165.573,112.069 166.253,111.982 153.076 C 111.936 146.087,111.817 141.949,111.658 141.789 C 111.237 141.367,85.485 141.202,85.324 141.619 C 85.254 141.802,85.197 146.941,85.197 153.038 C 85.197 164.114,85.122 165.180,84.326 165.486 C 83.631 165.752,76.301 165.009,76.079 164.649 C 76.004 164.529,75.342 164.255,74.606 164.041 C 72.389 163.397,72.588 166.059,72.509 136.064 C 72.471 121.348,72.495 109.082,72.564 108.807 C 72.851 107.658,74.383 106.863,76.678 106.669 C 77.859 106.570,79.541 106.245,80.415 105.949 C 82.587 105.213,84.434 105.310,84.875 106.184 C 85.113 106.657,85.190 109.478,85.193 117.864 L 85.197 128.919 98.293 128.919 C 105.496 128.919,111.539 128.862,111.722 128.792 C 111.994 128.688,112.041 126.721,111.980 118.109 C 111.886 104.882,111.857 104.994,115.273 105.502 C 116.114 105.627,117.144 105.889,117.561 106.085 M303.290 105.891 C 304.403 106.291,305.818 106.531,307.912 106.675 C 314.626 107.136,315.709 108.714,315.076 117.106 C 315.063 117.273,314.702 117.810,314.272 118.299 L 313.491 119.188 296.762 119.168 C 286.306 119.156,279.924 119.239,279.742 119.391 C 279.359 119.708,279.384 127.329,279.769 127.714 C 279.950 127.895,283.460 127.966,290.805 127.936 L 301.575 127.892 301.957 128.805 C 302.531 130.180,302.376 139.956,301.771 140.561 C 301.363 140.967,282.260 141.147,280.687 140.759 C 279.702 140.516,279.504 141.481,279.504 146.535 C 279.504 149.412,279.603 151.283,279.763 151.443 C 279.937 151.618,285.503 151.691,296.802 151.668 L 313.582 151.633 314.442 152.493 L 315.303 153.354 315.303 157.630 L 315.303 161.906 314.486 162.798 C 313.741 163.610,313.501 163.709,311.800 163.902 C 310.772 164.019,309.498 164.297,308.969 164.520 C 304.995 166.193,278.118 166.169,272.860 164.487 C 271.846 164.163,270.598 163.898,270.087 163.898 C 268.808 163.898,267.768 163.495,267.328 162.831 C 266.955 162.269,266.596 110.463,266.954 108.997 C 267.227 107.881,269.949 106.922,273.576 106.665 C 275.377 106.537,277.154 106.271,277.682 106.051 C 280.261 104.973,300.388 104.847,303.290 105.891 M368.395 105.895 C 369.367 106.253,370.904 106.525,372.767 106.669 C 376.036 106.922,376.287 107.001,378.575 108.512 L 379.263 108.966 379.263 113.053 L 379.263 117.140 378.597 117.665 C 377.934 118.186,377.842 118.189,360.179 118.169 C 343.299 118.151,342.418 118.172,342.249 118.600 C 341.929 119.411,342.005 127.039,342.336 127.370 C 342.562 127.597,346.142 127.670,356.915 127.670 L 371.194 127.670 372.293 128.253 C 372.897 128.573,373.766 128.909,374.224 129.000 C 375.418 129.237,377.672 131.241,378.018 132.374 C 378.171 132.879,378.576 133.865,378.916 134.566 L 379.534 135.840 379.461 145.976 C 379.390 155.836,379.374 156.131,378.861 156.824 C 378.571 157.216,378.246 157.815,378.139 158.156 C 377.901 158.910,375.646 161.149,375.125 161.149 C 374.919 161.149,374.689 161.308,374.615 161.501 C 374.474 161.870,373.658 162.244,372.392 162.523 C 371.980 162.613,371.474 162.836,371.268 163.018 C 370.809 163.423,369.158 163.891,368.145 163.904 C 367.733 163.910,366.777 164.134,366.021 164.404 C 364.502 164.945,356.283 165.846,352.280 165.909 C 347.762 165.980,337.337 165.055,336.220 164.483 C 335.839 164.287,334.781 164.058,333.869 163.973 C 331.163 163.720,330.936 163.127,331.085 156.694 C 331.160 153.456,331.216 153.078,331.667 152.748 C 332.095 152.436,334.766 152.389,350.281 152.417 L 368.395 152.449 368.462 147.167 C 368.499 144.262,368.439 141.723,368.328 141.525 C 368.157 141.218,365.920 141.155,353.395 141.101 L 338.663 141.037 336.914 140.435 C 335.002 139.777,332.931 137.968,332.630 136.693 C 332.546 136.334,332.250 135.790,331.973 135.485 C 330.628 134.004,330.665 114.521,332.015 113.083 C 332.305 112.775,332.542 112.384,332.542 112.214 C 332.542 111.769,334.945 109.432,335.403 109.432 C 335.616 109.432,335.790 109.313,335.790 109.169 C 335.790 108.803,337.176 108.264,338.663 108.051 C 339.350 107.952,340.081 107.734,340.287 107.565 C 340.940 107.032,341.594 106.888,344.328 106.677 C 345.794 106.565,347.256 106.328,347.576 106.152 C 349.679 104.996,365.422 104.801,368.395 105.895 M176.339 107.538 C 176.797 108.060,177.197 108.894,177.366 109.681 C 177.518 110.390,177.806 111.133,178.006 111.333 C 178.371 111.699,178.884 113.218,178.887 113.943 C 178.888 114.156,179.168 114.711,179.510 115.174 C 179.862 115.651,180.201 116.540,180.292 117.220 C 180.389 117.953,180.673 118.661,181.020 119.035 C 181.332 119.373,181.666 120.133,181.760 120.724 C 181.855 121.315,182.195 122.192,182.516 122.673 C 182.836 123.154,183.175 124.073,183.267 124.715 C 183.375 125.460,183.649 126.082,184.025 126.435 C 184.382 126.770,184.678 127.413,184.775 128.064 C 184.864 128.655,185.145 129.327,185.399 129.557 C 185.653 129.787,185.998 130.609,186.167 131.384 C 186.335 132.158,186.718 133.091,187.018 133.456 C 187.326 133.832,187.634 134.662,187.727 135.365 C 187.818 136.050,188.115 136.892,188.386 137.237 C 188.657 137.582,189.014 138.466,189.178 139.201 C 189.342 139.936,189.736 140.855,190.053 141.243 C 190.371 141.632,190.631 142.271,190.631 142.664 C 190.631 143.570,190.944 144.382,191.569 145.095 C 191.849 145.414,192.124 146.200,192.210 146.925 C 192.321 147.856,192.521 148.322,192.961 148.668 C 193.388 149.004,193.600 149.473,193.692 150.288 C 193.768 150.971,194.035 151.665,194.349 151.999 C 194.659 152.329,194.989 153.176,195.146 154.045 C 195.321 155.016,195.591 155.666,195.927 155.927 C 196.260 156.187,196.513 156.791,196.649 157.650 C 196.773 158.431,197.079 159.208,197.396 159.546 C 198.737 160.973,198.340 163.464,196.690 163.984 C 196.037 164.190,195.053 164.522,194.503 164.723 C 192.875 165.316,186.456 165.697,185.593 165.251 C 184.714 164.796,184.210 163.836,183.994 162.203 C 183.880 161.344,183.635 160.751,183.241 160.381 C 182.885 160.047,182.592 159.403,182.492 158.739 C 182.402 158.138,182.111 157.370,181.846 157.033 C 181.581 156.696,181.206 155.664,181.013 154.740 C 180.819 153.816,180.441 152.762,180.173 152.399 C 179.904 152.035,179.603 151.092,179.505 150.303 C 179.406 149.512,179.181 148.812,179.005 148.744 C 178.623 148.598,178.238 147.650,178.015 146.312 C 177.926 145.778,177.621 145.027,177.337 144.642 C 177.053 144.258,176.733 143.393,176.627 142.721 C 176.521 142.049,176.143 141.070,175.787 140.546 C 175.431 140.022,175.141 139.243,175.141 138.814 C 175.141 137.696,174.728 136.417,174.173 135.813 C 173.910 135.525,173.612 134.789,173.512 134.177 C 173.412 133.565,173.118 132.777,172.860 132.427 C 172.601 132.077,172.264 131.080,172.111 130.211 C 171.922 129.142,171.641 128.440,171.238 128.038 C 170.818 127.617,170.643 127.161,170.643 126.481 C 170.643 125.851,170.431 125.231,170.029 124.686 C 169.692 124.229,169.284 123.223,169.124 122.452 C 168.964 121.681,168.622 120.782,168.364 120.454 C 168.106 120.126,167.895 119.711,167.895 119.533 C 167.895 117.617,167.103 117.756,166.873 119.712 C 166.769 120.594,166.485 121.519,166.200 121.904 C 165.929 122.270,165.627 123.071,165.529 123.684 C 165.431 124.296,165.076 125.203,164.740 125.699 C 164.403 126.194,164.034 127.200,163.918 127.933 C 163.784 128.779,163.523 129.416,163.204 129.674 C 162.856 129.956,162.620 130.604,162.436 131.783 C 162.275 132.820,161.981 133.692,161.687 134.013 C 161.420 134.303,161.124 135.047,161.028 135.665 C 160.932 136.284,160.594 137.183,160.278 137.664 C 159.961 138.145,159.584 139.237,159.440 140.091 C 159.296 140.945,158.956 141.957,158.683 142.340 C 158.410 142.722,158.053 143.710,157.889 144.534 C 157.725 145.358,157.385 146.294,157.134 146.613 C 156.883 146.932,156.602 147.719,156.511 148.362 C 156.414 149.039,156.105 149.795,155.778 150.156 C 155.445 150.524,155.141 151.275,155.040 151.982 C 154.945 152.643,154.595 153.586,154.261 154.078 C 153.927 154.570,153.654 155.287,153.654 155.671 C 153.654 156.646,153.220 157.683,152.643 158.088 C 152.327 158.309,152.155 158.719,152.155 159.252 C 152.155 160.278,151.718 161.589,151.116 162.370 C 150.863 162.697,150.656 163.181,150.656 163.444 C 150.656 164.455,149.959 165.336,149.079 165.439 C 147.343 165.641,142.305 165.152,141.037 164.658 C 140.350 164.390,139.472 164.095,139.086 164.003 C 137.991 163.742,137.583 162.903,137.792 161.343 C 137.992 159.857,138.523 158.401,138.866 158.401 C 138.991 158.401,139.220 157.775,139.373 157.010 C 139.527 156.245,139.882 155.297,140.162 154.904 C 140.441 154.511,140.768 153.667,140.887 153.029 C 141.018 152.330,141.305 151.727,141.609 151.514 C 141.943 151.280,142.171 150.747,142.282 149.937 C 142.398 149.094,142.639 148.549,143.055 148.187 C 143.421 147.869,143.661 147.388,143.662 146.972 C 143.664 145.919,144.156 144.342,144.657 143.785 C 144.904 143.510,145.185 142.804,145.281 142.215 C 145.377 141.626,145.727 140.822,146.059 140.428 C 146.428 139.989,146.720 139.244,146.814 138.501 C 146.898 137.834,147.226 136.896,147.544 136.415 C 147.862 135.934,148.199 135.091,148.293 134.541 C 148.386 133.991,148.716 133.092,149.026 132.542 C 149.336 131.993,149.670 131.098,149.769 130.555 C 149.867 130.011,150.206 129.260,150.521 128.886 C 150.836 128.512,151.169 127.699,151.262 127.079 C 151.355 126.460,151.691 125.570,152.009 125.102 C 152.326 124.634,152.662 123.744,152.755 123.124 C 152.866 122.383,153.135 121.814,153.539 121.462 C 153.958 121.098,154.154 120.667,154.154 120.110 C 154.154 119.639,154.431 118.883,154.806 118.332 C 155.165 117.804,155.612 116.637,155.800 115.738 C 155.988 114.840,156.320 113.908,156.538 113.667 C 156.756 113.426,157.084 112.660,157.268 111.964 C 157.451 111.268,157.838 110.398,158.126 110.031 C 158.423 109.654,158.651 108.999,158.651 108.523 C 158.651 106.685,158.660 106.683,167.619 106.683 L 175.588 106.683 176.339 107.538 M223.226 107.245 C 223.578 107.747,223.619 110.122,223.610 129.294 C 223.604 141.112,223.602 150.921,223.605 151.093 C 223.609 151.339,226.778 151.405,238.601 151.405 C 256.782 151.405,254.591 150.601,254.591 157.273 L 254.591 162.141 253.904 162.894 C 253.323 163.530,252.935 163.685,251.391 163.898 C 250.386 164.037,249.221 164.327,248.802 164.544 C 245.756 166.119,219.709 166.123,216.665 164.548 C 216.226 164.321,215.004 164.026,213.950 163.892 C 211.800 163.620,211.243 163.264,210.871 161.924 C 210.407 160.255,210.538 107.909,211.007 107.239 C 211.621 106.363,222.612 106.369,223.226 107.245 M171.081 139.400 C 171.802 139.860,172.394 140.305,172.396 140.387 C 172.398 140.470,172.734 140.916,173.142 141.379 C 173.850 142.182,174.387 143.517,174.390 144.482 C 174.390 144.728,174.644 145.272,174.953 145.691 C 175.440 146.350,175.515 146.759,175.515 148.748 C 175.515 150.750,175.444 151.135,174.953 151.758 C 174.644 152.151,174.386 152.654,174.380 152.876 C 174.341 154.310,172.076 157.418,170.794 157.796 C 170.505 157.881,169.848 158.236,169.333 158.584 C 168.291 159.288,166.732 159.280,165.939 158.567 C 165.710 158.359,165.184 158.106,164.772 158.003 C 164.106 157.837,161.899 155.891,161.899 155.469 C 161.899 155.379,161.604 154.879,161.243 154.359 C 159.974 152.528,159.710 146.061,160.812 143.785 C 161.699 141.951,163.676 139.413,164.216 139.413 C 164.341 139.413,164.742 139.178,165.107 138.890 C 166.209 138.023,169.342 138.291,171.081 139.400 " stroke="none" fill="#fbfbfb" fill-rule="evenodd"></path><path id="path2" d="M166.646 139.085 C 165.057 139.344,162.665 141.177,162.263 142.445 C 162.161 142.766,161.784 143.472,161.426 144.013 C 160.586 145.283,160.430 151.661,161.206 153.029 C 161.440 153.442,161.806 154.147,162.020 154.596 C 162.631 155.878,164.167 157.312,165.148 157.518 C 165.628 157.618,166.302 157.882,166.646 158.104 C 167.378 158.578,167.908 158.529,169.122 157.878 C 169.611 157.616,170.141 157.402,170.300 157.402 C 171.358 157.402,173.885 153.864,173.890 152.376 C 173.891 152.154,174.144 151.651,174.453 151.257 C 175.251 150.244,175.260 147.147,174.469 146.034 C 174.176 145.621,173.864 144.758,173.776 144.116 C 173.393 141.312,169.562 138.609,166.646 139.085 " stroke="none" fill="#0cb1dc" fill-rule="evenodd"></path><path id="path3" d="M20.612 105.453 C 19.788 105.578,18.607 105.856,17.989 106.070 C 17.370 106.284,15.347 106.559,13.492 106.682 C 10.436 106.884,8.814 107.187,8.120 107.684 C 7.983 107.783,7.533 107.944,7.122 108.043 C 5.748 108.373,5.746 108.377,5.746 113.460 C 5.746 119.854,4.559 119.176,15.757 119.176 C 21.490 119.176,24.943 119.270,25.251 119.434 C 25.723 119.687,25.734 120.194,25.734 141.383 L 25.734 163.074 26.306 163.923 L 26.878 164.772 31.873 164.839 L 36.869 164.907 37.735 164.014 L 38.601 163.120 38.657 141.385 C 38.687 129.430,38.778 119.543,38.859 119.412 C 38.947 119.270,42.672 119.176,48.196 119.176 C 59.488 119.176,58.306 119.787,58.422 113.882 C 58.521 108.884,58.374 108.278,56.999 108.031 C 56.499 107.941,55.978 107.786,55.840 107.686 C 55.149 107.185,53.529 106.876,50.505 106.668 C 48.270 106.514,46.621 106.256,45.508 105.888 C 43.677 105.283,23.997 104.938,20.612 105.453 M113.219 105.468 C 111.977 105.928,111.899 106.720,111.980 118.109 C 112.041 126.721,111.994 128.688,111.722 128.792 C 111.539 128.862,105.496 128.919,98.293 128.919 L 85.197 128.919 85.193 117.864 C 85.190 109.478,85.113 106.657,84.875 106.184 C 84.434 105.310,82.587 105.213,80.415 105.949 C 79.541 106.245,77.859 106.570,76.678 106.669 C 74.383 106.863,72.851 107.658,72.564 108.807 C 72.495 109.082,72.471 121.348,72.509 136.064 C 72.588 166.059,72.389 163.397,74.606 164.041 C 75.342 164.255,76.004 164.529,76.079 164.649 C 76.301 165.009,83.631 165.752,84.326 165.486 C 85.122 165.180,85.197 164.114,85.197 153.038 C 85.197 146.941,85.254 141.802,85.324 141.619 C 85.485 141.202,111.237 141.367,111.658 141.789 C 111.817 141.949,111.936 146.087,111.982 153.076 C 112.069 166.253,111.912 165.573,114.836 165.449 C 118.073 165.312,121.273 164.885,121.662 164.539 C 121.875 164.349,122.509 164.071,123.071 163.922 C 125.234 163.346,125.038 166.016,125.117 136.076 C 125.155 121.490,125.128 109.332,125.057 109.057 C 124.731 107.799,123.016 106.873,120.595 106.650 C 119.344 106.535,117.978 106.280,117.561 106.085 C 116.541 105.607,113.869 105.228,113.219 105.468 M280.032 105.446 C 279.252 105.564,278.195 105.836,277.682 106.051 C 277.154 106.271,275.377 106.537,273.576 106.665 C 269.949 106.922,267.227 107.881,266.954 108.997 C 266.596 110.463,266.955 162.269,267.328 162.831 C 267.768 163.495,268.808 163.898,270.087 163.898 C 270.598 163.898,271.846 164.163,272.860 164.487 C 278.118 166.169,304.995 166.193,308.969 164.520 C 309.498 164.297,310.772 164.019,311.800 163.902 C 313.501 163.709,313.741 163.610,314.486 162.798 L 315.303 161.906 315.303 157.630 L 315.303 153.354 314.442 152.493 L 313.582 151.633 296.802 151.668 C 285.503 151.691,279.937 151.618,279.763 151.443 C 279.603 151.283,279.504 149.412,279.504 146.535 C 279.504 141.481,279.702 140.516,280.687 140.759 C 282.260 141.147,301.363 140.967,301.771 140.561 C 302.376 139.956,302.531 130.180,301.957 128.805 L 301.575 127.892 290.805 127.936 C 283.460 127.966,279.950 127.895,279.769 127.714 C 279.384 127.329,279.359 119.708,279.742 119.391 C 279.924 119.239,286.306 119.156,296.762 119.168 L 313.491 119.188 314.272 118.299 C 314.702 117.810,315.063 117.273,315.076 117.106 C 315.709 108.714,314.626 107.136,307.912 106.675 C 305.818 106.531,304.403 106.291,303.290 105.891 C 301.556 105.267,283.479 104.921,280.032 105.446 M349.532 105.519 C 348.776 105.691,347.896 105.976,347.576 106.152 C 347.256 106.328,345.794 106.565,344.328 106.677 C 341.594 106.888,340.940 107.032,340.287 107.565 C 340.081 107.734,339.350 107.952,338.663 108.051 C 337.176 108.264,335.790 108.803,335.790 109.169 C 335.790 109.313,335.616 109.432,335.403 109.432 C 334.945 109.432,332.542 111.769,332.542 112.214 C 332.542 112.384,332.305 112.775,332.015 113.083 C 330.665 114.521,330.628 134.004,331.973 135.485 C 332.250 135.790,332.546 136.334,332.630 136.693 C 332.931 137.968,335.002 139.777,336.914 140.435 L 338.663 141.037 353.395 141.101 C 365.920 141.155,368.157 141.218,368.328 141.525 C 368.439 141.723,368.499 144.262,368.462 147.167 L 368.395 152.449 350.281 152.417 C 334.766 152.389,332.095 152.436,331.667 152.748 C 331.216 153.078,331.160 153.456,331.085 156.694 C 330.936 163.127,331.163 163.720,333.869 163.973 C 334.781 164.058,335.839 164.287,336.220 164.483 C 337.337 165.055,347.762 165.980,352.280 165.909 C 356.283 165.846,364.502 164.945,366.021 164.404 C 366.777 164.134,367.733 163.910,368.145 163.904 C 369.158 163.891,370.809 163.423,371.268 163.018 C 371.474 162.836,371.980 162.613,372.392 162.523 C 373.658 162.244,374.474 161.870,374.615 161.501 C 374.689 161.308,374.919 161.149,375.125 161.149 C 375.646 161.149,377.901 158.910,378.139 158.156 C 378.246 157.815,378.571 157.216,378.861 156.824 C 379.374 156.131,379.390 155.836,379.461 145.976 L 379.534 135.840 378.916 134.566 C 378.576 133.865,378.171 132.879,378.018 132.374 C 377.672 131.241,375.418 129.237,374.224 129.000 C 373.766 128.909,372.897 128.573,372.293 128.253 L 371.194 127.670 356.915 127.670 C 346.142 127.670,342.562 127.597,342.336 127.370 C 342.005 127.039,341.929 119.411,342.249 118.600 C 342.418 118.172,343.299 118.151,360.179 118.169 C 377.842 118.189,377.934 118.186,378.597 117.665 L 379.263 117.140 379.263 113.053 L 379.263 108.966 378.575 108.512 C 376.287 107.001,376.036 106.922,372.767 106.669 C 370.904 106.525,369.367 106.253,368.395 105.895 C 366.547 105.215,352.123 104.928,349.532 105.519 M39.467 105.688 C 41.180 105.821,43.147 106.093,43.839 106.292 C 44.531 106.491,46.721 106.780,48.706 106.935 C 50.806 107.099,52.895 107.410,53.703 107.678 C 54.466 107.932,55.540 108.215,56.090 108.307 C 57.910 108.612,57.964 108.752,57.964 113.206 C 57.964 117.427,57.757 118.409,56.862 118.449 C 56.575 118.462,52.460 118.453,47.717 118.429 C 39.235 118.386,39.084 118.394,38.411 118.923 L 37.726 119.462 37.726 141.266 C 37.726 162.691,37.718 163.078,37.231 163.519 C 36.471 164.207,27.322 164.199,26.818 163.510 C 26.545 163.136,26.483 159.071,26.480 141.301 C 26.478 129.338,26.391 119.417,26.287 119.254 C 25.798 118.485,24.572 118.390,15.891 118.453 L 7.173 118.516 6.710 117.944 C 6.300 117.438,6.246 116.893,6.246 113.282 C 6.246 108.611,6.195 108.720,8.620 108.183 C 9.307 108.031,10.343 107.746,10.922 107.550 C 11.501 107.355,13.525 107.075,15.419 106.929 C 17.313 106.783,19.481 106.488,20.235 106.274 C 22.879 105.524,33.283 105.207,39.467 105.688 M298.216 105.684 C 299.742 105.819,301.377 106.091,301.849 106.288 C 302.321 106.485,304.269 106.771,306.178 106.924 C 308.592 107.116,309.988 107.351,310.759 107.692 C 311.369 107.962,312.120 108.182,312.428 108.182 C 312.735 108.182,313.283 108.415,313.645 108.700 L 314.304 109.218 314.304 113.164 C 314.304 116.798,314.262 117.162,313.777 117.779 L 313.251 118.448 296.530 118.414 C 281.516 118.383,279.745 118.421,279.192 118.783 C 278.220 119.421,278.229 127.346,279.203 128.320 L 279.830 128.947 290.609 128.903 L 301.387 128.859 301.715 129.451 C 302.514 130.892,302.077 140.151,301.209 140.167 C 301.059 140.170,296.155 140.168,290.311 140.163 C 281.454 140.154,279.602 140.212,279.193 140.512 C 278.369 141.113,278.297 151.201,279.109 152.066 L 279.671 152.664 296.523 152.649 L 313.375 152.634 313.964 153.188 C 314.535 153.724,314.553 153.864,314.553 157.691 L 314.553 161.641 313.866 162.363 C 311.436 164.919,286.705 166.063,275.078 164.157 C 268.020 163.001,268.170 163.042,267.705 162.143 C 267.283 161.328,267.136 109.630,267.553 108.972 C 268.003 108.261,272.094 107.183,275.328 106.922 C 277.046 106.784,279.069 106.490,279.825 106.268 C 282.445 105.502,292.534 105.181,298.216 105.684 M363.770 105.696 C 365.173 105.840,366.730 106.116,367.232 106.311 C 367.734 106.505,369.494 106.783,371.143 106.927 C 374.275 107.202,377.368 108.080,378.115 108.906 C 378.740 109.596,378.726 116.837,378.100 117.311 C 377.716 117.603,374.708 117.662,359.990 117.669 C 338.694 117.678,341.237 116.968,341.242 122.905 C 341.246 128.848,339.237 128.143,356.403 128.226 C 369.151 128.288,370.774 128.340,371.893 128.728 C 372.580 128.966,373.452 129.221,373.831 129.295 C 375.065 129.536,377.469 132.059,377.910 133.576 C 378.122 134.305,378.485 135.270,378.717 135.721 C 379.214 136.686,379.497 152.954,379.043 154.464 C 377.143 160.789,372.517 163.281,360.103 164.665 C 358.762 164.815,357.590 164.983,357.499 165.039 C 355.494 166.278,332.635 163.918,331.863 162.392 C 331.502 161.678,331.415 153.992,331.762 153.445 C 331.936 153.170,335.232 153.116,350.208 153.143 C 367.056 153.173,368.468 153.143,368.793 152.752 C 369.389 152.035,369.430 142.299,368.841 141.211 L 368.395 140.387 353.279 140.326 C 334.625 140.251,334.900 140.317,332.502 135.290 L 331.668 133.542 331.668 124.297 L 331.668 115.053 332.479 113.429 C 333.794 110.797,336.543 108.811,339.527 108.337 C 340.140 108.240,341.140 107.939,341.750 107.669 C 342.450 107.360,343.892 107.088,345.658 106.933 C 347.197 106.798,348.951 106.510,349.556 106.292 C 351.807 105.480,358.810 105.187,363.770 105.696 M84.453 106.575 C 84.598 106.955,84.697 111.571,84.697 117.925 C 84.697 127.327,84.745 128.682,85.090 129.027 C 85.506 129.443,110.475 129.600,111.930 129.196 L 112.555 129.022 112.680 117.891 C 112.815 105.782,112.821 105.739,114.164 106.029 C 116.788 106.596,118.691 106.915,119.502 106.923 C 121.078 106.940,122.509 107.419,123.495 108.260 L 124.428 109.057 124.432 135.482 C 124.436 163.417,124.471 162.602,123.228 163.244 C 122.306 163.720,117.937 164.647,116.617 164.647 C 116.030 164.647,115.178 164.754,114.725 164.884 C 112.710 165.462,112.680 165.279,112.680 152.492 C 112.680 140.859,112.658 140.667,111.368 140.660 C 111.196 140.660,105.265 140.650,98.189 140.640 L 85.322 140.621 85.013 141.203 C 84.782 141.640,84.704 144.558,84.701 152.858 C 84.698 160.453,84.610 164.092,84.421 164.446 C 83.832 165.547,74.960 164.176,73.550 162.767 L 72.954 162.171 72.954 135.569 C 72.954 112.469,73.003 108.919,73.323 108.599 C 74.392 107.530,75.427 107.172,78.237 106.900 C 79.798 106.749,81.412 106.479,81.824 106.300 C 83.134 105.731,84.174 105.839,84.453 106.575 M159.151 107.183 C 158.849 107.485,158.651 108.016,158.651 108.523 C 158.651 108.999,158.423 109.654,158.126 110.031 C 157.838 110.398,157.451 111.268,157.268 111.964 C 157.084 112.660,156.756 113.426,156.538 113.667 C 156.320 113.908,155.988 114.840,155.800 115.738 C 155.612 116.637,155.165 117.804,154.806 118.332 C 154.431 118.883,154.154 119.639,154.154 120.110 C 154.154 120.667,153.958 121.098,153.539 121.462 C 153.135 121.814,152.866 122.383,152.755 123.124 C 152.662 123.744,152.326 124.634,152.009 125.102 C 151.691 125.570,151.355 126.460,151.262 127.079 C 151.169 127.699,150.836 128.512,150.521 128.886 C 150.206 129.260,149.867 130.011,149.769 130.555 C 149.670 131.098,149.336 131.993,149.026 132.542 C 148.716 133.092,148.386 133.991,148.293 134.541 C 148.199 135.091,147.862 135.934,147.544 136.415 C 147.226 136.896,146.898 137.834,146.814 138.501 C 146.720 139.244,146.428 139.989,146.059 140.428 C 145.727 140.822,145.377 141.626,145.281 142.215 C 145.185 142.804,144.904 143.510,144.657 143.785 C 144.156 144.342,143.664 145.919,143.662 146.972 C 143.661 147.388,143.421 147.869,143.055 148.187 C 142.639 148.549,142.398 149.094,142.282 149.937 C 142.171 150.747,141.943 151.280,141.609 151.514 C 141.305 151.727,141.018 152.330,140.887 153.029 C 140.768 153.667,140.441 154.511,140.162 154.904 C 139.882 155.297,139.527 156.245,139.373 157.010 C 139.220 157.775,138.991 158.401,138.866 158.401 C 138.523 158.401,137.992 159.857,137.792 161.343 C 137.583 162.903,137.991 163.742,139.086 164.003 C 139.472 164.095,140.350 164.390,141.037 164.658 C 142.305 165.152,147.343 165.641,149.079 165.439 C 149.959 165.336,150.656 164.455,150.656 163.444 C 150.656 163.181,150.863 162.697,151.116 162.370 C 151.718 161.589,152.155 160.278,152.155 159.252 C 152.155 158.719,152.327 158.309,152.643 158.088 C 153.220 157.683,153.654 156.646,153.654 155.671 C 153.654 155.287,153.927 154.570,154.261 154.078 C 154.595 153.586,154.945 152.643,155.040 151.982 C 155.141 151.275,155.445 150.524,155.778 150.156 C 156.105 149.795,156.414 149.039,156.511 148.362 C 156.602 147.719,156.883 146.932,157.134 146.613 C 157.385 146.294,157.725 145.358,157.889 144.534 C 158.053 143.710,158.410 142.722,158.683 142.340 C 158.956 141.957,159.296 140.945,159.440 140.091 C 159.584 139.237,159.961 138.145,160.278 137.664 C 160.594 137.183,160.932 136.284,161.028 135.665 C 161.124 135.047,161.420 134.303,161.687 134.013 C 161.981 133.692,162.275 132.820,162.436 131.783 C 162.620 130.604,162.856 129.956,163.204 129.674 C 163.523 129.416,163.784 128.779,163.918 127.933 C 164.034 127.200,164.403 126.194,164.740 125.699 C 165.076 125.203,165.431 124.296,165.529 123.684 C 165.627 123.071,165.929 122.270,166.200 121.904 C 166.485 121.519,166.769 120.594,166.873 119.712 C 167.103 117.756,167.895 117.617,167.895 119.533 C 167.895 119.711,168.106 120.126,168.364 120.454 C 168.622 120.782,168.964 121.681,169.124 122.452 C 169.284 123.223,169.692 124.229,170.029 124.686 C 170.431 125.231,170.643 125.851,170.643 126.481 C 170.643 127.161,170.818 127.617,171.238 128.038 C 171.641 128.440,171.922 129.142,172.111 130.211 C 172.264 131.080,172.601 132.077,172.860 132.427 C 173.118 132.777,173.412 133.565,173.512 134.177 C 173.612 134.789,173.910 135.525,174.173 135.813 C 174.728 136.417,175.141 137.696,175.141 138.814 C 175.141 139.243,175.431 140.022,175.787 140.546 C 176.143 141.070,176.521 142.049,176.627 142.721 C 176.733 143.393,177.053 144.258,177.337 144.642 C 177.621 145.027,177.926 145.778,178.015 146.312 C 178.238 147.650,178.623 148.598,179.005 148.744 C 179.181 148.812,179.406 149.512,179.505 150.303 C 179.603 151.092,179.904 152.035,180.173 152.399 C 180.441 152.762,180.819 153.816,181.013 154.740 C 181.206 155.664,181.581 156.696,181.846 157.033 C 182.111 157.370,182.402 158.138,182.492 158.739 C 182.592 159.403,182.885 160.047,183.241 160.381 C 183.635 160.751,183.880 161.344,183.994 162.203 C 184.210 163.836,184.714 164.796,185.593 165.251 C 186.456 165.697,192.875 165.316,194.503 164.723 C 195.053 164.522,196.037 164.190,196.690 163.984 C 198.340 163.464,198.737 160.973,197.396 159.546 C 197.079 159.208,196.773 158.431,196.649 157.650 C 196.513 156.791,196.260 156.187,195.927 155.927 C 195.591 155.666,195.321 155.016,195.146 154.045 C 194.989 153.176,194.659 152.329,194.349 151.999 C 194.035 151.665,193.768 150.971,193.692 150.288 C 193.600 149.473,193.388 149.004,192.961 148.668 C 192.521 148.322,192.321 147.856,192.210 146.925 C 192.124 146.200,191.849 145.414,191.569 145.095 C 190.944 144.382,190.631 143.570,190.631 142.664 C 190.631 142.271,190.371 141.632,190.053 141.243 C 189.736 140.855,189.342 139.936,189.178 139.201 C 189.014 138.466,188.657 137.582,188.386 137.237 C 188.115 136.892,187.818 136.050,187.727 135.365 C 187.634 134.662,187.326 133.832,187.018 133.456 C 186.718 133.091,186.335 132.158,186.167 131.384 C 185.998 130.609,185.653 129.787,185.399 129.557 C 185.145 129.327,184.864 128.655,184.775 128.064 C 184.678 127.413,184.382 126.770,184.025 126.435 C 183.649 126.082,183.375 125.460,183.267 124.715 C 183.175 124.073,182.836 123.154,182.516 122.673 C 182.195 122.192,181.855 121.315,181.760 120.724 C 181.666 120.133,181.332 119.373,181.020 119.035 C 180.673 118.661,180.389 117.953,180.292 117.220 C 180.201 116.540,179.862 115.651,179.510 115.174 C 179.168 114.711,178.888 114.156,178.887 113.943 C 178.884 113.218,178.371 111.699,178.006 111.333 C 177.806 111.133,177.518 110.390,177.366 109.681 C 177.197 108.894,176.797 108.060,176.339 107.538 L 175.588 106.683 167.619 106.683 C 159.983 106.683,159.629 106.704,159.151 107.183 M211.007 107.239 C 210.538 107.909,210.407 160.255,210.871 161.924 C 211.243 163.264,211.800 163.620,213.950 163.892 C 215.004 164.026,216.226 164.321,216.665 164.548 C 219.709 166.123,245.756 166.119,248.802 164.544 C 249.221 164.327,250.386 164.037,251.391 163.898 C 252.935 163.685,253.323 163.530,253.904 162.894 L 254.591 162.141 254.591 157.273 C 254.591 150.601,256.782 151.405,238.601 151.405 C 226.778 151.405,223.609 151.339,223.605 151.093 C 223.602 150.921,223.604 141.112,223.610 129.294 C 223.619 110.122,223.578 107.747,223.226 107.245 C 222.612 106.369,211.621 106.363,211.007 107.239 M175.647 107.690 C 176.036 108.106,176.540 108.978,176.766 109.626 C 176.993 110.275,177.451 111.398,177.784 112.123 C 178.116 112.847,178.389 113.587,178.389 113.767 C 178.389 113.947,178.672 114.647,179.019 115.323 C 179.366 115.999,179.763 117.058,179.902 117.676 C 180.041 118.295,180.360 119.085,180.612 119.432 C 180.863 119.779,181.263 120.734,181.500 121.555 C 181.737 122.376,182.083 123.219,182.269 123.427 C 182.455 123.635,182.725 124.332,182.869 124.974 C 183.013 125.617,183.413 126.558,183.758 127.066 C 184.103 127.574,184.385 128.171,184.385 128.392 C 184.385 128.613,184.722 129.507,185.134 130.378 C 185.547 131.250,185.884 132.093,185.885 132.252 C 185.885 132.412,186.222 133.217,186.633 134.041 C 187.045 134.866,187.381 135.768,187.382 136.046 C 187.382 136.325,187.717 137.224,188.125 138.045 C 188.533 138.866,188.870 139.718,188.874 139.938 C 188.878 140.158,189.163 140.866,189.506 141.512 C 189.849 142.157,190.261 143.214,190.420 143.860 C 190.580 144.506,190.973 145.352,191.295 145.741 C 191.651 146.171,191.880 146.774,191.880 147.283 C 191.880 147.792,192.109 148.395,192.465 148.825 C 192.787 149.214,193.189 150.094,193.358 150.781 C 193.528 151.468,193.878 152.372,194.136 152.791 C 194.395 153.210,194.683 154.035,194.778 154.626 C 194.872 155.216,195.197 155.998,195.499 156.363 C 195.801 156.728,196.187 157.589,196.356 158.276 C 196.526 158.963,196.881 159.876,197.146 160.304 C 197.695 161.195,197.781 162.709,197.304 163.105 C 196.699 163.607,191.486 164.634,189.505 164.642 C 188.817 164.645,187.880 164.754,187.422 164.886 C 186.065 165.275,184.790 164.038,184.394 161.947 C 184.265 161.265,183.875 160.289,183.529 159.779 C 183.182 159.268,182.824 158.440,182.732 157.939 C 182.640 157.437,182.309 156.521,181.997 155.903 C 181.684 155.284,181.351 154.288,181.256 153.688 C 181.161 153.089,180.814 152.202,180.485 151.717 C 180.157 151.232,179.888 150.485,179.888 150.057 C 179.888 149.628,179.612 148.760,179.275 148.127 C 178.938 147.495,178.525 146.428,178.355 145.756 C 178.186 145.084,177.857 144.197,177.624 143.785 C 177.391 143.373,177.066 142.473,176.901 141.786 C 176.737 141.099,176.384 140.184,176.118 139.753 C 175.851 139.321,175.512 138.313,175.364 137.513 C 175.213 136.692,174.850 135.766,174.531 135.388 C 174.220 135.018,173.897 134.213,173.813 133.597 C 173.728 132.981,173.374 131.941,173.026 131.286 C 172.677 130.630,172.392 129.796,172.392 129.430 C 172.392 129.065,172.119 128.397,171.785 127.944 C 171.452 127.492,171.105 126.655,171.015 126.084 C 170.925 125.514,170.594 124.541,170.280 123.923 C 169.965 123.304,169.624 122.405,169.520 121.924 C 168.791 118.525,166.646 116.142,166.646 118.729 C 166.646 119.154,166.369 120.088,166.030 120.804 C 165.691 121.520,165.295 122.635,165.151 123.281 C 165.006 123.927,164.673 124.757,164.410 125.126 C 164.148 125.495,163.808 126.427,163.655 127.199 C 163.502 127.970,163.100 128.976,162.763 129.434 C 162.425 129.891,162.148 130.553,162.146 130.904 C 162.145 131.255,161.860 132.153,161.513 132.898 C 161.166 133.644,160.771 134.747,160.636 135.351 C 160.501 135.954,160.174 136.750,159.909 137.118 C 159.645 137.487,159.317 138.415,159.181 139.181 C 159.045 139.946,158.646 141.115,158.293 141.779 C 157.940 142.442,157.651 143.190,157.651 143.440 C 157.651 143.691,157.388 144.493,157.065 145.222 C 156.742 145.951,156.338 147.134,156.166 147.849 C 155.995 148.565,155.638 149.425,155.374 149.761 C 155.111 150.096,154.799 150.881,154.683 151.505 C 154.566 152.129,154.273 152.942,154.031 153.311 C 153.789 153.680,153.435 154.651,153.244 155.469 C 153.054 156.288,152.683 157.229,152.422 157.561 C 152.160 157.894,151.869 158.640,151.774 159.220 C 151.680 159.800,151.386 160.631,151.122 161.065 C 150.858 161.500,150.476 162.414,150.273 163.097 C 149.654 165.180,148.014 165.360,141.623 164.046 C 137.803 163.260,137.389 162.571,138.905 159.519 C 139.313 158.698,139.651 157.846,139.655 157.626 C 139.659 157.406,139.944 156.698,140.287 156.052 C 140.630 155.407,141.041 154.350,141.201 153.704 C 141.360 153.058,141.754 152.212,142.076 151.823 C 142.460 151.360,142.661 150.795,142.661 150.181 C 142.661 149.512,142.834 149.081,143.268 148.673 C 143.625 148.338,143.945 147.676,144.044 147.068 C 144.137 146.499,144.539 145.361,144.936 144.538 C 145.334 143.716,145.659 142.810,145.659 142.526 C 145.659 142.241,145.934 141.636,146.269 141.181 C 146.605 140.727,146.994 139.819,147.134 139.165 C 147.275 138.510,147.675 137.438,148.023 136.783 C 148.372 136.127,148.658 135.355,148.658 135.066 C 148.659 134.777,148.878 134.181,149.147 133.741 C 149.415 133.301,149.803 132.295,150.009 131.506 C 150.215 130.717,150.596 129.784,150.855 129.433 C 151.114 129.082,151.467 128.210,151.638 127.495 C 151.809 126.781,152.098 126.072,152.280 125.921 C 152.462 125.770,152.748 125.062,152.915 124.347 C 153.241 122.958,153.551 122.241,154.034 121.758 C 154.199 121.593,154.410 120.984,154.503 120.405 C 154.595 119.825,154.932 119.041,155.251 118.662 C 155.570 118.283,155.903 117.524,155.991 116.975 C 156.079 116.426,156.488 115.263,156.901 114.390 C 157.313 113.518,157.651 112.646,157.651 112.452 C 157.651 112.258,157.934 111.617,158.279 111.028 C 158.624 110.439,158.977 109.446,159.062 108.823 C 159.322 106.930,158.996 106.998,167.857 106.962 L 174.940 106.933 175.647 107.690 M222.654 107.347 C 223.090 107.741,223.111 108.758,223.111 129.552 C 223.111 148.052,223.164 151.389,223.465 151.638 C 223.726 151.855,227.700 151.945,238.600 151.981 C 256.223 152.039,254.091 151.290,254.091 157.427 L 254.091 161.854 253.334 162.491 C 252.918 162.842,252.159 163.195,251.648 163.277 C 251.137 163.359,249.931 163.580,248.969 163.768 C 247.167 164.121,244.778 164.464,241.122 164.898 C 238.382 165.222,227.406 165.219,224.502 164.892 C 220.154 164.403,217.978 164.101,216.490 163.778 C 215.665 163.600,214.438 163.376,213.763 163.280 C 212.899 163.157,212.326 162.896,211.827 162.396 L 211.118 161.687 211.118 134.703 C 211.118 110.505,211.159 107.678,211.511 107.326 C 212.113 106.724,221.986 106.742,222.654 107.347 M165.107 138.890 C 164.742 139.178,164.341 139.413,164.216 139.413 C 163.676 139.413,161.699 141.951,160.812 143.785 C 159.710 146.061,159.974 152.528,161.243 154.359 C 161.604 154.879,161.899 155.379,161.899 155.469 C 161.899 155.891,164.106 157.837,164.772 158.003 C 165.184 158.106,165.710 158.359,165.939 158.567 C 166.732 159.280,168.291 159.288,169.333 158.584 C 169.848 158.236,170.505 157.881,170.794 157.796 C 172.076 157.418,174.341 154.310,174.380 152.876 C 174.386 152.654,174.644 152.151,174.953 151.758 C 175.444 151.135,175.515 150.750,175.515 148.748 C 175.515 146.759,175.440 146.350,174.953 145.691 C 174.644 145.272,174.390 144.728,174.390 144.482 C 174.387 143.517,173.850 142.182,173.142 141.379 C 172.734 140.916,172.398 140.470,172.396 140.387 C 172.360 139.009,166.489 137.803,165.107 138.890 M170.283 139.815 C 172.002 140.615,173.560 142.533,173.776 144.116 C 173.864 144.758,174.176 145.621,174.469 146.034 C 175.260 147.147,175.251 150.244,174.453 151.257 C 174.144 151.651,173.891 152.154,173.890 152.376 C 173.885 153.864,171.358 157.402,170.300 157.402 C 170.141 157.402,169.611 157.616,169.122 157.878 C 167.908 158.529,167.378 158.578,166.646 158.104 C 166.302 157.882,165.628 157.618,165.148 157.518 C 164.167 157.312,162.631 155.878,162.020 154.596 C 161.806 154.147,161.440 153.442,161.206 153.029 C 160.430 151.661,160.586 145.283,161.426 144.013 C 161.784 143.472,162.161 142.766,162.263 142.445 C 163.157 139.626,167.101 138.333,170.283 139.815 " stroke="none" fill="#989fc3" fill-rule="evenodd"></path><path id="path4" d="M24.233 105.696 C 22.789 105.800,20.990 106.060,20.235 106.274 C 19.481 106.488,17.313 106.783,15.419 106.929 C 13.525 107.075,11.501 107.355,10.922 107.550 C 10.343 107.746,9.307 108.031,8.620 108.183 C 6.195 108.720,6.246 108.611,6.246 113.282 C 6.246 116.893,6.300 117.438,6.710 117.944 L 7.173 118.516 15.891 118.453 C 24.572 118.390,25.798 118.485,26.287 119.254 C 26.391 119.417,26.478 129.338,26.480 141.301 C 26.483 159.071,26.545 163.136,26.818 163.510 C 27.322 164.199,36.471 164.207,37.231 163.519 C 37.718 163.078,37.726 162.691,37.726 141.266 L 37.726 119.462 38.411 118.923 C 39.084 118.394,39.235 118.386,47.717 118.429 C 52.460 118.453,56.575 118.462,56.862 118.449 C 57.757 118.409,57.964 117.427,57.964 113.206 C 57.964 108.752,57.910 108.612,56.090 108.307 C 55.540 108.215,54.466 107.932,53.703 107.678 C 52.895 107.410,50.806 107.099,48.706 106.935 C 46.721 106.780,44.531 106.491,43.839 106.292 C 41.184 105.527,30.903 105.215,24.233 105.696 M283.323 105.687 C 282.155 105.786,280.581 106.047,279.825 106.268 C 279.069 106.490,277.046 106.784,275.328 106.922 C 272.094 107.183,268.003 108.261,267.553 108.972 C 267.136 109.630,267.283 161.328,267.705 162.143 C 268.170 163.042,268.020 163.001,275.078 164.157 C 286.705 166.063,311.436 164.919,313.866 162.363 L 314.553 161.641 314.553 157.691 C 314.553 153.864,314.535 153.724,313.964 153.188 L 313.375 152.634 296.523 152.649 L 279.671 152.664 279.109 152.066 C 278.297 151.201,278.369 141.113,279.193 140.512 C 279.602 140.212,281.454 140.154,290.311 140.163 C 296.155 140.168,301.059 140.170,301.209 140.167 C 302.077 140.151,302.514 130.892,301.715 129.451 L 301.387 128.859 290.609 128.903 L 279.830 128.947 279.203 128.320 C 278.229 127.346,278.220 119.421,279.192 118.783 C 279.745 118.421,281.516 118.383,296.530 118.414 L 313.251 118.448 313.777 117.779 C 314.262 117.162,314.304 116.798,314.304 113.164 L 314.304 109.218 313.645 108.700 C 313.283 108.415,312.735 108.182,312.428 108.182 C 312.120 108.182,311.369 107.962,310.759 107.692 C 309.988 107.351,308.592 107.116,306.178 106.924 C 304.269 106.771,302.321 106.485,301.849 106.288 C 300.045 105.534,289.273 105.185,283.323 105.687 M352.280 105.698 C 351.387 105.806,350.161 106.074,349.556 106.292 C 348.951 106.510,347.197 106.798,345.658 106.933 C 343.892 107.088,342.450 107.360,341.750 107.669 C 341.140 107.939,340.140 108.240,339.527 108.337 C 336.543 108.811,333.794 110.797,332.479 113.429 L 331.668 115.053 331.668 124.297 L 331.668 133.542 332.502 135.290 C 334.900 140.317,334.625 140.251,353.279 140.326 L 368.395 140.387 368.841 141.211 C 369.430 142.299,369.389 152.035,368.793 152.752 C 368.468 153.143,367.056 153.173,350.208 153.143 C 335.232 153.116,331.936 153.170,331.762 153.445 C 331.415 153.992,331.502 161.678,331.863 162.392 C 332.635 163.918,355.494 166.278,357.499 165.039 C 357.590 164.983,358.762 164.815,360.103 164.665 C 372.517 163.281,377.143 160.789,379.043 154.464 C 379.497 152.954,379.214 136.686,378.717 135.721 C 378.485 135.270,378.122 134.305,377.910 133.576 C 377.469 132.059,375.065 129.536,373.831 129.295 C 373.452 129.221,372.580 128.966,371.893 128.728 C 370.774 128.340,369.151 128.288,356.403 128.226 C 339.237 128.143,341.246 128.848,341.242 122.905 C 341.237 116.968,338.694 117.678,359.990 117.669 C 374.708 117.662,377.716 117.603,378.100 117.311 C 378.726 116.837,378.740 109.596,378.115 108.906 C 377.368 108.080,374.275 107.202,371.143 106.927 C 369.494 106.783,367.734 106.505,367.232 106.311 C 365.245 105.541,356.507 105.183,352.280 105.698 M41.849 106.534 C 42.589 106.783,44.947 107.094,47.636 107.298 C 50.841 107.541,52.347 107.756,52.766 108.030 C 53.092 108.244,54.195 108.537,55.218 108.682 C 56.242 108.828,57.158 109.027,57.255 109.127 C 57.559 109.438,57.583 117.158,57.280 117.461 C 57.094 117.647,54.018 117.744,47.595 117.767 L 38.182 117.801 37.705 118.391 C 37.242 118.962,37.227 119.687,37.227 140.909 C 37.227 159.483,37.173 162.882,36.874 163.130 C 36.503 163.438,27.707 163.566,27.229 163.270 C 27.071 163.173,26.983 155.377,26.983 141.434 C 26.983 118.329,26.984 118.354,25.772 117.893 C 25.378 117.743,21.691 117.666,16.429 117.696 C 5.696 117.758,6.746 118.264,6.746 113.035 L 6.746 109.221 7.558 108.972 C 8.004 108.835,8.932 108.648,9.619 108.558 C 10.306 108.467,11.140 108.219,11.472 108.005 C 11.895 107.733,13.383 107.520,16.469 107.290 C 18.885 107.110,21.255 106.834,21.736 106.677 C 24.336 105.830,39.430 105.722,41.849 106.534 M81.824 106.300 C 81.412 106.479,79.798 106.749,78.237 106.900 C 75.427 107.172,74.392 107.530,73.323 108.599 C 73.003 108.919,72.954 112.469,72.954 135.569 L 72.954 162.171 73.550 162.767 C 74.960 164.176,83.832 165.547,84.421 164.446 C 84.610 164.092,84.698 160.453,84.701 152.858 C 84.704 144.558,84.782 141.640,85.013 141.203 L 85.322 140.621 98.189 140.640 C 105.265 140.650,111.196 140.660,111.368 140.660 C 112.658 140.667,112.680 140.859,112.680 152.492 C 112.680 165.279,112.710 165.462,114.725 164.884 C 115.178 164.754,116.030 164.647,116.617 164.647 C 117.937 164.647,122.306 163.720,123.228 163.244 C 124.471 162.602,124.436 163.417,124.432 135.482 L 124.428 109.057 123.495 108.260 C 122.509 107.419,121.078 106.940,119.502 106.923 C 118.691 106.915,116.788 106.596,114.164 106.029 C 112.821 105.739,112.815 105.782,112.680 117.891 L 112.555 129.022 111.930 129.196 C 110.475 129.600,85.506 129.443,85.090 129.027 C 84.745 128.682,84.697 127.327,84.697 117.925 C 84.697 105.073,84.693 105.054,81.824 106.300 M300.562 106.563 C 301.263 106.838,303.145 107.124,305.559 107.322 C 308.563 107.569,309.654 107.757,310.421 108.161 C 310.966 108.448,311.732 108.682,312.124 108.682 C 313.757 108.682,313.805 108.806,313.796 113.001 C 313.785 118.327,316.165 117.692,296.275 117.670 C 278.217 117.649,278.764 117.619,278.333 118.659 C 277.794 119.961,278.093 128.632,278.693 129.070 C 279.103 129.370,280.996 129.426,290.163 129.414 C 296.201 129.406,301.239 129.496,301.357 129.614 C 301.476 129.733,301.542 132.014,301.505 134.684 L 301.437 139.538 290.111 139.663 C 279.265 139.782,278.770 139.808,278.431 140.273 C 277.815 141.115,277.922 151.909,278.554 152.689 L 279.032 153.279 296.168 153.327 C 305.592 153.353,313.416 153.444,313.554 153.529 C 314.042 153.830,313.871 161.511,313.366 161.968 C 312.772 162.505,308.633 163.311,304.685 163.658 C 302.898 163.815,300.931 164.050,300.312 164.181 C 299.694 164.311,296.433 164.481,293.067 164.559 C 286.665 164.706,285.724 164.646,274.578 163.380 C 271.428 163.022,268.808 162.431,268.270 161.957 C 267.701 161.455,267.578 109.443,268.145 108.997 C 268.317 108.862,269.012 108.679,269.690 108.590 C 270.368 108.502,271.197 108.250,271.532 108.030 C 271.961 107.749,273.385 107.531,276.357 107.291 C 278.676 107.104,280.819 106.820,281.119 106.660 C 282.711 105.807,298.437 105.730,300.562 106.563 M365.646 106.542 C 366.334 106.778,368.562 107.121,370.598 107.304 C 373.213 107.539,374.426 107.750,374.727 108.022 C 374.962 108.235,375.626 108.484,376.204 108.576 C 376.782 108.669,377.362 108.873,377.492 109.030 C 377.818 109.423,377.906 116.635,377.588 116.953 C 377.428 117.113,370.946 117.220,359.416 117.252 L 341.492 117.302 341.015 117.892 C 340.583 118.425,340.537 118.924,340.537 123.088 L 340.537 127.694 341.198 128.307 C 341.562 128.644,341.983 128.920,342.135 128.921 C 373.381 129.104,373.344 129.102,375.033 130.506 C 376.373 131.620,377.514 133.174,377.516 133.889 C 377.518 134.248,377.826 135.159,378.202 135.915 L 378.885 137.289 378.887 145.670 C 378.888 153.371,378.851 154.107,378.431 154.748 C 378.180 155.132,377.802 156.026,377.591 156.736 C 377.115 158.341,375.766 159.885,374.336 160.460 C 373.741 160.700,373.004 161.054,372.699 161.248 C 372.393 161.442,371.749 161.676,371.268 161.769 C 370.787 161.862,369.494 162.205,368.395 162.533 C 367.295 162.860,364.597 163.362,362.399 163.648 C 360.200 163.934,357.783 164.267,357.027 164.389 C 354.860 164.738,348.580 164.682,345.484 164.285 C 343.931 164.086,341.087 163.744,339.163 163.526 C 334.816 163.031,332.269 162.397,332.013 161.747 C 331.726 161.014,331.753 153.958,332.044 153.778 C 332.182 153.692,340.447 153.633,350.410 153.646 C 369.733 153.671,369.280 153.701,369.743 152.373 C 370.170 151.146,370.108 142.110,369.665 141.049 C 369.075 139.637,369.492 139.672,353.183 139.681 C 338.674 139.688,337.998 139.668,336.936 139.198 C 335.216 138.438,333.604 136.809,333.190 135.416 C 332.996 134.764,332.631 133.850,332.378 133.386 C 331.618 131.993,331.679 116.194,332.449 114.928 C 332.742 114.447,333.113 113.642,333.273 113.139 C 333.667 111.905,334.972 110.575,336.176 110.178 C 336.720 109.999,337.445 109.655,337.789 109.414 C 338.132 109.173,339.177 108.849,340.109 108.695 C 341.042 108.540,342.223 108.203,342.733 107.946 C 343.378 107.620,344.498 107.425,346.408 107.305 C 347.920 107.209,349.606 106.966,350.156 106.763 C 352.188 106.015,352.773 105.964,358.526 106.037 C 363.284 106.098,364.634 106.193,365.646 106.542 M117.243 107.185 C 118.649 107.312,120.151 107.420,120.581 107.424 C 121.076 107.430,121.806 107.762,122.579 108.334 L 123.798 109.236 123.742 135.349 C 123.711 149.711,123.624 161.658,123.548 161.897 C 123.237 162.878,122.561 163.130,119.163 163.531 C 117.315 163.749,115.327 164.083,114.747 164.273 C 113.249 164.763,113.318 165.285,113.179 152.322 C 113.060 141.105,113.034 140.607,112.569 140.267 C 111.895 139.774,85.092 139.734,84.774 140.225 C 84.663 140.397,84.516 145.788,84.447 152.205 C 84.366 159.785,84.231 163.964,84.062 164.133 C 83.473 164.722,74.785 163.158,73.999 162.321 L 73.465 161.753 73.442 135.405 L 73.420 109.057 73.935 108.785 C 74.218 108.635,74.674 108.310,74.947 108.063 C 75.322 107.724,76.264 107.528,78.759 107.270 C 80.582 107.082,82.457 106.857,82.926 106.771 C 84.469 106.488,84.447 106.324,84.447 118.299 C 84.447 126.343,84.523 129.145,84.747 129.369 C 85.180 129.802,112.447 129.802,112.879 129.369 C 113.103 129.145,113.179 126.363,113.179 118.388 C 113.179 107.127,113.262 106.193,114.218 106.704 C 114.475 106.842,115.837 107.059,117.243 107.185 M160.275 107.114 C 159.450 107.317,159.225 107.633,159.062 108.823 C 158.977 109.446,158.624 110.439,158.279 111.028 C 157.934 111.617,157.651 112.258,157.651 112.452 C 157.651 112.646,157.313 113.518,156.901 114.390 C 156.488 115.263,156.079 116.426,155.991 116.975 C 155.903 117.524,155.570 118.283,155.251 118.662 C 154.932 119.041,154.595 119.825,154.503 120.405 C 154.410 120.984,154.199 121.593,154.034 121.758 C 153.551 122.241,153.241 122.958,152.915 124.347 C 152.748 125.062,152.462 125.770,152.280 125.921 C 152.098 126.072,151.809 126.781,151.638 127.495 C 151.467 128.210,151.114 129.082,150.855 129.433 C 150.596 129.784,150.215 130.717,150.009 131.506 C 149.803 132.295,149.415 133.301,149.147 133.741 C 148.878 134.181,148.659 134.777,148.658 135.066 C 148.658 135.355,148.372 136.127,148.023 136.783 C 147.675 137.438,147.275 138.510,147.134 139.165 C 146.994 139.819,146.605 140.727,146.269 141.181 C 145.934 141.636,145.659 142.241,145.659 142.526 C 145.659 142.810,145.334 143.716,144.936 144.538 C 144.539 145.361,144.137 146.499,144.044 147.068 C 143.945 147.676,143.625 148.338,143.268 148.673 C 142.834 149.081,142.661 149.512,142.661 150.181 C 142.661 150.795,142.460 151.360,142.076 151.823 C 141.754 152.212,141.360 153.058,141.201 153.704 C 141.041 154.350,140.630 155.407,140.287 156.052 C 139.944 156.698,139.659 157.406,139.655 157.626 C 139.651 157.846,139.313 158.698,138.905 159.519 C 137.389 162.571,137.803 163.260,141.623 164.046 C 148.014 165.360,149.654 165.180,150.273 163.097 C 150.476 162.414,150.858 161.500,151.122 161.065 C 151.386 160.631,151.680 159.800,151.774 159.220 C 151.869 158.640,152.160 157.894,152.422 157.561 C 152.683 157.229,153.054 156.288,153.244 155.469 C 153.435 154.651,153.789 153.680,154.031 153.311 C 154.273 152.942,154.566 152.129,154.683 151.505 C 154.799 150.881,155.111 150.096,155.374 149.761 C 155.638 149.425,155.995 148.565,156.166 147.849 C 156.338 147.134,156.742 145.951,157.065 145.222 C 157.388 144.493,157.651 143.691,157.651 143.440 C 157.651 143.190,157.940 142.442,158.293 141.779 C 158.646 141.115,159.045 139.946,159.181 139.181 C 159.317 138.415,159.645 137.487,159.909 137.118 C 160.174 136.750,160.501 135.954,160.636 135.351 C 160.771 134.747,161.166 133.644,161.513 132.898 C 161.860 132.153,162.145 131.255,162.146 130.904 C 162.148 130.553,162.425 129.891,162.763 129.434 C 163.100 128.976,163.502 127.970,163.655 127.199 C 163.808 126.427,164.148 125.495,164.410 125.126 C 164.673 124.757,165.006 123.927,165.151 123.281 C 165.295 122.635,165.691 121.520,166.030 120.804 C 166.369 120.088,166.646 119.154,166.646 118.729 C 166.646 116.142,168.791 118.525,169.520 121.924 C 169.624 122.405,169.965 123.304,170.280 123.923 C 170.594 124.541,170.925 125.514,171.015 126.084 C 171.105 126.655,171.452 127.492,171.785 127.944 C 172.119 128.397,172.392 129.065,172.392 129.430 C 172.392 129.796,172.677 130.630,173.026 131.286 C 173.374 131.941,173.728 132.981,173.813 133.597 C 173.897 134.213,174.220 135.018,174.531 135.388 C 174.850 135.766,175.213 136.692,175.364 137.513 C 175.512 138.313,175.851 139.321,176.118 139.753 C 176.384 140.184,176.737 141.099,176.901 141.786 C 177.066 142.473,177.391 143.373,177.624 143.785 C 177.857 144.197,178.186 145.084,178.355 145.756 C 178.525 146.428,178.938 147.495,179.275 148.127 C 179.612 148.760,179.888 149.628,179.888 150.057 C 179.888 150.485,180.157 151.232,180.485 151.717 C 180.814 152.202,181.161 153.089,181.256 153.688 C 181.351 154.288,181.684 155.284,181.997 155.903 C 182.309 156.521,182.640 157.437,182.732 157.939 C 182.824 158.440,183.182 159.268,183.529 159.779 C 183.875 160.289,184.265 161.265,184.394 161.947 C 184.790 164.038,186.065 165.275,187.422 164.886 C 187.880 164.754,188.817 164.645,189.505 164.642 C 191.486 164.634,196.699 163.607,197.304 163.105 C 197.781 162.709,197.695 161.195,197.146 160.304 C 196.881 159.876,196.526 158.963,196.356 158.276 C 196.187 157.589,195.801 156.728,195.499 156.363 C 195.197 155.998,194.872 155.216,194.778 154.626 C 194.683 154.035,194.395 153.210,194.136 152.791 C 193.878 152.372,193.528 151.468,193.358 150.781 C 193.189 150.094,192.787 149.214,192.465 148.825 C 192.109 148.395,191.880 147.792,191.880 147.283 C 191.880 146.774,191.651 146.171,191.295 145.741 C 190.973 145.352,190.580 144.506,190.420 143.860 C 190.261 143.214,189.849 142.157,189.506 141.512 C 189.163 140.866,188.878 140.158,188.874 139.938 C 188.870 139.718,188.533 138.866,188.125 138.045 C 187.717 137.224,187.382 136.325,187.382 136.046 C 187.381 135.768,187.045 134.866,186.633 134.041 C 186.222 133.217,185.885 132.412,185.885 132.252 C 185.884 132.093,185.547 131.250,185.134 130.378 C 184.722 129.507,184.385 128.613,184.385 128.392 C 184.385 128.171,184.103 127.574,183.758 127.066 C 183.413 126.558,183.013 125.617,182.869 124.974 C 182.725 124.332,182.455 123.635,182.269 123.427 C 182.083 123.219,181.737 122.376,181.500 121.555 C 181.263 120.734,180.863 119.779,180.612 119.432 C 180.360 119.085,180.041 118.295,179.902 117.676 C 179.763 117.058,179.366 115.999,179.019 115.323 C 178.672 114.647,178.389 113.947,178.389 113.767 C 178.389 113.587,178.116 112.847,177.784 112.123 C 177.451 111.398,176.993 110.275,176.766 109.626 C 176.540 108.978,176.036 108.106,175.647 107.690 L 174.940 106.933 167.857 106.962 C 163.962 106.978,160.550 107.046,160.275 107.114 M211.511 107.326 C 211.159 107.678,211.118 110.505,211.118 134.703 L 211.118 161.687 211.827 162.396 C 212.326 162.896,212.899 163.157,213.763 163.280 C 214.438 163.376,215.665 163.600,216.490 163.778 C 217.978 164.101,220.154 164.403,224.502 164.892 C 227.406 165.219,238.382 165.222,241.122 164.898 C 244.778 164.464,247.167 164.121,248.969 163.768 C 249.931 163.580,251.137 163.359,251.648 163.277 C 252.159 163.195,252.918 162.842,253.334 162.491 L 254.091 161.854 254.091 157.427 C 254.091 151.290,256.223 152.039,238.600 151.981 C 227.700 151.945,223.726 151.855,223.465 151.638 C 223.164 151.389,223.111 148.052,223.111 129.552 C 223.111 108.758,223.090 107.741,222.654 107.347 C 221.986 106.742,212.113 106.724,211.511 107.326 M175.414 108.119 C 175.558 108.497,175.826 108.975,176.011 109.181 C 176.195 109.388,176.517 110.213,176.725 111.016 C 176.934 111.819,177.270 112.663,177.473 112.890 C 177.676 113.118,177.976 113.810,178.138 114.428 C 178.301 115.047,178.643 115.894,178.898 116.310 C 179.153 116.727,179.484 117.626,179.633 118.309 C 179.783 118.992,180.122 119.849,180.387 120.215 C 180.652 120.580,181.002 121.423,181.165 122.088 C 181.329 122.754,181.666 123.590,181.915 123.948 C 182.163 124.305,182.473 125.071,182.603 125.650 C 182.733 126.229,183.121 127.117,183.464 127.624 C 183.808 128.130,184.165 129.019,184.258 129.599 C 184.350 130.179,184.631 130.914,184.881 131.232 C 185.131 131.550,185.471 132.312,185.636 132.926 C 185.801 133.539,186.206 134.501,186.535 135.063 C 186.864 135.624,187.133 136.355,187.134 136.687 C 187.134 137.018,187.471 137.964,187.883 138.788 C 188.294 139.613,188.631 140.467,188.631 140.687 C 188.632 140.907,188.907 141.604,189.243 142.236 C 189.579 142.868,189.931 143.794,190.024 144.294 C 190.118 144.793,190.456 145.484,190.776 145.829 C 191.110 146.190,191.429 146.937,191.527 147.590 C 191.620 148.214,191.909 148.935,192.167 149.194 C 192.426 149.452,192.794 150.335,192.985 151.155 C 193.176 151.975,193.559 153.013,193.835 153.462 C 194.111 153.911,194.413 154.694,194.508 155.201 C 194.602 155.708,194.944 156.483,195.268 156.922 C 195.592 157.362,195.931 158.213,196.021 158.814 C 196.111 159.414,196.397 160.175,196.656 160.505 C 197.329 161.360,197.281 162.602,196.565 162.873 C 195.863 163.139,190.401 163.898,189.190 163.898 C 188.697 163.898,187.916 164.034,187.454 164.201 C 186.323 164.610,185.053 163.288,184.632 161.263 C 184.476 160.510,184.096 159.662,183.747 159.285 C 183.364 158.872,183.135 158.327,183.135 157.826 C 183.134 157.386,182.797 156.352,182.386 155.528 C 181.975 154.703,181.638 153.712,181.637 153.325 C 181.636 152.536,181.227 151.627,180.743 151.340 C 180.567 151.236,180.344 150.523,180.248 149.757 C 180.153 148.990,179.827 147.895,179.524 147.323 C 179.222 146.751,178.834 145.721,178.663 145.034 C 178.491 144.347,178.150 143.448,177.904 143.036 C 177.658 142.623,177.329 141.758,177.172 141.112 C 177.016 140.466,176.608 139.409,176.264 138.763 C 175.921 138.118,175.640 137.221,175.640 136.771 C 175.640 136.282,175.406 135.670,175.056 135.247 C 174.733 134.856,174.345 133.892,174.187 133.088 C 174.030 132.288,173.687 131.362,173.425 131.029 C 173.164 130.697,172.871 129.889,172.775 129.235 C 172.678 128.580,172.388 127.817,172.131 127.539 C 171.873 127.261,171.481 126.249,171.261 125.291 C 171.040 124.332,170.706 123.309,170.517 123.017 C 170.328 122.726,169.990 121.778,169.765 120.911 C 168.767 117.059,166.146 115.707,166.146 119.045 C 166.146 119.492,165.923 120.142,165.650 120.489 C 165.377 120.836,165.030 121.723,164.880 122.459 C 164.730 123.195,164.387 124.108,164.119 124.487 C 163.850 124.865,163.513 125.821,163.371 126.610 C 163.228 127.399,162.850 128.438,162.529 128.919 C 162.208 129.400,161.865 130.187,161.765 130.668 C 161.666 131.149,161.328 132.049,161.013 132.667 C 160.699 133.285,160.367 134.266,160.275 134.846 C 160.183 135.426,159.890 136.178,159.624 136.516 C 159.358 136.855,159.019 137.784,158.872 138.580 C 158.725 139.377,158.346 140.480,158.031 141.032 C 157.715 141.584,157.383 142.461,157.292 142.980 C 157.201 143.500,156.918 144.287,156.664 144.729 C 156.410 145.172,156.077 146.134,155.925 146.867 C 155.773 147.600,155.379 148.668,155.050 149.240 C 154.721 149.813,154.376 150.752,154.283 151.327 C 154.191 151.902,153.899 152.622,153.635 152.927 C 153.370 153.231,153.154 153.499,153.154 153.521 C 153.154 154.363,152.482 156.668,152.125 157.053 C 151.856 157.342,151.545 158.158,151.433 158.866 C 151.321 159.574,151.037 160.366,150.802 160.626 C 150.567 160.886,150.218 161.689,150.028 162.411 C 149.485 164.470,149.304 164.514,144.410 163.789 C 142.829 163.554,140.918 163.286,140.162 163.193 L 138.788 163.023 138.710 161.935 C 138.650 161.099,138.777 160.635,139.255 159.936 C 139.597 159.435,139.955 158.603,140.048 158.087 C 140.142 157.570,140.422 156.889,140.671 156.572 C 140.920 156.256,141.309 155.280,141.537 154.403 C 141.764 153.527,142.166 152.535,142.430 152.199 C 142.716 151.835,142.911 151.197,142.911 150.620 C 142.911 149.885,143.091 149.463,143.660 148.868 C 144.175 148.329,144.410 147.832,144.410 147.281 C 144.410 146.838,144.688 146.068,145.031 145.563 C 145.372 145.060,145.808 143.971,145.999 143.142 C 146.191 142.314,146.529 141.501,146.750 141.337 C 146.971 141.172,147.268 140.418,147.408 139.663 C 147.549 138.907,147.883 137.990,148.151 137.624 C 148.419 137.259,148.773 136.416,148.937 135.750 C 149.102 135.085,149.440 134.277,149.690 133.953 C 149.939 133.630,150.212 132.956,150.296 132.454 C 150.522 131.100,150.918 129.919,151.145 129.919 C 151.399 129.919,151.824 128.810,152.016 127.642 C 152.098 127.146,152.376 126.548,152.634 126.315 C 152.910 126.065,153.229 125.225,153.408 124.278 C 153.575 123.391,153.851 122.583,154.021 122.482 C 154.510 122.192,154.903 121.276,154.903 120.429 C 154.903 119.933,155.117 119.452,155.495 119.101 C 155.857 118.764,156.199 118.023,156.378 117.187 C 156.538 116.437,156.842 115.632,157.053 115.399 C 157.264 115.166,157.607 114.324,157.815 113.528 C 158.022 112.732,158.395 111.824,158.643 111.509 C 158.890 111.194,159.230 110.211,159.397 109.323 C 159.774 107.327,159.004 107.497,167.839 107.462 L 175.153 107.433 175.414 108.119 M222.611 129.725 C 222.734 151.496,222.745 151.899,223.235 152.335 C 223.705 152.753,224.576 152.772,237.851 152.655 C 252.719 152.523,253.417 152.566,253.635 153.628 C 253.680 153.849,253.681 155.716,253.637 157.779 L 253.557 161.529 252.732 162.070 C 251.590 162.818,249.916 163.103,238.976 164.408 C 236.755 164.673,229.352 164.670,226.733 164.404 C 218.381 163.555,214.048 162.875,212.617 162.189 L 211.743 161.769 211.679 134.596 L 211.616 107.423 217.051 107.490 L 222.486 107.558 222.611 129.725 " stroke="none" fill="#7c7cac" fill-rule="evenodd"></path></g></svg>