<svg id="svg" version="1.1" xmlns="http://www.w3.org/2000/svg" xmlns:xlink="http://www.w3.org/1999/xlink" width="400" height="400" viewBox="0, 0, 400,400"><g id="svgg"><path id="path0" d="M128.200 13.809 C 127.100 14.350,125.930 14.800,125.600 14.809 C 125.270 14.818,124.651 15.090,124.224 15.413 C 123.796 15.736,123.099 16.000,122.674 16.000 C 121.872 16.000,111.498 21.081,105.653 24.336 C 103.812 25.361,101.022 26.901,99.453 27.758 C 96.508 29.367,94.295 30.732,90.260 33.434 C 88.973 34.295,87.443 35.253,86.860 35.562 C 86.277 35.871,85.738 36.281,85.663 36.474 C 85.587 36.666,84.507 37.473,83.263 38.267 C 82.018 39.061,79.200 41.176,77.000 42.967 C 74.800 44.759,72.545 46.512,71.988 46.864 C 70.160 48.018,55.667 62.036,51.564 66.617 C 47.116 71.584,39.997 80.653,40.006 81.342 C 40.019 82.300,40.831 82.797,49.200 86.969 C 53.930 89.328,58.790 91.773,60.000 92.403 C 61.210 93.033,62.830 93.826,63.600 94.166 C 64.370 94.506,65.270 94.952,65.600 95.157 C 65.930 95.362,67.190 95.976,68.400 96.522 C 69.610 97.067,74.150 99.243,78.489 101.357 C 82.828 103.471,86.465 105.200,86.571 105.200 C 86.678 105.200,87.669 105.733,88.774 106.384 C 89.879 107.036,92.722 108.586,95.091 109.828 C 97.461 111.071,99.684 112.338,100.031 112.644 C 100.379 112.950,100.920 113.200,101.235 113.200 C 101.549 113.200,102.652 113.650,103.685 114.200 C 104.718 114.750,105.781 115.200,106.046 115.200 C 106.509 115.200,108.617 116.242,120.200 122.195 C 125.975 125.163,126.392 125.391,128.422 126.690 C 130.742 128.175,132.955 127.971,132.657 126.300 C 132.363 124.653,132.366 45.055,132.661 27.290 C 132.925 11.336,132.967 11.464,128.200 13.809 M267.067 13.067 C 266.075 14.058,267.007 38.603,268.085 39.903 C 268.502 40.405,268.579 52.088,268.188 55.600 C 268.103 56.370,267.934 69.870,267.813 85.600 C 267.692 101.330,267.523 117.126,267.438 120.703 L 267.282 127.205 268.209 127.438 C 268.802 127.587,269.581 127.370,270.368 126.835 C 271.046 126.376,272.095 125.668,272.700 125.263 C 273.305 124.858,274.461 124.309,275.268 124.043 C 276.075 123.777,276.938 123.316,277.184 123.019 C 277.431 122.722,278.106 122.360,278.685 122.214 C 279.263 122.069,280.180 121.602,280.722 121.175 C 281.264 120.749,281.941 120.400,282.225 120.400 C 282.510 120.400,282.982 120.161,283.273 119.869 C 283.839 119.304,291.563 115.502,293.139 115.013 C 293.656 114.852,294.421 114.379,294.839 113.961 C 295.258 113.542,296.131 113.200,296.780 113.200 C 297.429 113.200,298.104 112.955,298.280 112.657 C 298.456 112.358,299.261 111.898,300.068 111.636 C 300.875 111.374,301.743 110.910,301.996 110.605 C 302.248 110.301,302.981 109.936,303.623 109.795 C 304.265 109.654,304.903 109.357,305.039 109.136 C 305.176 108.915,306.033 108.378,306.944 107.942 C 309.450 106.745,311.178 105.744,311.959 105.037 C 312.346 104.687,312.942 104.400,313.283 104.400 C 313.623 104.400,314.118 104.139,314.383 103.820 C 314.648 103.502,315.435 103.051,316.132 102.820 C 317.922 102.225,320.970 100.639,322.235 99.644 C 322.906 99.116,323.887 98.800,324.854 98.800 C 326.133 98.800,326.400 98.662,326.400 98.000 C 326.400 97.381,326.667 97.200,327.580 97.200 C 328.246 97.200,328.916 96.921,329.118 96.560 C 329.316 96.208,330.346 95.757,331.408 95.559 C 332.470 95.361,333.635 94.931,333.996 94.604 C 334.357 94.277,335.222 93.896,335.917 93.757 C 336.613 93.617,337.388 93.255,337.640 92.952 C 337.892 92.648,338.481 92.399,338.949 92.398 C 339.417 92.397,340.970 91.767,342.400 90.998 C 343.830 90.230,346.350 88.959,348.000 88.176 C 349.650 87.392,351.360 86.549,351.800 86.302 C 352.240 86.055,353.860 85.253,355.400 84.520 C 359.250 82.687,359.285 82.664,359.620 81.757 C 359.901 80.998,357.639 77.501,354.300 73.530 C 353.805 72.941,353.040 71.985,352.600 71.404 C 350.882 69.137,346.735 64.739,340.800 58.890 C 331.730 49.951,329.667 48.000,329.283 48.000 C 329.094 48.000,328.503 47.529,327.970 46.953 C 327.436 46.376,326.441 45.521,325.759 45.053 C 325.076 44.584,323.115 43.120,321.401 41.800 C 315.200 37.025,310.938 33.991,306.800 31.403 C 306.030 30.922,304.860 30.190,304.200 29.776 C 302.284 28.575,300.787 27.741,297.882 26.256 C 296.386 25.492,294.946 24.694,294.682 24.483 C 294.417 24.271,292.760 23.340,291.000 22.415 C 289.240 21.489,287.619 20.581,287.398 20.398 C 287.177 20.214,286.509 19.942,285.914 19.793 C 285.319 19.644,284.627 19.274,284.376 18.971 C 284.125 18.669,283.314 18.308,282.574 18.169 C 281.834 18.030,281.021 17.666,280.768 17.361 C 280.514 17.056,279.563 16.608,278.653 16.367 C 277.744 16.126,276.460 15.687,275.800 15.392 C 270.837 13.175,267.774 12.359,267.067 13.067 M128.800 272.946 C 128.233 273.492,123.216 276.275,120.600 277.492 C 119.940 277.799,119.130 278.212,118.800 278.409 C 116.884 279.552,106.238 284.800,105.836 284.800 C 105.572 284.800,104.745 285.250,104.000 285.800 C 103.255 286.350,102.344 286.800,101.978 286.800 C 101.611 286.800,99.621 287.694,97.555 288.787 C 95.490 289.879,92.990 291.199,92.000 291.720 C 87.283 294.200,73.199 301.175,71.600 301.822 C 70.610 302.222,69.521 302.782,69.180 303.065 C 68.839 303.347,67.768 303.858,66.800 304.200 C 65.832 304.542,64.761 305.041,64.420 305.311 C 64.079 305.580,62.990 306.194,62.000 306.676 C 61.010 307.157,57.410 308.944,54.000 310.646 C 44.294 315.492,41.867 316.664,40.900 316.969 C 39.523 317.405,39.792 318.617,41.900 321.471 C 42.945 322.885,44.217 324.618,44.726 325.321 C 45.629 326.568,46.198 327.243,50.071 331.664 C 53.729 335.840,67.048 348.994,70.031 351.378 C 71.699 352.710,74.851 355.240,77.037 357.000 C 79.224 358.760,81.549 360.572,82.206 361.027 C 82.863 361.481,84.840 362.850,86.600 364.069 C 88.360 365.288,90.970 367.059,92.400 368.006 C 93.830 368.952,95.471 370.045,96.046 370.435 C 96.621 370.825,97.701 371.427,98.446 371.772 C 99.191 372.117,100.520 372.815,101.400 373.323 C 107.682 376.945,121.549 383.992,122.406 383.997 C 122.739 383.999,123.684 384.360,124.504 384.800 C 125.325 385.240,126.263 385.600,126.588 385.600 C 126.913 385.600,127.986 385.992,128.973 386.472 C 130.415 387.173,130.953 387.259,131.716 386.911 L 132.665 386.478 132.490 329.539 L 132.316 272.600 130.858 272.483 C 129.985 272.413,129.159 272.599,128.800 272.946 M267.116 317.500 C 267.060 342.305,267.011 368.090,267.007 374.800 L 267.000 387.000 267.881 387.125 C 268.724 387.245,273.195 385.822,275.860 384.585 C 276.554 384.263,277.339 384.000,277.606 384.000 C 277.873 384.000,278.926 383.565,279.946 383.034 C 280.966 382.503,283.870 381.058,286.400 379.824 C 288.930 378.589,291.270 377.422,291.600 377.230 C 291.930 377.038,294.540 375.592,297.400 374.016 C 300.260 372.440,302.870 370.984,303.200 370.780 C 303.530 370.575,304.430 370.040,305.200 369.589 C 309.053 367.335,310.119 366.623,314.800 363.184 C 316.010 362.295,317.450 361.266,318.000 360.897 C 318.550 360.528,320.530 358.997,322.400 357.494 C 324.270 355.992,326.216 354.456,326.725 354.081 C 327.234 353.707,327.949 353.085,328.314 352.700 C 328.679 352.315,329.141 352.000,329.341 352.000 C 330.189 352.000,352.000 330.209,352.000 329.361 C 352.000 329.199,352.262 328.782,352.581 328.434 C 354.455 326.392,354.812 325.939,355.347 324.921 C 355.671 324.305,356.875 322.754,358.022 321.476 C 360.868 318.304,360.717 318.057,353.874 314.687 C 345.351 310.491,341.878 308.766,340.800 308.193 C 340.250 307.901,338.630 307.102,337.200 306.417 C 335.770 305.733,334.330 305.015,334.000 304.822 C 333.412 304.477,330.372 303.070,326.800 301.488 C 325.810 301.050,324.550 300.464,324.000 300.186 C 323.450 299.908,320.930 298.666,318.400 297.425 C 312.276 294.422,309.922 293.185,309.200 292.589 C 308.870 292.317,308.150 291.962,307.600 291.800 C 307.050 291.638,306.330 291.275,306.000 290.993 C 305.670 290.710,304.770 290.195,304.000 289.848 C 303.230 289.500,302.330 289.061,302.000 288.871 C 301.670 288.681,300.590 288.161,299.600 287.715 C 298.610 287.269,295.190 285.647,292.000 284.112 C 288.810 282.576,285.750 281.110,285.200 280.854 C 284.650 280.597,282.580 279.494,280.600 278.402 C 278.620 277.310,276.550 276.233,276.000 276.008 C 275.450 275.784,274.730 275.418,274.400 275.195 C 274.070 274.972,273.055 274.447,272.144 274.028 C 271.233 273.609,270.368 273.071,270.220 272.833 C 270.073 272.595,269.338 272.400,268.586 272.400 L 267.219 272.400 267.116 317.500 " stroke="none" fill="#1f3b86" fill-rule="evenodd"></path><path id="path1" d="M185.200 0.386 C 185.200 1.208,183.555 1.546,177.392 1.991 C 173.876 2.244,170.190 2.707,169.200 3.019 C 168.210 3.331,166.111 3.704,164.536 3.847 C 162.961 3.991,161.453 4.244,161.185 4.409 C 160.806 4.644,160.688 21.786,160.649 82.135 C 160.615 136.310,160.472 159.688,160.174 159.986 C 159.875 160.285,136.674 160.409,82.677 160.403 C -4.143 160.393,4.022 160.092,3.985 163.300 C 3.977 164.015,3.700 165.860,3.369 167.400 C 2.828 169.916,1.659 180.519,1.617 183.300 C 1.608 183.905,1.240 184.760,0.800 185.200 C -0.124 186.124,-0.487 214.171,0.421 214.474 C 1.088 214.696,1.557 217.359,2.006 223.482 C 2.235 226.607,2.688 229.915,3.011 230.832 C 3.335 231.750,3.601 233.153,3.602 233.950 C 3.605 235.941,4.281 238.204,5.068 238.857 C 5.616 239.311,18.258 239.376,82.576 239.256 C 149.452 239.130,159.491 239.187,159.911 239.693 C 160.284 240.142,160.417 257.955,160.497 317.752 C 160.588 385.915,160.672 395.274,161.197 395.598 C 161.525 395.801,162.785 396.064,163.997 396.184 C 165.208 396.304,167.100 396.585,168.200 396.808 C 169.300 397.032,173.618 397.566,177.796 397.995 C 183.483 398.579,185.505 398.929,185.840 399.387 C 186.473 400.253,213.792 400.320,214.123 399.457 C 214.391 398.758,216.447 398.437,223.551 397.981 C 226.715 397.779,229.505 397.447,229.751 397.246 C 229.998 397.044,231.802 396.684,233.759 396.447 C 238.008 395.931,239.185 395.296,239.238 393.491 C 239.259 392.781,239.244 357.969,239.204 316.132 L 239.132 240.064 240.023 239.588 C 240.706 239.222,258.828 239.144,317.757 239.251 C 360.021 239.328,394.803 239.261,395.051 239.102 C 395.592 238.756,396.400 235.723,396.400 234.037 C 396.400 233.372,396.673 232.023,397.007 231.039 C 397.341 230.055,397.788 226.525,398.000 223.194 C 398.393 217.028,398.925 214.000,399.615 214.000 C 400.312 214.000,400.116 186.376,399.416 185.844 C 398.805 185.380,398.263 181.747,397.769 174.800 C 397.620 172.710,397.326 170.669,397.116 170.263 C 396.905 169.858,396.576 167.869,396.384 165.842 C 395.930 161.043,395.855 160.887,393.865 160.589 C 390.185 160.039,369.967 160.558,369.467 161.216 C 369.054 161.761,367.464 161.792,355.600 161.484 C 348.230 161.293,319.211 161.016,291.114 160.868 C 246.469 160.634,239.955 160.524,239.447 160.000 C 238.949 159.486,238.832 153.452,238.631 118.000 C 238.503 95.230,238.315 65.940,238.214 52.911 C 238.044 30.859,238.078 29.196,238.716 28.839 C 239.336 28.492,239.400 27.423,239.400 17.488 C 239.400 3.596,239.699 4.348,233.879 3.610 C 232.174 3.394,230.433 3.032,230.010 2.805 C 229.587 2.579,226.667 2.210,223.520 1.985 C 217.031 1.522,214.291 1.073,214.079 0.438 C 213.889 -0.133,185.200 -0.185,185.200 0.386 M218.400 27.600 C 218.820 27.871,218.183 27.990,216.276 27.994 C 214.561 27.998,213.644 27.852,213.800 27.600 C 214.116 27.089,217.609 27.089,218.400 27.600 M233.994 32.900 C 233.990 34.920,233.870 35.618,233.600 35.200 C 233.387 34.870,233.209 34.183,233.206 33.674 C 233.203 33.164,233.008 32.388,232.772 31.948 C 232.461 31.366,232.474 30.993,232.821 30.574 C 233.730 29.479,234.000 30.014,233.994 32.900 M367.800 94.669 C 367.360 94.766,366.460 95.102,365.800 95.416 C 365.140 95.729,363.970 96.260,363.200 96.596 C 362.430 96.931,361.080 97.645,360.200 98.182 C 359.320 98.719,358.150 99.348,357.600 99.579 C 357.050 99.810,356.330 100.185,356.000 100.412 C 355.670 100.638,354.037 101.493,352.372 102.312 C 349.265 103.838,346.800 105.630,346.800 106.360 C 346.800 106.587,346.434 106.968,345.987 107.207 C 345.220 107.617,348.499 110.800,349.689 110.800 C 349.860 110.800,350.000 111.333,350.000 111.984 C 350.000 112.730,350.367 113.507,350.990 114.086 C 352.471 115.459,352.769 117.489,351.556 117.938 L 350.613 118.287 351.486 118.564 C 351.997 118.726,352.273 119.065,352.152 119.380 C 351.891 120.061,352.533 120.477,353.357 120.161 C 353.830 119.980,353.888 119.738,353.593 119.186 C 353.040 118.154,353.093 118.000,354.000 118.000 C 354.577 118.000,354.800 118.267,354.800 118.957 C 354.800 120.914,356.567 120.858,361.076 118.761 C 371.507 113.909,376.722 111.140,376.931 110.343 C 377.151 109.500,374.455 103.524,372.815 101.221 C 372.351 100.569,371.769 99.442,371.521 98.718 C 371.274 97.993,370.651 96.891,370.136 96.269 C 369.621 95.647,369.200 94.972,369.200 94.769 C 369.200 94.385,369.117 94.379,367.800 94.669 M336.278 111.056 C 335.793 111.540,336.449 112.000,337.624 112.000 C 338.403 112.000,338.800 111.797,338.800 111.400 C 338.800 110.795,336.810 110.523,336.278 111.056 M21.432 112.542 C 21.099 112.794,20.561 113.644,20.236 114.432 C 19.912 115.219,19.377 116.087,19.049 116.359 C 18.720 116.632,18.327 117.428,18.176 118.128 C 18.024 118.827,17.585 119.850,17.200 120.400 C 16.815 120.950,16.363 122.027,16.197 122.794 C 16.031 123.561,15.664 124.551,15.381 124.994 C 14.080 127.032,14.458 128.849,16.400 129.892 C 21.647 132.708,22.006 132.772,31.513 132.569 C 36.291 132.467,43.620 132.386,47.800 132.389 C 51.980 132.392,56.118 132.258,56.996 132.091 C 58.885 131.732,59.389 130.604,57.913 130.043 C 57.393 129.845,56.727 129.395,56.435 129.042 C 56.142 128.689,55.491 128.400,54.988 128.400 C 54.193 128.400,51.012 127.056,49.200 125.955 C 48.870 125.754,47.880 125.224,47.000 124.776 C 43.249 122.869,42.189 122.291,42.000 122.053 C 41.890 121.914,39.820 120.828,37.400 119.639 C 34.980 118.451,31.920 116.930,30.600 116.259 C 29.280 115.588,27.480 114.686,26.600 114.254 C 25.720 113.822,24.730 113.253,24.400 112.991 C 23.465 112.246,22.097 112.039,21.432 112.542 M339.389 112.818 C 339.067 113.340,339.911 114.400,340.649 114.400 C 340.970 114.400,341.200 113.983,341.200 113.400 C 341.200 112.359,339.926 111.949,339.389 112.818 M342.305 114.683 C 342.802 114.779,343.522 114.775,343.905 114.675 C 344.287 114.575,343.880 114.496,343.000 114.501 C 342.120 114.505,341.807 114.587,342.305 114.683 M326.000 116.800 C 326.000 117.020,326.270 117.200,326.600 117.200 C 326.930 117.200,327.200 117.020,327.200 116.800 C 327.200 116.580,326.930 116.400,326.600 116.400 C 326.270 116.400,326.000 116.580,326.000 116.800 M327.838 120.245 C 327.721 120.550,327.194 120.800,326.666 120.800 C 326.139 120.800,325.250 121.160,324.691 121.600 C 323.433 122.589,320.730 122.680,319.966 121.759 C 319.251 120.898,316.623 121.251,315.435 122.367 C 314.947 122.825,314.241 123.200,313.864 123.200 C 313.488 123.200,313.009 123.650,312.800 124.200 C 312.464 125.084,312.186 125.200,310.410 125.200 C 308.238 125.200,307.900 125.604,309.269 126.563 C 310.437 127.382,309.238 127.928,307.756 127.253 C 306.190 126.539,304.813 126.718,303.527 127.800 C 302.776 128.432,301.845 128.800,300.996 128.800 C 300.005 128.800,299.587 129.009,299.400 129.600 C 299.236 130.118,298.795 130.400,298.149 130.400 C 297.601 130.400,297.249 130.555,297.366 130.745 C 297.483 130.934,301.139 131.021,305.489 130.937 C 318.133 130.693,320.738 130.696,325.400 130.955 C 330.386 131.232,331.417 130.945,330.214 129.615 C 329.238 128.537,329.750 128.007,332.052 127.714 C 334.200 127.440,335.200 126.955,335.200 126.186 C 335.200 125.864,335.425 125.595,335.700 125.588 C 335.977 125.581,335.888 125.394,335.500 125.168 C 334.648 124.672,334.583 124.000,335.387 124.000 C 335.744 124.000,335.885 123.765,335.746 123.402 C 335.619 123.074,335.400 122.875,335.258 122.960 C 334.886 123.185,334.200 122.304,334.200 121.602 C 334.200 121.207,333.587 120.893,332.400 120.680 C 331.410 120.502,330.026 120.206,329.325 120.023 C 328.373 119.775,327.997 119.831,327.838 120.245 M350.046 121.357 C 349.394 121.718,349.243 121.979,349.569 122.181 C 350.286 122.624,352.000 122.068,352.000 121.392 C 352.000 120.668,351.312 120.656,350.046 121.357 M341.734 121.509 C 341.385 121.731,341.407 122.057,341.820 122.803 L 342.372 123.800 342.386 122.500 C 342.401 121.076,342.405 121.082,341.734 121.509 M327.502 123.500 C 327.613 123.838,327.201 124.000,326.233 124.000 C 324.866 124.000,324.465 123.668,325.085 123.048 C 325.527 122.606,327.319 122.941,327.502 123.500 M323.760 124.921 C 325.076 125.884,323.567 126.636,321.538 126.029 C 319.914 125.542,319.864 125.055,321.400 124.685 C 322.763 124.357,323.025 124.384,323.760 124.921 M314.166 125.144 C 314.283 125.334,314.276 125.591,314.150 125.717 C 313.838 126.029,312.800 125.599,312.800 125.157 C 312.800 124.700,313.885 124.690,314.166 125.144 M370.800 165.424 C 370.800 166.271,370.638 166.747,370.400 166.600 C 369.737 166.190,369.961 164.000,370.667 164.000 C 370.740 164.000,370.800 164.641,370.800 165.424 M361.400 267.623 C 360.520 267.805,355.873 267.964,351.074 267.977 C 342.872 267.999,340.800 268.239,340.800 269.171 C 340.800 269.359,341.245 269.625,341.790 269.762 C 342.334 269.898,343.439 270.458,344.245 271.005 C 345.052 271.552,345.934 272.000,346.207 272.000 C 346.479 272.000,346.910 272.251,347.165 272.558 C 347.420 272.865,348.234 273.230,348.974 273.369 C 349.714 273.508,350.540 273.886,350.809 274.211 C 351.078 274.535,351.521 274.800,351.793 274.800 C 352.358 274.800,356.698 277.037,357.600 277.794 C 358.118 278.229,359.952 279.274,364.000 281.440 C 364.550 281.734,365.630 282.257,366.400 282.602 C 368.106 283.366,369.992 284.313,370.800 284.812 C 376.483 288.320,378.816 288.570,380.040 285.802 C 380.471 284.829,380.998 283.925,381.211 283.793 C 381.425 283.661,381.600 283.251,381.600 282.882 C 381.600 282.513,382.066 281.219,382.636 280.006 C 384.920 275.140,385.158 274.570,385.224 273.800 C 385.367 272.123,385.185 270.800,384.811 270.800 C 384.597 270.800,382.712 269.990,380.621 269.000 L 376.820 267.200 369.910 267.246 C 366.110 267.271,362.280 267.441,361.400 267.623 M67.800 267.907 C 65.757 268.318,61.376 270.003,59.000 271.291 C 57.286 272.221,56.918 272.408,54.400 273.628 C 52.970 274.321,51.080 275.311,50.200 275.828 C 48.371 276.902,46.045 278.000,45.600 278.000 C 45.434 278.000,45.074 278.270,44.800 278.600 C 44.526 278.930,44.043 279.200,43.727 279.200 C 43.170 279.200,41.372 280.012,32.325 284.350 C 29.974 285.478,27.887 286.400,27.687 286.400 C 27.488 286.400,26.998 286.760,26.600 287.200 C 26.202 287.640,25.642 288.000,25.357 288.000 C 23.179 288.000,22.349 289.461,23.384 291.468 C 23.706 292.090,24.430 293.590,24.993 294.800 C 29.452 304.384,30.937 305.986,33.896 304.400 C 34.716 303.960,35.695 303.600,36.070 303.600 C 36.446 303.600,36.873 303.405,37.020 303.167 C 37.168 302.929,38.033 302.413,38.944 302.020 C 39.855 301.627,41.500 300.775,42.600 300.127 C 43.700 299.478,45.950 298.338,47.600 297.593 C 49.250 296.848,51.410 295.578,52.400 294.770 C 53.390 293.963,54.815 293.168,55.566 293.005 C 56.317 292.841,57.739 292.278,58.725 291.754 C 59.712 291.229,60.762 290.800,61.060 290.800 C 61.357 290.800,61.600 290.634,61.600 290.431 C 61.600 290.228,62.275 289.842,63.100 289.573 C 63.925 289.304,65.029 288.750,65.554 288.342 C 66.079 287.934,66.729 287.600,67.000 287.600 C 67.271 287.600,67.921 287.267,68.446 286.861 C 68.971 286.455,69.926 285.993,70.568 285.836 C 71.211 285.679,72.180 285.202,72.722 284.775 C 73.264 284.349,73.872 284.000,74.072 284.000 C 74.272 284.000,76.452 282.863,78.918 281.472 C 83.514 278.880,90.280 275.521,91.921 275.016 C 92.428 274.860,93.882 274.145,95.152 273.427 C 96.423 272.709,97.959 271.997,98.566 271.844 C 101.185 271.187,104.109 269.138,103.416 268.445 C 102.806 267.834,70.578 267.348,67.800 267.907 " stroke="none" fill="#d23147" fill-rule="evenodd"></path><path id="path2" d="M0.000 88.800 C 0.000 146.584,0.137 177.600,0.392 177.600 C 0.919 177.600,1.107 176.519,1.384 171.888 C 1.513 169.736,1.865 167.216,2.167 166.288 C 2.469 165.359,2.805 163.726,2.914 162.659 C 3.022 161.591,3.406 160.422,3.768 160.061 C 4.373 159.456,10.464 159.415,81.576 159.544 L 158.727 159.683 159.207 158.787 C 159.576 158.097,159.654 140.280,159.543 81.207 C 159.428 19.326,159.499 4.404,159.912 3.906 C 160.198 3.561,161.434 3.168,162.712 3.014 C 163.970 2.863,165.790 2.477,166.756 2.155 C 167.723 1.834,170.243 1.476,172.356 1.360 C 176.896 1.111,178.000 0.921,178.000 0.392 C 178.000 0.137,146.914 0.000,89.000 0.000 L 0.000 0.000 0.000 88.800 M222.800 0.392 C 222.800 0.903,223.839 1.100,228.111 1.398 C 230.043 1.533,232.360 1.904,233.262 2.222 C 234.163 2.540,235.553 2.802,236.350 2.805 C 238.398 2.813,239.501 3.174,239.817 3.939 C 239.967 4.303,240.160 39.313,240.246 81.740 C 240.332 124.168,240.513 159.060,240.648 159.278 C 240.810 159.539,267.346 159.633,318.246 159.551 C 385.818 159.442,395.670 159.501,396.169 160.013 C 396.860 160.724,397.883 166.219,398.437 172.200 C 399.875 187.726,400.000 181.107,400.000 89.200 L 400.000 0.000 311.400 0.000 C 253.747 0.000,222.800 0.137,222.800 0.392 M269.486 11.445 C 270.319 11.800,271.918 12.520,273.040 13.045 C 274.162 13.570,275.332 14.001,275.640 14.003 C 275.948 14.004,276.740 14.363,277.400 14.800 C 278.060 15.237,278.924 15.596,279.321 15.597 C 279.717 15.599,280.707 15.953,281.521 16.385 C 282.334 16.816,283.810 17.516,284.800 17.939 C 287.719 19.188,288.420 19.535,292.200 21.607 C 294.180 22.692,296.551 23.947,297.468 24.395 C 298.386 24.843,299.196 25.342,299.268 25.505 C 299.341 25.667,300.030 26.114,300.800 26.498 C 301.570 26.881,302.560 27.418,303.000 27.689 C 303.440 27.961,304.970 28.911,306.400 29.800 C 307.830 30.689,309.288 31.592,309.641 31.808 C 312.771 33.722,315.912 35.926,319.602 38.800 C 322.003 40.670,324.751 42.780,325.710 43.490 C 330.594 47.106,344.035 59.978,350.000 66.753 C 351.430 68.377,352.971 70.087,353.424 70.553 C 353.877 71.019,355.809 73.339,357.718 75.708 C 362.276 81.366,362.598 82.657,359.747 83.848 C 358.942 84.184,358.034 84.709,357.729 85.014 C 357.424 85.319,356.563 85.683,355.815 85.824 C 355.067 85.964,354.359 86.331,354.240 86.639 C 354.122 86.948,353.786 87.200,353.494 87.200 C 352.994 87.200,344.659 91.313,343.800 91.983 C 343.580 92.155,342.680 92.513,341.800 92.779 C 339.749 93.398,335.031 95.643,324.000 101.251 C 321.910 102.313,318.400 104.063,316.200 105.139 C 314.000 106.215,311.390 107.510,310.400 108.017 C 309.410 108.523,308.285 109.086,307.900 109.269 C 307.515 109.451,306.885 109.780,306.500 110.000 C 306.115 110.220,305.350 110.589,304.800 110.821 C 304.250 111.053,302.180 112.133,300.200 113.221 C 296.782 115.098,293.881 116.546,288.000 119.306 C 286.570 119.978,284.770 120.921,284.000 121.402 C 283.230 121.883,281.880 122.508,281.000 122.789 C 280.120 123.071,279.130 123.516,278.800 123.778 C 276.448 125.646,267.657 129.350,266.568 128.932 C 266.101 128.753,265.981 121.338,265.813 82.060 C 265.703 56.397,265.514 30.288,265.394 24.039 C 265.130 10.320,265.339 9.677,269.486 11.445 M133.341 11.708 C 133.723 11.987,134.029 12.572,134.020 13.008 C 134.012 13.443,133.911 39.624,133.795 71.187 C 133.662 107.577,133.443 128.717,133.196 128.964 C 132.672 129.488,128.846 128.519,127.800 127.597 C 127.360 127.209,126.550 126.760,126.000 126.599 C 125.450 126.437,124.730 126.086,124.400 125.819 C 124.070 125.551,123.170 125.092,122.400 124.800 C 121.630 124.508,120.730 124.042,120.400 123.765 C 120.070 123.489,119.312 123.141,118.716 122.992 C 118.120 122.843,117.423 122.469,117.167 122.161 C 116.911 121.852,116.389 121.600,116.007 121.600 C 115.624 121.600,114.649 121.150,113.838 120.600 C 113.028 120.050,112.199 119.600,111.997 119.600 C 111.794 119.600,110.227 118.896,108.514 118.036 C 106.801 117.175,104.005 115.804,102.300 114.988 C 100.595 114.172,99.200 113.353,99.200 113.168 C 99.200 112.982,98.501 112.643,97.647 112.413 C 96.792 112.182,95.880 111.737,95.619 111.423 C 95.358 111.109,94.619 110.736,93.977 110.595 C 93.335 110.454,92.716 110.188,92.602 110.003 C 92.302 109.518,83.351 105.200,82.644 105.200 C 82.316 105.200,81.927 105.005,81.780 104.767 C 81.632 104.529,80.767 103.991,79.856 103.572 C 78.945 103.153,77.930 102.639,77.600 102.429 C 77.270 102.220,75.560 101.382,73.800 100.567 C 72.040 99.753,70.510 98.960,70.400 98.805 C 70.290 98.650,69.718 98.405,69.128 98.261 C 68.538 98.117,67.813 97.756,67.517 97.460 C 67.220 97.163,66.322 96.704,65.521 96.440 C 64.720 96.175,63.852 95.703,63.592 95.390 C 63.332 95.077,62.514 94.708,61.774 94.569 C 61.034 94.430,60.220 94.065,59.965 93.758 C 59.710 93.451,59.316 93.200,59.090 93.200 C 58.632 93.200,54.759 91.501,53.200 90.615 C 52.650 90.303,50.850 89.396,49.200 88.600 C 47.550 87.803,45.930 86.982,45.600 86.775 C 45.270 86.568,44.550 86.219,44.000 85.999 C 43.450 85.780,42.730 85.418,42.400 85.195 C 42.070 84.972,41.035 84.439,40.100 84.009 C 37.280 82.714,39.035 78.565,44.952 72.536 C 45.419 72.062,46.160 71.198,46.600 70.618 C 47.807 69.027,55.469 60.599,58.225 57.833 C 61.646 54.398,69.365 47.384,69.848 47.271 C 70.152 47.200,70.400 47.003,70.400 46.834 C 70.400 46.666,72.228 45.104,74.462 43.364 C 76.696 41.624,78.806 39.885,79.151 39.500 C 79.496 39.115,79.980 38.800,80.227 38.800 C 80.474 38.800,81.018 38.422,81.437 37.959 C 81.856 37.497,82.739 36.841,83.399 36.503 C 84.060 36.165,84.690 35.778,84.800 35.644 C 85.121 35.253,87.545 33.600,87.799 33.600 C 87.926 33.600,89.688 32.461,91.715 31.069 C 93.742 29.676,96.480 27.938,97.800 27.207 C 99.120 26.475,100.470 25.652,100.800 25.378 C 101.704 24.627,113.219 18.800,113.798 18.800 C 114.075 18.800,114.508 18.552,114.760 18.248 C 115.012 17.945,115.769 17.586,116.441 17.452 C 117.114 17.317,118.125 16.845,118.686 16.404 C 119.248 15.962,119.999 15.594,120.354 15.587 C 120.709 15.581,121.900 15.132,123.000 14.591 C 124.100 14.050,125.200 13.606,125.444 13.604 C 125.688 13.602,126.948 13.062,128.244 12.405 C 130.795 11.111,132.253 10.912,133.341 11.708 M370.518 94.500 C 371.272 95.435,372.379 97.190,372.976 98.400 C 373.574 99.610,374.301 100.870,374.591 101.200 C 375.507 102.243,378.800 109.249,378.794 110.143 C 378.785 111.367,378.360 111.885,376.786 112.590 C 376.024 112.932,375.130 113.389,374.800 113.606 C 374.470 113.823,373.750 114.190,373.200 114.421 C 372.056 114.902,370.256 115.781,368.800 116.569 C 364.156 119.083,357.911 121.959,356.600 122.188 C 355.720 122.342,354.392 122.841,353.648 123.298 C 351.581 124.569,343.061 128.779,342.533 128.790 C 342.277 128.796,342.007 128.963,341.933 129.163 C 341.860 129.362,340.000 130.397,337.800 131.463 L 333.800 133.400 312.920 133.400 C 297.363 133.400,291.919 133.279,291.566 132.926 C 290.977 132.337,295.603 129.200,297.062 129.200 C 297.578 129.200,298.000 129.014,298.000 128.786 C 298.000 128.558,298.765 128.020,299.700 127.591 C 300.635 127.161,301.670 126.635,302.000 126.420 C 302.330 126.206,303.680 125.559,305.000 124.984 C 306.320 124.408,308.303 123.501,309.406 122.969 C 310.509 122.436,311.612 122.000,311.857 122.000 C 312.102 122.000,312.508 121.752,312.760 121.449 C 313.011 121.146,315.148 119.963,317.509 118.820 C 321.513 116.882,322.464 116.401,324.000 115.538 C 324.330 115.352,325.050 115.021,325.600 114.801 C 326.150 114.582,326.870 114.252,327.200 114.068 C 327.530 113.885,328.430 113.413,329.200 113.019 C 329.970 112.626,334.110 110.511,338.400 108.320 C 342.690 106.128,346.490 104.075,346.844 103.757 C 347.626 103.054,359.214 97.224,359.857 97.210 C 360.109 97.205,360.412 96.947,360.530 96.638 C 360.649 96.328,361.343 95.951,362.073 95.798 C 362.803 95.646,363.850 95.224,364.400 94.861 C 365.319 94.253,368.231 92.939,368.873 92.841 C 369.023 92.819,369.764 93.565,370.518 94.500 M27.000 112.947 C 33.699 116.237,35.777 117.200,36.174 117.200 C 36.374 117.200,36.821 117.440,37.169 117.734 C 37.516 118.028,38.430 118.509,39.200 118.804 C 39.970 119.099,41.098 119.683,41.706 120.102 C 43.470 121.316,52.874 126.231,56.400 127.782 C 56.730 127.927,57.900 128.566,59.000 129.202 C 60.100 129.838,61.765 130.721,62.700 131.165 C 63.635 131.609,64.400 132.136,64.400 132.337 C 64.400 133.572,63.080 133.719,50.888 133.832 C 44.130 133.894,34.820 134.003,30.200 134.073 L 21.800 134.200 18.800 132.684 C 12.187 129.343,12.260 129.453,13.956 125.343 C 14.670 123.615,15.440 121.570,15.667 120.800 C 15.894 120.030,16.318 119.130,16.609 118.800 C 16.900 118.470,17.258 117.718,17.405 117.129 C 17.552 116.541,18.016 115.748,18.436 115.367 C 18.856 114.987,19.200 114.359,19.200 113.971 C 19.200 112.446,20.659 111.004,22.400 110.809 C 22.510 110.797,24.580 111.759,27.000 112.947 M399.053 222.700 C 398.942 223.085,398.728 225.200,398.577 227.400 C 398.426 229.600,398.046 232.570,397.732 234.000 C 397.419 235.430,397.056 237.279,396.927 238.110 C 396.798 238.940,396.491 239.750,396.246 239.910 C 396.001 240.069,360.880 240.290,318.200 240.400 L 240.600 240.600 240.400 318.200 C 240.195 397.719,240.216 396.800,238.608 396.800 C 238.088 396.800,236.164 397.149,234.332 397.576 C 232.499 398.003,229.290 398.468,227.200 398.610 C 222.953 398.897,222.000 399.083,222.000 399.627 C 222.000 399.857,256.221 400.000,311.000 400.000 L 400.000 400.000 400.000 311.000 C 400.000 229.134,399.899 219.755,399.053 222.700 M0.000 311.400 L 0.000 400.000 89.000 400.000 C 140.958 400.000,178.000 399.851,178.000 399.643 C 178.000 399.058,177.080 398.867,172.937 398.594 C 170.772 398.452,168.072 398.080,166.938 397.767 C 165.805 397.455,164.275 397.190,163.538 397.177 C 162.802 397.165,161.570 396.940,160.800 396.677 L 159.400 396.200 159.400 318.400 L 159.400 240.600 81.720 240.400 C 22.914 240.249,3.926 240.086,3.569 239.729 C 3.008 239.168,2.144 234.404,1.406 227.800 C 0.781 222.213,0.900 222.800,0.400 222.800 C 0.135 222.800,0.000 252.600,0.000 311.400 M379.351 266.600 C 381.169 267.427,386.540 270.380,386.925 270.765 C 387.303 271.143,386.315 275.044,385.244 277.400 C 383.338 281.593,382.856 282.694,382.397 283.900 C 382.125 284.615,381.774 285.200,381.615 285.200 C 381.457 285.200,381.091 285.918,380.802 286.795 C 379.635 290.331,377.601 290.287,371.400 286.592 C 370.520 286.068,369.350 285.435,368.800 285.186 C 368.250 284.937,367.170 284.411,366.400 284.017 C 365.630 283.623,364.416 283.174,363.702 283.019 C 362.989 282.864,362.269 282.516,362.102 282.245 C 361.936 281.975,361.170 281.502,360.400 281.195 C 359.630 280.888,358.313 280.145,357.474 279.544 C 356.073 278.539,352.183 276.565,345.000 273.214 C 343.460 272.496,341.840 271.589,341.400 271.200 C 340.960 270.811,340.176 270.363,339.659 270.206 C 339.141 270.049,338.081 269.488,337.303 268.960 C 336.525 268.432,335.733 268.000,335.544 268.000 C 334.924 268.000,335.184 266.849,335.894 266.451 C 336.309 266.219,339.494 266.139,343.794 266.253 C 347.757 266.358,355.230 266.270,360.400 266.058 C 371.287 265.611,377.571 265.791,379.351 266.600 M108.656 266.862 C 109.432 267.720,109.485 267.640,107.400 268.766 C 106.520 269.241,105.080 270.064,104.200 270.596 C 103.320 271.127,102.150 271.783,101.600 272.053 C 97.063 274.286,86.464 279.372,84.200 280.403 C 82.660 281.105,81.130 281.905,80.800 282.181 C 80.049 282.809,73.795 285.996,70.600 287.378 C 69.280 287.950,67.750 288.669,67.200 288.976 C 66.650 289.284,63.818 290.736,60.907 292.203 C 57.996 293.671,54.846 295.392,53.907 296.028 C 52.968 296.665,52.020 297.193,51.800 297.201 C 51.580 297.210,50.230 297.832,48.800 298.584 C 46.420 299.836,41.618 302.225,34.107 305.895 C 31.803 307.021,31.096 307.212,30.640 306.833 C 29.924 306.239,26.400 301.062,26.400 300.604 C 26.400 300.419,25.614 298.992,24.653 297.434 C 23.693 295.875,22.779 294.060,22.622 293.400 C 22.466 292.740,22.069 291.902,21.741 291.537 C 20.735 290.421,21.196 288.304,22.600 287.592 C 23.260 287.258,24.844 286.415,26.121 285.719 C 27.397 285.024,28.970 284.338,29.616 284.196 C 30.262 284.055,30.894 283.771,31.020 283.567 C 31.268 283.166,38.457 279.611,43.000 277.643 C 44.540 276.976,47.945 275.344,50.566 274.015 C 53.187 272.687,55.544 271.600,55.804 271.600 C 56.064 271.600,56.593 271.250,56.979 270.823 C 57.366 270.395,58.202 269.931,58.837 269.792 C 59.472 269.653,60.086 269.384,60.203 269.195 C 60.477 268.752,64.640 266.798,66.200 266.381 C 69.040 265.620,107.931 266.061,108.656 266.862 M133.140 270.928 C 133.971 271.929,134.039 387.441,133.209 388.192 C 132.174 389.129,131.280 388.955,126.940 386.975 C 126.246 386.659,125.436 386.399,125.140 386.399 C 124.843 386.398,124.060 386.074,123.400 385.680 C 122.740 385.286,121.456 384.745,120.547 384.480 C 119.639 384.214,118.672 383.727,118.398 383.398 C 118.125 383.069,117.692 382.800,117.436 382.800 C 117.179 382.800,116.271 382.444,115.417 382.009 C 114.564 381.574,113.221 381.010,112.433 380.757 C 111.645 380.503,110.801 380.139,110.558 379.947 C 110.095 379.582,108.322 378.611,103.000 375.809 C 97.868 373.107,95.854 371.946,95.000 371.200 C 94.560 370.815,93.761 370.273,93.225 369.996 C 92.689 369.719,92.059 369.325,91.825 369.122 C 91.591 368.919,90.782 368.358,90.026 367.876 C 86.757 365.791,82.700 363.019,81.156 361.814 C 80.581 361.366,79.706 360.730,79.210 360.400 C 78.222 359.743,73.359 355.845,72.400 354.943 C 72.070 354.632,71.333 353.978,70.763 353.489 C 65.403 348.894,62.946 346.587,57.493 341.029 C 49.095 332.467,49.200 332.579,49.200 332.220 C 49.200 332.048,48.492 331.253,47.627 330.454 C 46.762 329.654,44.793 327.380,43.253 325.400 C 41.712 323.420,39.990 321.235,39.426 320.545 C 37.275 317.913,38.992 315.433,43.796 314.235 C 44.454 314.071,45.084 313.796,45.196 313.625 C 45.448 313.240,51.334 310.400,51.880 310.400 C 52.098 310.400,52.602 310.040,53.000 309.600 C 53.398 309.160,53.975 308.800,54.283 308.800 C 54.590 308.800,55.507 308.443,56.321 308.006 C 58.258 306.967,62.196 305.200,62.576 305.200 C 62.740 305.200,63.331 304.840,63.891 304.400 C 64.450 303.960,65.219 303.600,65.600 303.600 C 65.981 303.600,66.721 303.270,67.246 302.867 C 68.814 301.663,76.229 298.000,77.098 298.000 C 77.338 298.000,77.593 297.859,77.667 297.688 C 77.902 297.137,84.444 293.618,86.151 293.125 C 87.058 292.863,88.213 292.335,88.719 291.952 C 89.224 291.569,90.167 291.139,90.814 290.997 C 91.461 290.855,92.103 290.557,92.239 290.336 C 92.376 290.115,93.233 289.591,94.144 289.172 C 95.055 288.753,96.070 288.247,96.400 288.048 C 96.730 287.848,97.450 287.488,98.000 287.246 C 98.550 287.004,99.270 286.633,99.600 286.422 C 99.930 286.212,102.180 285.117,104.600 283.990 C 107.020 282.863,109.270 281.771,109.600 281.563 C 111.011 280.674,115.820 278.400,116.289 278.400 C 116.570 278.400,116.800 278.234,116.800 278.031 C 116.800 277.828,117.475 277.445,118.300 277.180 C 119.125 276.916,120.082 276.454,120.426 276.154 C 120.770 275.855,121.670 275.395,122.426 275.132 C 123.182 274.869,124.038 274.417,124.328 274.128 C 124.618 273.838,125.338 273.487,125.928 273.347 C 126.518 273.207,127.320 272.814,127.711 272.474 C 129.579 270.850,132.407 270.045,133.140 270.928 M269.000 271.155 C 270.427 271.785,274.589 273.827,276.000 274.589 C 276.550 274.886,277.450 275.324,278.000 275.562 C 278.550 275.800,279.270 276.154,279.600 276.349 C 279.930 276.543,280.830 276.987,281.600 277.334 C 282.370 277.680,283.630 278.312,284.400 278.738 C 285.170 279.163,289.850 281.521,294.800 283.978 C 299.750 286.434,304.970 289.050,306.400 289.790 C 307.830 290.531,311.700 292.420,315.000 293.988 C 318.300 295.557,321.270 297.000,321.600 297.195 C 321.930 297.391,323.775 298.312,325.700 299.242 C 327.625 300.172,329.200 301.054,329.200 301.203 C 329.200 301.352,329.899 301.683,330.753 301.939 C 331.606 302.194,332.528 302.673,332.802 303.002 C 333.075 303.331,333.612 303.600,333.995 303.600 C 334.378 303.600,335.121 303.934,335.646 304.342 C 336.171 304.750,337.272 305.303,338.094 305.571 C 338.916 305.839,339.692 306.225,339.818 306.429 C 339.944 306.633,340.309 306.800,340.628 306.800 C 341.130 306.800,345.830 308.956,347.600 309.999 C 347.930 310.193,349.550 310.997,351.200 311.785 C 352.850 312.573,354.470 313.381,354.800 313.581 C 355.130 313.780,356.795 314.608,358.500 315.420 C 361.942 317.058,362.664 319.082,360.419 320.800 C 360.275 320.910,359.232 322.170,358.100 323.600 C 356.969 325.030,355.673 326.611,355.221 327.114 C 354.770 327.617,354.400 328.136,354.400 328.268 C 354.400 328.400,353.995 328.909,353.500 329.398 C 353.005 329.888,351.700 331.331,350.600 332.605 C 346.683 337.143,344.213 339.811,343.214 340.586 C 342.656 341.018,342.034 341.648,341.830 341.986 C 341.242 342.963,339.687 344.417,332.611 350.600 C 331.352 351.700,329.845 353.000,329.261 353.489 C 328.678 353.978,327.840 354.724,327.400 355.146 C 326.746 355.774,323.030 358.629,318.200 362.213 C 317.760 362.540,316.860 363.215,316.200 363.715 C 315.540 364.214,314.196 365.157,313.213 365.811 C 312.231 366.465,311.106 367.315,310.713 367.700 C 310.321 368.085,309.767 368.400,309.481 368.400 C 309.196 368.400,308.611 368.671,308.181 369.002 C 306.478 370.313,303.776 371.986,303.349 371.993 C 303.101 371.997,302.651 372.298,302.349 372.662 C 302.047 373.026,301.260 373.573,300.600 373.878 C 299.940 374.183,298.680 374.869,297.800 375.402 C 296.920 375.935,295.570 376.653,294.800 376.996 C 294.030 377.339,293.130 377.791,292.800 378.001 C 291.307 378.950,286.455 381.200,285.901 381.200 C 285.562 381.200,285.182 381.470,285.055 381.800 C 284.929 382.130,284.576 382.400,284.272 382.400 C 283.968 382.400,282.873 382.850,281.838 383.400 C 280.804 383.950,279.776 384.400,279.554 384.400 C 279.205 384.400,276.510 385.548,273.761 386.867 C 265.230 390.962,265.019 390.630,265.396 373.716 C 265.547 366.942,265.742 341.240,265.830 316.600 C 265.918 291.960,265.992 271.588,265.995 271.329 C 265.998 271.070,266.315 270.777,266.700 270.678 C 267.500 270.472,267.410 270.454,269.000 271.155 " stroke="none" fill="#f8f8f7" fill-rule="evenodd"></path><path id="path3" d="M266.057 11.739 C 265.179 12.674,265.176 12.731,265.394 24.039 C 265.514 30.288,265.703 56.397,265.813 82.060 C 265.981 121.338,266.101 128.753,266.568 128.932 C 267.657 129.350,276.448 125.646,278.800 123.778 C 279.130 123.516,280.120 123.071,281.000 122.789 C 281.880 122.508,283.230 121.883,284.000 121.402 C 284.770 120.921,286.570 119.978,288.000 119.306 C 293.881 116.546,296.782 115.098,300.200 113.221 C 302.180 112.133,304.250 111.053,304.800 110.821 C 305.350 110.589,306.115 110.220,306.500 110.000 C 306.885 109.780,307.515 109.451,307.900 109.269 C 308.285 109.086,309.410 108.523,310.400 108.017 C 311.390 107.510,314.000 106.215,316.200 105.139 C 318.400 104.063,321.910 102.313,324.000 101.251 C 335.031 95.643,339.749 93.398,341.800 92.779 C 342.680 92.513,343.580 92.155,343.800 91.983 C 344.659 91.313,352.994 87.200,353.494 87.200 C 353.786 87.200,354.122 86.948,354.240 86.639 C 354.359 86.331,355.067 85.964,355.815 85.824 C 356.563 85.683,357.424 85.319,357.729 85.014 C 358.034 84.709,358.942 84.184,359.747 83.848 C 362.598 82.657,362.276 81.366,357.718 75.708 C 355.809 73.339,353.877 71.019,353.424 70.553 C 352.971 70.087,351.430 68.377,350.000 66.753 C 344.035 59.978,330.594 47.106,325.710 43.490 C 324.751 42.780,322.003 40.670,319.602 38.800 C 315.912 35.926,312.771 33.722,309.641 31.808 C 309.288 31.592,307.830 30.689,306.400 29.800 C 304.970 28.911,303.440 27.961,303.000 27.689 C 302.560 27.418,301.570 26.881,300.800 26.498 C 300.030 26.114,299.341 25.667,299.268 25.505 C 299.196 25.342,298.386 24.843,297.468 24.395 C 296.551 23.947,294.180 22.692,292.200 21.607 C 288.420 19.535,287.719 19.188,284.800 17.939 C 283.810 17.516,282.334 16.816,281.521 16.385 C 280.707 15.953,279.717 15.599,279.321 15.597 C 278.924 15.596,278.060 15.237,277.400 14.800 C 276.740 14.363,275.948 14.004,275.640 14.003 C 275.332 14.001,274.162 13.570,273.040 13.045 C 267.495 10.451,267.302 10.414,266.057 11.739 M128.244 12.405 C 126.948 13.062,125.688 13.602,125.444 13.604 C 125.200 13.606,124.100 14.050,123.000 14.591 C 121.900 15.132,120.709 15.581,120.354 15.587 C 119.999 15.594,119.248 15.962,118.686 16.404 C 118.125 16.845,117.114 17.317,116.441 17.452 C 115.769 17.586,115.012 17.945,114.760 18.248 C 114.508 18.552,114.075 18.800,113.798 18.800 C 113.219 18.800,101.704 24.627,100.800 25.378 C 100.470 25.652,99.120 26.475,97.800 27.207 C 96.480 27.938,93.742 29.676,91.715 31.069 C 89.688 32.461,87.926 33.600,87.799 33.600 C 87.545 33.600,85.121 35.253,84.800 35.644 C 84.690 35.778,84.060 36.165,83.399 36.503 C 82.739 36.841,81.856 37.497,81.437 37.959 C 81.018 38.422,80.474 38.800,80.227 38.800 C 79.980 38.800,79.496 39.115,79.151 39.500 C 78.806 39.885,76.696 41.624,74.462 43.364 C 72.228 45.104,70.400 46.666,70.400 46.834 C 70.400 47.003,70.152 47.200,69.848 47.271 C 69.365 47.384,61.646 54.398,58.225 57.833 C 55.469 60.599,47.807 69.027,46.600 70.618 C 46.160 71.198,45.419 72.062,44.952 72.536 C 39.035 78.565,37.280 82.714,40.100 84.009 C 41.035 84.439,42.070 84.972,42.400 85.195 C 42.730 85.418,43.450 85.780,44.000 85.999 C 44.550 86.219,45.270 86.568,45.600 86.775 C 45.930 86.982,47.550 87.803,49.200 88.600 C 50.850 89.396,52.650 90.303,53.200 90.615 C 54.759 91.501,58.632 93.200,59.090 93.200 C 59.316 93.200,59.710 93.451,59.965 93.758 C 60.220 94.065,61.034 94.430,61.774 94.569 C 62.514 94.708,63.332 95.077,63.592 95.390 C 63.852 95.703,64.720 96.175,65.521 96.440 C 66.322 96.704,67.220 97.163,67.517 97.460 C 67.813 97.756,68.538 98.117,69.128 98.261 C 69.718 98.405,70.290 98.650,70.400 98.805 C 70.510 98.960,72.040 99.753,73.800 100.567 C 75.560 101.382,77.270 102.220,77.600 102.429 C 77.930 102.639,78.945 103.153,79.856 103.572 C 80.767 103.991,81.632 104.529,81.780 104.767 C 81.927 105.005,82.316 105.200,82.644 105.200 C 83.351 105.200,92.302 109.518,92.602 110.003 C 92.716 110.188,93.335 110.454,93.977 110.595 C 94.619 110.736,95.358 111.109,95.619 111.423 C 95.880 111.737,96.792 112.182,97.647 112.413 C 98.501 112.643,99.200 112.982,99.200 113.168 C 99.200 113.353,100.595 114.172,102.300 114.988 C 104.005 115.804,106.801 117.175,108.514 118.036 C 110.227 118.896,111.794 119.600,111.997 119.600 C 112.199 119.600,113.028 120.050,113.838 120.600 C 114.649 121.150,115.624 121.600,116.007 121.600 C 116.389 121.600,116.911 121.852,117.167 122.161 C 117.423 122.469,118.120 122.843,118.716 122.992 C 119.312 123.141,120.070 123.489,120.400 123.765 C 120.730 124.042,121.630 124.508,122.400 124.800 C 123.170 125.092,124.070 125.551,124.400 125.819 C 124.730 126.086,125.450 126.437,126.000 126.599 C 126.550 126.760,127.360 127.209,127.800 127.597 C 128.846 128.519,132.672 129.488,133.196 128.964 C 133.443 128.717,133.662 107.577,133.795 71.187 C 133.911 39.624,134.012 13.443,134.020 13.008 C 134.060 10.963,131.594 10.706,128.244 12.405 M132.392 13.390 C 132.766 13.841,132.829 17.109,132.661 27.290 C 132.366 45.055,132.363 124.653,132.657 126.300 C 132.955 127.971,130.742 128.175,128.422 126.690 C 126.392 125.391,125.975 125.163,120.200 122.195 C 108.617 116.242,106.509 115.200,106.046 115.200 C 105.781 115.200,104.718 114.750,103.685 114.200 C 102.652 113.650,101.549 113.200,101.235 113.200 C 100.920 113.200,100.379 112.950,100.031 112.644 C 99.684 112.338,97.461 111.071,95.091 109.828 C 92.722 108.586,89.879 107.036,88.774 106.384 C 87.669 105.733,86.678 105.200,86.571 105.200 C 86.465 105.200,82.828 103.471,78.489 101.357 C 74.150 99.243,69.610 97.067,68.400 96.522 C 67.190 95.976,65.930 95.362,65.600 95.157 C 65.270 94.952,64.370 94.506,63.600 94.166 C 62.830 93.826,61.210 93.033,60.000 92.403 C 58.790 91.773,53.930 89.328,49.200 86.969 C 40.831 82.797,40.019 82.300,40.006 81.342 C 39.997 80.653,47.116 71.584,51.564 66.617 C 55.667 62.036,70.160 48.018,71.988 46.864 C 72.545 46.512,74.800 44.759,77.000 42.967 C 79.200 41.176,82.018 39.061,83.263 38.267 C 84.507 37.473,85.587 36.666,85.663 36.474 C 85.738 36.281,86.277 35.871,86.860 35.562 C 87.443 35.253,88.973 34.295,90.260 33.434 C 94.295 30.732,96.508 29.367,99.453 27.758 C 101.022 26.901,103.812 25.361,105.653 24.336 C 111.498 21.081,121.872 16.000,122.674 16.000 C 123.099 16.000,123.796 15.736,124.224 15.413 C 124.651 15.090,125.270 14.818,125.600 14.809 C 125.930 14.800,127.100 14.350,128.200 13.809 C 130.506 12.674,131.699 12.555,132.392 13.390 M271.969 13.828 C 273.416 14.393,275.140 15.097,275.800 15.392 C 276.460 15.687,277.744 16.126,278.653 16.367 C 279.563 16.608,280.514 17.056,280.768 17.361 C 281.021 17.666,281.834 18.030,282.574 18.169 C 283.314 18.308,284.125 18.669,284.376 18.971 C 284.627 19.274,285.319 19.644,285.914 19.793 C 286.509 19.942,287.177 20.214,287.398 20.398 C 287.619 20.581,289.240 21.489,291.000 22.415 C 292.760 23.340,294.417 24.271,294.682 24.483 C 294.946 24.694,296.386 25.492,297.882 26.256 C 300.787 27.741,302.284 28.575,304.200 29.776 C 304.860 30.190,306.030 30.922,306.800 31.403 C 310.938 33.991,315.200 37.025,321.401 41.800 C 323.115 43.120,325.076 44.584,325.759 45.053 C 326.441 45.521,327.436 46.376,327.970 46.953 C 328.503 47.529,329.094 48.000,329.283 48.000 C 330.208 48.000,349.663 67.529,352.600 71.404 C 353.040 71.985,353.805 72.941,354.300 73.530 C 357.639 77.501,359.901 80.998,359.620 81.757 C 359.285 82.664,359.250 82.687,355.400 84.520 C 353.860 85.253,352.240 86.055,351.800 86.302 C 351.360 86.549,349.650 87.392,348.000 88.176 C 346.350 88.959,343.830 90.230,342.400 90.998 C 340.970 91.767,339.417 92.397,338.949 92.398 C 338.481 92.399,337.892 92.648,337.640 92.952 C 337.388 93.255,336.613 93.617,335.917 93.757 C 335.222 93.896,334.357 94.277,333.996 94.604 C 333.635 94.931,332.470 95.361,331.408 95.559 C 330.346 95.757,329.316 96.208,329.118 96.560 C 328.916 96.921,328.246 97.200,327.580 97.200 C 326.667 97.200,326.400 97.381,326.400 98.000 C 326.400 98.662,326.133 98.800,324.854 98.800 C 323.887 98.800,322.906 99.116,322.235 99.644 C 320.970 100.639,317.922 102.225,316.132 102.820 C 315.435 103.051,314.648 103.502,314.383 103.820 C 314.118 104.139,313.623 104.400,313.283 104.400 C 312.942 104.400,312.346 104.687,311.959 105.037 C 311.178 105.744,309.450 106.745,306.944 107.942 C 306.033 108.378,305.176 108.915,305.039 109.136 C 304.903 109.357,304.265 109.654,303.623 109.795 C 302.981 109.936,302.248 110.301,301.996 110.605 C 301.743 110.910,300.875 111.374,300.068 111.636 C 299.261 111.898,298.456 112.358,298.280 112.657 C 298.104 112.955,297.429 113.200,296.780 113.200 C 296.131 113.200,295.258 113.542,294.839 113.961 C 294.421 114.379,293.656 114.852,293.139 115.013 C 291.563 115.502,283.839 119.304,283.273 119.869 C 282.982 120.161,282.510 120.400,282.225 120.400 C 281.941 120.400,281.264 120.749,280.722 121.175 C 280.180 121.602,279.263 122.069,278.685 122.214 C 278.106 122.360,277.431 122.722,277.184 123.019 C 276.938 123.316,276.075 123.777,275.268 124.043 C 274.461 124.309,273.305 124.858,272.700 125.263 C 272.095 125.668,271.046 126.376,270.368 126.835 C 269.581 127.370,268.802 127.587,268.209 127.438 L 267.282 127.205 267.438 120.703 C 267.523 117.126,267.692 101.330,267.813 85.600 C 267.934 69.870,268.103 56.370,268.188 55.600 C 268.579 52.088,268.502 40.405,268.085 39.903 C 267.007 38.603,266.075 14.058,267.067 13.067 C 267.593 12.540,269.383 12.818,271.969 13.828 M21.400 111.200 C 20.733 111.486,20.821 111.548,21.924 111.572 C 22.710 111.589,23.147 111.438,23.000 111.200 C 22.712 110.734,22.485 110.734,21.400 111.200 M129.911 271.160 C 129.092 271.543,128.102 272.134,127.711 272.474 C 127.320 272.814,126.518 273.207,125.928 273.347 C 125.338 273.487,124.618 273.838,124.328 274.128 C 124.038 274.417,123.182 274.869,122.426 275.132 C 121.670 275.395,120.770 275.855,120.426 276.154 C 120.082 276.454,119.125 276.916,118.300 277.180 C 117.475 277.445,116.800 277.828,116.800 278.031 C 116.800 278.234,116.570 278.400,116.289 278.400 C 115.820 278.400,111.011 280.674,109.600 281.563 C 109.270 281.771,107.020 282.863,104.600 283.990 C 102.180 285.117,99.930 286.212,99.600 286.422 C 99.270 286.633,98.550 287.004,98.000 287.246 C 97.450 287.488,96.730 287.848,96.400 288.048 C 96.070 288.247,95.055 288.753,94.144 289.172 C 93.233 289.591,92.376 290.115,92.239 290.336 C 92.103 290.557,91.461 290.855,90.814 290.997 C 90.167 291.139,89.224 291.569,88.719 291.952 C 88.213 292.335,87.058 292.863,86.151 293.125 C 84.444 293.618,77.902 297.137,77.667 297.688 C 77.593 297.859,77.338 298.000,77.098 298.000 C 76.229 298.000,68.814 301.663,67.246 302.867 C 66.721 303.270,65.981 303.600,65.600 303.600 C 65.219 303.600,64.450 303.960,63.891 304.400 C 63.331 304.840,62.740 305.200,62.576 305.200 C 62.196 305.200,58.258 306.967,56.321 308.006 C 55.507 308.443,54.590 308.800,54.283 308.800 C 53.975 308.800,53.398 309.160,53.000 309.600 C 52.602 310.040,52.098 310.400,51.880 310.400 C 51.334 310.400,45.448 313.240,45.196 313.625 C 45.084 313.796,44.454 314.071,43.796 314.235 C 38.992 315.433,37.275 317.913,39.426 320.545 C 39.990 321.235,41.712 323.420,43.253 325.400 C 44.793 327.380,46.762 329.654,47.627 330.454 C 48.492 331.253,49.200 332.048,49.200 332.220 C 49.200 332.579,49.095 332.467,57.493 341.029 C 62.946 346.587,65.403 348.894,70.763 353.489 C 71.333 353.978,72.070 354.632,72.400 354.943 C 73.359 355.845,78.222 359.743,79.210 360.400 C 79.706 360.730,80.581 361.366,81.156 361.814 C 82.700 363.019,86.757 365.791,90.026 367.876 C 90.782 368.358,91.591 368.919,91.825 369.122 C 92.059 369.325,92.689 369.719,93.225 369.996 C 93.761 370.273,94.560 370.815,95.000 371.200 C 95.854 371.946,97.868 373.107,103.000 375.809 C 108.322 378.611,110.095 379.582,110.558 379.947 C 110.801 380.139,111.645 380.503,112.433 380.757 C 113.221 381.010,114.564 381.574,115.417 382.009 C 116.271 382.444,117.179 382.800,117.436 382.800 C 117.692 382.800,118.125 383.069,118.398 383.398 C 118.672 383.727,119.639 384.214,120.547 384.480 C 121.456 384.745,122.740 385.286,123.400 385.680 C 124.060 386.074,124.843 386.398,125.140 386.399 C 125.436 386.399,126.246 386.659,126.940 386.975 C 131.280 388.955,132.174 389.129,133.209 388.192 C 134.039 387.441,133.971 271.929,133.140 270.928 C 132.572 270.244,131.746 270.303,129.911 271.160 M266.700 270.678 C 266.315 270.777,265.998 271.070,265.995 271.329 C 265.992 271.588,265.918 291.960,265.830 316.600 C 265.742 341.240,265.547 366.942,265.396 373.716 C 265.019 390.630,265.230 390.962,273.761 386.867 C 276.510 385.548,279.205 384.400,279.554 384.400 C 279.776 384.400,280.804 383.950,281.838 383.400 C 282.873 382.850,283.968 382.400,284.272 382.400 C 284.576 382.400,284.929 382.130,285.055 381.800 C 285.182 381.470,285.562 381.200,285.901 381.200 C 286.455 381.200,291.307 378.950,292.800 378.001 C 293.130 377.791,294.030 377.339,294.800 376.996 C 295.570 376.653,296.920 375.935,297.800 375.402 C 298.680 374.869,299.940 374.183,300.600 373.878 C 301.260 373.573,302.047 373.026,302.349 372.662 C 302.651 372.298,303.101 371.997,303.349 371.993 C 303.776 371.986,306.478 370.313,308.181 369.002 C 308.611 368.671,309.196 368.400,309.481 368.400 C 309.767 368.400,310.321 368.085,310.713 367.700 C 311.106 367.315,312.231 366.465,313.213 365.811 C 314.196 365.157,315.540 364.214,316.200 363.715 C 316.860 363.215,317.760 362.540,318.200 362.213 C 323.030 358.629,326.746 355.774,327.400 355.146 C 327.840 354.724,328.678 353.978,329.261 353.489 C 329.845 353.000,331.352 351.700,332.611 350.600 C 339.687 344.417,341.242 342.963,341.830 341.986 C 342.034 341.648,342.656 341.018,343.214 340.586 C 344.213 339.811,346.683 337.143,350.600 332.605 C 351.700 331.331,353.005 329.888,353.500 329.398 C 353.995 328.909,354.400 328.400,354.400 328.268 C 354.400 328.136,354.770 327.617,355.221 327.114 C 355.673 326.611,356.969 325.030,358.100 323.600 C 359.232 322.170,360.275 320.910,360.419 320.800 C 362.664 319.082,361.942 317.058,358.500 315.420 C 356.795 314.608,355.130 313.780,354.800 313.581 C 354.470 313.381,352.850 312.573,351.200 311.785 C 349.550 310.997,347.930 310.193,347.600 309.999 C 345.830 308.956,341.130 306.800,340.628 306.800 C 340.309 306.800,339.944 306.633,339.818 306.429 C 339.692 306.225,338.916 305.839,338.094 305.571 C 337.272 305.303,336.171 304.750,335.646 304.342 C 335.121 303.934,334.378 303.600,333.995 303.600 C 333.612 303.600,333.075 303.331,332.802 303.002 C 332.528 302.673,331.606 302.194,330.753 301.939 C 329.899 301.683,329.200 301.352,329.200 301.203 C 329.200 301.054,327.625 300.172,325.700 299.242 C 323.775 298.312,321.930 297.391,321.600 297.195 C 321.270 297.000,318.300 295.557,315.000 293.988 C 311.700 292.420,307.830 290.531,306.400 289.790 C 304.970 289.050,299.750 286.434,294.800 283.978 C 289.850 281.521,285.170 279.163,284.400 278.738 C 283.630 278.312,282.370 277.680,281.600 277.334 C 280.830 276.987,279.930 276.543,279.600 276.349 C 279.270 276.154,278.550 275.800,278.000 275.562 C 277.450 275.324,276.550 274.886,276.000 274.589 C 273.856 273.431,268.417 270.823,267.600 270.562 C 267.490 270.527,267.085 270.579,266.700 270.678 M132.490 329.539 L 132.665 386.478 131.716 386.911 C 130.953 387.259,130.415 387.173,128.973 386.472 C 127.986 385.992,126.913 385.600,126.588 385.600 C 126.263 385.600,125.325 385.240,124.504 384.800 C 123.684 384.360,122.739 383.999,122.406 383.997 C 121.549 383.992,107.682 376.945,101.400 373.323 C 100.520 372.815,99.191 372.117,98.446 371.772 C 97.701 371.427,96.621 370.825,96.046 370.435 C 95.471 370.045,93.830 368.952,92.400 368.006 C 90.970 367.059,88.360 365.288,86.600 364.069 C 84.840 362.850,82.863 361.481,82.206 361.027 C 81.549 360.572,79.224 358.760,77.037 357.000 C 74.851 355.240,71.699 352.710,70.031 351.378 C 67.048 348.994,53.729 335.840,50.071 331.664 C 46.198 327.243,45.629 326.568,44.726 325.321 C 44.217 324.618,42.945 322.885,41.900 321.471 C 39.792 318.617,39.523 317.405,40.900 316.969 C 41.867 316.664,44.294 315.492,54.000 310.646 C 57.410 308.944,61.010 307.157,62.000 306.676 C 62.990 306.194,64.079 305.580,64.420 305.311 C 64.761 305.041,65.832 304.542,66.800 304.200 C 67.768 303.858,68.839 303.347,69.180 303.065 C 69.521 302.782,70.610 302.222,71.600 301.822 C 73.199 301.175,87.283 294.200,92.000 291.720 C 92.990 291.199,95.490 289.879,97.555 288.787 C 99.621 287.694,101.611 286.800,101.978 286.800 C 102.344 286.800,103.255 286.350,104.000 285.800 C 104.745 285.250,105.572 284.800,105.836 284.800 C 106.238 284.800,116.884 279.552,118.800 278.409 C 119.130 278.212,119.940 277.799,120.600 277.492 C 123.216 276.275,128.233 273.492,128.800 272.946 C 129.159 272.599,129.985 272.413,130.858 272.483 L 132.316 272.600 132.490 329.539 M270.220 272.833 C 270.368 273.071,271.233 273.609,272.144 274.028 C 273.055 274.447,274.070 274.972,274.400 275.195 C 274.730 275.418,275.450 275.784,276.000 276.008 C 276.550 276.233,278.620 277.310,280.600 278.402 C 282.580 279.494,284.650 280.597,285.200 280.854 C 285.750 281.110,288.810 282.576,292.000 284.112 C 295.190 285.647,298.610 287.269,299.600 287.715 C 300.590 288.161,301.670 288.681,302.000 288.871 C 302.330 289.061,303.230 289.500,304.000 289.848 C 304.770 290.195,305.670 290.710,306.000 290.993 C 306.330 291.275,307.050 291.638,307.600 291.800 C 308.150 291.962,308.870 292.317,309.200 292.589 C 309.922 293.185,312.276 294.422,318.400 297.425 C 320.930 298.666,323.450 299.908,324.000 300.186 C 324.550 300.464,325.810 301.050,326.800 301.488 C 330.372 303.070,333.412 304.477,334.000 304.822 C 334.330 305.015,335.770 305.733,337.200 306.417 C 338.630 307.102,340.250 307.901,340.800 308.193 C 341.878 308.766,345.351 310.491,353.874 314.687 C 360.717 318.057,360.868 318.304,358.022 321.476 C 356.875 322.754,355.671 324.305,355.347 324.921 C 354.812 325.939,354.455 326.392,352.581 328.434 C 352.262 328.782,352.000 329.199,352.000 329.361 C 352.000 330.209,330.189 352.000,329.341 352.000 C 329.141 352.000,328.679 352.315,328.314 352.700 C 327.949 353.085,327.234 353.707,326.725 354.081 C 326.216 354.456,324.270 355.992,322.400 357.494 C 320.530 358.997,318.550 360.528,318.000 360.897 C 317.450 361.266,316.010 362.295,314.800 363.184 C 310.119 366.623,309.053 367.335,305.200 369.589 C 304.430 370.040,303.530 370.575,303.200 370.780 C 302.870 370.984,300.260 372.440,297.400 374.016 C 294.540 375.592,291.930 377.038,291.600 377.230 C 291.270 377.422,288.930 378.589,286.400 379.824 C 283.870 381.058,280.966 382.503,279.946 383.034 C 278.926 383.565,277.873 384.000,277.606 384.000 C 277.339 384.000,276.554 384.263,275.860 384.585 C 273.195 385.822,268.724 387.245,267.881 387.125 L 267.000 387.000 267.007 374.800 C 267.011 368.090,267.060 342.305,267.116 317.500 L 267.219 272.400 268.586 272.400 C 269.338 272.400,270.073 272.595,270.220 272.833 " stroke="none" fill="#8e99c1" fill-rule="evenodd"></path><path id="path4" d="M177.742 0.553 C 177.445 0.892,175.760 1.157,172.942 1.307 C 170.554 1.434,167.790 1.808,166.800 2.139 C 165.810 2.469,163.970 2.863,162.712 3.014 C 161.434 3.168,160.198 3.561,159.912 3.906 C 159.499 4.404,159.428 19.326,159.543 81.207 C 159.654 140.280,159.576 158.097,159.207 158.787 L 158.727 159.683 81.576 159.544 C 10.464 159.415,4.373 159.456,3.768 160.061 C 3.406 160.422,3.022 161.591,2.914 162.659 C 2.805 163.726,2.460 165.387,2.146 166.350 C 1.832 167.312,1.463 170.073,1.325 172.485 C 1.162 175.323,0.884 177.058,0.537 177.406 C -0.100 178.043,-0.240 185.600,0.386 185.600 C 1.198 185.600,1.535 183.997,1.983 178.000 C 2.238 174.590,2.705 170.714,3.021 169.386 C 3.336 168.058,3.714 165.824,3.861 164.422 C 4.035 162.753,4.382 161.618,4.867 161.133 C 5.581 160.419,8.240 160.394,82.677 160.403 C 136.674 160.409,159.875 160.285,160.174 159.986 C 160.472 159.688,160.615 136.310,160.649 82.135 C 160.688 21.786,160.806 4.644,161.185 4.409 C 161.453 4.244,162.961 3.991,164.536 3.847 C 166.111 3.704,168.210 3.331,169.200 3.019 C 170.190 2.707,173.876 2.244,177.392 1.991 C 183.555 1.546,185.200 1.208,185.200 0.386 C 185.200 -0.225,178.288 -0.070,177.742 0.553 M214.000 0.392 C 214.000 0.608,214.450 0.878,215.000 0.992 C 215.550 1.107,216.477 1.300,217.060 1.423 C 217.643 1.545,220.622 1.814,223.680 2.019 C 226.737 2.225,229.586 2.578,230.009 2.805 C 230.433 3.032,232.174 3.394,233.879 3.610 C 239.699 4.348,239.400 3.596,239.400 17.488 C 239.400 27.423,239.336 28.492,238.716 28.839 C 238.078 29.196,238.044 30.859,238.214 52.911 C 238.315 65.940,238.503 95.230,238.631 118.000 C 238.832 153.452,238.949 159.486,239.447 160.000 C 239.955 160.524,246.469 160.634,291.114 160.868 C 319.211 161.016,348.230 161.293,355.600 161.484 C 367.464 161.792,369.054 161.761,369.467 161.216 C 369.967 160.558,390.185 160.039,393.865 160.589 C 395.855 160.887,395.930 161.043,396.384 165.842 C 396.576 167.869,396.903 169.858,397.111 170.263 C 397.320 170.669,397.707 173.700,397.972 177.000 C 398.530 183.936,398.831 185.677,399.510 185.903 C 399.874 186.025,400.000 185.086,400.000 182.267 C 400.000 179.673,399.848 178.416,399.521 178.307 C 399.220 178.207,398.866 176.302,398.566 173.174 C 397.932 166.554,396.872 160.736,396.169 160.013 C 395.670 159.501,385.818 159.442,318.246 159.551 C 267.346 159.633,240.810 159.539,240.648 159.278 C 240.513 159.060,240.340 124.093,240.263 81.574 L 240.123 4.267 239.217 3.533 C 238.655 3.079,237.664 2.800,236.606 2.800 C 235.668 2.800,234.133 2.529,233.196 2.198 C 232.258 1.868,229.700 1.479,227.511 1.336 C 225.027 1.173,223.330 0.873,222.995 0.538 C 222.348 -0.109,214.000 -0.244,214.000 0.392 M213.800 27.600 C 213.644 27.852,214.561 27.998,216.276 27.994 C 218.183 27.990,218.820 27.871,218.400 27.600 C 217.609 27.089,214.116 27.089,213.800 27.600 M232.821 30.574 C 232.474 30.993,232.461 31.366,232.772 31.948 C 233.008 32.388,233.203 33.164,233.206 33.674 C 233.209 34.183,233.387 34.870,233.600 35.200 C 233.870 35.618,233.990 34.920,233.994 32.900 C 234.000 30.014,233.730 29.479,232.821 30.574 M367.000 93.541 C 366.120 93.904,364.950 94.497,364.400 94.861 C 363.850 95.224,362.803 95.646,362.073 95.798 C 361.343 95.951,360.649 96.328,360.530 96.638 C 360.412 96.947,360.109 97.205,359.857 97.210 C 359.214 97.224,347.626 103.054,346.844 103.757 C 346.490 104.075,342.690 106.128,338.400 108.320 C 334.110 110.511,329.970 112.626,329.200 113.019 C 328.430 113.413,327.530 113.885,327.200 114.068 C 326.870 114.252,326.150 114.582,325.600 114.801 C 325.050 115.021,324.330 115.352,324.000 115.538 C 322.464 116.401,321.513 116.882,317.509 118.820 C 315.148 119.963,313.011 121.146,312.760 121.449 C 312.508 121.752,312.102 122.000,311.857 122.000 C 311.612 122.000,310.509 122.436,309.406 122.969 C 308.303 123.501,306.320 124.408,305.000 124.984 C 303.680 125.559,302.330 126.206,302.000 126.420 C 301.670 126.635,300.635 127.161,299.700 127.591 C 298.765 128.020,298.000 128.558,298.000 128.786 C 298.000 129.014,297.578 129.200,297.062 129.200 C 295.603 129.200,290.977 132.337,291.566 132.926 C 291.919 133.279,297.363 133.400,312.920 133.400 L 333.800 133.400 337.800 131.463 C 340.000 130.397,341.860 129.362,341.933 129.163 C 342.007 128.963,342.277 128.796,342.533 128.790 C 343.061 128.779,351.581 124.569,353.648 123.298 C 354.392 122.841,355.720 122.342,356.600 122.188 C 357.911 121.959,364.156 119.083,368.800 116.569 C 370.256 115.781,372.056 114.902,373.200 114.421 C 373.750 114.190,374.470 113.823,374.800 113.606 C 375.130 113.389,376.024 112.932,376.786 112.590 C 378.360 111.885,378.785 111.367,378.794 110.143 C 378.800 109.249,375.507 102.243,374.591 101.200 C 374.301 100.870,373.574 99.610,372.976 98.400 C 371.867 96.155,369.366 92.767,368.873 92.841 C 368.723 92.864,367.880 93.179,367.000 93.541 M369.200 94.769 C 369.200 94.972,369.621 95.647,370.136 96.269 C 370.651 96.891,371.274 97.993,371.521 98.718 C 371.769 99.442,372.351 100.569,372.815 101.221 C 374.455 103.524,377.151 109.500,376.931 110.343 C 376.722 111.140,371.507 113.909,361.076 118.761 C 356.567 120.858,354.800 120.914,354.800 118.957 C 354.800 118.267,354.577 118.000,354.000 118.000 C 353.093 118.000,353.040 118.154,353.593 119.186 C 353.888 119.738,353.830 119.980,353.357 120.161 C 352.533 120.477,351.891 120.061,352.152 119.380 C 352.273 119.065,351.997 118.726,351.486 118.564 L 350.613 118.287 351.556 117.938 C 352.769 117.489,352.471 115.459,350.990 114.086 C 350.367 113.507,350.000 112.730,350.000 111.984 C 350.000 111.333,349.860 110.800,349.689 110.800 C 348.499 110.800,345.220 107.617,345.987 107.207 C 346.434 106.968,346.800 106.587,346.800 106.360 C 346.800 105.630,349.265 103.838,352.372 102.312 C 354.037 101.493,355.670 100.638,356.000 100.412 C 356.330 100.185,357.050 99.810,357.600 99.579 C 358.150 99.348,359.320 98.719,360.200 98.182 C 361.080 97.645,362.430 96.931,363.200 96.596 C 363.970 96.260,365.140 95.729,365.800 95.416 C 366.846 94.919,367.826 94.613,368.900 94.446 C 369.065 94.421,369.200 94.566,369.200 94.769 M338.800 111.400 C 338.800 112.053,336.615 112.271,336.234 111.656 C 335.901 111.117,336.432 110.800,337.667 110.800 C 338.407 110.800,338.800 111.008,338.800 111.400 M21.800 111.488 C 20.079 111.652,19.200 112.439,19.200 113.814 C 19.200 114.288,18.856 114.987,18.436 115.367 C 18.016 115.748,17.552 116.541,17.405 117.129 C 17.258 117.718,16.900 118.470,16.609 118.800 C 16.318 119.130,15.895 120.030,15.669 120.800 C 15.444 121.570,14.712 123.509,14.043 125.109 C 13.109 127.343,12.911 128.240,13.191 128.976 C 13.577 129.992,13.733 130.095,18.656 132.600 L 21.800 134.200 30.200 134.073 C 34.820 134.003,44.130 133.894,50.888 133.832 C 63.080 133.719,64.400 133.572,64.400 132.337 C 64.400 132.136,63.635 131.609,62.700 131.165 C 61.765 130.721,60.100 129.838,59.000 129.202 C 57.900 128.566,56.730 127.927,56.400 127.782 C 52.874 126.231,43.470 121.316,41.706 120.102 C 41.098 119.683,39.970 119.099,39.200 118.804 C 38.430 118.509,37.516 118.028,37.169 117.734 C 36.821 117.440,36.374 117.200,36.174 117.200 C 35.744 117.200,32.858 115.858,27.493 113.163 C 25.344 112.083,23.544 111.230,23.493 111.267 C 23.442 111.304,22.680 111.403,21.800 111.488 M24.400 112.991 C 24.730 113.253,25.720 113.822,26.600 114.254 C 27.480 114.686,29.280 115.588,30.600 116.259 C 31.920 116.930,34.980 118.451,37.400 119.639 C 39.820 120.828,41.890 121.914,42.000 122.053 C 42.189 122.291,43.249 122.869,47.000 124.776 C 47.880 125.224,48.870 125.754,49.200 125.955 C 51.012 127.056,54.193 128.400,54.988 128.400 C 55.491 128.400,56.142 128.689,56.435 129.042 C 56.727 129.395,57.393 129.845,57.913 130.043 C 59.389 130.604,58.885 131.732,56.996 132.091 C 56.118 132.258,51.980 132.392,47.800 132.389 C 43.620 132.386,36.291 132.467,31.513 132.569 C 22.006 132.772,21.647 132.708,16.400 129.892 C 14.458 128.849,14.080 127.032,15.381 124.994 C 15.664 124.551,16.031 123.561,16.197 122.794 C 16.363 122.027,16.815 120.950,17.200 120.400 C 17.585 119.850,18.024 118.827,18.176 118.128 C 18.327 117.428,18.720 116.632,19.049 116.359 C 19.377 116.087,19.912 115.219,20.236 114.432 C 21.194 112.107,22.655 111.601,24.400 112.991 M341.200 113.400 C 341.200 114.515,340.374 114.733,339.615 113.818 C 339.010 113.089,339.403 112.400,340.424 112.400 C 340.985 112.400,341.200 112.677,341.200 113.400 M343.905 114.675 C 343.522 114.775,342.802 114.779,342.305 114.683 C 341.807 114.587,342.120 114.505,343.000 114.501 C 343.880 114.496,344.287 114.575,343.905 114.675 M327.200 116.800 C 327.200 117.020,326.930 117.200,326.600 117.200 C 326.270 117.200,326.000 117.020,326.000 116.800 C 326.000 116.580,326.270 116.400,326.600 116.400 C 326.930 116.400,327.200 116.580,327.200 116.800 M332.400 120.680 C 333.587 120.893,334.200 121.207,334.200 121.602 C 334.200 122.304,334.886 123.185,335.258 122.960 C 335.400 122.875,335.619 123.074,335.746 123.402 C 335.885 123.765,335.744 124.000,335.387 124.000 C 334.583 124.000,334.648 124.672,335.500 125.168 C 335.888 125.394,335.977 125.581,335.700 125.588 C 335.425 125.595,335.200 125.864,335.200 126.186 C 335.200 126.955,334.200 127.440,332.052 127.714 C 329.750 128.007,329.238 128.537,330.214 129.615 C 331.417 130.945,330.386 131.232,325.400 130.955 C 320.738 130.696,318.133 130.693,305.489 130.937 C 301.139 131.021,297.483 130.934,297.366 130.745 C 297.249 130.555,297.601 130.400,298.149 130.400 C 298.795 130.400,299.236 130.118,299.400 129.600 C 299.587 129.009,300.005 128.800,300.996 128.800 C 301.845 128.800,302.776 128.432,303.527 127.800 C 304.813 126.718,306.190 126.539,307.756 127.253 C 309.238 127.928,310.437 127.382,309.269 126.563 C 307.900 125.604,308.238 125.200,310.410 125.200 C 312.186 125.200,312.464 125.084,312.800 124.200 C 313.009 123.650,313.488 123.200,313.864 123.200 C 314.241 123.200,314.947 122.825,315.435 122.367 C 316.623 121.251,319.251 120.898,319.966 121.759 C 320.730 122.680,323.433 122.589,324.691 121.600 C 325.250 121.160,326.139 120.800,326.666 120.800 C 327.194 120.800,327.721 120.550,327.838 120.245 C 327.997 119.831,328.373 119.775,329.325 120.023 C 330.026 120.206,331.410 120.502,332.400 120.680 M352.000 121.392 C 352.000 122.068,350.286 122.624,349.569 122.181 C 349.243 121.979,349.394 121.718,350.046 121.357 C 351.312 120.656,352.000 120.668,352.000 121.392 M342.386 122.500 L 342.372 123.800 341.820 122.803 C 341.407 122.057,341.385 121.731,341.734 121.509 C 342.405 121.082,342.401 121.076,342.386 122.500 M325.085 123.048 C 324.465 123.668,324.866 124.000,326.233 124.000 C 327.201 124.000,327.613 123.838,327.502 123.500 C 327.319 122.941,325.527 122.606,325.085 123.048 M321.400 124.685 C 319.864 125.055,319.914 125.542,321.538 126.029 C 323.567 126.636,325.076 125.884,323.760 124.921 C 323.025 124.384,322.763 124.357,321.400 124.685 M312.800 125.157 C 312.800 125.599,313.838 126.029,314.150 125.717 C 314.276 125.591,314.283 125.334,314.166 125.144 C 313.885 124.690,312.800 124.700,312.800 125.157 M370.267 164.267 C 369.857 164.677,369.951 166.322,370.400 166.600 C 370.638 166.747,370.800 166.271,370.800 165.424 C 370.800 163.962,370.728 163.805,370.267 164.267 M398.808 215.569 C 398.576 216.432,398.212 219.863,398.000 223.194 C 397.788 226.525,397.341 230.055,397.007 231.039 C 396.673 232.023,396.400 233.372,396.400 234.037 C 396.400 235.723,395.592 238.756,395.051 239.102 C 394.803 239.261,360.021 239.328,317.757 239.251 C 258.828 239.144,240.706 239.222,240.023 239.588 L 239.132 240.064 239.204 316.132 C 239.244 357.969,239.259 392.781,239.238 393.491 C 239.185 395.296,238.008 395.931,233.759 396.447 C 231.802 396.684,229.998 397.044,229.752 397.245 C 229.505 397.447,226.535 397.795,223.152 398.019 C 216.271 398.475,214.336 398.793,214.097 399.510 C 213.853 400.241,221.464 400.193,222.198 399.459 C 222.539 399.118,224.263 398.817,226.869 398.642 C 229.141 398.490,232.499 398.013,234.332 397.583 C 236.164 397.152,238.088 396.800,238.608 396.800 C 240.216 396.800,240.195 397.719,240.400 318.200 L 240.600 240.600 318.200 240.400 C 360.880 240.290,396.001 240.069,396.246 239.910 C 396.491 239.750,396.798 238.940,396.927 238.110 C 397.056 237.279,397.421 235.430,397.737 234.000 C 398.054 232.570,398.445 229.456,398.606 227.079 C 398.795 224.287,399.093 222.564,399.449 222.208 C 399.840 221.817,400.000 220.546,400.000 217.829 C 400.000 213.792,399.528 212.897,398.808 215.569 M0.000 218.567 C 0.000 221.413,0.150 222.783,0.472 222.891 C 0.760 222.987,1.139 224.912,1.443 227.824 C 2.111 234.211,2.993 239.153,3.569 239.729 C 3.926 240.086,22.914 240.249,81.720 240.400 L 159.400 240.600 159.400 318.400 L 159.400 396.200 160.800 396.677 C 161.570 396.940,162.788 397.165,163.506 397.177 C 164.224 397.190,165.844 397.465,167.106 397.790 C 168.368 398.114,171.159 398.491,173.309 398.628 C 175.846 398.789,177.416 399.073,177.781 399.438 C 178.432 400.089,186.000 400.260,186.000 399.624 C 186.000 398.915,185.195 398.756,177.703 397.986 C 173.577 397.562,169.300 397.032,168.200 396.808 C 167.100 396.585,165.208 396.304,163.997 396.184 C 162.785 396.064,161.525 395.801,161.197 395.598 C 160.672 395.274,160.588 385.915,160.497 317.752 C 160.417 257.955,160.284 240.142,159.911 239.693 C 159.491 239.187,149.452 239.130,82.576 239.256 C 18.258 239.376,5.616 239.311,5.068 238.857 C 4.281 238.204,3.605 235.941,3.602 233.950 C 3.601 233.153,3.335 231.750,3.011 230.832 C 2.688 229.915,2.239 226.581,2.015 223.424 C 1.791 220.268,1.531 217.441,1.437 217.142 C 1.343 216.844,1.158 216.105,1.026 215.500 C 0.494 213.074,0.000 214.551,0.000 218.567 M360.400 266.058 C 355.230 266.270,347.757 266.358,343.794 266.253 C 339.494 266.139,336.309 266.219,335.894 266.451 C 335.184 266.849,334.924 268.000,335.544 268.000 C 335.733 268.000,336.525 268.432,337.303 268.960 C 338.081 269.488,339.141 270.049,339.659 270.206 C 340.176 270.363,340.960 270.811,341.400 271.200 C 341.840 271.589,343.460 272.496,345.000 273.214 C 352.183 276.565,356.073 278.539,357.474 279.544 C 358.313 280.145,359.630 280.888,360.400 281.195 C 361.170 281.502,361.936 281.975,362.102 282.245 C 362.269 282.516,362.989 282.864,363.702 283.019 C 364.416 283.174,365.630 283.623,366.400 284.017 C 367.170 284.411,368.250 284.937,368.800 285.186 C 369.350 285.435,370.520 286.068,371.400 286.592 C 377.601 290.287,379.635 290.331,380.802 286.795 C 381.091 285.918,381.457 285.200,381.615 285.200 C 381.774 285.200,382.125 284.615,382.397 283.900 C 382.856 282.694,383.338 281.593,385.244 277.400 C 386.315 275.044,387.303 271.143,386.925 270.765 C 386.540 270.380,381.169 267.427,379.351 266.600 C 377.571 265.791,371.287 265.611,360.400 266.058 M66.200 266.381 C 64.640 266.798,60.477 268.752,60.203 269.195 C 60.086 269.384,59.472 269.653,58.837 269.792 C 58.202 269.931,57.366 270.395,56.979 270.823 C 56.593 271.250,56.064 271.600,55.804 271.600 C 55.544 271.600,53.187 272.687,50.566 274.015 C 47.945 275.344,44.540 276.976,43.000 277.643 C 38.457 279.611,31.268 283.166,31.020 283.567 C 30.894 283.771,30.262 284.055,29.616 284.196 C 28.970 284.338,27.397 285.024,26.121 285.719 C 24.844 286.415,23.260 287.258,22.600 287.592 C 21.196 288.304,20.735 290.421,21.741 291.537 C 22.069 291.902,22.466 292.740,22.622 293.400 C 22.779 294.060,23.693 295.875,24.653 297.434 C 25.614 298.992,26.400 300.419,26.400 300.604 C 26.400 301.050,29.915 306.232,30.608 306.806 C 31.021 307.149,31.884 306.907,34.274 305.778 C 38.506 303.779,45.629 300.252,48.800 298.584 C 50.230 297.832,51.580 297.210,51.800 297.201 C 52.020 297.193,52.968 296.665,53.907 296.028 C 54.846 295.392,57.996 293.671,60.907 292.203 C 63.818 290.736,66.650 289.284,67.200 288.976 C 67.750 288.669,69.280 287.950,70.600 287.378 C 73.795 285.996,80.049 282.809,80.800 282.181 C 81.130 281.905,82.660 281.105,84.200 280.403 C 86.464 279.372,97.063 274.286,101.600 272.053 C 102.150 271.783,103.320 271.127,104.200 270.596 C 105.080 270.064,106.520 269.241,107.400 268.766 C 109.485 267.640,109.432 267.720,108.656 266.862 C 107.931 266.061,69.040 265.620,66.200 266.381 M380.621 269.000 C 382.712 269.990,384.597 270.800,384.811 270.800 C 385.185 270.800,385.367 272.123,385.224 273.800 C 385.158 274.570,384.920 275.140,382.636 280.006 C 382.066 281.219,381.600 282.513,381.600 282.882 C 381.600 283.251,381.425 283.661,381.211 283.793 C 380.998 283.925,380.471 284.829,380.040 285.802 C 378.816 288.570,376.483 288.320,370.800 284.812 C 369.992 284.313,368.106 283.366,366.400 282.602 C 365.630 282.257,364.550 281.734,364.000 281.440 C 359.952 279.274,358.118 278.229,357.600 277.794 C 356.698 277.037,352.358 274.800,351.793 274.800 C 351.521 274.800,351.078 274.535,350.809 274.211 C 350.540 273.886,349.714 273.508,348.974 273.369 C 348.234 273.230,347.420 272.865,347.165 272.558 C 346.910 272.251,346.479 272.000,346.207 272.000 C 345.934 272.000,345.052 271.552,344.245 271.005 C 343.439 270.458,342.334 269.898,341.790 269.762 C 341.245 269.625,340.800 269.359,340.800 269.171 C 340.800 268.239,342.872 267.999,351.074 267.977 C 355.873 267.964,360.520 267.805,361.400 267.623 C 362.280 267.441,366.110 267.271,369.910 267.246 L 376.820 267.200 380.621 269.000 M103.416 268.445 C 104.109 269.138,101.185 271.187,98.566 271.844 C 97.959 271.997,96.423 272.709,95.152 273.427 C 93.882 274.145,92.428 274.860,91.921 275.016 C 90.280 275.521,83.514 278.880,78.918 281.472 C 76.452 282.863,74.272 284.000,74.072 284.000 C 73.872 284.000,73.264 284.349,72.722 284.775 C 72.180 285.202,71.211 285.679,70.568 285.836 C 69.926 285.993,68.971 286.455,68.446 286.861 C 67.921 287.267,67.271 287.600,67.000 287.600 C 66.729 287.600,66.079 287.934,65.554 288.342 C 65.029 288.750,63.925 289.304,63.100 289.573 C 62.275 289.842,61.600 290.228,61.600 290.431 C 61.600 290.634,61.357 290.800,61.060 290.800 C 60.762 290.800,59.712 291.229,58.725 291.754 C 57.739 292.278,56.317 292.841,55.566 293.005 C 54.815 293.168,53.390 293.963,52.400 294.770 C 51.410 295.578,49.250 296.848,47.600 297.593 C 45.950 298.338,43.700 299.478,42.600 300.127 C 41.500 300.775,39.855 301.627,38.944 302.020 C 38.033 302.413,37.168 302.929,37.020 303.167 C 36.873 303.405,36.446 303.600,36.070 303.600 C 35.695 303.600,34.716 303.960,33.896 304.400 C 30.937 305.986,29.452 304.384,24.993 294.800 C 24.430 293.590,23.706 292.090,23.384 291.468 C 22.349 289.461,23.179 288.000,25.357 288.000 C 25.642 288.000,26.202 287.640,26.600 287.200 C 26.998 286.760,27.488 286.400,27.687 286.400 C 27.887 286.400,29.974 285.478,32.325 284.350 C 41.372 280.012,43.170 279.200,43.727 279.200 C 44.043 279.200,44.526 278.930,44.800 278.600 C 45.074 278.270,45.434 278.000,45.600 278.000 C 46.045 278.000,48.371 276.902,50.200 275.828 C 51.080 275.311,52.970 274.321,54.400 273.628 C 56.918 272.408,57.286 272.221,59.000 271.291 C 61.376 270.003,65.757 268.318,67.800 267.907 C 70.578 267.348,102.806 267.834,103.416 268.445 " stroke="none" fill="#d87981" fill-rule="evenodd"></path></g></svg>