<svg id="svg" version="1.1" xmlns="http://www.w3.org/2000/svg" xmlns:xlink="http://www.w3.org/1999/xlink" width="400" height="400" viewBox="0, 0, 400,400"><g id="svgg"><path id="path0" d="M269.600 200.000 C 269.600 387.733,269.601 388.000,270.400 388.000 C 270.840 388.000,271.200 387.820,271.200 387.600 C 271.200 387.380,271.830 387.200,272.600 387.200 C 273.370 387.200,274.000 387.020,274.000 386.800 C 274.000 386.580,274.270 386.400,274.600 386.400 C 274.930 386.400,275.200 386.220,275.200 386.000 C 275.200 385.780,275.470 385.600,275.800 385.600 C 276.130 385.600,276.400 385.420,276.400 385.200 C 276.400 384.980,276.940 384.800,277.600 384.800 C 278.260 384.800,278.800 384.620,278.800 384.400 C 278.800 384.180,279.149 384.000,279.576 384.000 C 280.003 384.000,280.464 383.820,280.600 383.600 C 280.736 383.380,281.299 383.200,281.852 383.200 C 282.405 383.200,283.129 382.928,283.461 382.596 C 283.793 382.264,284.230 382.095,284.432 382.220 C 284.635 382.345,284.800 382.257,284.800 382.024 C 284.800 381.791,285.160 381.600,285.600 381.600 C 286.040 381.600,286.400 381.420,286.400 381.200 C 286.400 380.980,286.771 380.800,287.224 380.800 C 287.677 380.800,287.936 380.620,287.800 380.400 C 287.660 380.173,287.996 380.000,288.576 380.000 C 289.139 380.000,289.600 379.820,289.600 379.600 C 289.600 379.380,289.960 379.200,290.400 379.200 C 290.840 379.200,291.200 379.020,291.200 378.800 C 291.200 378.580,291.470 378.400,291.800 378.400 C 292.130 378.400,292.400 378.220,292.400 378.000 C 292.400 377.780,292.760 377.600,293.200 377.600 C 293.640 377.600,294.000 377.420,294.000 377.200 C 294.000 376.980,294.360 376.800,294.800 376.800 C 295.240 376.800,295.600 376.620,295.600 376.400 C 295.600 376.180,295.894 376.000,296.253 376.000 C 296.612 376.000,297.233 375.623,297.632 375.163 C 298.031 374.703,298.548 374.445,298.782 374.589 C 299.015 374.733,299.489 374.568,299.835 374.222 C 300.181 373.876,300.604 373.679,300.774 373.784 C 300.944 373.889,301.294 373.513,301.551 372.948 C 301.849 372.293,302.233 372.004,302.609 372.148 C 302.934 372.273,303.200 372.201,303.200 371.987 C 303.200 371.774,303.558 371.600,303.997 371.600 C 304.435 371.600,305.018 371.240,305.293 370.800 C 305.568 370.360,306.199 370.000,306.696 370.000 C 307.193 370.000,307.600 369.820,307.600 369.600 C 307.600 369.380,307.830 369.200,308.112 369.200 C 308.393 369.200,308.883 368.840,309.200 368.400 C 309.517 367.960,310.057 367.600,310.400 367.600 C 310.743 367.600,311.283 367.240,311.600 366.800 C 311.917 366.360,312.425 366.000,312.728 366.000 C 313.031 366.000,313.783 365.460,314.400 364.800 C 315.017 364.140,315.769 363.600,316.072 363.600 C 316.375 363.600,316.883 363.240,317.200 362.800 C 317.517 362.360,318.107 362.000,318.512 362.000 C 318.916 362.000,319.136 361.820,319.000 361.600 C 318.864 361.380,318.956 361.200,319.205 361.200 C 319.815 361.200,320.824 360.158,320.514 359.848 C 320.378 359.711,320.655 359.600,321.129 359.600 C 322.010 359.600,323.600 358.495,323.600 357.883 C 323.600 357.290,324.778 356.339,325.194 356.596 C 325.623 356.861,327.600 355.094,327.600 354.445 C 327.600 354.230,327.960 353.940,328.400 353.800 C 328.840 353.660,329.200 353.269,329.200 352.930 C 329.200 352.531,329.424 352.400,329.837 352.559 C 330.447 352.793,335.200 348.333,335.200 347.526 C 335.200 347.347,335.578 347.200,336.039 347.200 C 336.551 347.200,337.791 346.227,339.223 344.700 C 340.512 343.325,341.710 342.069,341.884 341.909 C 345.543 338.539,347.200 336.704,347.200 336.022 C 347.200 335.570,347.371 335.200,347.580 335.200 C 348.123 335.200,353.600 329.730,353.600 329.188 C 353.600 328.940,354.332 328.034,355.227 327.174 C 356.122 326.314,356.740 325.427,356.601 325.202 C 356.340 324.780,357.283 323.600,357.883 323.600 C 358.495 323.600,359.600 322.010,359.600 321.129 C 359.600 320.655,359.711 320.378,359.848 320.514 C 360.158 320.824,361.200 319.815,361.200 319.205 C 361.200 318.956,361.380 318.864,361.600 319.000 C 361.820 319.136,362.000 318.949,362.000 318.584 C 362.000 318.219,362.540 317.417,363.200 316.800 C 363.860 316.183,364.400 315.431,364.400 315.128 C 364.400 314.825,364.760 314.317,365.200 314.000 C 365.640 313.683,366.000 313.143,366.000 312.800 C 366.000 312.457,366.360 311.917,366.800 311.600 C 367.240 311.283,367.600 310.703,367.600 310.312 C 367.600 309.920,367.780 309.600,368.000 309.600 C 368.220 309.600,368.400 309.252,368.400 308.827 C 368.400 308.394,368.768 307.937,369.237 307.788 C 369.824 307.602,370.012 307.289,369.868 306.739 C 369.723 306.182,369.944 305.826,370.631 305.513 C 371.164 305.270,371.600 304.740,371.600 304.336 C 371.600 303.931,371.780 303.600,372.000 303.600 C 372.220 303.600,372.400 303.330,372.400 303.000 C 372.400 302.670,372.580 302.400,372.800 302.400 C 373.020 302.400,373.200 302.130,373.200 301.800 C 373.200 301.470,373.391 301.200,373.624 301.200 C 373.857 301.200,373.945 301.035,373.820 300.832 C 373.695 300.630,373.864 300.193,374.195 299.862 C 374.527 299.531,374.689 298.976,374.556 298.630 C 374.423 298.283,374.514 298.000,374.757 298.000 C 375.001 298.000,375.200 297.680,375.200 297.288 C 375.200 296.897,375.560 296.317,376.000 296.000 C 376.440 295.683,376.800 295.103,376.800 294.712 C 376.800 294.320,376.980 294.000,377.200 294.000 C 377.420 294.000,377.600 293.640,377.600 293.200 C 377.600 292.760,377.735 292.399,377.900 292.397 C 378.259 292.393,379.200 290.456,379.200 289.720 C 379.200 289.434,379.380 289.200,379.600 289.200 C 379.820 289.200,380.000 288.930,380.000 288.600 C 380.000 288.270,380.180 288.000,380.400 288.000 C 380.620 288.000,380.800 287.640,380.800 287.200 C 380.800 286.760,380.980 286.400,381.200 286.400 C 381.420 286.400,381.600 286.040,381.600 285.600 C 381.600 285.160,381.742 284.800,381.915 284.800 C 382.088 284.800,382.274 284.222,382.328 283.516 C 382.382 282.809,382.569 282.134,382.745 282.016 C 382.920 281.897,383.319 281.215,383.630 280.500 C 383.941 279.785,384.331 279.200,384.498 279.200 C 384.664 279.200,384.800 278.840,384.800 278.400 C 384.800 277.960,384.941 277.600,385.113 277.600 C 385.285 277.600,385.466 277.105,385.516 276.500 C 385.566 275.895,385.785 275.340,386.003 275.267 C 386.222 275.193,386.400 274.878,386.400 274.567 C 386.400 274.255,386.580 274.000,386.800 274.000 C 387.020 274.000,387.200 273.370,387.200 272.600 C 387.200 271.830,387.402 271.200,387.650 271.200 C 387.937 271.200,388.013 270.764,387.860 270.000 C 387.680 269.101,387.768 268.800,388.210 268.800 C 388.534 268.800,388.800 268.530,388.800 268.200 C 388.800 267.870,388.980 267.600,389.200 267.600 C 389.420 267.600,389.600 267.060,389.600 266.400 C 389.600 265.740,389.800 265.200,390.045 265.200 C 390.314 265.200,390.420 264.717,390.312 263.983 C 390.173 263.035,390.263 262.815,390.719 262.990 C 391.197 263.174,391.258 262.921,391.048 261.608 C 390.890 260.621,390.947 260.000,391.195 260.000 C 391.418 260.000,391.600 259.280,391.600 258.400 C 391.600 257.520,391.780 256.800,392.000 256.800 C 392.220 256.800,392.400 256.260,392.400 255.600 C 392.400 254.940,392.580 254.400,392.800 254.400 C 393.020 254.400,393.200 253.770,393.200 253.000 C 393.200 252.230,393.380 251.600,393.600 251.600 C 393.820 251.600,394.000 251.150,394.000 250.600 C 394.000 250.050,394.180 249.600,394.400 249.600 C 394.620 249.600,394.800 248.880,394.800 248.000 C 394.800 247.120,394.980 246.400,395.200 246.400 C 395.420 246.400,395.600 245.410,395.600 244.200 C 395.600 242.990,395.780 242.000,396.000 242.000 C 396.220 242.000,396.400 241.100,396.400 240.000 C 396.400 238.900,396.580 238.000,396.800 238.000 C 397.020 238.000,397.200 237.089,397.200 235.976 C 397.200 234.729,397.353 234.048,397.600 234.200 C 397.853 234.356,398.000 233.337,398.000 231.424 C 398.000 229.675,398.169 228.400,398.400 228.400 C 398.631 228.400,398.800 227.144,398.800 225.433 C 398.800 223.416,398.960 222.413,399.300 222.300 C 399.692 222.169,399.800 217.351,399.800 200.000 C 399.800 182.649,399.692 177.831,399.300 177.700 C 398.960 177.587,398.800 176.584,398.800 174.567 C 398.800 172.856,398.631 171.600,398.400 171.600 C 398.169 171.600,398.000 170.325,398.000 168.576 C 398.000 166.663,397.853 165.644,397.600 165.800 C 397.353 165.952,397.200 165.271,397.200 164.024 C 397.200 162.911,397.020 162.000,396.800 162.000 C 396.580 162.000,396.400 161.100,396.400 160.000 C 396.400 158.900,396.220 158.000,396.000 158.000 C 395.780 158.000,395.600 157.010,395.600 155.800 C 395.600 154.590,395.420 153.600,395.200 153.600 C 394.980 153.600,394.800 152.880,394.800 152.000 C 394.800 151.120,394.620 150.400,394.400 150.400 C 394.180 150.400,394.000 149.950,394.000 149.400 C 394.000 148.850,393.820 148.400,393.600 148.400 C 393.380 148.400,393.200 147.770,393.200 147.000 C 393.200 146.230,393.020 145.600,392.800 145.600 C 392.580 145.600,392.400 145.060,392.400 144.400 C 392.400 143.740,392.220 143.200,392.000 143.200 C 391.780 143.200,391.600 142.480,391.600 141.600 C 391.600 140.720,391.418 140.000,391.195 140.000 C 390.947 140.000,390.890 139.379,391.048 138.392 C 391.258 137.079,391.197 136.826,390.719 137.010 C 390.263 137.185,390.173 136.965,390.312 136.017 C 390.420 135.283,390.314 134.800,390.045 134.800 C 389.800 134.800,389.600 134.260,389.600 133.600 C 389.600 132.940,389.420 132.400,389.200 132.400 C 388.980 132.400,388.800 132.130,388.800 131.800 C 388.800 131.470,388.534 131.200,388.210 131.200 C 387.768 131.200,387.680 130.899,387.860 130.000 C 388.013 129.236,387.937 128.800,387.650 128.800 C 387.402 128.800,387.200 128.170,387.200 127.400 C 387.200 126.630,387.020 126.000,386.800 126.000 C 386.580 126.000,386.400 125.745,386.400 125.433 C 386.400 125.122,386.222 124.807,386.003 124.733 C 385.785 124.660,385.566 124.105,385.516 123.500 C 385.466 122.895,385.285 122.400,385.113 122.400 C 384.941 122.400,384.800 122.040,384.800 121.600 C 384.800 121.160,384.664 120.800,384.498 120.800 C 384.331 120.800,383.941 120.215,383.630 119.500 C 383.319 118.785,382.920 118.103,382.745 117.984 C 382.569 117.866,382.382 117.191,382.328 116.484 C 382.274 115.778,382.088 115.200,381.915 115.200 C 381.742 115.200,381.600 114.840,381.600 114.400 C 381.600 113.960,381.420 113.600,381.200 113.600 C 380.980 113.600,380.800 113.240,380.800 112.800 C 380.800 112.360,380.620 112.000,380.400 112.000 C 380.180 112.000,380.000 111.730,380.000 111.400 C 380.000 111.070,379.820 110.800,379.600 110.800 C 379.380 110.800,379.200 110.566,379.200 110.280 C 379.200 109.544,378.259 107.607,377.900 107.603 C 377.735 107.601,377.600 107.240,377.600 106.800 C 377.600 106.360,377.420 106.000,377.200 106.000 C 376.980 106.000,376.800 105.680,376.800 105.288 C 376.800 104.897,376.440 104.317,376.000 104.000 C 375.560 103.683,375.200 103.103,375.200 102.712 C 375.200 102.320,375.001 102.000,374.757 102.000 C 374.514 102.000,374.423 101.717,374.556 101.370 C 374.689 101.024,374.527 100.469,374.195 100.138 C 373.864 99.807,373.695 99.370,373.820 99.168 C 373.945 98.965,373.857 98.800,373.624 98.800 C 373.391 98.800,373.200 98.530,373.200 98.200 C 373.200 97.870,373.020 97.600,372.800 97.600 C 372.580 97.600,372.400 97.330,372.400 97.000 C 372.400 96.670,372.220 96.400,372.000 96.400 C 371.780 96.400,371.600 96.069,371.600 95.664 C 371.600 95.260,371.164 94.730,370.631 94.487 C 369.944 94.174,369.723 93.818,369.868 93.261 C 370.012 92.711,369.824 92.398,369.237 92.212 C 368.768 92.063,368.400 91.606,368.400 91.173 C 368.400 90.748,368.220 90.400,368.000 90.400 C 367.780 90.400,367.600 90.080,367.600 89.688 C 367.600 89.297,367.240 88.717,366.800 88.400 C 366.360 88.083,366.000 87.543,366.000 87.200 C 366.000 86.857,365.640 86.317,365.200 86.000 C 364.760 85.683,364.400 85.175,364.400 84.872 C 364.400 84.569,363.860 83.817,363.200 83.200 C 362.540 82.583,362.000 81.781,362.000 81.416 C 362.000 81.051,361.820 80.864,361.600 81.000 C 361.380 81.136,361.200 81.044,361.200 80.795 C 361.200 80.185,360.158 79.176,359.848 79.486 C 359.711 79.622,359.600 79.345,359.600 78.871 C 359.600 77.990,358.495 76.400,357.883 76.400 C 357.283 76.400,356.340 75.220,356.601 74.798 C 356.740 74.573,356.122 73.686,355.227 72.826 C 354.332 71.966,353.600 71.060,353.600 70.812 C 353.600 70.270,348.123 64.800,347.580 64.800 C 347.371 64.800,347.200 64.430,347.200 63.978 C 347.200 63.296,345.543 61.461,341.884 58.091 C 341.710 57.931,340.512 56.675,339.223 55.300 C 337.791 53.773,336.551 52.800,336.039 52.800 C 335.578 52.800,335.200 52.653,335.200 52.474 C 335.200 51.667,330.447 47.207,329.837 47.441 C 329.424 47.600,329.200 47.469,329.200 47.070 C 329.200 46.731,328.840 46.340,328.400 46.200 C 327.960 46.060,327.600 45.770,327.600 45.555 C 327.600 44.906,325.623 43.139,325.194 43.404 C 324.778 43.661,323.600 42.710,323.600 42.117 C 323.600 41.505,322.010 40.400,321.129 40.400 C 320.655 40.400,320.378 40.289,320.514 40.152 C 320.824 39.842,319.815 38.800,319.205 38.800 C 318.956 38.800,318.864 38.620,319.000 38.400 C 319.136 38.180,318.916 38.000,318.512 38.000 C 318.107 38.000,317.517 37.640,317.200 37.200 C 316.883 36.760,316.375 36.400,316.072 36.400 C 315.769 36.400,315.017 35.860,314.400 35.200 C 313.783 34.540,313.031 34.000,312.728 34.000 C 312.425 34.000,311.917 33.640,311.600 33.200 C 311.283 32.760,310.743 32.400,310.400 32.400 C 310.057 32.400,309.517 32.040,309.200 31.600 C 308.883 31.160,308.393 30.800,308.112 30.800 C 307.830 30.800,307.600 30.620,307.600 30.400 C 307.600 30.180,307.193 30.000,306.696 30.000 C 306.199 30.000,305.568 29.640,305.293 29.200 C 305.018 28.760,304.435 28.400,303.997 28.400 C 303.558 28.400,303.200 28.226,303.200 28.013 C 303.200 27.799,302.934 27.727,302.609 27.852 C 302.233 27.996,301.849 27.707,301.551 27.052 C 301.294 26.487,300.944 26.111,300.774 26.216 C 300.604 26.321,300.181 26.124,299.835 25.778 C 299.489 25.432,299.015 25.267,298.782 25.411 C 298.548 25.555,298.031 25.297,297.632 24.837 C 297.233 24.377,296.612 24.000,296.253 24.000 C 295.894 24.000,295.600 23.820,295.600 23.600 C 295.600 23.380,295.240 23.200,294.800 23.200 C 294.360 23.200,294.000 23.020,294.000 22.800 C 294.000 22.580,293.640 22.400,293.200 22.400 C 292.760 22.400,292.400 22.220,292.400 22.000 C 292.400 21.780,292.130 21.600,291.800 21.600 C 291.470 21.600,291.200 21.420,291.200 21.200 C 291.200 20.980,290.840 20.800,290.400 20.800 C 289.960 20.800,289.600 20.620,289.600 20.400 C 289.600 20.180,289.139 20.000,288.576 20.000 C 287.996 20.000,287.660 19.827,287.800 19.600 C 287.936 19.380,287.677 19.200,287.224 19.200 C 286.771 19.200,286.400 19.020,286.400 18.800 C 286.400 18.580,286.040 18.400,285.600 18.400 C 285.160 18.400,284.800 18.209,284.800 17.976 C 284.800 17.743,284.635 17.655,284.432 17.780 C 284.230 17.905,283.793 17.736,283.461 17.404 C 283.129 17.072,282.405 16.800,281.852 16.800 C 281.299 16.800,280.736 16.620,280.600 16.400 C 280.464 16.180,280.003 16.000,279.576 16.000 C 279.149 16.000,278.800 15.820,278.800 15.600 C 278.800 15.380,278.260 15.200,277.600 15.200 C 276.940 15.200,276.400 15.020,276.400 14.800 C 276.400 14.580,276.130 14.400,275.800 14.400 C 275.470 14.400,275.200 14.220,275.200 14.000 C 275.200 13.780,274.930 13.600,274.600 13.600 C 274.270 13.600,274.000 13.420,274.000 13.200 C 274.000 12.980,273.370 12.800,272.600 12.800 C 271.830 12.800,271.200 12.620,271.200 12.400 C 271.200 12.180,270.840 12.000,270.400 12.000 C 269.601 12.000,269.600 12.267,269.600 200.000 " stroke="none" fill="#dc0424" fill-rule="evenodd"></path><path id="path1" d="M128.800 12.400 C 128.800 12.620,128.440 12.800,128.000 12.800 C 127.560 12.800,127.200 12.980,127.200 13.200 C 127.200 13.420,126.660 13.600,126.000 13.600 C 125.340 13.600,124.800 13.780,124.800 14.000 C 124.800 14.220,124.440 14.400,124.000 14.400 C 123.560 14.400,123.200 14.580,123.200 14.800 C 123.200 15.020,122.750 15.200,122.200 15.200 C 121.650 15.200,121.200 15.380,121.200 15.600 C 121.200 15.820,120.840 16.000,120.400 16.000 C 119.960 16.000,119.600 16.180,119.600 16.400 C 119.600 16.620,119.240 16.800,118.800 16.800 C 118.360 16.800,118.000 16.980,118.000 17.200 C 118.000 17.420,117.370 17.600,116.600 17.600 C 115.830 17.600,115.200 17.780,115.200 18.000 C 115.200 18.220,114.840 18.400,114.400 18.400 C 113.960 18.400,113.599 18.535,113.597 18.700 C 113.593 19.059,111.656 20.000,110.920 20.000 C 110.634 20.000,110.400 20.146,110.400 20.325 C 110.400 20.504,109.770 20.898,109.000 21.200 C 108.230 21.502,107.600 21.896,107.600 22.075 C 107.600 22.254,107.240 22.400,106.800 22.400 C 106.360 22.400,106.000 22.580,106.000 22.800 C 106.000 23.020,105.640 23.200,105.200 23.200 C 104.760 23.200,104.400 23.380,104.400 23.600 C 104.400 23.820,104.106 24.000,103.747 24.000 C 103.388 24.000,102.767 24.377,102.368 24.837 C 101.969 25.297,101.455 25.558,101.226 25.416 C 100.816 25.162,100.377 25.434,98.674 26.998 C 98.196 27.437,97.578 27.744,97.302 27.680 C 97.026 27.617,96.800 27.753,96.800 27.982 C 96.800 28.212,96.362 28.400,95.827 28.400 C 95.205 28.400,94.762 28.689,94.600 29.200 C 94.440 29.703,93.995 30.000,93.400 30.000 C 92.805 30.000,92.360 30.297,92.200 30.800 C 92.060 31.240,91.598 31.600,91.173 31.600 C 90.748 31.600,90.400 31.780,90.400 32.000 C 90.400 32.220,90.112 32.400,89.760 32.400 C 89.409 32.400,88.617 32.940,88.000 33.600 C 87.383 34.260,86.603 34.800,86.266 34.800 C 85.930 34.800,85.540 35.160,85.400 35.600 C 85.256 36.054,84.795 36.400,84.334 36.400 C 83.887 36.400,83.017 36.940,82.400 37.600 C 81.783 38.260,81.003 38.800,80.666 38.800 C 80.330 38.800,79.940 39.160,79.800 39.600 C 79.660 40.040,79.200 40.400,78.778 40.400 C 77.971 40.400,76.400 41.535,76.400 42.117 C 76.400 42.710,75.222 43.661,74.806 43.404 C 74.377 43.139,72.400 44.906,72.400 45.555 C 72.400 45.770,72.040 46.060,71.600 46.200 C 71.160 46.340,70.800 46.622,70.800 46.827 C 70.800 47.032,70.520 47.200,70.178 47.200 C 69.558 47.200,65.901 50.705,64.000 53.122 C 63.450 53.821,62.730 54.395,62.400 54.398 C 61.817 54.404,60.280 55.700,58.551 57.645 C 58.085 58.170,56.780 59.462,55.651 60.516 C 54.523 61.570,53.600 62.785,53.600 63.216 C 53.600 63.647,53.459 64.000,53.288 64.000 C 52.575 64.000,47.313 69.497,47.059 70.506 C 46.908 71.108,46.602 71.600,46.379 71.600 C 45.715 71.600,43.140 74.379,43.406 74.809 C 43.687 75.264,42.928 76.120,41.900 76.510 C 41.512 76.657,41.200 77.187,41.200 77.699 C 41.200 78.207,40.823 78.888,40.363 79.212 C 38.698 80.381,38.000 81.104,38.000 81.659 C 38.000 81.969,37.640 82.483,37.200 82.800 C 36.760 83.117,36.400 83.657,36.400 84.000 C 36.400 84.343,36.040 84.883,35.600 85.200 C 35.160 85.517,34.800 86.057,34.800 86.400 C 34.800 86.743,34.440 87.283,34.000 87.600 C 33.560 87.917,33.200 88.497,33.200 88.888 C 33.200 89.280,33.020 89.600,32.800 89.600 C 32.580 89.600,32.400 89.870,32.400 90.200 C 32.400 90.530,32.220 90.800,32.000 90.800 C 31.780 90.800,31.600 91.058,31.600 91.373 C 31.600 91.688,31.240 92.060,30.800 92.200 C 30.297 92.360,30.000 92.805,30.000 93.400 C 30.000 93.995,29.703 94.440,29.200 94.600 C 28.689 94.762,28.400 95.205,28.400 95.827 C 28.400 96.362,28.201 96.800,27.957 96.800 C 27.714 96.800,27.618 97.070,27.745 97.400 C 27.879 97.750,27.751 98.000,27.436 98.000 C 27.140 98.000,26.673 98.540,26.400 99.200 C 26.127 99.860,25.733 100.400,25.525 100.400 C 25.316 100.400,25.260 100.760,25.400 101.200 C 25.546 101.659,25.472 102.000,25.227 102.000 C 24.992 102.000,24.800 102.360,24.800 102.800 C 24.800 103.240,24.620 103.600,24.400 103.600 C 24.180 103.600,24.000 103.920,24.000 104.312 C 24.000 104.703,23.640 105.283,23.200 105.600 C 22.760 105.917,22.400 106.497,22.400 106.888 C 22.400 107.280,22.254 107.600,22.075 107.600 C 21.896 107.600,21.502 108.230,21.200 109.000 C 20.898 109.770,20.504 110.400,20.325 110.400 C 20.146 110.400,20.000 110.850,20.000 111.400 C 20.000 111.950,19.820 112.400,19.600 112.400 C 19.380 112.400,19.200 112.670,19.200 113.000 C 19.200 113.330,19.020 113.600,18.800 113.600 C 18.580 113.600,18.400 114.230,18.400 115.000 C 18.400 115.770,18.220 116.400,18.000 116.400 C 17.780 116.400,17.600 116.760,17.600 117.200 C 17.600 117.640,17.420 118.000,17.200 118.000 C 16.980 118.000,16.800 118.360,16.800 118.800 C 16.800 119.240,16.620 119.600,16.400 119.600 C 16.180 119.600,16.000 119.960,16.000 120.400 C 16.000 120.840,15.820 121.200,15.600 121.200 C 15.380 121.200,15.200 121.470,15.200 121.800 C 15.200 122.130,15.020 122.400,14.800 122.400 C 14.580 122.400,14.400 122.940,14.400 123.600 C 14.400 124.260,14.220 124.800,14.000 124.800 C 13.780 124.800,13.600 125.070,13.600 125.400 C 13.600 125.730,13.420 126.000,13.200 126.000 C 12.980 126.000,12.800 126.630,12.800 127.400 C 12.800 128.170,12.599 128.800,12.353 128.800 C 12.091 128.800,11.987 129.218,12.100 129.810 C 12.223 130.457,12.075 130.942,11.687 131.159 C 11.301 131.375,11.164 131.818,11.309 132.374 C 11.455 132.930,11.331 133.329,10.969 133.467 C 10.656 133.587,10.400 133.936,10.400 134.243 C 10.400 134.549,10.208 134.800,9.974 134.800 C 9.740 134.800,9.605 135.295,9.674 135.900 C 9.743 136.505,9.620 137.019,9.400 137.042 C 8.950 137.089,8.458 139.436,8.423 141.700 C 8.410 142.525,8.220 143.200,8.000 143.200 C 7.780 143.200,7.600 143.650,7.600 144.200 C 7.600 144.750,7.420 145.200,7.200 145.200 C 6.980 145.200,6.800 145.920,6.800 146.800 C 6.800 147.680,6.620 148.400,6.400 148.400 C 6.180 148.400,6.000 149.131,6.000 150.024 C 6.000 151.004,5.842 151.549,5.600 151.400 C 5.356 151.249,5.200 151.863,5.200 152.976 C 5.200 153.979,5.020 154.800,4.800 154.800 C 4.580 154.800,4.400 155.430,4.400 156.200 C 4.400 156.970,4.220 157.600,4.000 157.600 C 3.774 157.600,3.600 158.733,3.600 160.200 C 3.600 161.667,3.426 162.800,3.200 162.800 C 2.980 162.800,2.800 163.610,2.800 164.600 C 2.800 165.590,2.620 166.400,2.400 166.400 C 2.178 166.400,2.000 167.467,2.000 168.800 C 2.000 170.133,1.822 171.200,1.600 171.200 C 1.367 171.200,1.200 172.522,1.200 174.367 C 1.200 176.544,1.044 177.585,0.700 177.700 C -0.031 177.944,-0.031 222.056,0.700 222.300 C 1.044 222.415,1.200 223.456,1.200 225.633 C 1.200 227.478,1.367 228.800,1.600 228.800 C 1.822 228.800,2.000 229.867,2.000 231.200 C 2.000 232.533,2.178 233.600,2.400 233.600 C 2.622 233.600,2.800 234.667,2.800 236.000 C 2.800 237.333,2.978 238.400,3.200 238.400 C 3.420 238.400,3.600 239.300,3.600 240.400 C 3.600 241.500,3.780 242.400,4.000 242.400 C 4.220 242.400,4.400 243.030,4.400 243.800 C 4.400 244.570,4.580 245.200,4.800 245.200 C 5.020 245.200,5.200 246.021,5.200 247.024 C 5.200 248.137,5.356 248.751,5.600 248.600 C 5.842 248.451,6.000 248.996,6.000 249.976 C 6.000 250.869,6.180 251.600,6.400 251.600 C 6.620 251.600,6.800 252.320,6.800 253.200 C 6.800 254.080,6.980 254.800,7.200 254.800 C 7.420 254.800,7.600 255.250,7.600 255.800 C 7.600 256.350,7.754 256.800,7.943 256.800 C 8.131 256.800,8.406 258.105,8.554 259.700 C 8.701 261.295,8.997 262.660,9.211 262.733 C 9.425 262.807,9.600 263.392,9.600 264.033 C 9.600 264.675,9.780 265.200,10.000 265.200 C 10.220 265.200,10.400 265.451,10.400 265.757 C 10.400 266.064,10.656 266.413,10.969 266.533 C 11.331 266.671,11.455 267.070,11.309 267.626 C 11.164 268.182,11.301 268.625,11.687 268.841 C 12.075 269.058,12.223 269.543,12.100 270.190 C 11.987 270.782,12.091 271.200,12.353 271.200 C 12.599 271.200,12.800 271.830,12.800 272.600 C 12.800 273.370,12.980 274.000,13.200 274.000 C 13.420 274.000,13.600 274.270,13.600 274.600 C 13.600 274.930,13.780 275.200,14.000 275.200 C 14.220 275.200,14.400 275.740,14.400 276.400 C 14.400 277.060,14.580 277.600,14.800 277.600 C 15.020 277.600,15.200 277.870,15.200 278.200 C 15.200 278.530,15.380 278.800,15.600 278.800 C 15.820 278.800,16.000 279.160,16.000 279.600 C 16.000 280.040,16.180 280.400,16.400 280.400 C 16.620 280.400,16.800 280.760,16.800 281.200 C 16.800 281.640,16.980 282.000,17.200 282.000 C 17.420 282.000,17.600 282.360,17.600 282.800 C 17.600 283.240,17.780 283.600,18.000 283.600 C 18.220 283.600,18.400 284.230,18.400 285.000 C 18.400 285.770,18.580 286.400,18.800 286.400 C 19.020 286.400,19.200 286.670,19.200 287.000 C 19.200 287.330,19.380 287.600,19.600 287.600 C 19.820 287.600,20.000 287.960,20.000 288.400 C 20.000 288.840,20.199 289.200,20.443 289.200 C 20.686 289.200,20.787 289.457,20.667 289.771 C 20.546 290.085,20.707 290.557,21.024 290.820 C 21.341 291.083,21.600 291.546,21.600 291.849 C 21.600 292.152,21.780 292.400,22.000 292.400 C 22.220 292.400,22.400 292.720,22.400 293.112 C 22.400 293.503,22.760 294.083,23.200 294.400 C 23.640 294.717,24.000 295.297,24.000 295.688 C 24.000 296.080,24.180 296.400,24.400 296.400 C 24.620 296.400,24.800 296.760,24.800 297.200 C 24.800 297.640,24.992 298.000,25.227 298.000 C 25.471 298.000,25.546 298.341,25.401 298.797 C 25.206 299.410,25.293 299.539,25.774 299.355 C 26.242 299.175,26.400 299.374,26.400 300.143 C 26.400 300.756,26.717 301.342,27.185 301.592 C 27.647 301.839,27.876 302.257,27.742 302.606 C 27.617 302.933,27.714 303.200,27.957 303.200 C 28.201 303.200,28.400 303.638,28.400 304.173 C 28.400 304.795,28.689 305.238,29.200 305.400 C 29.703 305.560,30.000 306.005,30.000 306.600 C 30.000 307.195,30.297 307.640,30.800 307.800 C 31.240 307.940,31.600 308.312,31.600 308.627 C 31.600 308.942,31.780 309.200,32.000 309.200 C 32.220 309.200,32.400 309.470,32.400 309.800 C 32.400 310.130,32.580 310.400,32.800 310.400 C 33.020 310.400,33.200 310.720,33.200 311.112 C 33.200 311.503,33.560 312.083,34.000 312.400 C 34.440 312.717,34.800 313.257,34.800 313.600 C 34.800 313.943,35.160 314.483,35.600 314.800 C 36.040 315.117,36.400 315.625,36.400 315.928 C 36.400 316.231,36.940 316.983,37.600 317.600 C 38.260 318.217,38.800 318.847,38.800 319.000 C 38.800 319.153,39.340 319.783,40.000 320.400 C 40.660 321.017,41.200 321.904,41.200 322.373 C 41.200 322.842,41.515 323.344,41.900 323.490 C 42.928 323.880,43.687 324.736,43.406 325.191 C 43.140 325.621,45.715 328.400,46.379 328.400 C 46.602 328.400,46.908 328.892,47.059 329.494 C 47.313 330.503,52.575 336.000,53.288 336.000 C 53.459 336.000,53.600 336.353,53.600 336.784 C 53.600 337.215,54.523 338.430,55.651 339.484 C 56.780 340.538,58.085 341.830,58.551 342.355 C 60.280 344.300,61.817 345.596,62.400 345.602 C 62.730 345.605,63.450 346.179,64.000 346.878 C 65.901 349.295,69.558 352.800,70.178 352.800 C 70.520 352.800,70.800 352.968,70.800 353.173 C 70.800 353.378,71.160 353.660,71.600 353.800 C 72.040 353.940,72.400 354.230,72.400 354.445 C 72.400 355.094,74.377 356.861,74.806 356.596 C 75.222 356.339,76.400 357.290,76.400 357.883 C 76.400 358.444,77.959 359.600,78.716 359.600 C 79.105 359.600,79.683 359.960,80.000 360.400 C 80.317 360.840,80.735 361.200,80.928 361.200 C 81.121 361.200,81.783 361.740,82.400 362.400 C 83.017 363.060,83.887 363.600,84.334 363.600 C 84.795 363.600,85.256 363.946,85.400 364.400 C 85.540 364.840,85.930 365.200,86.266 365.200 C 86.603 365.200,87.383 365.740,88.000 366.400 C 88.617 367.060,89.409 367.600,89.760 367.600 C 90.112 367.600,90.400 367.780,90.400 368.000 C 90.400 368.220,90.748 368.400,91.173 368.400 C 91.598 368.400,92.060 368.760,92.200 369.200 C 92.360 369.703,92.805 370.000,93.400 370.000 C 93.995 370.000,94.440 370.297,94.600 370.800 C 94.764 371.318,95.205 371.600,95.851 371.600 C 96.463 371.600,96.744 371.767,96.580 372.033 C 96.417 372.296,96.605 372.416,97.062 372.338 C 97.474 372.268,98.201 372.569,98.677 373.006 C 100.378 374.566,100.816 374.837,101.226 374.584 C 101.455 374.442,101.969 374.703,102.368 375.163 C 102.767 375.623,103.388 376.000,103.747 376.000 C 104.106 376.000,104.400 376.180,104.400 376.400 C 104.400 376.620,104.760 376.800,105.200 376.800 C 105.640 376.800,106.000 376.980,106.000 377.200 C 106.000 377.420,106.360 377.600,106.800 377.600 C 107.240 377.600,107.600 377.746,107.600 377.925 C 107.600 378.104,108.230 378.498,109.000 378.800 C 109.770 379.102,110.400 379.496,110.400 379.675 C 110.400 379.854,110.850 380.000,111.400 380.000 C 111.950 380.000,112.400 380.180,112.400 380.400 C 112.400 380.620,112.670 380.800,113.000 380.800 C 113.330 380.800,113.600 380.980,113.600 381.200 C 113.600 381.420,113.960 381.600,114.400 381.600 C 114.840 381.600,115.200 381.780,115.200 382.000 C 115.200 382.220,115.830 382.400,116.600 382.400 C 117.370 382.400,118.000 382.580,118.000 382.800 C 118.000 383.020,118.360 383.200,118.800 383.200 C 119.240 383.200,119.600 383.380,119.600 383.600 C 119.600 383.820,119.960 384.000,120.400 384.000 C 120.840 384.000,121.200 384.180,121.200 384.400 C 121.200 384.620,121.650 384.800,122.200 384.800 C 122.750 384.800,123.200 384.980,123.200 385.200 C 123.200 385.420,123.560 385.600,124.000 385.600 C 124.440 385.600,124.800 385.780,124.800 386.000 C 124.800 386.220,125.340 386.400,126.000 386.400 C 126.660 386.400,127.200 386.580,127.200 386.800 C 127.200 387.020,127.560 387.200,128.000 387.200 C 128.440 387.200,128.800 387.380,128.800 387.600 C 128.800 387.820,129.160 388.000,129.600 388.000 C 130.399 388.000,130.400 387.733,130.400 200.000 C 130.400 12.267,130.399 12.000,129.600 12.000 C 129.160 12.000,128.800 12.180,128.800 12.400 " stroke="none" fill="#0454b4" fill-rule="evenodd"></path><path id="path2" d="M179.500 0.273 C 177.355 0.359,175.600 0.602,175.600 0.814 C 175.600 1.030,174.187 1.200,172.400 1.200 C 170.533 1.200,169.200 1.367,169.200 1.600 C 169.200 1.822,168.133 2.000,166.800 2.000 C 165.467 2.000,164.400 2.178,164.400 2.400 C 164.400 2.620,163.500 2.800,162.400 2.800 C 161.300 2.800,160.400 2.980,160.400 3.200 C 160.400 3.420,159.590 3.600,158.600 3.600 C 157.610 3.600,156.800 3.780,156.800 4.000 C 156.800 4.220,156.080 4.400,155.200 4.400 C 154.320 4.400,153.600 4.580,153.600 4.800 C 153.600 5.020,152.880 5.200,152.000 5.200 C 151.120 5.200,150.400 5.380,150.400 5.600 C 150.400 5.820,149.680 6.000,148.800 6.000 C 147.920 6.000,147.200 6.180,147.200 6.400 C 147.200 6.620,146.480 6.800,145.600 6.800 C 144.720 6.800,144.000 6.980,144.000 7.200 C 144.000 7.420,143.550 7.600,143.000 7.600 C 142.450 7.600,142.000 7.780,142.000 8.000 C 142.000 8.220,141.325 8.406,140.500 8.414 C 139.675 8.422,138.550 8.686,138.000 9.000 C 137.450 9.314,136.505 9.578,135.900 9.586 C 135.295 9.594,134.800 9.780,134.800 10.000 C 134.800 10.220,134.260 10.400,133.600 10.400 C 132.940 10.400,132.400 10.580,132.400 10.800 C 132.400 11.020,131.905 11.200,131.300 11.200 L 130.200 11.200 130.200 200.000 L 130.200 388.800 131.300 388.800 C 131.905 388.800,132.400 388.980,132.400 389.200 C 132.400 389.420,132.940 389.600,133.600 389.600 C 134.260 389.600,134.800 389.780,134.800 390.000 C 134.800 390.220,135.295 390.406,135.900 390.414 C 136.505 390.422,137.450 390.686,138.000 391.000 C 138.550 391.314,139.675 391.578,140.500 391.586 C 141.325 391.594,142.000 391.780,142.000 392.000 C 142.000 392.220,142.450 392.400,143.000 392.400 C 143.550 392.400,144.000 392.580,144.000 392.800 C 144.000 393.020,144.720 393.200,145.600 393.200 C 146.480 393.200,147.200 393.380,147.200 393.600 C 147.200 393.820,147.920 394.000,148.800 394.000 C 149.680 394.000,150.400 394.180,150.400 394.400 C 150.400 394.620,151.120 394.800,152.000 394.800 C 152.880 394.800,153.600 394.980,153.600 395.200 C 153.600 395.420,154.320 395.600,155.200 395.600 C 156.080 395.600,156.800 395.780,156.800 396.000 C 156.800 396.220,157.610 396.400,158.600 396.400 C 159.590 396.400,160.400 396.580,160.400 396.800 C 160.400 397.020,161.300 397.200,162.400 397.200 C 163.500 397.200,164.400 397.380,164.400 397.600 C 164.400 397.822,165.467 398.000,166.800 398.000 C 168.133 398.000,169.200 398.178,169.200 398.400 C 169.200 398.633,170.522 398.800,172.367 398.800 C 174.544 398.800,175.585 398.956,175.700 399.300 C 175.831 399.693,181.049 399.800,200.000 399.800 C 218.951 399.800,224.169 399.693,224.300 399.300 C 224.415 398.956,225.456 398.800,227.633 398.800 C 229.478 398.800,230.800 398.633,230.800 398.400 C 230.800 398.178,231.867 398.000,233.200 398.000 C 234.533 398.000,235.600 397.822,235.600 397.600 C 235.600 397.380,236.500 397.200,237.600 397.200 C 238.700 397.200,239.600 397.020,239.600 396.800 C 239.600 396.580,240.410 396.400,241.400 396.400 C 242.390 396.400,243.200 396.220,243.200 396.000 C 243.200 395.780,243.920 395.600,244.800 395.600 C 245.680 395.600,246.400 395.420,246.400 395.200 C 246.400 394.980,247.120 394.800,248.000 394.800 C 248.880 394.800,249.600 394.620,249.600 394.400 C 249.600 394.180,250.320 394.000,251.200 394.000 C 252.080 394.000,252.800 393.820,252.800 393.600 C 252.800 393.380,253.520 393.200,254.400 393.200 C 255.280 393.200,256.000 393.020,256.000 392.800 C 256.000 392.580,256.450 392.400,257.000 392.400 C 257.550 392.400,258.000 392.259,258.000 392.086 C 258.000 391.801,260.554 391.132,263.900 390.542 C 264.615 390.416,265.200 390.152,265.200 389.956 C 265.200 389.760,265.740 389.600,266.400 389.600 C 267.060 389.600,267.600 389.420,267.600 389.200 C 267.600 388.980,268.095 388.800,268.700 388.800 L 269.800 388.800 269.800 200.000 L 269.800 11.200 268.700 11.200 C 268.095 11.200,267.600 11.020,267.600 10.800 C 267.600 10.580,267.060 10.400,266.400 10.400 C 265.740 10.400,265.200 10.240,265.200 10.044 C 265.200 9.848,264.615 9.584,263.900 9.458 C 260.554 8.868,258.000 8.199,258.000 7.914 C 258.000 7.741,257.550 7.600,257.000 7.600 C 256.450 7.600,256.000 7.420,256.000 7.200 C 256.000 6.980,255.280 6.800,254.400 6.800 C 253.520 6.800,252.800 6.620,252.800 6.400 C 252.800 6.180,252.080 6.000,251.200 6.000 C 250.320 6.000,249.600 5.820,249.600 5.600 C 249.600 5.380,248.880 5.200,248.000 5.200 C 247.120 5.200,246.400 5.020,246.400 4.800 C 246.400 4.580,245.680 4.400,244.800 4.400 C 243.920 4.400,243.200 4.220,243.200 4.000 C 243.200 3.780,242.390 3.600,241.400 3.600 C 240.410 3.600,239.600 3.420,239.600 3.200 C 239.600 2.980,238.700 2.800,237.600 2.800 C 236.500 2.800,235.600 2.620,235.600 2.400 C 235.600 2.178,234.533 2.000,233.200 2.000 C 231.867 2.000,230.800 1.822,230.800 1.600 C 230.800 1.367,229.478 1.200,227.633 1.200 C 225.542 1.200,224.413 1.038,224.308 0.724 C 224.150 0.250,188.931 -0.105,179.500 0.273 M276.400 14.800 C 276.400 15.020,276.670 15.200,277.000 15.200 C 277.330 15.200,277.600 15.020,277.600 14.800 C 277.600 14.580,277.330 14.400,277.000 14.400 C 276.670 14.400,276.400 14.580,276.400 14.800 M120.000 15.600 C 120.000 15.820,120.270 16.000,120.600 16.000 C 120.930 16.000,121.200 15.820,121.200 15.600 C 121.200 15.380,120.930 15.200,120.600 15.200 C 120.270 15.200,120.000 15.380,120.000 15.600 M278.800 15.600 C 278.800 15.820,279.070 16.000,279.400 16.000 C 279.730 16.000,280.000 15.820,280.000 15.600 C 280.000 15.380,279.730 15.200,279.400 15.200 C 279.070 15.200,278.800 15.380,278.800 15.600 M118.400 16.400 C 118.400 16.620,118.670 16.800,119.000 16.800 C 119.330 16.800,119.600 16.620,119.600 16.400 C 119.600 16.180,119.330 16.000,119.000 16.000 C 118.670 16.000,118.400 16.180,118.400 16.400 M116.800 17.200 C 116.800 17.420,117.070 17.600,117.400 17.600 C 117.730 17.600,118.000 17.420,118.000 17.200 C 118.000 16.980,117.730 16.800,117.400 16.800 C 117.070 16.800,116.800 16.980,116.800 17.200 M97.277 27.230 C 97.356 27.467,97.591 27.660,97.800 27.660 C 98.009 27.660,98.245 27.467,98.323 27.230 C 98.402 26.994,98.167 26.800,97.800 26.800 C 97.433 26.800,97.198 26.994,97.277 27.230 M301.692 27.275 C 301.939 28.017,302.800 28.140,302.800 27.433 C 302.800 27.085,302.515 26.800,302.167 26.800 C 301.818 26.800,301.605 27.014,301.692 27.275 M86.860 33.842 C 86.131 34.666,86.600 35.057,87.381 34.276 C 87.721 33.936,88.000 33.554,88.000 33.429 C 88.000 33.009,87.406 33.224,86.860 33.842 M84.000 36.000 C 84.000 36.220,84.270 36.400,84.600 36.400 C 84.930 36.400,85.200 36.220,85.200 36.000 C 85.200 35.780,84.930 35.600,84.600 35.600 C 84.270 35.600,84.000 35.780,84.000 36.000 M81.260 37.842 C 80.531 38.666,81.000 39.057,81.781 38.276 C 82.121 37.936,82.400 37.554,82.400 37.429 C 82.400 37.009,81.806 37.224,81.260 37.842 M78.400 40.000 C 78.400 40.220,78.670 40.400,79.000 40.400 C 79.330 40.400,79.600 40.220,79.600 40.000 C 79.600 39.780,79.330 39.600,79.000 39.600 C 78.670 39.600,78.400 39.780,78.400 40.000 M75.300 42.265 C 74.810 42.463,74.579 43.600,75.029 43.600 C 75.325 43.600,76.400 42.525,76.400 42.229 C 76.400 41.965,76.013 41.977,75.300 42.265 M323.600 42.229 C 323.600 42.525,324.675 43.600,324.971 43.600 C 325.489 43.600,325.152 42.467,324.567 42.243 C 323.781 41.941,323.600 41.938,323.600 42.229 M71.035 45.803 C 70.395 46.354,69.981 46.915,70.116 47.050 C 70.251 47.185,70.637 47.020,70.974 46.683 C 71.310 46.347,71.796 46.001,72.053 45.916 C 72.310 45.830,72.448 45.545,72.360 45.281 C 72.256 44.971,71.789 45.155,71.035 45.803 M327.600 45.324 C 327.600 45.666,327.960 46.060,328.400 46.200 C 328.840 46.340,329.200 46.712,329.200 47.027 C 329.200 47.342,329.380 47.600,329.600 47.600 C 330.558 47.600,329.995 46.585,328.298 45.251 C 327.698 44.779,327.600 44.789,327.600 45.324 M64.100 51.822 C 62.945 53.011,62.000 54.078,62.000 54.192 C 62.000 54.829,63.135 54.221,64.000 53.120 C 64.550 52.420,65.405 51.440,65.900 50.942 C 66.395 50.444,66.800 49.938,66.800 49.818 C 66.800 49.261,66.037 49.828,64.100 51.822 M333.200 50.000 C 333.200 50.220,333.335 50.401,333.500 50.401 C 333.665 50.402,334.160 50.941,334.600 51.600 C 335.040 52.259,335.625 52.798,335.900 52.799 C 336.668 52.801,336.516 52.489,335.013 50.987 C 333.560 49.533,333.200 49.337,333.200 50.000 M51.262 64.658 C 49.178 66.816,49.367 67.566,51.467 65.467 C 52.273 64.660,53.083 64.000,53.267 64.000 C 53.450 64.000,53.600 63.730,53.600 63.400 C 53.600 62.467,53.138 62.715,51.262 64.658 M347.200 64.200 C 347.200 64.530,347.372 64.800,347.582 64.800 C 347.792 64.800,348.433 65.269,349.006 65.842 C 349.579 66.416,350.146 66.788,350.264 66.669 C 350.478 66.456,347.825 63.600,347.413 63.600 C 347.296 63.600,347.200 63.870,347.200 64.200 M45.723 71.097 C 45.241 71.692,44.950 72.274,45.078 72.390 C 45.205 72.505,45.390 72.375,45.488 72.100 C 45.586 71.825,45.922 71.600,46.233 71.600 C 46.545 71.600,46.800 71.525,46.800 71.433 C 46.800 71.341,46.909 70.981,47.043 70.633 C 47.422 69.646,46.691 69.903,45.723 71.097 M353.600 71.029 C 353.600 71.327,354.675 72.400,354.975 72.400 C 355.102 72.400,354.982 72.040,354.707 71.600 C 354.238 70.849,353.600 70.520,353.600 71.029 M42.233 75.457 C 41.875 76.391,42.254 76.603,42.981 75.876 C 43.747 75.110,43.765 74.800,43.043 74.800 C 42.736 74.800,42.372 75.096,42.233 75.457 M356.400 75.029 C 356.400 75.413,357.625 76.508,357.828 76.305 C 358.183 75.950,357.518 74.800,356.957 74.800 C 356.651 74.800,356.400 74.903,356.400 75.029 M40.100 78.198 C 39.584 78.785,39.426 79.600,39.829 79.600 C 40.221 79.600,41.200 78.478,41.200 78.029 C 41.200 77.440,40.700 77.517,40.100 78.198 M33.660 87.042 C 32.931 87.866,33.400 88.257,34.181 87.476 C 34.521 87.136,34.800 86.754,34.800 86.629 C 34.800 86.209,34.206 86.424,33.660 87.042 M32.100 89.398 C 31.499 90.081,31.448 90.800,32.000 90.800 C 32.220 90.800,32.400 90.530,32.400 90.200 C 32.400 89.870,32.580 89.600,32.800 89.600 C 33.020 89.600,33.200 89.420,33.200 89.200 C 33.200 88.637,32.689 88.729,32.100 89.398 M369.839 93.538 C 369.700 93.761,369.782 94.065,370.020 94.212 C 370.635 94.593,371.032 94.072,370.518 93.558 C 370.231 93.271,370.007 93.264,369.839 93.538 M19.200 111.800 C 19.200 112.130,19.380 112.400,19.600 112.400 C 19.820 112.400,20.000 112.130,20.000 111.800 C 20.000 111.470,19.820 111.200,19.600 111.200 C 19.380 111.200,19.200 111.470,19.200 111.800 M17.600 115.800 C 17.600 116.130,17.780 116.400,18.000 116.400 C 18.220 116.400,18.400 116.130,18.400 115.800 C 18.400 115.470,18.220 115.200,18.000 115.200 C 17.780 115.200,17.600 115.470,17.600 115.800 M16.800 117.400 C 16.800 117.730,16.980 118.000,17.200 118.000 C 17.420 118.000,17.600 117.730,17.600 117.400 C 17.600 117.070,17.420 116.800,17.200 116.800 C 16.980 116.800,16.800 117.070,16.800 117.400 M382.400 117.400 C 382.400 117.730,382.580 118.000,382.800 118.000 C 383.020 118.000,383.200 117.730,383.200 117.400 C 383.200 117.070,383.020 116.800,382.800 116.800 C 382.580 116.800,382.400 117.070,382.400 117.400 M16.000 119.000 C 16.000 119.330,16.180 119.600,16.400 119.600 C 16.620 119.600,16.800 119.330,16.800 119.000 C 16.800 118.670,16.620 118.400,16.400 118.400 C 16.180 118.400,16.000 118.670,16.000 119.000 M15.200 120.600 C 15.200 120.930,15.380 121.200,15.600 121.200 C 15.820 121.200,16.000 120.930,16.000 120.600 C 16.000 120.270,15.820 120.000,15.600 120.000 C 15.380 120.000,15.200 120.270,15.200 120.600 M11.200 130.600 C 11.200 130.967,11.394 131.202,11.630 131.123 C 11.867 131.044,12.060 130.809,12.060 130.600 C 12.060 130.391,11.867 130.156,11.630 130.077 C 11.394 129.998,11.200 130.233,11.200 130.600 M387.867 130.267 C 387.406 130.727,387.575 131.200,388.200 131.200 C 388.530 131.200,388.800 130.930,388.800 130.600 C 388.800 129.975,388.327 129.806,387.867 130.267 M10.400 133.000 C 10.400 133.367,10.594 133.602,10.830 133.523 C 11.066 133.445,11.260 133.209,11.260 133.000 C 11.260 132.791,11.066 132.556,10.830 132.477 C 10.594 132.398,10.400 132.633,10.400 133.000 M390.800 139.400 C 390.800 139.730,390.980 140.000,391.200 140.000 C 391.420 140.000,391.600 139.730,391.600 139.400 C 391.600 139.070,391.420 138.800,391.200 138.800 C 390.980 138.800,390.800 139.070,390.800 139.400 M7.600 142.600 C 7.600 142.930,7.780 143.200,8.000 143.200 C 8.220 143.200,8.400 142.930,8.400 142.600 C 8.400 142.270,8.220 142.000,8.000 142.000 C 7.780 142.000,7.600 142.270,7.600 142.600 M391.600 142.600 C 391.600 142.930,391.780 143.200,392.000 143.200 C 392.220 143.200,392.400 142.930,392.400 142.600 C 392.400 142.270,392.220 142.000,392.000 142.000 C 391.780 142.000,391.600 142.270,391.600 142.600 M6.800 144.600 C 6.800 144.930,6.980 145.200,7.200 145.200 C 7.420 145.200,7.600 144.930,7.600 144.600 C 7.600 144.270,7.420 144.000,7.200 144.000 C 6.980 144.000,6.800 144.270,6.800 144.600 M392.400 144.800 C 392.400 145.240,392.580 145.600,392.800 145.600 C 393.020 145.600,393.200 145.240,393.200 144.800 C 393.200 144.360,393.020 144.000,392.800 144.000 C 392.580 144.000,392.400 144.360,392.400 144.800 M6.000 147.800 C 6.000 148.130,6.180 148.400,6.400 148.400 C 6.620 148.400,6.800 148.130,6.800 147.800 C 6.800 147.470,6.620 147.200,6.400 147.200 C 6.180 147.200,6.000 147.470,6.000 147.800 M393.200 147.800 C 393.200 148.130,393.380 148.400,393.600 148.400 C 393.820 148.400,394.000 148.130,394.000 147.800 C 394.000 147.470,393.820 147.200,393.600 147.200 C 393.380 147.200,393.200 147.470,393.200 147.800 M4.400 154.200 C 4.400 154.530,4.580 154.800,4.800 154.800 C 5.020 154.800,5.200 154.530,5.200 154.200 C 5.200 153.870,5.020 153.600,4.800 153.600 C 4.580 153.600,4.400 153.870,4.400 154.200 M395.600 157.400 C 395.600 157.730,395.780 158.000,396.000 158.000 C 396.220 158.000,396.400 157.730,396.400 157.400 C 396.400 157.070,396.220 156.800,396.000 156.800 C 395.780 156.800,395.600 157.070,395.600 157.400 M2.800 161.600 C 2.800 162.260,2.980 162.800,3.200 162.800 C 3.420 162.800,3.600 162.260,3.600 161.600 C 3.600 160.940,3.420 160.400,3.200 160.400 C 2.980 160.400,2.800 160.940,2.800 161.600 M396.400 161.200 C 396.400 161.640,396.580 162.000,396.800 162.000 C 397.020 162.000,397.200 161.640,397.200 161.200 C 397.200 160.760,397.020 160.400,396.800 160.400 C 396.580 160.400,396.400 160.760,396.400 161.200 M2.000 165.400 C 2.000 165.950,2.180 166.400,2.400 166.400 C 2.620 166.400,2.800 165.950,2.800 165.400 C 2.800 164.850,2.620 164.400,2.400 164.400 C 2.180 164.400,2.000 164.850,2.000 165.400 M397.200 165.224 C 397.200 165.677,397.380 165.936,397.600 165.800 C 397.820 165.664,398.000 165.293,398.000 164.976 C 398.000 164.659,397.820 164.400,397.600 164.400 C 397.380 164.400,397.200 164.771,397.200 165.224 M1.200 170.200 C 1.200 170.750,1.380 171.200,1.600 171.200 C 1.820 171.200,2.000 170.750,2.000 170.200 C 2.000 169.650,1.820 169.200,1.600 169.200 C 1.380 169.200,1.200 169.650,1.200 170.200 M398.000 170.400 C 398.000 171.060,398.180 171.600,398.400 171.600 C 398.620 171.600,398.800 171.060,398.800 170.400 C 398.800 169.740,398.620 169.200,398.400 169.200 C 398.180 169.200,398.000 169.740,398.000 170.400 M0.400 176.600 C 0.400 177.150,0.580 177.600,0.800 177.600 C 1.020 177.600,1.200 177.150,1.200 176.600 C 1.200 176.050,1.020 175.600,0.800 175.600 C 0.580 175.600,0.400 176.050,0.400 176.600 M398.800 176.600 C 398.800 177.150,398.980 177.600,399.200 177.600 C 399.420 177.600,399.600 177.150,399.600 176.600 C 399.600 176.050,399.420 175.600,399.200 175.600 C 398.980 175.600,398.800 176.050,398.800 176.600 M0.101 215.400 C 0.105 216.280,0.187 216.593,0.283 216.095 C 0.379 215.598,0.375 214.878,0.275 214.495 C 0.175 214.113,0.096 214.520,0.101 215.400 M0.400 223.400 C 0.400 223.950,0.580 224.400,0.800 224.400 C 1.020 224.400,1.200 223.950,1.200 223.400 C 1.200 222.850,1.020 222.400,0.800 222.400 C 0.580 222.400,0.400 222.850,0.400 223.400 M398.800 223.400 C 398.800 223.950,398.980 224.400,399.200 224.400 C 399.420 224.400,399.600 223.950,399.600 223.400 C 399.600 222.850,399.420 222.400,399.200 222.400 C 398.980 222.400,398.800 222.850,398.800 223.400 M398.000 229.600 C 398.000 230.260,398.180 230.800,398.400 230.800 C 398.620 230.800,398.800 230.260,398.800 229.600 C 398.800 228.940,398.620 228.400,398.400 228.400 C 398.180 228.400,398.000 228.940,398.000 229.600 M1.200 229.800 C 1.200 230.350,1.380 230.800,1.600 230.800 C 1.820 230.800,2.000 230.350,2.000 229.800 C 2.000 229.250,1.820 228.800,1.600 228.800 C 1.380 228.800,1.200 229.250,1.200 229.800 M2.000 234.600 C 2.000 235.150,2.180 235.600,2.400 235.600 C 2.620 235.600,2.800 235.150,2.800 234.600 C 2.800 234.050,2.620 233.600,2.400 233.600 C 2.180 233.600,2.000 234.050,2.000 234.600 M397.200 234.776 C 397.200 235.229,397.380 235.600,397.600 235.600 C 397.820 235.600,398.000 235.341,398.000 235.024 C 398.000 234.707,397.820 234.336,397.600 234.200 C 397.380 234.064,397.200 234.323,397.200 234.776 M396.400 238.800 C 396.400 239.240,396.580 239.600,396.800 239.600 C 397.020 239.600,397.200 239.240,397.200 238.800 C 397.200 238.360,397.020 238.000,396.800 238.000 C 396.580 238.000,396.400 238.360,396.400 238.800 M2.800 239.000 C 2.800 239.330,2.980 239.600,3.200 239.600 C 3.420 239.600,3.600 239.330,3.600 239.000 C 3.600 238.670,3.420 238.400,3.200 238.400 C 2.980 238.400,2.800 238.670,2.800 239.000 M395.600 242.600 C 395.600 242.930,395.780 243.200,396.000 243.200 C 396.220 243.200,396.400 242.930,396.400 242.600 C 396.400 242.270,396.220 242.000,396.000 242.000 C 395.780 242.000,395.600 242.270,395.600 242.600 M4.400 245.800 C 4.400 246.130,4.580 246.400,4.800 246.400 C 5.020 246.400,5.200 246.130,5.200 245.800 C 5.200 245.470,5.020 245.200,4.800 245.200 C 4.580 245.200,4.400 245.470,4.400 245.800 M6.000 252.200 C 6.000 252.530,6.180 252.800,6.400 252.800 C 6.620 252.800,6.800 252.530,6.800 252.200 C 6.800 251.870,6.620 251.600,6.400 251.600 C 6.180 251.600,6.000 251.870,6.000 252.200 M393.200 252.200 C 393.200 252.530,393.380 252.800,393.600 252.800 C 393.820 252.800,394.000 252.530,394.000 252.200 C 394.000 251.870,393.820 251.600,393.600 251.600 C 393.380 251.600,393.200 251.870,393.200 252.200 M392.400 255.200 C 392.400 255.640,392.580 256.000,392.800 256.000 C 393.020 256.000,393.200 255.640,393.200 255.200 C 393.200 254.760,393.020 254.400,392.800 254.400 C 392.580 254.400,392.400 254.760,392.400 255.200 M6.800 255.400 C 6.800 255.730,6.980 256.000,7.200 256.000 C 7.420 256.000,7.600 255.730,7.600 255.400 C 7.600 255.070,7.420 254.800,7.200 254.800 C 6.980 254.800,6.800 255.070,6.800 255.400 M7.600 257.400 C 7.600 257.730,7.780 258.000,8.000 258.000 C 8.220 258.000,8.400 257.730,8.400 257.400 C 8.400 257.070,8.220 256.800,8.000 256.800 C 7.780 256.800,7.600 257.070,7.600 257.400 M391.600 257.400 C 391.600 257.730,391.780 258.000,392.000 258.000 C 392.220 258.000,392.400 257.730,392.400 257.400 C 392.400 257.070,392.220 256.800,392.000 256.800 C 391.780 256.800,391.600 257.070,391.600 257.400 M390.800 260.600 C 390.800 260.930,390.980 261.200,391.200 261.200 C 391.420 261.200,391.600 260.930,391.600 260.600 C 391.600 260.270,391.420 260.000,391.200 260.000 C 390.980 260.000,390.800 260.270,390.800 260.600 M10.400 267.000 C 10.400 267.367,10.594 267.602,10.830 267.523 C 11.066 267.445,11.260 267.209,11.260 267.000 C 11.260 266.791,11.066 266.555,10.830 266.477 C 10.594 266.398,10.400 266.633,10.400 267.000 M11.200 269.400 C 11.200 269.767,11.394 270.002,11.630 269.923 C 11.867 269.845,12.060 269.609,12.060 269.400 C 12.060 269.191,11.867 268.955,11.630 268.877 C 11.394 268.798,11.200 269.033,11.200 269.400 M387.692 269.275 C 387.939 270.017,388.800 270.140,388.800 269.433 C 388.800 269.085,388.515 268.800,388.167 268.800 C 387.818 268.800,387.605 269.014,387.692 269.275 M15.200 279.400 C 15.200 279.730,15.380 280.000,15.600 280.000 C 15.820 280.000,16.000 279.730,16.000 279.400 C 16.000 279.070,15.820 278.800,15.600 278.800 C 15.380 278.800,15.200 279.070,15.200 279.400 M16.000 281.000 C 16.000 281.330,16.180 281.600,16.400 281.600 C 16.620 281.600,16.800 281.330,16.800 281.000 C 16.800 280.670,16.620 280.400,16.400 280.400 C 16.180 280.400,16.000 280.670,16.000 281.000 M16.800 282.600 C 16.800 282.930,16.980 283.200,17.200 283.200 C 17.420 283.200,17.600 282.930,17.600 282.600 C 17.600 282.270,17.420 282.000,17.200 282.000 C 16.980 282.000,16.800 282.270,16.800 282.600 M382.400 282.600 C 382.400 282.930,382.580 283.200,382.800 283.200 C 383.020 283.200,383.200 282.930,383.200 282.600 C 383.200 282.270,383.020 282.000,382.800 282.000 C 382.580 282.000,382.400 282.270,382.400 282.600 M17.600 284.200 C 17.600 284.530,17.780 284.800,18.000 284.800 C 18.220 284.800,18.400 284.530,18.400 284.200 C 18.400 283.870,18.220 283.600,18.000 283.600 C 17.780 283.600,17.600 283.870,17.600 284.200 M19.200 288.200 C 19.200 288.530,19.380 288.800,19.600 288.800 C 19.820 288.800,20.000 288.530,20.000 288.200 C 20.000 287.870,19.820 287.600,19.600 287.600 C 19.380 287.600,19.200 287.870,19.200 288.200 M25.606 299.700 C 25.620 300.842,26.388 301.426,26.394 300.300 C 26.397 299.695,26.220 299.200,26.000 299.200 C 25.780 299.200,25.603 299.425,25.606 299.700 M26.800 302.200 C 26.800 302.567,26.994 302.802,27.230 302.723 C 27.467 302.645,27.660 302.409,27.660 302.200 C 27.660 301.991,27.467 301.755,27.230 301.677 C 26.994 301.598,26.800 301.833,26.800 302.200 M369.817 305.972 C 369.544 306.414,370.175 306.892,370.544 306.522 C 370.925 306.142,370.854 305.600,370.424 305.600 C 370.217 305.600,369.944 305.768,369.817 305.972 M31.600 309.629 C 31.600 310.268,32.795 311.341,33.119 310.993 C 33.274 310.827,33.175 310.610,32.900 310.512 C 32.625 310.414,32.400 310.078,32.400 309.767 C 32.400 309.455,32.220 309.200,32.000 309.200 C 31.780 309.200,31.600 309.393,31.600 309.629 M33.200 312.229 C 33.200 312.653,34.436 313.697,34.667 313.467 C 34.792 313.341,34.617 312.960,34.276 312.619 C 33.641 311.984,33.200 311.824,33.200 312.229 M37.200 317.829 C 37.200 318.253,38.436 319.297,38.667 319.067 C 38.792 318.941,38.617 318.560,38.276 318.219 C 37.641 317.584,37.200 317.424,37.200 317.829 M38.800 320.018 C 38.800 320.447,40.589 322.400,40.982 322.400 C 41.506 322.400,41.122 321.486,40.218 320.582 C 39.149 319.512,38.800 319.374,38.800 320.018 M42.157 324.233 C 42.291 324.581,42.400 324.941,42.400 325.033 C 42.400 325.125,42.670 325.200,43.000 325.200 C 43.752 325.200,43.760 324.903,43.029 324.171 C 42.273 323.416,41.855 323.445,42.157 324.233 M356.900 324.198 C 356.243 324.944,356.269 325.200,357.000 325.200 C 357.330 325.200,357.600 325.125,357.600 325.033 C 357.600 324.941,357.709 324.581,357.843 324.233 C 358.142 323.452,357.575 323.431,356.900 324.198 M45.251 328.298 C 46.248 329.567,46.836 330.098,47.028 329.905 C 47.383 329.550,46.718 328.400,46.157 328.400 C 45.851 328.400,45.600 328.220,45.600 328.000 C 45.600 327.780,45.398 327.600,45.151 327.600 C 44.857 327.600,44.892 327.841,45.251 328.298 M354.100 328.198 C 353.531 328.845,353.461 329.200,353.904 329.200 C 354.071 329.200,354.432 328.840,354.707 328.400 C 355.278 327.487,354.851 327.345,354.100 328.198 M49.600 333.411 C 49.600 333.685,53.115 337.200,53.389 337.200 C 53.505 337.200,53.600 336.930,53.600 336.600 C 53.600 336.270,53.445 336.000,53.256 336.000 C 53.067 336.000,52.302 335.372,51.556 334.604 C 50.307 333.318,49.600 332.887,49.600 333.411 M349.199 334.001 C 348.881 334.442,348.302 334.904,347.911 335.028 C 347.520 335.152,347.200 335.512,347.200 335.827 C 347.200 336.672,347.480 336.547,349.013 335.013 C 349.776 334.251,350.400 333.531,350.400 333.413 C 350.400 332.929,349.738 333.253,349.199 334.001 M62.000 345.809 C 62.000 346.218,66.462 350.471,66.671 350.262 C 66.789 350.145,66.461 349.622,65.942 349.100 C 65.424 348.579,64.550 347.580,64.000 346.880 C 63.135 345.778,62.000 345.171,62.000 345.809 M335.200 347.504 C 335.200 347.671,334.732 348.313,334.160 348.930 C 332.611 350.600,333.319 350.708,334.973 349.053 C 336.557 347.469,336.677 347.200,335.800 347.200 C 335.470 347.200,335.200 347.337,335.200 347.504 M329.200 352.973 C 329.200 353.288,328.840 353.660,328.400 353.800 C 327.960 353.940,327.600 354.334,327.600 354.676 C 327.600 355.211,327.698 355.221,328.298 354.749 C 329.995 353.415,330.558 352.400,329.600 352.400 C 329.380 352.400,329.200 352.658,329.200 352.973 M70.000 353.053 C 70.000 353.628,72.205 355.184,72.360 354.719 C 72.448 354.455,72.310 354.170,72.053 354.084 C 71.796 353.999,71.332 353.675,71.021 353.364 C 70.422 352.765,70.000 352.636,70.000 353.053 M74.800 356.957 C 74.800 357.518,75.950 358.183,76.305 357.828 C 76.508 357.625,75.413 356.400,75.029 356.400 C 74.903 356.400,74.800 356.651,74.800 356.957 M324.060 357.042 C 323.762 357.378,323.602 357.735,323.702 357.836 C 324.052 358.185,325.200 357.511,325.200 356.957 C 325.200 356.237,324.741 356.271,324.060 357.042 M78.400 359.829 C 78.400 360.221,79.522 361.200,79.971 361.200 C 80.557 361.200,80.509 360.852,79.829 360.171 C 79.258 359.601,78.400 359.395,78.400 359.829 M80.800 361.429 C 80.800 361.853,82.036 362.897,82.267 362.667 C 82.392 362.541,82.217 362.160,81.876 361.819 C 81.241 361.184,80.800 361.024,80.800 361.429 M84.000 364.000 C 84.000 364.220,84.270 364.400,84.600 364.400 C 84.930 364.400,85.200 364.220,85.200 364.000 C 85.200 363.780,84.930 363.600,84.600 363.600 C 84.270 363.600,84.000 363.780,84.000 364.000 M86.400 365.429 C 86.400 365.853,87.636 366.897,87.867 366.667 C 87.992 366.541,87.817 366.160,87.476 365.819 C 86.841 365.184,86.400 365.024,86.400 365.429 M97.456 372.278 C 97.005 372.728,97.181 373.200,97.800 373.200 C 98.130 373.200,98.400 373.031,98.400 372.824 C 98.400 372.319,97.775 371.958,97.456 372.278 M301.867 372.267 C 301.406 372.727,301.575 373.200,302.200 373.200 C 302.530 373.200,302.800 372.930,302.800 372.600 C 302.800 371.975,302.327 371.806,301.867 372.267 M111.200 380.400 C 111.200 380.620,111.470 380.800,111.800 380.800 C 112.130 380.800,112.400 380.620,112.400 380.400 C 112.400 380.180,112.130 380.000,111.800 380.000 C 111.470 380.000,111.200 380.180,111.200 380.400 M116.800 382.800 C 116.800 383.020,117.070 383.200,117.400 383.200 C 117.730 383.200,118.000 383.020,118.000 382.800 C 118.000 382.580,117.730 382.400,117.400 382.400 C 117.070 382.400,116.800 382.580,116.800 382.800 M118.400 383.600 C 118.400 383.820,118.670 384.000,119.000 384.000 C 119.330 384.000,119.600 383.820,119.600 383.600 C 119.600 383.380,119.330 383.200,119.000 383.200 C 118.670 383.200,118.400 383.380,118.400 383.600 M120.000 384.400 C 120.000 384.620,120.270 384.800,120.600 384.800 C 120.930 384.800,121.200 384.620,121.200 384.400 C 121.200 384.180,120.930 384.000,120.600 384.000 C 120.270 384.000,120.000 384.180,120.000 384.400 M278.800 384.400 C 278.800 384.620,279.070 384.800,279.400 384.800 C 279.730 384.800,280.000 384.620,280.000 384.400 C 280.000 384.180,279.730 384.000,279.400 384.000 C 279.070 384.000,278.800 384.180,278.800 384.400 M276.400 385.200 C 276.400 385.420,276.670 385.600,277.000 385.600 C 277.330 385.600,277.600 385.420,277.600 385.200 C 277.600 384.980,277.330 384.800,277.000 384.800 C 276.670 384.800,276.400 384.980,276.400 385.200 " stroke="none" fill="#f4f4f4" fill-rule="evenodd"></path></g></svg>