<svg id="svg" version="1.1" xmlns="http://www.w3.org/2000/svg" xmlns:xlink="http://www.w3.org/1999/xlink" width="400" height="400" viewBox="0, 0, 400,400"><g id="svgg"><path id="path0" d="M144.000 26.667 C 143.670 26.780,142.833 27.126,142.140 27.436 C 141.446 27.746,140.597 28.000,140.253 28.000 C 139.909 28.000,139.036 28.258,138.314 28.573 C 137.591 28.888,135.290 29.798,133.200 30.596 C 131.110 31.394,128.860 32.295,128.200 32.599 C 127.540 32.903,126.100 33.543,125.000 34.021 C 121.067 35.731,113.734 39.474,109.922 41.717 C 107.789 42.973,105.949 44.000,105.832 44.000 C 105.715 44.000,103.894 45.170,101.785 46.600 C 99.676 48.030,97.861 49.200,97.751 49.200 C 97.642 49.200,96.773 49.785,95.822 50.500 C 94.870 51.215,93.692 52.070,93.204 52.400 C 85.235 57.788,66.400 75.141,66.400 77.096 C 66.400 77.990,66.842 78.318,75.400 83.784 C 77.467 85.104,83.415 88.959,89.000 92.597 C 90.760 93.744,93.190 95.311,94.400 96.080 C 95.610 96.850,98.400 98.650,100.600 100.080 C 102.800 101.511,105.950 103.545,107.600 104.600 C 109.250 105.655,112.400 107.690,114.600 109.122 C 121.890 113.866,126.161 116.640,129.600 118.865 C 131.470 120.075,134.890 122.293,137.200 123.793 C 139.510 125.293,142.331 127.124,143.468 127.861 C 144.605 128.597,145.730 129.200,145.968 129.200 C 146.275 129.200,146.400 114.354,146.400 77.800 L 146.400 26.400 145.500 26.432 C 145.005 26.449,144.330 26.555,144.000 26.667 M249.500 26.632 C 249.145 26.989,249.088 124.444,249.443 125.367 C 249.576 125.715,249.812 126.000,249.968 126.000 C 250.209 126.000,261.069 118.998,262.200 118.113 C 262.420 117.941,263.320 117.328,264.200 116.752 C 265.080 116.175,268.950 113.640,272.800 111.118 C 289.862 99.943,305.708 89.528,314.000 84.039 C 317.190 81.928,320.100 80.020,320.467 79.800 C 324.968 77.099,327.200 75.375,327.200 74.599 C 327.200 72.834,310.352 57.509,302.796 52.400 C 302.308 52.070,301.130 51.215,300.178 50.500 C 299.227 49.785,298.358 49.200,298.249 49.200 C 298.139 49.200,296.324 48.030,294.215 46.600 C 292.106 45.170,290.285 44.000,290.168 44.000 C 290.051 44.000,288.211 42.973,286.078 41.717 C 282.266 39.474,274.933 35.731,271.000 34.021 C 269.900 33.543,268.460 32.903,267.800 32.599 C 267.140 32.295,264.890 31.394,262.800 30.596 C 260.710 29.798,258.409 28.888,257.686 28.573 C 256.964 28.258,256.064 27.999,255.686 27.998 C 255.309 27.996,254.481 27.724,253.847 27.394 C 252.445 26.663,249.912 26.219,249.500 26.632 M357.800 130.784 C 350.620 135.644,336.071 145.198,335.529 145.409 C 335.238 145.522,334.792 146.061,334.538 146.607 L 334.075 147.600 351.411 147.600 C 371.885 147.600,370.558 148.188,367.332 140.540 C 367.039 139.846,366.800 139.064,366.800 138.800 C 366.800 138.536,366.557 137.754,366.260 137.060 C 365.963 136.367,365.325 134.720,364.842 133.400 C 362.629 127.345,362.791 127.405,357.800 130.784 M32.629 129.829 C 32.283 130.174,32.000 130.666,32.000 130.921 C 32.000 131.364,30.893 134.371,29.740 137.060 C 29.443 137.754,29.200 138.536,29.200 138.800 C 29.200 139.064,28.961 139.846,28.668 140.540 C 25.449 148.172,24.205 147.600,44.014 147.600 C 63.702 147.600,62.940 147.899,55.655 143.035 C 53.155 141.366,51.045 140.000,50.965 140.000 C 50.885 140.000,48.971 138.769,46.710 137.265 C 33.537 128.500,33.812 128.645,32.629 129.829 M27.779 251.402 C 27.928 252.393,28.307 253.698,28.622 254.302 C 28.937 254.906,29.197 255.670,29.200 256.000 C 29.203 256.330,29.474 257.116,29.802 257.746 C 30.131 258.376,30.406 259.096,30.414 259.346 C 30.421 259.596,30.775 260.520,31.200 261.400 C 31.625 262.280,31.979 263.219,31.986 263.488 C 31.997 263.869,33.380 266.899,33.831 267.528 C 33.963 267.712,35.066 267.033,41.198 263.000 C 44.208 261.020,49.843 257.330,53.719 254.800 C 57.596 252.270,60.775 250.065,60.784 249.900 C 60.793 249.735,53.310 249.600,44.155 249.600 L 27.509 249.600 27.779 251.402 M333.200 250.000 C 333.200 250.220,333.343 250.400,333.519 250.400 C 333.694 250.400,334.189 250.674,334.619 251.010 C 335.048 251.345,337.110 252.729,339.200 254.084 C 348.785 260.300,352.495 262.712,356.385 265.260 C 361.024 268.297,362.235 268.614,362.652 266.900 C 362.799 266.295,363.163 265.445,363.460 265.011 C 363.757 264.577,364.006 263.947,364.014 263.611 C 364.021 263.275,364.375 262.280,364.800 261.400 C 365.225 260.520,365.579 259.596,365.586 259.346 C 365.594 259.096,365.869 258.376,366.198 257.746 C 366.526 257.116,366.797 256.330,366.800 256.000 C 366.803 255.670,367.063 254.906,367.378 254.302 C 367.693 253.698,368.072 252.393,368.221 251.402 L 368.491 249.600 350.845 249.600 C 339.348 249.600,333.200 249.739,333.200 250.000 M249.443 269.433 C 248.891 270.871,249.176 368.016,249.733 368.230 C 250.581 368.555,255.547 367.052,262.200 364.455 C 265.536 363.152,266.702 362.680,267.800 362.187 C 268.460 361.890,270.260 361.082,271.800 360.390 C 274.576 359.144,281.247 355.874,282.400 355.195 C 282.730 355.000,285.249 353.539,287.997 351.948 C 292.372 349.415,298.880 345.208,301.454 343.250 C 301.923 342.892,302.716 342.330,303.215 342.000 C 304.545 341.121,311.263 335.903,312.798 334.557 C 313.524 333.921,315.036 332.598,316.159 331.619 C 319.612 328.605,328.000 320.190,328.000 319.738 C 328.000 319.370,323.489 316.000,322.998 316.000 C 322.900 316.000,320.971 314.769,318.710 313.265 C 314.280 310.317,307.425 305.841,304.200 303.789 C 303.100 303.089,300.041 301.095,297.403 299.358 C 294.764 297.621,292.434 296.128,292.224 296.041 C 292.015 295.953,290.034 294.674,287.822 293.199 C 284.058 290.689,282.207 289.484,273.300 283.745 C 269.747 281.456,267.949 280.284,257.600 273.513 C 249.789 268.403,249.830 268.423,249.443 269.433 M145.000 270.473 C 144.156 270.946,142.468 272.056,101.000 299.396 C 74.341 316.973,69.200 320.456,69.200 320.941 C 69.200 321.504,76.489 328.735,80.755 332.403 C 82.160 333.611,83.516 334.799,83.768 335.042 C 84.407 335.657,91.677 341.268,92.785 342.000 C 93.284 342.330,94.077 342.892,94.546 343.250 C 97.120 345.208,103.628 349.415,108.003 351.948 C 110.751 353.539,113.270 355.000,113.600 355.195 C 114.753 355.874,121.424 359.144,124.200 360.390 C 125.740 361.082,127.540 361.893,128.200 362.193 C 128.860 362.494,130.390 363.123,131.600 363.591 C 132.810 364.060,134.160 364.602,134.600 364.797 C 135.040 364.991,136.840 365.631,138.600 366.218 C 140.360 366.805,142.070 367.426,142.400 367.596 C 142.730 367.767,143.765 368.034,144.700 368.189 L 146.400 368.470 146.400 319.235 C 146.400 292.156,146.265 270.005,146.100 270.012 C 145.935 270.019,145.440 270.226,145.000 270.473 " stroke="none" fill="#0d649c" fill-rule="evenodd"></path><path id="path1" d="M185.700 15.484 C 185.205 15.578,184.800 15.913,184.800 16.228 C 184.800 16.700,183.682 16.800,178.387 16.800 C 173.056 16.800,171.936 16.901,171.745 17.400 C 171.563 17.875,170.727 18.000,167.745 18.000 C 164.763 18.000,163.927 18.125,163.745 18.600 C 163.571 19.053,162.839 19.200,160.757 19.200 C 158.533 19.200,157.845 19.355,157.200 20.000 C 156.581 20.619,155.867 20.800,154.043 20.800 C 152.316 20.800,151.624 20.961,151.455 21.400 C 151.302 21.798,150.674 22.000,149.584 22.000 C 148.659 22.000,147.681 22.262,147.343 22.600 C 147.013 22.930,146.081 23.202,145.271 23.205 C 143.210 23.213,142.000 23.598,142.000 24.247 C 142.000 24.722,140.070 25.070,138.689 24.844 C 138.518 24.816,138.273 25.064,138.146 25.396 C 137.996 25.787,137.382 26.000,136.406 26.000 C 135.554 26.000,134.682 26.261,134.400 26.600 C 134.126 26.930,133.367 27.200,132.714 27.200 C 131.862 27.200,131.466 27.426,131.316 28.000 C 131.147 28.647,130.770 28.800,129.353 28.800 C 128.164 28.800,127.632 28.961,127.700 29.300 C 127.763 29.613,127.238 29.847,126.300 29.924 C 125.319 30.005,124.800 30.247,124.800 30.624 C 124.800 31.001,124.373 31.200,123.563 31.200 C 122.662 31.200,122.268 31.417,122.116 32.000 C 121.960 32.595,121.570 32.800,120.596 32.800 C 119.800 32.800,119.195 33.036,119.055 33.400 C 118.929 33.730,118.369 34.000,117.813 34.000 C 117.179 34.000,116.800 34.225,116.800 34.600 C 116.800 34.930,116.455 35.200,116.033 35.200 C 114.841 35.200,114.000 35.631,114.000 36.243 C 114.000 36.613,113.530 36.800,112.600 36.800 C 111.622 36.800,111.200 36.981,111.200 37.400 C 111.200 37.800,110.800 38.000,110.000 38.000 C 109.243 38.000,108.800 38.205,108.800 38.555 C 108.800 38.874,108.202 39.223,107.400 39.374 C 106.630 39.518,105.995 39.853,105.990 40.118 C 105.979 40.599,103.358 42.000,102.469 42.000 C 102.211 42.000,102.000 42.256,102.000 42.568 C 102.000 42.881,101.460 43.255,100.800 43.400 C 100.140 43.545,99.600 43.919,99.600 44.232 C 99.600 44.544,99.240 44.800,98.800 44.800 C 98.356 44.800,98.000 45.067,98.000 45.400 C 98.000 45.800,97.600 46.000,96.800 46.000 C 96.000 46.000,95.600 46.200,95.600 46.600 C 95.600 46.930,95.313 47.200,94.963 47.200 C 94.612 47.200,94.231 47.560,94.116 48.000 C 93.968 48.567,93.570 48.800,92.753 48.800 C 91.995 48.800,91.600 49.005,91.600 49.400 C 91.600 49.733,91.244 50.000,90.800 50.000 C 90.356 50.000,90.000 50.267,90.000 50.600 C 90.000 50.930,89.730 51.200,89.400 51.200 C 89.067 51.200,88.800 51.556,88.800 52.000 C 88.800 52.624,88.533 52.800,87.587 52.800 C 86.879 52.800,86.279 53.049,86.145 53.400 C 86.018 53.730,85.664 54.000,85.357 54.000 C 85.051 54.000,84.800 54.270,84.800 54.600 C 84.800 54.930,84.513 55.200,84.163 55.200 C 83.812 55.200,83.431 55.560,83.316 56.000 C 83.201 56.440,82.858 56.800,82.553 56.800 C 82.249 56.800,82.000 57.031,82.000 57.312 C 82.000 57.594,81.505 58.051,80.900 58.328 C 78.664 59.351,78.000 59.802,78.000 60.295 C 78.000 60.573,77.730 60.800,77.400 60.800 C 77.070 60.800,76.800 61.070,76.800 61.400 C 76.800 61.730,76.600 62.000,76.356 62.000 C 75.742 62.000,74.015 63.690,74.007 64.300 C 74.003 64.575,73.730 64.800,73.400 64.800 C 73.070 64.800,72.800 65.070,72.800 65.400 C 72.800 65.730,72.628 66.000,72.418 66.000 C 71.922 66.000,70.000 67.922,70.000 68.418 C 70.000 68.628,69.730 68.800,69.400 68.800 C 69.070 68.800,68.800 69.070,68.800 69.400 C 68.800 69.730,68.629 70.000,68.421 70.000 C 67.870 70.000,66.000 71.812,66.000 72.346 C 66.000 72.596,65.730 72.800,65.400 72.800 C 65.070 72.800,64.800 73.070,64.800 73.400 C 64.800 73.730,64.600 74.000,64.356 74.000 C 63.742 74.000,62.015 75.690,62.007 76.300 C 62.003 76.575,61.730 76.800,61.400 76.800 C 61.070 76.800,60.800 77.030,60.800 77.311 C 60.800 77.592,60.440 78.130,60.000 78.507 C 59.560 78.884,59.200 79.554,59.200 79.996 C 59.200 80.444,58.934 80.800,58.600 80.800 C 58.270 80.800,58.000 81.070,58.000 81.400 C 58.000 81.730,57.730 82.000,57.400 82.000 C 57.070 82.000,56.800 82.340,56.800 82.756 C 56.800 83.230,56.539 83.490,56.100 83.456 C 55.715 83.425,55.400 83.670,55.400 84.000 C 55.400 84.330,55.085 84.729,54.700 84.887 C 54.293 85.054,54.000 85.598,54.000 86.187 C 54.000 86.821,53.775 87.200,53.400 87.200 C 53.067 87.200,52.800 87.556,52.800 88.000 C 52.800 88.440,52.600 88.800,52.356 88.800 C 51.479 88.800,50.014 90.609,50.007 91.700 C 50.002 92.408,49.786 92.800,49.400 92.800 C 49.070 92.800,48.800 93.070,48.800 93.400 C 48.800 93.730,48.549 94.000,48.243 94.000 C 47.631 94.000,47.200 94.841,47.200 96.033 C 47.200 96.455,46.930 96.800,46.600 96.800 C 46.270 96.800,46.000 96.993,46.000 97.229 C 46.000 97.464,45.730 97.927,45.400 98.257 C 45.070 98.587,44.800 99.294,44.800 99.829 C 44.800 100.543,44.582 100.800,43.976 100.800 C 43.523 100.800,43.249 100.956,43.367 101.147 C 43.485 101.337,43.225 101.815,42.791 102.209 C 42.356 102.602,42.000 103.346,42.000 103.862 C 42.000 104.411,41.762 104.800,41.425 104.800 C 41.069 104.800,40.803 105.295,40.725 106.100 C 40.645 106.933,40.385 107.400,40.000 107.400 C 39.414 107.400,39.353 107.547,39.250 109.200 C 39.223 109.640,38.930 110.000,38.600 110.000 C 38.270 110.000,38.000 110.213,38.000 110.474 C 38.000 111.206,36.370 114.400,35.996 114.400 C 35.813 114.400,35.548 114.928,35.406 115.572 C 35.264 116.217,34.890 116.959,34.574 117.221 C 34.258 117.483,34.000 118.194,34.000 118.800 C 34.000 119.406,33.740 120.117,33.423 120.381 C 33.106 120.644,32.791 121.431,32.723 122.130 C 32.648 122.901,32.377 123.400,32.034 123.400 C 31.707 123.400,31.399 123.907,31.307 124.598 C 31.219 125.257,30.888 126.081,30.573 126.430 C 30.258 126.778,30.000 127.639,30.000 128.344 C 30.000 129.114,29.761 129.717,29.400 129.855 C 29.036 129.995,28.800 130.600,28.800 131.396 C 28.800 132.370,28.595 132.760,28.000 132.916 C 27.346 133.087,27.200 133.462,27.200 134.963 C 27.200 136.329,27.046 136.800,26.600 136.800 C 26.147 136.800,26.000 137.289,26.000 138.800 C 26.000 140.311,25.853 140.800,25.400 140.800 C 24.947 140.800,24.800 141.289,24.800 142.800 C 24.800 144.243,24.645 144.800,24.243 144.800 C 23.488 144.800,23.200 145.692,23.200 148.033 C 23.200 149.515,23.052 150.000,22.600 150.000 C 22.124 150.000,22.000 150.578,22.000 152.800 C 22.000 154.827,21.862 155.572,21.500 155.500 C 21.148 155.430,20.965 156.202,20.882 158.100 C 20.790 160.192,20.627 160.800,20.158 160.800 C 19.825 160.800,19.656 160.968,19.783 161.172 C 19.909 161.377,19.830 161.658,19.607 161.796 C 19.383 161.934,19.200 163.567,19.200 165.424 C 19.200 168.047,19.075 168.800,18.642 168.800 C 18.195 168.800,18.071 169.855,18.023 174.068 C 17.963 179.401,17.844 180.198,17.172 179.783 C 16.945 179.642,16.800 186.406,16.800 197.189 C 16.800 212.497,16.879 214.856,17.400 215.055 C 17.888 215.243,18.000 216.200,18.000 220.194 C 18.000 224.069,18.126 225.207,18.600 225.600 C 19.036 225.962,19.201 226.930,19.205 229.149 C 19.212 232.820,19.503 234.123,20.253 233.835 C 20.683 233.670,20.800 234.211,20.800 236.364 C 20.800 238.310,20.974 239.246,21.400 239.600 C 21.806 239.937,22.000 240.842,22.000 242.400 C 22.000 243.958,22.194 244.863,22.600 245.200 C 22.940 245.483,23.200 246.355,23.200 247.216 C 23.200 249.123,23.528 250.000,24.243 250.000 C 24.645 250.000,24.800 250.557,24.800 252.000 C 24.800 253.511,24.947 254.000,25.400 254.000 C 25.853 254.000,26.000 254.489,26.000 256.000 C 26.000 257.511,26.147 258.000,26.600 258.000 C 27.154 258.000,27.447 259.476,27.223 261.131 C 27.183 261.423,27.522 261.759,27.975 261.878 C 28.631 262.049,28.800 262.414,28.800 263.659 C 28.800 264.682,29.008 265.305,29.400 265.455 C 29.737 265.585,30.000 266.180,30.000 266.814 C 30.000 267.435,30.271 268.214,30.602 268.545 C 30.934 268.876,31.243 269.609,31.290 270.174 C 31.346 270.860,31.611 271.200,32.087 271.200 C 32.648 271.200,32.800 271.530,32.800 272.751 C 32.800 273.642,33.055 274.514,33.400 274.800 C 33.730 275.074,34.000 275.776,34.000 276.360 C 34.000 276.944,34.360 277.730,34.800 278.107 C 35.240 278.484,35.600 279.154,35.600 279.596 C 35.600 280.044,35.866 280.400,36.200 280.400 C 36.601 280.400,36.800 280.801,36.800 281.613 C 36.800 282.321,37.049 282.921,37.400 283.055 C 37.730 283.182,38.000 283.553,38.000 283.880 C 38.000 284.206,38.358 284.928,38.795 285.484 C 39.232 286.039,39.491 286.653,39.371 286.847 C 39.251 287.041,39.523 287.200,39.976 287.200 C 40.651 287.200,40.800 287.453,40.800 288.600 C 40.800 289.578,40.981 290.000,41.400 290.000 C 41.957 290.000,42.187 290.694,42.030 291.900 C 41.994 292.175,42.231 292.400,42.556 292.400 C 42.880 292.400,43.260 292.760,43.400 293.200 C 43.540 293.640,43.912 294.000,44.227 294.000 C 44.598 294.000,44.800 294.427,44.800 295.213 C 44.800 295.921,45.049 296.521,45.400 296.655 C 45.730 296.782,46.000 297.136,46.000 297.443 C 46.000 297.749,46.270 298.000,46.600 298.000 C 46.973 298.000,47.200 298.377,47.200 298.997 C 47.200 299.560,47.548 300.210,48.000 300.493 C 48.440 300.768,48.800 301.219,48.800 301.496 C 48.800 301.773,49.070 302.000,49.400 302.000 C 49.800 302.000,50.000 302.400,50.000 303.200 C 50.000 304.000,50.200 304.400,50.600 304.400 C 50.930 304.400,51.200 304.687,51.200 305.037 C 51.200 305.388,51.560 305.769,52.000 305.884 C 52.440 305.999,52.800 306.320,52.800 306.598 C 52.800 306.875,53.070 307.326,53.400 307.600 C 53.730 307.874,54.000 308.442,54.000 308.862 C 54.000 309.281,54.270 309.729,54.600 309.855 C 54.930 309.982,55.200 310.336,55.200 310.643 C 55.200 310.949,55.560 311.200,56.000 311.200 C 56.533 311.200,56.800 311.467,56.800 312.000 C 56.800 312.444,57.067 312.800,57.400 312.800 C 57.730 312.800,58.000 312.980,58.000 313.200 C 58.000 313.420,58.360 313.960,58.800 314.400 C 59.240 314.840,59.600 315.470,59.600 315.800 C 59.600 316.130,59.870 316.400,60.200 316.400 C 60.533 316.400,60.800 316.756,60.800 317.200 C 60.800 317.644,61.067 318.000,61.400 318.000 C 61.730 318.000,62.000 318.270,62.000 318.600 C 62.000 318.930,62.270 319.200,62.600 319.200 C 62.930 319.200,63.200 319.487,63.200 319.837 C 63.200 320.188,63.560 320.569,64.000 320.684 C 64.440 320.799,64.800 321.142,64.800 321.447 C 64.800 321.751,65.070 322.000,65.400 322.000 C 65.730 322.000,66.000 322.270,66.000 322.600 C 66.000 322.930,66.172 323.200,66.382 323.200 C 66.878 323.200,68.800 325.122,68.800 325.618 C 68.800 325.828,69.070 326.000,69.400 326.000 C 69.730 326.000,70.000 326.270,70.000 326.600 C 70.000 326.930,70.172 327.200,70.382 327.200 C 70.878 327.200,72.800 329.122,72.800 329.618 C 72.800 329.828,73.070 330.000,73.400 330.000 C 73.730 330.000,74.000 330.270,74.000 330.600 C 74.000 330.930,74.270 331.200,74.600 331.200 C 74.930 331.200,75.200 331.487,75.200 331.837 C 75.200 332.188,75.560 332.569,76.000 332.684 C 76.440 332.799,76.800 333.142,76.800 333.447 C 76.800 333.751,77.070 334.000,77.400 334.000 C 77.730 334.000,78.000 334.270,78.000 334.600 C 78.000 334.933,78.356 335.200,78.800 335.200 C 79.244 335.200,79.600 335.467,79.600 335.800 C 79.600 336.130,79.870 336.400,80.200 336.400 C 80.530 336.400,81.160 336.760,81.600 337.200 C 82.040 337.640,82.580 338.000,82.800 338.000 C 83.020 338.000,83.200 338.270,83.200 338.600 C 83.200 338.933,83.556 339.200,84.000 339.200 C 84.452 339.200,84.800 339.467,84.800 339.813 C 84.800 340.150,85.149 340.555,85.576 340.713 C 86.003 340.871,86.408 341.176,86.476 341.391 C 86.544 341.606,86.841 341.818,87.135 341.861 C 87.429 341.904,87.984 342.223,88.367 342.570 C 88.750 342.916,89.274 343.200,89.531 343.200 C 89.789 343.200,90.000 343.487,90.000 343.837 C 90.000 344.188,90.360 344.569,90.800 344.684 C 91.240 344.799,91.600 345.142,91.600 345.447 C 91.600 345.795,92.045 346.000,92.800 346.000 C 93.600 346.000,94.000 346.200,94.000 346.600 C 94.000 346.930,94.227 347.200,94.504 347.200 C 94.781 347.200,95.232 347.560,95.507 348.000 C 95.790 348.452,96.440 348.800,97.003 348.800 C 97.623 348.800,98.000 349.027,98.000 349.400 C 98.000 349.730,98.248 350.000,98.551 350.000 C 98.854 350.000,99.326 350.270,99.600 350.600 C 99.874 350.930,100.526 351.200,101.049 351.200 C 101.608 351.200,102.000 351.436,102.000 351.773 C 102.000 352.088,102.343 352.455,102.763 352.588 C 103.183 352.721,103.627 353.094,103.750 353.415 C 103.874 353.737,104.431 354.000,104.987 354.000 C 105.621 354.000,106.000 354.225,106.000 354.600 C 106.000 355.019,106.422 355.200,107.400 355.200 C 108.478 355.200,108.800 355.365,108.800 355.915 C 108.800 356.368,109.127 356.654,109.692 356.697 C 110.183 356.734,110.788 357.042,111.036 357.382 C 111.285 357.722,111.796 358.000,112.173 358.000 C 112.549 358.000,113.127 358.270,113.457 358.600 C 113.787 358.930,114.404 359.200,114.829 359.200 C 115.253 359.200,115.600 359.389,115.600 359.620 C 115.600 359.852,116.218 360.299,116.973 360.614 C 117.728 360.930,118.434 361.331,118.542 361.507 C 118.651 361.682,119.338 361.868,120.070 361.921 C 120.801 361.974,121.600 362.283,121.844 362.608 C 122.088 362.934,122.853 363.200,123.544 363.200 C 124.533 363.200,124.800 363.370,124.800 364.000 C 124.800 364.624,125.067 364.800,126.013 364.800 C 126.721 364.800,127.321 365.049,127.455 365.400 C 127.605 365.789,128.225 366.000,129.223 366.000 C 130.134 366.000,130.891 366.231,131.080 366.568 C 131.256 366.880,132.030 367.195,132.800 367.268 C 133.570 367.341,134.140 367.560,134.066 367.755 C 133.848 368.332,134.895 368.787,136.457 368.794 C 137.379 368.798,137.999 369.020,138.145 369.400 C 138.302 369.811,138.945 370.000,140.187 370.000 C 141.532 370.000,142.000 370.155,142.000 370.600 C 142.000 371.047,142.473 371.200,143.856 371.200 C 145.053 371.200,145.869 371.415,146.156 371.807 C 146.409 372.153,147.547 372.523,148.800 372.667 C 150.010 372.806,151.144 373.163,151.320 373.460 C 151.536 373.824,152.478 374.000,154.220 374.000 C 156.247 374.000,156.800 374.129,156.800 374.600 C 156.800 375.082,157.412 375.200,159.904 375.200 C 162.574 375.200,163.077 375.312,163.507 376.000 C 163.946 376.702,164.440 376.800,167.561 376.800 C 170.351 376.800,171.164 376.929,171.345 377.400 C 171.535 377.897,172.612 378.000,177.587 378.000 C 182.665 378.000,183.600 378.093,183.600 378.600 C 183.600 379.122,185.467 379.200,198.000 379.200 C 210.533 379.200,212.400 379.122,212.400 378.600 C 212.400 378.093,213.335 378.000,218.413 378.000 C 223.388 378.000,224.465 377.897,224.655 377.400 C 224.836 376.929,225.649 376.800,228.439 376.800 C 231.560 376.800,232.054 376.702,232.493 376.000 C 232.923 375.312,233.426 375.200,236.096 375.200 C 238.588 375.200,239.200 375.082,239.200 374.600 C 239.200 374.129,239.753 374.000,241.780 374.000 C 243.522 374.000,244.464 373.824,244.680 373.460 C 244.856 373.163,245.990 372.806,247.200 372.667 C 248.453 372.523,249.591 372.153,249.844 371.807 C 250.131 371.415,250.947 371.200,252.144 371.200 C 253.527 371.200,254.000 371.047,254.000 370.600 C 254.000 370.155,254.468 370.000,255.813 370.000 C 257.055 370.000,257.698 369.811,257.855 369.400 C 257.996 369.034,258.602 368.800,259.410 368.800 C 261.131 368.800,262.000 368.450,262.000 367.757 C 262.000 367.390,262.464 367.200,263.357 367.200 C 264.195 367.200,264.803 366.970,264.945 366.600 C 265.095 366.208,265.718 366.000,266.745 366.000 C 267.771 366.000,268.394 365.792,268.545 365.400 C 268.679 365.049,269.279 364.800,269.987 364.800 C 270.933 364.800,271.200 364.624,271.200 364.000 C 271.200 363.370,271.467 363.200,272.456 363.200 C 273.147 363.200,273.912 362.934,274.156 362.608 C 274.400 362.283,275.199 361.974,275.930 361.921 C 276.662 361.868,277.349 361.682,277.458 361.507 C 277.566 361.331,278.272 360.930,279.027 360.614 C 279.782 360.299,280.400 359.852,280.400 359.620 C 280.400 359.389,280.747 359.200,281.171 359.200 C 281.596 359.200,282.213 358.930,282.543 358.600 C 282.873 358.270,283.451 358.000,283.827 358.000 C 284.204 358.000,284.715 357.722,284.964 357.382 C 285.212 357.042,285.817 356.734,286.308 356.697 C 286.873 356.654,287.200 356.368,287.200 355.915 C 287.200 355.365,287.522 355.200,288.600 355.200 C 289.578 355.200,290.000 355.019,290.000 354.600 C 290.000 354.225,290.379 354.000,291.013 354.000 C 291.569 354.000,292.126 353.737,292.250 353.415 C 292.373 353.094,292.817 352.721,293.237 352.588 C 293.657 352.455,294.000 352.088,294.000 351.773 C 294.000 351.436,294.392 351.200,294.951 351.200 C 295.474 351.200,296.126 350.930,296.400 350.600 C 296.674 350.270,297.146 350.000,297.449 350.000 C 297.752 350.000,298.000 349.730,298.000 349.400 C 298.000 349.027,298.377 348.800,298.997 348.800 C 299.560 348.800,300.210 348.452,300.493 348.000 C 300.768 347.560,301.219 347.200,301.496 347.200 C 301.773 347.200,302.000 346.930,302.000 346.600 C 302.000 346.200,302.400 346.000,303.200 346.000 C 303.955 346.000,304.400 345.795,304.400 345.447 C 304.400 345.142,304.760 344.799,305.200 344.684 C 305.640 344.569,306.000 344.188,306.000 343.837 C 306.000 343.487,306.211 343.200,306.469 343.200 C 306.726 343.200,307.250 342.916,307.633 342.570 C 308.016 342.223,308.621 341.897,308.976 341.845 C 309.331 341.793,309.628 341.581,309.635 341.375 C 309.642 341.169,309.997 340.871,310.424 340.713 C 310.851 340.555,311.200 340.150,311.200 339.813 C 311.200 339.467,311.548 339.200,312.000 339.200 C 312.444 339.200,312.800 338.933,312.800 338.600 C 312.800 338.270,312.980 338.000,313.200 338.000 C 313.420 338.000,313.960 337.640,314.400 337.200 C 314.840 336.760,315.470 336.400,315.800 336.400 C 316.130 336.400,316.400 336.130,316.400 335.800 C 316.400 335.467,316.756 335.200,317.200 335.200 C 317.644 335.200,318.000 334.933,318.000 334.600 C 318.000 334.270,318.270 334.000,318.600 334.000 C 318.930 334.000,319.200 333.751,319.200 333.447 C 319.200 333.142,319.560 332.799,320.000 332.684 C 320.440 332.569,320.800 332.188,320.800 331.837 C 320.800 331.487,321.070 331.200,321.400 331.200 C 321.730 331.200,322.000 330.930,322.000 330.600 C 322.000 330.270,322.270 330.000,322.600 330.000 C 322.930 330.000,323.200 329.828,323.200 329.618 C 323.200 329.122,325.122 327.200,325.618 327.200 C 325.828 327.200,326.000 326.930,326.000 326.600 C 326.000 326.270,326.270 326.000,326.600 326.000 C 326.930 326.000,327.200 325.828,327.200 325.618 C 327.200 325.122,329.122 323.200,329.618 323.200 C 329.828 323.200,330.000 322.930,330.000 322.600 C 330.000 322.270,330.270 322.000,330.600 322.000 C 330.930 322.000,331.200 321.751,331.200 321.447 C 331.200 321.142,331.560 320.799,332.000 320.684 C 332.440 320.569,332.800 320.188,332.800 319.837 C 332.800 319.487,333.070 319.200,333.400 319.200 C 333.730 319.200,334.000 318.930,334.000 318.600 C 334.000 318.270,334.270 318.000,334.600 318.000 C 334.933 318.000,335.200 317.644,335.200 317.200 C 335.200 316.756,335.467 316.400,335.800 316.400 C 336.130 316.400,336.400 316.130,336.400 315.800 C 336.400 315.470,336.760 314.840,337.200 314.400 C 337.640 313.960,338.000 313.420,338.000 313.200 C 338.000 312.980,338.270 312.800,338.600 312.800 C 338.933 312.800,339.200 312.444,339.200 312.000 C 339.200 311.467,339.467 311.200,340.000 311.200 C 340.440 311.200,340.800 310.949,340.800 310.643 C 340.800 310.336,341.070 309.982,341.400 309.855 C 341.730 309.729,342.000 309.281,342.000 308.862 C 342.000 308.442,342.270 307.874,342.600 307.600 C 342.930 307.326,343.200 306.875,343.200 306.598 C 343.200 306.320,343.560 305.999,344.000 305.884 C 344.440 305.769,344.800 305.388,344.800 305.037 C 344.800 304.687,345.070 304.400,345.400 304.400 C 345.800 304.400,346.000 304.000,346.000 303.200 C 346.000 302.400,346.200 302.000,346.600 302.000 C 346.930 302.000,347.200 301.773,347.200 301.496 C 347.200 301.219,347.560 300.768,348.000 300.493 C 348.452 300.210,348.800 299.560,348.800 298.997 C 348.800 298.377,349.027 298.000,349.400 298.000 C 349.730 298.000,350.000 297.749,350.000 297.443 C 350.000 297.136,350.270 296.782,350.600 296.655 C 350.951 296.521,351.200 295.921,351.200 295.213 C 351.200 294.427,351.402 294.000,351.773 294.000 C 352.088 294.000,352.460 293.640,352.600 293.200 C 352.740 292.760,353.120 292.400,353.444 292.400 C 353.769 292.400,354.006 292.175,353.970 291.900 C 353.813 290.694,354.043 290.000,354.600 290.000 C 355.019 290.000,355.200 289.578,355.200 288.600 C 355.200 287.453,355.349 287.200,356.024 287.200 C 356.477 287.200,356.749 287.041,356.629 286.847 C 356.509 286.653,356.768 286.039,357.205 285.484 C 357.642 284.928,358.000 284.206,358.000 283.880 C 358.000 283.553,358.270 283.182,358.600 283.055 C 358.951 282.921,359.200 282.321,359.200 281.613 C 359.200 280.801,359.399 280.400,359.800 280.400 C 360.134 280.400,360.400 280.044,360.400 279.596 C 360.400 279.154,360.760 278.484,361.200 278.107 C 361.640 277.730,362.000 276.944,362.000 276.360 C 362.000 275.776,362.270 275.074,362.600 274.800 C 362.945 274.514,363.200 273.642,363.200 272.751 C 363.200 271.530,363.352 271.200,363.913 271.200 C 364.389 271.200,364.654 270.860,364.710 270.174 C 364.757 269.609,365.066 268.876,365.398 268.545 C 365.729 268.214,366.000 267.435,366.000 266.814 C 366.000 266.180,366.263 265.585,366.600 265.455 C 366.992 265.305,367.200 264.682,367.200 263.659 C 367.200 262.414,367.369 262.049,368.025 261.878 C 368.478 261.759,368.817 261.423,368.777 261.131 C 368.553 259.476,368.846 258.000,369.400 258.000 C 369.853 258.000,370.000 257.511,370.000 256.000 C 370.000 254.489,370.147 254.000,370.600 254.000 C 371.053 254.000,371.200 253.511,371.200 252.000 C 371.200 250.557,371.355 250.000,371.757 250.000 C 372.472 250.000,372.800 249.123,372.800 247.216 C 372.800 246.355,373.060 245.483,373.400 245.200 C 373.806 244.863,374.000 243.958,374.000 242.400 C 374.000 240.842,374.194 239.937,374.600 239.600 C 375.026 239.246,375.200 238.310,375.200 236.364 C 375.200 234.211,375.317 233.670,375.747 233.835 C 376.497 234.123,376.788 232.820,376.795 229.149 C 376.799 226.930,376.964 225.962,377.400 225.600 C 377.874 225.207,378.000 224.069,378.000 220.194 C 378.000 216.200,378.112 215.243,378.600 215.055 C 379.121 214.856,379.200 212.497,379.200 197.189 C 379.200 186.406,379.055 179.642,378.828 179.783 C 378.156 180.198,378.037 179.401,377.977 174.068 C 377.929 169.855,377.805 168.800,377.358 168.800 C 376.925 168.800,376.800 168.047,376.800 165.424 C 376.800 163.567,376.617 161.934,376.393 161.796 C 376.170 161.658,376.091 161.377,376.217 161.172 C 376.344 160.968,376.175 160.800,375.842 160.800 C 375.373 160.800,375.210 160.192,375.118 158.100 C 375.035 156.202,374.852 155.430,374.500 155.500 C 374.138 155.572,374.000 154.827,374.000 152.800 C 374.000 150.578,373.876 150.000,373.400 150.000 C 372.948 150.000,372.800 149.515,372.800 148.033 C 372.800 145.692,372.512 144.800,371.757 144.800 C 371.355 144.800,371.200 144.243,371.200 142.800 C 371.200 141.289,371.053 140.800,370.600 140.800 C 370.147 140.800,370.000 140.311,370.000 138.800 C 370.000 137.289,369.853 136.800,369.400 136.800 C 368.954 136.800,368.800 136.329,368.800 134.963 C 368.800 133.462,368.654 133.087,368.000 132.916 C 367.405 132.760,367.200 132.370,367.200 131.396 C 367.200 130.600,366.964 129.995,366.600 129.855 C 366.239 129.717,366.000 129.114,366.000 128.344 C 366.000 127.639,365.742 126.778,365.427 126.430 C 365.112 126.081,364.781 125.257,364.693 124.598 C 364.601 123.907,364.293 123.400,363.966 123.400 C 363.623 123.400,363.352 122.901,363.277 122.130 C 363.209 121.431,362.894 120.644,362.577 120.381 C 362.260 120.117,362.000 119.406,362.000 118.800 C 362.000 118.194,361.742 117.483,361.426 117.221 C 361.110 116.959,360.736 116.217,360.594 115.572 C 360.452 114.928,360.187 114.400,360.004 114.400 C 359.630 114.400,358.000 111.206,358.000 110.474 C 358.000 110.213,357.730 110.000,357.400 110.000 C 357.070 110.000,356.778 109.640,356.750 109.200 C 356.647 107.547,356.586 107.400,356.000 107.400 C 355.615 107.400,355.355 106.933,355.275 106.100 C 355.197 105.295,354.931 104.800,354.575 104.800 C 354.238 104.800,354.000 104.411,354.000 103.862 C 354.000 103.346,353.644 102.602,353.209 102.209 C 352.775 101.815,352.515 101.337,352.633 101.147 C 352.751 100.956,352.477 100.800,352.024 100.800 C 351.418 100.800,351.200 100.543,351.200 99.829 C 351.200 99.294,350.930 98.587,350.600 98.257 C 350.270 97.927,350.000 97.464,350.000 97.229 C 350.000 96.993,349.730 96.800,349.400 96.800 C 349.070 96.800,348.800 96.455,348.800 96.033 C 348.800 94.841,348.369 94.000,347.757 94.000 C 347.451 94.000,347.200 93.730,347.200 93.400 C 347.200 93.070,346.930 92.800,346.600 92.800 C 346.214 92.800,345.998 92.408,345.993 91.700 C 345.986 90.609,344.521 88.800,343.644 88.800 C 343.400 88.800,343.200 88.440,343.200 88.000 C 343.200 87.556,342.933 87.200,342.600 87.200 C 342.225 87.200,342.000 86.821,342.000 86.187 C 342.000 85.598,341.707 85.054,341.300 84.887 C 340.915 84.729,340.600 84.330,340.600 84.000 C 340.600 83.670,340.285 83.425,339.900 83.456 C 339.461 83.490,339.200 83.230,339.200 82.756 C 339.200 82.340,338.930 82.000,338.600 82.000 C 338.270 82.000,338.000 81.730,338.000 81.400 C 338.000 81.070,337.730 80.800,337.400 80.800 C 337.066 80.800,336.800 80.444,336.800 79.996 C 336.800 79.554,336.440 78.884,336.000 78.507 C 335.560 78.130,335.200 77.592,335.200 77.311 C 335.200 77.030,334.930 76.800,334.600 76.800 C 334.270 76.800,333.997 76.575,333.993 76.300 C 333.985 75.690,332.258 74.000,331.644 74.000 C 331.400 74.000,331.200 73.730,331.200 73.400 C 331.200 73.070,330.930 72.800,330.600 72.800 C 330.270 72.800,330.000 72.596,330.000 72.346 C 330.000 71.812,328.130 70.000,327.579 70.000 C 327.371 70.000,327.200 69.730,327.200 69.400 C 327.200 69.070,326.930 68.800,326.600 68.800 C 326.270 68.800,326.000 68.628,326.000 68.418 C 326.000 67.922,324.078 66.000,323.582 66.000 C 323.372 66.000,323.200 65.730,323.200 65.400 C 323.200 65.070,322.930 64.800,322.600 64.800 C 322.270 64.800,321.997 64.575,321.993 64.300 C 321.985 63.690,320.258 62.000,319.644 62.000 C 319.400 62.000,319.200 61.730,319.200 61.400 C 319.200 61.070,318.930 60.800,318.600 60.800 C 318.270 60.800,318.000 60.573,318.000 60.295 C 318.000 59.802,317.336 59.351,315.100 58.328 C 314.495 58.051,314.000 57.594,314.000 57.312 C 314.000 57.031,313.730 56.800,313.400 56.800 C 313.070 56.800,312.800 56.513,312.800 56.163 C 312.800 55.812,312.440 55.431,312.000 55.316 C 311.560 55.201,311.200 54.858,311.200 54.553 C 311.200 54.249,310.949 54.000,310.643 54.000 C 310.336 54.000,309.982 53.730,309.855 53.400 C 309.721 53.049,309.121 52.800,308.413 52.800 C 307.467 52.800,307.200 52.624,307.200 52.000 C 307.200 51.556,306.933 51.200,306.600 51.200 C 306.270 51.200,306.000 50.930,306.000 50.600 C 306.000 50.267,305.644 50.000,305.200 50.000 C 304.756 50.000,304.400 49.733,304.400 49.400 C 304.400 49.000,304.000 48.800,303.200 48.800 C 302.369 48.800,302.000 48.604,302.000 48.163 C 302.000 47.812,301.640 47.431,301.200 47.316 C 300.760 47.201,300.400 46.858,300.400 46.553 C 300.400 46.205,299.955 46.000,299.200 46.000 C 298.400 46.000,298.000 45.800,298.000 45.400 C 298.000 45.067,297.644 44.800,297.200 44.800 C 296.760 44.800,296.400 44.544,296.400 44.232 C 296.400 43.919,295.860 43.545,295.200 43.400 C 294.540 43.255,294.000 42.881,294.000 42.568 C 294.000 42.256,293.789 42.000,293.531 42.000 C 292.642 42.000,290.021 40.599,290.010 40.118 C 290.005 39.853,289.370 39.518,288.600 39.374 C 287.798 39.223,287.200 38.874,287.200 38.555 C 287.200 38.205,286.757 38.000,286.000 38.000 C 285.200 38.000,284.800 37.800,284.800 37.400 C 284.800 36.981,284.378 36.800,283.400 36.800 C 282.470 36.800,282.000 36.613,282.000 36.243 C 282.000 35.631,281.159 35.200,279.967 35.200 C 279.545 35.200,279.200 34.930,279.200 34.600 C 279.200 34.225,278.821 34.000,278.187 34.000 C 277.631 34.000,277.071 33.730,276.945 33.400 C 276.805 33.036,276.200 32.800,275.404 32.800 C 274.430 32.800,274.040 32.595,273.884 32.000 C 273.732 31.417,273.338 31.200,272.437 31.200 C 271.627 31.200,271.200 31.001,271.200 30.624 C 271.200 30.247,270.681 30.005,269.700 29.924 C 268.762 29.847,268.237 29.613,268.300 29.300 C 268.368 28.961,267.836 28.800,266.647 28.800 C 265.230 28.800,264.853 28.647,264.684 28.000 C 264.534 27.426,264.138 27.200,263.286 27.200 C 262.633 27.200,261.874 26.930,261.600 26.600 C 261.318 26.261,260.446 26.000,259.594 26.000 C 258.618 26.000,258.004 25.787,257.854 25.396 C 257.727 25.064,257.482 24.816,257.311 24.844 C 255.930 25.070,254.000 24.722,254.000 24.247 C 254.000 23.598,252.790 23.213,250.729 23.205 C 249.919 23.202,248.987 22.930,248.657 22.600 C 248.319 22.262,247.341 22.000,246.416 22.000 C 245.326 22.000,244.698 21.798,244.545 21.400 C 244.376 20.961,243.684 20.800,241.957 20.800 C 240.133 20.800,239.419 20.619,238.800 20.000 C 238.155 19.355,237.467 19.200,235.243 19.200 C 233.161 19.200,232.429 19.053,232.255 18.600 C 232.073 18.125,231.237 18.000,228.255 18.000 C 225.273 18.000,224.437 17.875,224.255 17.400 C 224.064 16.901,222.944 16.800,217.613 16.800 C 212.535 16.800,211.200 16.689,211.200 16.267 C 211.200 15.973,210.975 15.681,210.700 15.617 C 209.869 15.423,186.668 15.300,185.700 15.484 M216.600 19.381 C 218.360 19.706,220.880 19.981,222.200 19.992 C 223.520 20.003,225.050 20.239,225.600 20.518 L 226.600 21.024 226.800 94.726 C 226.976 159.659,227.071 168.474,227.600 168.808 C 227.972 169.044,255.827 169.190,301.020 169.194 C 357.118 169.199,373.950 169.310,374.320 169.680 C 374.584 169.944,374.800 170.889,374.800 171.780 C 374.800 172.671,375.069 174.840,375.398 176.600 C 376.740 183.772,376.739 210.998,375.396 218.200 C 375.068 219.960,374.799 222.120,374.797 223.000 C 374.794 225.567,374.109 227.477,373.094 227.750 C 372.602 227.881,339.701 227.992,299.980 227.995 C 244.348 227.999,227.650 228.110,227.280 228.480 C 226.910 228.850,226.799 245.549,226.794 301.180 C 226.791 340.901,226.651 373.616,226.483 373.880 C 226.315 374.144,224.923 374.471,223.389 374.607 C 221.855 374.743,218.890 375.132,216.800 375.471 C 211.226 376.375,185.106 376.374,179.198 375.469 C 176.889 375.115,173.796 374.716,172.325 374.583 C 170.615 374.429,169.460 374.113,169.125 373.709 C 168.698 373.195,168.563 359.597,168.400 300.639 L 168.200 228.200 95.200 227.996 C 55.050 227.884,22.163 227.749,22.119 227.696 C 21.789 227.305,21.204 224.307,21.203 223.000 C 21.201 222.120,20.931 219.960,20.602 218.200 C 19.260 211.028,19.261 183.802,20.604 176.600 C 20.932 174.840,21.200 172.657,21.200 171.749 C 21.200 170.841,21.443 169.896,21.740 169.650 C 22.133 169.324,42.120 169.175,95.240 169.101 L 168.200 169.000 168.400 95.200 L 168.600 21.400 170.000 20.701 C 170.820 20.291,172.311 20.000,173.600 19.998 C 174.810 19.997,176.880 19.797,178.200 19.555 C 184.927 18.322,210.250 18.207,216.600 19.381 M146.400 77.800 C 146.400 114.354,146.275 129.200,145.968 129.200 C 145.730 129.200,144.605 128.597,143.468 127.861 C 142.331 127.124,139.510 125.293,137.200 123.793 C 134.890 122.293,131.470 120.075,129.600 118.865 C 126.161 116.640,121.890 113.866,114.600 109.122 C 112.400 107.690,109.250 105.655,107.600 104.600 C 105.950 103.545,102.800 101.511,100.600 100.080 C 98.400 98.650,95.610 96.850,94.400 96.080 C 93.190 95.311,90.760 93.744,89.000 92.597 C 83.415 88.959,77.467 85.104,75.400 83.784 C 66.842 78.318,66.400 77.990,66.400 77.096 C 66.400 75.141,85.235 57.788,93.204 52.400 C 93.692 52.070,94.870 51.215,95.822 50.500 C 96.773 49.785,97.642 49.200,97.751 49.200 C 97.861 49.200,99.676 48.030,101.785 46.600 C 103.894 45.170,105.715 44.000,105.832 44.000 C 105.949 44.000,107.789 42.973,109.922 41.717 C 113.734 39.474,121.067 35.731,125.000 34.021 C 126.100 33.543,127.540 32.903,128.200 32.599 C 128.860 32.295,131.110 31.394,133.200 30.596 C 135.290 29.798,137.591 28.888,138.314 28.573 C 139.036 28.258,139.909 28.000,140.253 28.000 C 140.597 28.000,141.446 27.746,142.140 27.436 C 143.941 26.630,144.484 26.467,145.500 26.432 L 146.400 26.400 146.400 77.800 M253.847 27.394 C 254.481 27.724,255.309 27.996,255.686 27.998 C 256.064 27.999,256.964 28.258,257.686 28.573 C 258.409 28.888,260.710 29.798,262.800 30.596 C 264.890 31.394,267.140 32.295,267.800 32.599 C 268.460 32.903,269.900 33.543,271.000 34.021 C 274.933 35.731,282.266 39.474,286.078 41.717 C 288.211 42.973,290.051 44.000,290.168 44.000 C 290.285 44.000,292.106 45.170,294.215 46.600 C 296.324 48.030,298.139 49.200,298.249 49.200 C 298.358 49.200,299.227 49.785,300.178 50.500 C 301.130 51.215,302.308 52.070,302.796 52.400 C 310.352 57.509,327.200 72.834,327.200 74.599 C 327.200 75.375,324.968 77.099,320.467 79.800 C 320.100 80.020,317.190 81.928,314.000 84.039 C 305.708 89.528,289.862 99.943,272.800 111.118 C 268.950 113.640,265.080 116.175,264.200 116.752 C 263.320 117.328,262.420 117.941,262.200 118.113 C 261.069 118.998,250.209 126.000,249.968 126.000 C 249.812 126.000,249.576 125.715,249.443 125.367 C 249.088 124.444,249.145 26.989,249.500 26.632 C 249.912 26.219,252.445 26.663,253.847 27.394 M340.252 89.200 C 341.640 91.070,343.020 92.870,343.317 93.200 C 343.615 93.530,344.285 94.520,344.808 95.400 C 345.330 96.280,345.867 97.090,346.000 97.200 C 346.330 97.473,348.000 100.240,348.000 100.515 C 348.000 100.717,337.998 107.535,337.021 108.000 C 336.789 108.110,333.360 110.341,329.400 112.957 C 325.440 115.574,320.490 118.831,318.400 120.194 C 311.507 124.692,302.663 130.491,298.615 133.166 C 296.424 134.615,294.444 135.890,294.215 136.000 C 293.987 136.110,290.650 138.287,286.800 140.838 C 282.950 143.388,279.039 145.953,278.108 146.538 L 276.416 147.600 263.016 147.600 L 249.615 147.600 249.384 146.679 C 249.257 146.172,249.208 144.785,249.276 143.597 C 249.418 141.121,248.417 141.976,260.000 134.441 C 263.410 132.223,266.470 130.226,266.800 130.003 C 267.468 129.553,273.585 125.567,280.000 121.403 C 285.694 117.706,291.218 114.108,297.200 110.200 C 299.950 108.403,304.090 105.709,306.400 104.212 C 308.710 102.715,311.280 101.020,312.112 100.445 C 312.943 99.870,313.933 99.216,314.312 98.992 C 314.690 98.767,315.810 98.051,316.800 97.400 C 317.790 96.749,318.910 96.033,319.288 95.808 C 319.667 95.584,320.657 94.928,321.488 94.350 C 322.913 93.361,331.663 87.611,333.400 86.524 C 336.778 84.408,336.659 84.361,340.252 89.200 M49.317 100.819 C 49.583 101.050,50.806 101.905,52.036 102.719 C 57.755 106.508,62.618 109.796,62.800 109.997 C 63.017 110.237,64.976 111.544,66.096 112.195 C 66.917 112.673,78.417 120.443,79.000 120.915 C 79.220 121.093,80.406 121.905,81.636 122.719 C 82.865 123.534,86.253 125.820,89.164 127.800 C 92.076 129.780,95.426 132.030,96.610 132.800 C 97.793 133.570,100.852 135.640,103.407 137.400 C 105.962 139.160,109.015 141.230,110.193 142.000 C 114.743 144.976,115.901 145.831,116.557 146.700 L 117.237 147.600 99.839 147.600 L 82.440 147.600 80.305 146.300 C 79.131 145.585,77.457 144.498,76.585 143.884 C 75.083 142.827,66.786 137.291,62.716 134.631 C 49.200 125.796,38.583 118.469,38.475 117.902 C 38.322 117.101,39.432 114.698,41.939 110.400 C 42.901 108.750,43.856 107.040,44.061 106.600 C 44.692 105.247,46.627 102.185,47.537 101.100 C 48.212 100.295,48.636 100.228,49.317 100.819 M363.234 129.617 C 363.636 130.378,364.360 132.080,364.842 133.400 C 365.325 134.720,365.963 136.367,366.260 137.060 C 366.557 137.754,366.800 138.536,366.800 138.800 C 366.800 139.064,367.039 139.846,367.332 140.540 C 370.558 148.188,371.885 147.600,351.411 147.600 L 334.075 147.600 334.538 146.607 C 334.792 146.061,335.238 145.522,335.529 145.409 C 336.071 145.198,350.620 135.644,357.800 130.784 C 362.323 127.722,362.241 127.740,363.234 129.617 M38.541 131.865 C 40.773 133.331,44.450 135.761,46.710 137.265 C 48.971 138.769,50.885 140.000,50.965 140.000 C 51.045 140.000,53.155 141.366,55.655 143.035 C 62.940 147.899,63.702 147.600,44.014 147.600 C 24.205 147.600,25.449 148.172,28.668 140.540 C 28.961 139.846,29.200 139.064,29.200 138.800 C 29.200 138.536,29.443 137.754,29.740 137.060 C 30.893 134.371,32.000 131.364,32.000 130.921 C 32.000 130.257,33.148 129.200,33.870 129.200 C 34.206 129.200,36.309 130.399,38.541 131.865 M146.512 250.033 C 147.840 252.138,146.355 254.466,142.068 257.000 C 141.696 257.220,139.593 258.587,137.396 260.037 C 135.198 261.487,130.700 264.442,127.400 266.603 C 124.100 268.765,119.602 271.718,117.404 273.166 C 115.207 274.615,113.103 275.980,112.730 276.200 C 112.357 276.420,111.009 277.320,109.735 278.200 C 108.460 279.080,107.230 279.890,107.000 280.000 C 106.770 280.110,104.786 281.388,102.591 282.841 C 97.579 286.157,88.349 292.193,82.600 295.915 C 80.180 297.481,77.390 299.320,76.400 300.000 C 75.410 300.680,71.720 303.111,68.200 305.401 C 64.680 307.690,61.583 309.752,61.317 309.982 C 60.171 310.973,59.301 310.335,56.300 306.300 C 54.623 304.045,53.008 301.923,52.711 301.585 C 52.414 301.247,51.737 300.257,51.207 299.385 C 50.676 298.513,50.125 297.710,49.981 297.600 C 48.306 296.318,48.800 295.035,51.800 292.877 C 55.844 289.967,116.833 249.626,117.400 249.485 C 119.718 248.912,146.119 249.409,146.512 250.033 M329.400 259.500 C 337.760 265.055,344.870 269.779,345.200 269.997 C 345.530 270.215,347.510 271.560,349.600 272.985 C 351.690 274.410,354.255 276.076,355.300 276.688 C 357.757 278.127,357.687 278.452,353.355 285.652 C 352.610 286.891,352.000 288.007,352.000 288.132 C 352.000 288.257,351.435 289.224,350.743 290.280 C 350.052 291.336,349.107 292.784,348.643 293.497 C 347.571 295.147,346.862 295.131,344.400 293.400 C 343.305 292.630,342.322 292.000,342.217 292.000 C 342.111 292.000,340.935 291.235,339.602 290.300 C 338.269 289.365,336.865 288.420,336.482 288.200 C 336.099 287.980,332.282 285.460,328.000 282.600 C 323.718 279.740,319.901 277.220,319.519 277.000 C 319.136 276.780,318.143 276.128,317.312 275.552 C 316.480 274.976,310.400 270.943,303.800 266.590 C 297.200 262.237,289.761 257.308,287.269 255.638 C 281.416 251.714,280.779 251.302,279.700 250.740 C 277.070 249.371,278.164 249.285,297.400 249.346 L 314.200 249.400 329.400 259.500 M60.784 249.900 C 60.775 250.065,57.596 252.270,53.719 254.800 C 49.843 257.330,44.208 261.020,41.198 263.000 C 35.066 267.033,33.963 267.712,33.831 267.528 C 33.380 266.899,31.997 263.869,31.986 263.488 C 31.979 263.219,31.625 262.280,31.200 261.400 C 30.775 260.520,30.421 259.596,30.414 259.346 C 30.406 259.096,30.131 258.376,29.802 257.746 C 29.474 257.116,29.203 256.330,29.200 256.000 C 29.197 255.670,28.937 254.906,28.622 254.302 C 28.307 253.698,27.928 252.393,27.779 251.402 L 27.509 249.600 44.155 249.600 C 53.310 249.600,60.793 249.735,60.784 249.900 M368.221 251.402 C 368.072 252.393,367.693 253.698,367.378 254.302 C 367.063 254.906,366.803 255.670,366.800 256.000 C 366.797 256.330,366.526 257.116,366.198 257.746 C 365.869 258.376,365.594 259.096,365.586 259.346 C 365.579 259.596,365.225 260.520,364.800 261.400 C 364.375 262.280,364.021 263.275,364.014 263.611 C 364.006 263.947,363.757 264.577,363.460 265.011 C 363.163 265.445,362.799 266.295,362.652 266.900 C 362.235 268.614,361.024 268.297,356.385 265.260 C 352.495 262.712,348.785 260.300,339.200 254.084 C 337.110 252.729,335.048 251.345,334.619 251.010 C 334.189 250.674,333.694 250.400,333.519 250.400 C 333.343 250.400,333.200 250.220,333.200 250.000 C 333.200 249.739,339.348 249.600,350.845 249.600 L 368.491 249.600 368.221 251.402 M250.926 269.259 C 251.407 269.512,254.410 271.426,257.600 273.513 C 267.949 280.284,269.747 281.456,273.300 283.745 C 282.207 289.484,284.058 290.689,287.822 293.199 C 290.034 294.674,292.015 295.953,292.224 296.041 C 292.434 296.128,294.764 297.621,297.403 299.358 C 300.041 301.095,303.100 303.089,304.200 303.789 C 307.425 305.841,314.280 310.317,318.710 313.265 C 320.971 314.769,322.900 316.000,322.998 316.000 C 323.489 316.000,328.000 319.370,328.000 319.738 C 328.000 320.190,319.612 328.605,316.159 331.619 C 315.036 332.598,313.524 333.921,312.798 334.557 C 311.263 335.903,304.545 341.121,303.215 342.000 C 302.716 342.330,301.923 342.892,301.454 343.250 C 298.880 345.208,292.372 349.415,287.997 351.948 C 285.249 353.539,282.730 355.000,282.400 355.195 C 281.247 355.874,274.576 359.144,271.800 360.390 C 270.260 361.082,268.460 361.890,267.800 362.187 C 266.702 362.680,265.536 363.152,262.200 364.455 C 255.547 367.052,250.581 368.555,249.733 368.230 C 249.176 368.016,248.891 270.871,249.443 269.433 C 249.733 268.677,249.803 268.669,250.926 269.259 M146.400 319.235 L 146.400 368.470 144.700 368.189 C 143.765 368.034,142.730 367.767,142.400 367.596 C 142.070 367.426,140.360 366.805,138.600 366.218 C 136.840 365.631,135.040 364.991,134.600 364.797 C 134.160 364.602,132.810 364.060,131.600 363.591 C 130.390 363.123,128.860 362.494,128.200 362.193 C 127.540 361.893,125.740 361.082,124.200 360.390 C 121.424 359.144,114.753 355.874,113.600 355.195 C 113.270 355.000,110.751 353.539,108.003 351.948 C 103.628 349.415,97.120 345.208,94.546 343.250 C 94.077 342.892,93.284 342.330,92.785 342.000 C 91.677 341.268,84.407 335.657,83.768 335.042 C 83.516 334.799,82.160 333.611,80.755 332.403 C 76.489 328.735,69.200 321.504,69.200 320.941 C 69.200 320.649,74.285 317.047,80.500 312.936 C 91.014 305.981,95.630 302.935,119.000 287.529 C 146.894 269.141,145.508 270.036,146.100 270.012 C 146.265 270.005,146.400 292.156,146.400 319.235 " stroke="none" fill="#f7f1f1" fill-rule="evenodd"></path><path id="path2" d="M185.000 18.792 C 182.580 18.970,179.520 19.313,178.200 19.555 C 176.880 19.797,174.810 19.997,173.600 19.998 C 172.311 20.000,170.820 20.291,170.000 20.701 L 168.600 21.400 168.400 95.200 L 168.200 169.000 95.240 169.101 C 42.120 169.175,22.133 169.324,21.740 169.650 C 21.443 169.896,21.200 170.841,21.200 171.749 C 21.200 172.657,20.932 174.840,20.604 176.600 C 19.261 183.802,19.260 211.028,20.602 218.200 C 20.931 219.960,21.201 222.120,21.203 223.000 C 21.204 224.307,21.789 227.305,22.119 227.696 C 22.163 227.749,55.050 227.884,95.200 227.996 L 168.200 228.200 168.400 300.639 C 168.563 359.597,168.698 373.195,169.125 373.709 C 169.460 374.113,170.615 374.429,172.325 374.583 C 173.796 374.716,176.889 375.115,179.198 375.469 C 185.106 376.374,211.226 376.375,216.800 375.471 C 218.890 375.132,221.855 374.743,223.389 374.607 C 224.923 374.471,226.315 374.144,226.483 373.880 C 226.651 373.616,226.791 340.901,226.794 301.180 C 226.799 245.549,226.910 228.850,227.280 228.480 C 227.650 228.110,244.348 227.999,299.980 227.995 C 339.701 227.992,372.602 227.881,373.094 227.750 C 374.109 227.477,374.794 225.567,374.797 223.000 C 374.799 222.120,375.068 219.960,375.396 218.200 C 376.739 210.998,376.740 183.772,375.398 176.600 C 375.069 174.840,374.800 172.671,374.800 171.780 C 374.800 170.889,374.584 169.944,374.320 169.680 C 373.950 169.310,357.118 169.199,301.020 169.194 C 255.827 169.190,227.972 169.044,227.600 168.808 C 227.071 168.474,226.976 159.659,226.800 94.726 L 226.600 21.024 225.600 20.518 C 225.050 20.239,223.520 20.003,222.200 19.992 C 220.880 19.981,218.360 19.706,216.600 19.381 C 212.803 18.679,191.851 18.288,185.000 18.792 M335.400 85.445 C 334.740 85.763,333.840 86.248,333.400 86.524 C 331.663 87.611,322.913 93.361,321.488 94.350 C 320.657 94.928,319.667 95.584,319.288 95.808 C 318.910 96.033,317.790 96.749,316.800 97.400 C 315.810 98.051,314.690 98.767,314.312 98.992 C 313.933 99.216,312.943 99.870,312.112 100.445 C 311.280 101.020,308.710 102.715,306.400 104.212 C 304.090 105.709,299.950 108.403,297.200 110.200 C 291.218 114.108,285.694 117.706,280.000 121.403 C 273.585 125.567,267.468 129.553,266.800 130.003 C 266.470 130.226,263.410 132.223,260.000 134.441 C 248.417 141.976,249.418 141.121,249.276 143.597 C 249.208 144.785,249.257 146.172,249.384 146.679 L 249.615 147.600 263.016 147.600 L 276.416 147.600 278.108 146.538 C 279.039 145.953,282.950 143.388,286.800 140.838 C 290.650 138.287,293.987 136.110,294.215 136.000 C 294.444 135.890,296.424 134.615,298.615 133.166 C 302.663 130.491,311.507 124.692,318.400 120.194 C 320.490 118.831,325.440 115.574,329.400 112.957 C 333.360 110.341,336.789 108.110,337.021 108.000 C 337.998 107.535,348.000 100.717,348.000 100.515 C 348.000 100.240,346.330 97.473,346.000 97.200 C 345.867 97.090,345.330 96.280,344.808 95.400 C 344.285 94.520,343.615 93.530,343.317 93.200 C 343.020 92.870,341.640 91.070,340.252 89.200 C 336.975 84.787,336.896 84.726,335.400 85.445 M47.537 101.100 C 46.627 102.185,44.692 105.247,44.061 106.600 C 43.856 107.040,42.901 108.750,41.939 110.400 C 39.432 114.698,38.322 117.101,38.475 117.902 C 38.583 118.469,49.200 125.796,62.716 134.631 C 66.786 137.291,75.083 142.827,76.585 143.884 C 77.457 144.498,79.131 145.585,80.305 146.300 L 82.440 147.600 99.839 147.600 L 117.237 147.600 116.557 146.700 C 115.901 145.831,114.743 144.976,110.193 142.000 C 109.015 141.230,105.962 139.160,103.407 137.400 C 100.852 135.640,97.793 133.570,96.610 132.800 C 95.426 132.030,92.076 129.780,89.164 127.800 C 86.253 125.820,82.865 123.534,81.636 122.719 C 80.406 121.905,79.220 121.093,79.000 120.915 C 78.417 120.443,66.917 112.673,66.096 112.195 C 64.976 111.544,63.017 110.237,62.800 109.997 C 62.618 109.796,57.755 106.508,52.036 102.719 C 50.806 101.905,49.583 101.050,49.317 100.819 C 48.636 100.228,48.212 100.295,47.537 101.100 M117.400 249.485 C 116.833 249.626,55.844 289.967,51.800 292.877 C 48.800 295.035,48.306 296.318,49.981 297.600 C 50.125 297.710,50.676 298.513,51.207 299.385 C 51.737 300.257,52.414 301.247,52.711 301.585 C 53.008 301.923,54.623 304.045,56.300 306.300 C 59.301 310.335,60.171 310.973,61.317 309.982 C 61.583 309.752,64.680 307.690,68.200 305.401 C 71.720 303.111,75.410 300.680,76.400 300.000 C 77.390 299.320,80.180 297.481,82.600 295.915 C 88.349 292.193,97.579 286.157,102.591 282.841 C 104.786 281.388,106.770 280.110,107.000 280.000 C 107.230 279.890,108.460 279.080,109.735 278.200 C 111.009 277.320,112.357 276.420,112.730 276.200 C 113.103 275.980,115.207 274.615,117.404 273.166 C 119.602 271.718,124.100 268.765,127.400 266.603 C 130.700 264.442,135.198 261.487,137.396 260.037 C 139.593 258.587,141.696 257.220,142.068 257.000 C 146.355 254.466,147.840 252.138,146.512 250.033 C 146.119 249.409,119.718 248.912,117.400 249.485 M279.700 249.474 C 279.205 249.574,278.800 249.794,278.800 249.964 C 278.800 250.133,279.205 250.482,279.700 250.740 C 280.779 251.302,281.416 251.714,287.269 255.638 C 289.761 257.308,297.200 262.237,303.800 266.590 C 310.400 270.943,316.480 274.976,317.312 275.552 C 318.143 276.128,319.136 276.780,319.519 277.000 C 319.901 277.220,323.718 279.740,328.000 282.600 C 332.282 285.460,336.099 287.980,336.482 288.200 C 336.865 288.420,338.269 289.365,339.602 290.300 C 340.935 291.235,342.111 292.000,342.217 292.000 C 342.322 292.000,343.305 292.630,344.400 293.400 C 346.862 295.131,347.571 295.147,348.643 293.497 C 349.107 292.784,350.052 291.336,350.743 290.280 C 351.435 289.224,352.000 288.257,352.000 288.132 C 352.000 288.007,352.610 286.891,353.355 285.652 C 357.687 278.452,357.757 278.127,355.300 276.688 C 354.255 276.076,351.690 274.410,349.600 272.985 C 347.510 271.560,345.530 270.215,345.200 269.997 C 344.870 269.779,337.760 265.055,329.400 259.500 L 314.200 249.400 297.400 249.346 C 288.160 249.317,280.195 249.374,279.700 249.474 " stroke="none" fill="#cc1434" fill-rule="evenodd"></path></g></svg>