<?xml version="1.0" standalone="no"?>
<!DOCTYPE svg PUBLIC "-//W3C//DTD SVG 20010904//EN"
 "http://www.w3.org/TR/2001/REC-SVG-20010904/DTD/svg10.dtd">
<svg version="1.0" xmlns="http://www.w3.org/2000/svg"
 width="874.000000pt" height="343.000000pt" viewBox="0 0 874.000000 343.000000"
 preserveAspectRatio="xMidYMid meet">

<g transform="translate(0.000000,343.000000) scale(0.100000,-0.100000)"
fill="#000000" stroke="none">
<path d="M0 1715 l0 -1715 4370 0 4370 0 0 1715 0 1715 -746 0 c-705 0 -745
-1 -740 -17 3 -10 10 -38 16 -63 7 -25 16 -48 22 -51 5 -3 35 -2 66 2 31 5 75
11 97 14 l39 6 -21 -23 c-12 -13 -25 -36 -29 -53 -9 -40 -15 -49 -23 -36 -5 8
-14 4 -27 -10 -12 -15 -14 -20 -4 -15 8 4 -2 -8 -23 -28 -29 -26 -37 -40 -32
-55 3 -11 10 -43 14 -70 9 -58 5 -58 -68 4 -43 35 -57 43 -47 26 5 -7 -3 -11
-44 -22 -22 -5 -41 -22 -32 -28 6 -4 -6 -7 -28 -8 -21 -1 -53 -9 -71 -18 -17
-9 -30 -13 -28 -8 2 6 22 49 44 98 l39 87 -54 48 -54 48 64 6 c36 4 72 9 81
12 13 4 79 128 79 149 0 3 -1627 5 -3615 5 l-3615 0 0 -1715z m6406 970 c19
-47 31 -91 28 -99 -5 -13 29 -162 39 -173 3 -2 116 10 252 27 135 17 251 30
257 28 6 -2 -15 -24 -47 -48 -32 -24 -53 -46 -47 -48 6 -2 8 -10 5 -19 -5 -12
-3 -14 8 -8 11 7 11 5 -1 -10 -12 -15 -12 -17 -1 -10 11 6 13 1 9 -31 -7 -51
-55 -124 -82 -124 -25 -1 -59 -27 -69 -54 -4 -10 -13 -16 -21 -13 -7 3 -13 -1
-12 -8 1 -16 -113 -107 -125 -99 -15 9 -11 -19 27 -178 20 -84 40 -169 45
-188 4 -19 7 -36 5 -37 -3 -4 -101 70 -226 170 -99 80 -109 87 -93 66 11 -13
10 -19 -6 -33 -11 -10 -25 -15 -32 -10 -7 4 -10 3 -7 -2 3 -5 -6 -18 -21 -29
-25 -18 -26 -18 -11 0 15 19 14 19 -16 0 -60 -39 -76 -54 -70 -64 4 -5 1 -13
-5 -17 -8 -4 -9 -3 -5 4 4 7 2 12 -3 12 -6 0 -11 -7 -11 -16 0 -8 -4 -13 -9
-10 -5 3 -25 -1 -45 -9 -29 -12 -45 -13 -76 -5 -22 6 -40 15 -40 21 0 6 -4 8
-9 5 -5 -4 -11 -2 -13 4 -1 5 -34 -13 -71 -41 -38 -28 -71 -48 -73 -46 -3 2
41 105 97 228 55 123 105 234 109 246 8 19 -4 31 -98 107 -129 103 -179 145
-172 146 3 0 93 11 200 25 107 14 198 25 201 25 4 0 48 92 99 205 51 113 95
203 98 200 3 -3 20 -44 38 -90z m1407 -140 c9 -27 23 -81 31 -119 9 -38 18
-72 21 -74 8 -9 160 6 345 33 l35 5 -41 -37 c-36 -34 -40 -41 -32 -65 7 -19 5
-35 -6 -56 -8 -16 -13 -32 -10 -35 3 -3 -4 -11 -16 -17 -18 -10 -21 -9 -15 1
6 8 4 10 -6 4 -27 -17 -59 -49 -59 -59 -1 -13 -91 -82 -102 -78 -13 4 -9 -20
22 -153 17 -70 29 -130 26 -132 -5 -5 -78 49 -171 126 -46 38 -50 40 -57 21
-4 -11 -14 -20 -23 -20 -8 0 -15 -4 -15 -10 0 -5 -7 -6 -17 -3 -11 4 -14 3 -9
-5 4 -7 2 -10 -6 -7 -17 6 -61 -31 -53 -45 3 -5 5 -10 3 -11 -54 -9 -121 -9
-133 1 -16 13 -23 10 -78 -33 -21 -16 -40 -27 -42 -25 -3 3 31 83 74 179 l80
174 -28 25 c-15 14 -61 52 -102 85 -67 54 -72 60 -49 64 14 2 81 11 149 20
l125 16 65 148 c36 81 68 144 72 140 3 -5 13 -30 22 -58z m-7151 -525 c35 -11
90 -38 121 -60 64 -46 64 -53 -1 -102 -39 -31 -76 -35 -176 -18 -74 12 -176
-7 -233 -43 -45 -28 -95 -83 -119 -130 -43 -82 -47 -120 -53 -504 l-6 -371
-25 -27 c-31 -34 -109 -80 -118 -70 -4 4 -7 210 -7 458 0 501 2 517 67 639 36
67 121 150 195 190 108 59 241 73 355 38z m2884 9 c77 -14 186 -65 252 -119
48 -38 64 -69 33 -62 -7 1 -10 -2 -7 -7 4 -5 -6 -19 -21 -31 -33 -26 -74 -24
-193 10 -212 60 -428 -2 -557 -159 -85 -103 -129 -227 -154 -430 -14 -122 -31
-147 -100 -156 -23 -3 -30 1 -34 18 -29 116 -27 292 4 410 54 206 204 393 387
479 113 53 261 71 390 47z m-2821 -465 c17 -13 20 -26 19 -85 -1 -61 -5 -76
-34 -117 -62 -91 -170 -148 -208 -110 -7 7 -12 44 -12 95 l0 82 40 11 c39 11
70 41 70 70 0 26 16 41 56 55 48 17 45 17 69 -1z m5448 -181 c14 -17 12 -22
-34 -67 -28 -28 -53 -62 -56 -78 -3 -15 -9 -28 -14 -28 -18 0 -39 47 -39 88 0
35 6 49 29 73 35 34 88 40 114 12z m1452 2 c18 -15 17 -17 -33 -68 -38 -38
-52 -61 -54 -84 -3 -40 -10 -41 -37 -7 -33 41 -29 108 8 145 33 33 82 39 116
14z m-3811 -18 c14 -14 29 -48 37 -80 10 -48 10 -69 -4 -139 -21 -106 -65
-189 -137 -259 -65 -63 -126 -95 -209 -111 -147 -27 -311 45 -327 144 -5 29
-1 41 26 72 33 37 33 37 54 18 60 -55 151 -74 238 -48 71 20 139 84 176 164
23 49 27 70 27 153 0 83 2 96 16 94 9 -2 22 1 30 6 24 15 49 10 73 -14z
m-2201 2 c21 -5 53 -24 73 -41 36 -31 80 -105 70 -116 -3 -3 -6 0 -6 7 0 7 -5
9 -12 5 -6 -4 -8 -3 -5 2 8 14 -23 31 -53 29 -86 -6 -190 -30 -228 -52 -78
-45 -142 -184 -142 -309 0 -32 -4 -65 -9 -73 -12 -19 -26 115 -26 254 0 127
17 176 80 238 61 60 165 82 258 56z m-413 -64 c0 -50 -2 -55 -17 -46 -22 12
-46 0 -94 -46 l-36 -34 -17 41 c-16 40 -22 121 -9 133 3 4 44 7 90 7 l83 0 0
-55z m860 15 c0 -28 -4 -40 -15 -40 -20 0 -54 -38 -75 -85 -15 -34 -17 -49 -8
-96 8 -50 7 -67 -15 -135 -14 -44 -31 -102 -39 -131 -10 -41 -16 -50 -27 -44
-19 12 -29 140 -30 379 l-1 192 105 0 105 0 0 -40z m278 -39 c-47 -49 -91
-109 -116 -158 -23 -43 -48 -86 -56 -95 -17 -23 -76 -25 -76 -3 0 8 36 87 80
175 l80 160 81 0 81 0 -74 -79z m5012 47 c0 -23 -10 -42 -30 -62 -34 -33 -48
-87 -32 -128 13 -34 4 -69 -42 -171 -32 -70 -56 -95 -77 -81 -5 3 -9 110 -9
240 l0 234 95 0 95 0 0 -32z m-6281 -239 c14 -86 14 -252 0 -304 -10 -38 -53
-95 -71 -95 -4 0 -8 93 -8 206 0 199 1 207 23 233 12 15 27 28 33 28 7 0 17
-31 23 -68z m3285 65 c13 -5 16 -22 17 -83 0 -63 2 -73 12 -57 7 11 29 39 50
62 116 129 330 103 409 -50 23 -45 37 -146 20 -146 -12 0 -42 40 -46 62 -16
79 -48 99 -156 94 -72 -3 -95 -8 -147 -35 -70 -35 -101 -38 -164 -16 -53 19
-91 9 -150 -41 -22 -19 -45 -34 -50 -34 -21 0 -41 51 -36 91 13 100 152 187
241 153z m960 -28 c70 -41 135 -142 124 -193 -3 -12 -9 -4 -17 21 -8 22 -22
49 -32 60 -11 11 -19 23 -19 27 0 3 -12 5 -27 3 -16 -2 -65 -5 -111 -8 -100
-5 -145 -26 -189 -87 -68 -93 -71 -96 -100 -95 -27 1 -28 3 -27 51 2 90 70
190 159 232 69 33 172 29 239 -11z m523 9 c51 -26 91 -72 112 -128 21 -54 13
-61 -26 -24 -45 45 -75 52 -153 36 -77 -15 -132 -54 -168 -120 -69 -130 -97
-129 -90 3 5 93 25 143 80 195 70 67 158 81 245 38z m1138 -3 c52 -26 89 -66
114 -122 21 -46 30 -119 11 -90 -5 8 -10 12 -10 8 0 -3 -19 12 -42 34 -62 57
-90 69 -167 70 -57 0 -79 -5 -146 -36 -71 -33 -86 -36 -151 -34 -93 4 -115
-11 -170 -118 -48 -91 -87 -124 -145 -124 -35 0 -39 3 -39 25 0 18 5 25 19 25
11 0 32 10 46 23 23 19 27 33 35 115 10 110 31 156 88 196 32 23 54 30 111 34
l71 5 1 -74 c0 -73 0 -74 17 -49 39 57 80 95 127 117 42 20 62 23 120 20 45
-2 85 -11 110 -25z m1100 4 c54 -25 104 -74 135 -135 23 -47 36 -116 22 -125
-19 -12 -75 38 -89 81 -19 57 -51 76 -132 76 -86 0 -128 -19 -193 -87 -29 -30
-65 -60 -80 -65 -25 -9 -28 -8 -34 14 -9 38 23 119 69 171 80 91 198 119 302
70z m510 5 c22 -10 46 -25 53 -33 19 -24 -34 -63 -121 -90 -62 -18 -81 -31
-145 -90 -40 -38 -78 -68 -85 -65 -8 3 -12 25 -11 63 2 165 167 280 309 215z
m-2446 -32 c9 -25 6 -45 -20 -122 -33 -98 -32 -127 3 -164 25 -27 40 -29 73
-7 l25 16 0 -52 c0 -46 -2 -51 -17 -45 -10 4 -38 11 -63 15 -52 8 -102 29 -95
41 3 4 1 10 -5 14 -6 4 -10 70 -10 171 l0 164 49 0 c46 0 50 -2 60 -31z m1301
-14 c0 -51 -10 -56 -39 -19 -31 40 -28 64 9 64 29 0 30 -2 30 -45z m165 29
c14 -9 34 -14 45 -11 19 5 20 0 20 -105 l0 -110 -26 17 c-14 9 -39 15 -57 13
-27 -2 -38 4 -70 38 -35 39 -37 45 -37 108 l0 66 50 0 c30 0 61 -7 75 -16z
m-5545 -46 c-1 -34 -3 -39 -11 -26 -8 15 -3 68 7 68 2 0 4 -19 4 -42z m-419
-129 c17 -33 8 -165 -14 -186 -13 -14 -21 -15 -35 -7 -13 9 -18 28 -20 86 -1
41 2 87 7 101 13 33 46 36 62 6z m5923 -82 c14 -38 -27 -120 -61 -125 -22 -3
-23 0 -23 58 0 52 4 65 23 81 29 25 49 20 61 -14z m542 -35 c-7 -43 -55 -95
-101 -109 -27 -9 -41 -8 -67 6 -49 24 -44 47 11 43 49 -4 86 21 96 67 5 23 11
27 36 27 30 0 31 -1 25 -34z m-3362 22 c40 -15 -2 -163 -46 -164 -5 0 -8 38
-8 85 0 77 2 85 19 85 11 0 26 -3 35 -6z m2235 -23 c25 -25 17 -65 -18 -92
l-26 -21 -3 52 c-5 81 9 99 47 61z m-1661 -20 c6 -38 -6 -67 -33 -79 l-25 -12
0 61 c0 60 0 60 28 57 20 -2 28 -9 30 -27z m-668 -56 c0 -33 -2 -35 -20 -25
-11 6 -20 15 -20 20 0 4 -3 15 -6 24 -5 12 0 16 20 16 23 0 26 -4 26 -35z
m2790 9 c0 -8 -4 -12 -10 -9 -5 3 -10 10 -10 16 0 5 5 9 10 9 6 0 10 -7 10
-16z m-2220 -19 c0 -29 0 -29 -35 -13 -35 16 -32 38 5 38 25 0 30 -4 30 -25z
m1672 0 c-2 -14 -7 -25 -11 -25 -12 1 -56 29 -46 30 6 0 3 5 -5 10 -11 7 -4
10 26 10 39 0 41 -2 36 -25z m-2192 -214 c0 -46 -45 -96 -115 -129 -86 -41
-85 -42 -85 33 0 60 2 66 18 60 63 -28 118 -11 147 45 18 36 35 31 35 -9z"/>
<path d="M6762 2393 c-6 -2 -9 -9 -6 -14 3 -6 0 -18 -8 -27 -14 -19 -12 -17
46 26 28 22 28 22 5 21 -13 0 -30 -3 -37 -6z"/>
<path d="M6440 2380 c0 -5 5 -10 11 -10 5 0 7 5 4 10 -3 6 -8 10 -11 10 -2 0
-4 -4 -4 -10z"/>
<path d="M6608 2373 c6 -2 18 -2 25 0 6 3 1 5 -13 5 -14 0 -19 -2 -12 -5z"/>
<path d="M6543 2363 c9 -2 25 -2 35 0 9 3 1 5 -18 5 -19 0 -27 -2 -17 -5z"/>
<path d="M5965 2300 c-13 -6 14 -7 70 -3 50 3 92 7 94 9 9 8 -145 2 -164 -6z"/>
<path d="M5888 2278 c6 -7 25 -22 44 -32 33 -19 33 -19 17 0 -9 10 -14 25 -12
32 3 8 -6 12 -27 12 -25 0 -30 -3 -22 -12z"/>
<path d="M6595 2209 c-10 -15 1 -23 20 -15 9 3 13 10 10 16 -8 13 -22 13 -30
-1z"/>
<path d="M6473 2128 c4 -12 -4 -21 -29 -33 -19 -9 -34 -20 -34 -26 0 -6 -5 -7
-11 -3 -13 8 -1 -16 53 -103 34 -56 39 -80 12 -53 -7 7 -17 4 -30 -9 -16 -14
-25 -16 -40 -8 -10 5 -17 7 -14 4 15 -16 195 -156 198 -153 6 6 -90 381 -101
391 -7 7 -8 5 -4 -7z"/>
<path d="M6113 2118 c-15 -24 -174 -381 -170 -384 1 -2 73 51 160 117 160 122
170 134 151 183 -5 12 -10 13 -26 5 -11 -6 -33 -9 -49 -7 -16 3 -29 1 -29 -2
0 -4 -12 -5 -26 -2 -14 2 -23 10 -20 16 2 6 11 28 20 49 15 34 7 53 -11 25z"/>
<path d="M7461 2237 c2 -1 13 -9 24 -17 19 -14 19 -14 6 3 -7 9 -18 17 -24 17
-6 0 -8 -1 -6 -3z"/>
<path d="M7950 2189 c0 -5 5 -7 10 -4 6 3 10 8 10 11 0 2 -4 4 -10 4 -5 0 -10
-5 -10 -11z"/>
<path d="M7590 2096 c-11 -27 -18 -51 -15 -56 2 -4 -16 -43 -40 -86 -25 -43
-45 -82 -45 -87 0 -9 22 7 147 103 56 43 72 61 72 81 1 25 0 26 -51 21 -32 -2
-58 -11 -65 -20 -19 -24 -16 -6 8 39 11 23 18 43 15 46 -3 3 -15 -15 -26 -41z"/>
<path d="M7847 2117 c-10 -10 -25 -16 -33 -13 -9 4 -1 -19 21 -58 19 -34 35
-65 35 -68 0 -3 -11 -5 -24 -4 -14 0 -26 -3 -28 -7 -3 -9 114 -108 120 -102 4
4 -58 246 -66 260 -5 7 -13 5 -25 -8z"/>
<path d="M7276 3172 c-4 -7 -12 -10 -17 -6 -5 3 -2 -11 8 -31 13 -28 14 -38 5
-44 -8 -5 -3 -16 18 -36 16 -16 31 -27 33 -24 2 2 -6 37 -18 78 -13 44 -25 70
-29 63z"/>
<path d="M7170 3143 c-8 -2 -25 -22 -38 -44 -20 -35 -21 -39 -5 -30 60 33 89
84 43 74z"/>
</g>
</svg>
